<?xml version="1.0" standalone="no"?>
<!DOCTYPE svg PUBLIC "-//W3C//DTD SVG 20010904//EN"
 "http://www.w3.org/TR/2001/REC-SVG-20010904/DTD/svg10.dtd">
<svg version="1.0" xmlns="http://www.w3.org/2000/svg"
 width="1381.000000pt" height="1381.000000pt" viewBox="0 0 1381.000000 1381.000000"
 preserveAspectRatio="xMidYMid meet">

<g transform="translate(0.000000,1381.000000) scale(0.100000,-0.100000)"
fill="#000000" stroke="none">
<path d="M0 11320 l0 -2490 23 0 c13 0 66 9 118 21 52 11 108 23 124 25 17 3
47 10 67 15 20 5 56 12 80 14 113 14 136 18 178 31 25 8 101 19 170 25 180 14
260 25 300 38 19 7 72 16 116 21 45 5 90 13 100 18 11 6 58 16 107 22 48 7 87
16 87 20 0 8 73 17 190 25 36 2 76 7 88 10 30 7 76 13 177 21 155 12 277 27
485 60 185 29 363 75 341 88 -6 4 -16 4 -21 1 -6 -3 -10 -1 -10 4 0 6 8 11 18
12 14 0 14 2 -3 8 -11 5 -20 12 -21 17 -3 36 -20 93 -36 120 -27 45 -26 86 3
123 20 26 29 30 57 27 19 -3 41 -14 51 -24 9 -11 25 -21 36 -23 31 -6 32 -54
2 -74 -14 -9 -27 -25 -30 -36 -6 -22 16 -49 41 -50 12 0 11 -3 -5 -9 -23 -9
-32 -40 -13 -40 6 0 10 7 10 15 0 8 5 15 10 15 6 0 10 -11 10 -25 0 -18 6 -26
23 -29 23 -4 24 -5 159 -6 80 -1 210 14 230 26 4 3 49 9 100 14 51 5 118 14
148 20 30 5 117 12 193 15 76 3 209 16 295 30 86 13 184 26 217 30 66 6 139
22 170 36 11 4 35 10 54 11 37 3 57 28 22 28 -11 0 -23 5 -26 11 -7 11 13 69
24 69 3 0 21 14 40 30 38 34 48 36 77 15 12 -8 24 -12 27 -8 4 3 9 -2 13 -11
3 -9 10 -16 16 -16 5 0 21 -11 36 -25 25 -24 78 -45 112 -45 8 0 21 -9 28 -21
12 -18 10 -26 -12 -60 -16 -24 -37 -41 -54 -45 -53 -12 -96 -27 -129 -46 -66
-39 -505 -82 -703 -68 -36 3 -87 -7 -105 -20 -28 -20 -173 -60 -270 -74 -60
-9 -173 -25 -250 -36 -239 -34 -328 -49 -405 -66 -41 -8 -138 -22 -215 -29
-229 -23 -458 -55 -645 -90 -79 -15 -225 -36 -380 -55 -36 -4 -92 -12 -125
-18 -127 -22 -265 -42 -405 -57 -80 -9 -181 -23 -225 -30 -44 -8 -89 -15 -100
-14 -11 0 -42 -4 -70 -9 -27 -6 -90 -15 -140 -21 -49 -6 -119 -18 -155 -26
-36 -8 -78 -15 -94 -15 -16 0 -43 -4 -60 -10 -17 -5 -84 -15 -149 -21 l-117
-11 0 -4349 0 -4349 6905 0 6905 0 -2 4027 -3 4028 -35 7 c-19 4 -69 14 -110
23 -41 8 -95 18 -120 21 -44 4 -83 12 -280 53 -52 11 -144 29 -205 41 -60 11
-127 25 -148 31 -21 6 -52 12 -69 14 -48 6 -230 45 -258 56 -38 13 -184 39
-280 50 -47 4 -94 13 -105 18 -35 16 -200 55 -340 80 -59 11 -177 33 -370 70
-126 23 -414 89 -427 98 -17 10 -168 43 -266 58 -51 8 -100 18 -110 23 -9 5
-35 12 -57 15 -22 3 -49 8 -60 12 -11 3 -67 15 -125 26 -58 12 -114 25 -125
29 -31 13 -213 55 -320 76 -81 15 -132 26 -215 44 -52 12 -106 24 -120 27 -14
2 -34 8 -45 13 -43 17 -146 40 -251 55 -60 8 -143 24 -184 35 -119 30 -192 41
-309 44 -92 2 -113 6 -139 24 -16 12 -37 22 -46 22 -9 0 -16 6 -16 14 0 14
-34 28 -97 41 -22 4 -40 1 -58 -11 -56 -37 -196 10 -228 77 -9 19 -17 41 -17
47 0 7 -5 12 -10 12 -6 0 -16 5 -23 10 -7 6 -24 19 -39 31 -16 11 -28 26 -28
33 0 7 -12 19 -27 26 l-28 13 30 8 c19 6 31 5 34 -2 2 -6 11 -3 22 7 18 16 55
13 45 -5 -11 -17 24 -20 36 -3 40 53 180 79 243 46 60 -31 188 -44 241 -24 42
16 104 11 140 -10 18 -12 61 -31 96 -43 35 -12 72 -28 83 -34 19 -11 19 -12
-8 -37 -15 -14 -27 -32 -27 -40 0 -19 50 -66 70 -66 8 0 27 -7 42 -14 33 -18
174 -56 243 -66 28 -5 151 -34 275 -65 124 -32 254 -63 290 -70 153 -30 219
-45 241 -55 33 -14 150 -40 229 -50 36 -5 97 -16 135 -25 39 -9 88 -18 110
-21 22 -3 69 -14 105 -24 36 -10 99 -24 140 -30 41 -7 87 -18 101 -26 14 -7
57 -18 95 -24 38 -6 87 -16 109 -22 84 -23 195 -48 295 -67 30 -5 93 -17 140
-26 47 -9 121 -22 165 -30 44 -7 139 -25 210 -40 72 -15 164 -34 205 -42 41
-8 107 -21 145 -29 39 -8 97 -19 130 -24 71 -10 213 -38 420 -81 83 -17 175
-35 205 -41 30 -6 69 -14 85 -18 17 -4 64 -13 105 -19 41 -6 98 -16 125 -22
28 -6 93 -16 145 -24 52 -8 104 -16 115 -19 11 -3 35 -7 53 -10 l32 -5 0 677
0 678 -37 0 c-74 2 -177 15 -189 25 -16 13 -23 -11 -21 -79 1 -62 -20 -98 -76
-125 -31 -15 -43 -17 -71 -7 -46 15 -63 37 -77 99 -8 40 -8 68 1 116 15 80 44
111 120 125 30 6 57 15 60 20 4 6 30 13 59 16 67 7 141 -17 141 -47 0 -18 6
-21 73 -34 16 -3 17 49 17 985 l0 987 -50 7 c-36 5 -60 2 -83 -8 -17 -9 -52
-16 -77 -17 -25 -2 -55 -7 -68 -12 -16 -7 -26 -7 -34 1 -9 9 -5 18 18 39 18
17 31 39 32 56 2 24 -2 27 -27 27 -22 0 -38 10 -63 39 -19 22 -46 43 -62 47
-15 3 -30 13 -33 20 -3 8 -11 13 -18 12 -17 -4 -136 123 -134 142 7 53 -44
119 -92 120 -14 0 -34 9 -44 20 -10 11 -25 19 -34 18 -27 -5 -27 57 0 75 12 9
27 13 34 11 22 -9 33 20 28 74 -6 52 -7 54 -32 47 -77 -19 -88 -18 -95 10 -7
27 -3 52 14 90 24 53 40 136 40 204 1 42 7 112 15 156 10 57 12 90 4 117 -16
63 -70 55 -105 -15 -13 -27 -28 -43 -42 -45 -13 -2 -30 -14 -38 -28 -18 -27
-56 -32 -98 -12 -42 19 -64 0 -97 -80 -16 -41 -29 -80 -29 -88 0 -8 -9 -22
-20 -31 -18 -15 -20 -30 -20 -118 0 -55 -4 -115 -10 -134 -19 -67 -95 -109
-135 -74 -28 25 -65 90 -65 115 0 12 -3 18 -7 14 -4 -4 -13 27 -20 69 -7 41
-27 105 -44 143 -28 60 -30 73 -24 127 4 33 7 78 6 100 0 22 4 54 9 70 5 17
14 77 20 135 32 309 36 331 50 340 22 14 49 12 66 -5 35 -35 111 -2 133 58 6
16 11 62 11 103 0 48 4 73 10 69 6 -3 10 1 10 9 0 8 5 18 11 21 7 5 9 -13 8
-54 -2 -46 2 -65 15 -80 23 -26 91 -37 122 -21 44 24 84 87 95 148 5 31 13 72
16 90 l6 32 -351 0 -350 0 -4 -25 c-3 -14 -3 -52 -1 -85 3 -33 0 -66 -5 -73
-6 -6 -18 -38 -27 -69 -9 -32 -20 -58 -24 -58 -4 0 -22 7 -40 16 -51 25 -74
13 -100 -53 -49 -126 -110 -212 -151 -213 -19 0 -60 -63 -60 -93 0 -13 -4 -27
-10 -33 -5 -5 -6 -22 -2 -39 8 -28 12 -30 68 -35 58 -6 60 -5 112 37 29 24 56
43 60 43 15 0 62 88 62 116 0 16 9 40 19 54 17 21 21 22 36 10 21 -18 36 -46
41 -79 11 -76 21 -428 13 -444 -6 -10 -7 -58 -3 -116 4 -67 3 -110 -5 -132
-16 -45 -61 -311 -61 -357 0 -20 13 -64 29 -98 l28 -60 -23 -42 c-13 -24 -24
-52 -24 -63 0 -11 -7 -34 -16 -51 -9 -18 -14 -42 -10 -59 8 -42 -19 -65 -89
-77 -33 -6 -72 -9 -87 -7 -40 5 -117 46 -123 65 -3 9 -19 26 -35 38 -17 13
-30 32 -30 43 0 17 -5 20 -21 16 -25 -7 -85 21 -112 51 -23 25 -23 55 -4 162
9 47 15 101 14 120 -5 113 3 168 28 198 31 37 32 71 3 107 -23 30 -23 21 -9
247 9 132 14 163 34 200 30 56 27 106 -7 133 -14 11 -29 31 -35 45 -9 24 -10
24 -10 3 -1 -12 -5 -25 -11 -28 -17 -10 -30 -79 -35 -191 -3 -60 -8 -122 -10
-139 -2 -16 -9 -67 -15 -113 -6 -46 -12 -113 -13 -150 l-2 -67 -50 1 c-27 1
-77 6 -109 10 -52 8 -57 11 -43 23 10 7 17 19 17 26 0 6 8 19 18 28 17 15 21
17 42 17 18 0 10 22 -10 27 -21 6 -27 28 -10 38 6 3 7 43 4 98 -5 70 -2 108
11 157 13 50 16 96 13 195 l-3 130 31 3 c27 3 98 -11 175 -34 12 -3 17 2 17
18 0 13 8 50 17 83 9 33 18 96 20 140 4 94 21 282 31 343 l7 42 -340 0 -340 0
-6 -171 c-3 -94 -11 -177 -17 -184 -12 -15 -16 -81 -5 -114 7 -24 7 -24 -46
-17 -30 3 -72 8 -93 11 -59 7 -76 15 -76 33 0 10 9 23 20 29 18 12 19 27 22
195 2 101 7 191 12 201 8 16 -2 17 -133 17 l-141 0 0 -37 c-1 -128 -14 -274
-27 -310 -8 -23 -12 -47 -8 -53 4 -6 1 -18 -6 -26 -6 -8 -10 -16 -8 -17 2 -2
17 -13 32 -24 22 -17 34 -20 57 -13 18 5 32 5 35 -1 4 -5 17 -9 30 -9 14 0 29
-8 35 -19 8 -16 6 -21 -10 -26 -14 -4 -20 -16 -21 -38 -1 -18 -2 -36 -4 -42
-1 -5 -3 -30 -4 -55 -3 -43 -3 -44 -14 -19 -7 14 -18 24 -24 22 -8 -3 -13 6
-14 24 l0 28 -12 -25 c-10 -23 -11 -21 -17 30 -4 30 -8 46 -9 35 -2 -20 -2
-20 -16 -1 -15 19 -15 19 -15 -5 0 -13 -5 -31 -10 -39 -7 -12 -10 -8 -10 15 0
22 -3 26 -12 17 -7 -7 -12 -61 -14 -149 -1 -76 -6 -180 -9 -232 -6 -84 -10
-98 -40 -140 -43 -61 -47 -78 -36 -148 12 -78 6 -103 -34 -133 -63 -46 -66
-76 -67 -531 0 -19 12 -58 27 -86 l27 -52 -5 -258 c-5 -252 -16 -386 -32 -413
-4 -7 -12 -53 -16 -102 -6 -66 -14 -96 -29 -115 -32 -41 -90 -72 -135 -73 -38
0 -86 -19 -150 -58 -17 -11 -52 -21 -78 -24 -29 -3 -63 -17 -87 -33 -37 -26
-44 -27 -79 -17 -35 11 -93 10 -206 -4 -32 -4 -53 -16 -102 -63 -53 -50 -69
-59 -111 -65 -26 -3 -86 -19 -133 -36 -61 -21 -105 -29 -164 -31 -76 -2 -83
-4 -132 -41 -60 -44 -87 -47 -126 -15 -37 29 -45 86 -24 153 14 43 19 101 30
364 2 59 -11 118 -33 140 -25 25 -25 40 0 47 12 3 19 8 18 12 -14 27 -51 81
-57 81 -13 0 -31 -66 -31 -111 0 -26 -12 -74 -30 -118 -32 -79 -32 -85 3 -158
13 -28 2 -273 -16 -363 -8 -36 -21 -80 -31 -98 -16 -31 -16 -37 -2 -87 19 -62
20 -99 5 -127 -6 -11 -13 -32 -15 -46 -3 -15 -12 -31 -21 -36 -12 -6 -3 -13
38 -27 29 -11 65 -19 80 -19 14 0 41 -5 58 -11 29 -10 32 -15 26 -38 -9 -36
-34 -61 -61 -61 -13 0 -26 -4 -29 -10 -3 -5 -14 -10 -24 -10 -10 0 -23 -6 -29
-13 -8 -9 -29 -12 -70 -9 -57 4 -122 -15 -122 -37 0 -27 69 -45 163 -44 36 1
62 -4 71 -12 17 -18 9 -66 -10 -58 -21 8 -17 -11 6 -32 29 -26 25 -35 -15 -35
-27 0 -35 -4 -35 -17 0 -24 -76 -102 -106 -109 -60 -15 -169 17 -207 60 -13
14 -20 17 -23 9 -3 -7 -28 -30 -55 -52 -46 -37 -51 -38 -82 -28 -17 7 -42 22
-54 34 -12 12 -31 28 -42 35 -12 8 -22 29 -24 49 -3 31 1 38 35 64 21 16 38
32 38 37 0 17 109 -1 162 -27 25 -13 28 -11 52 20 14 19 26 38 26 44 0 5 9 13
20 16 26 8 25 21 -1 35 -47 26 -61 51 -67 116 -5 61 -4 64 29 97 28 28 44 35
93 41 43 5 66 2 89 -9 43 -22 54 -19 28 8 -13 15 -19 30 -15 41 4 11 -1 25
-16 38 -28 26 -21 71 15 100 14 11 32 32 40 48 13 24 13 30 0 40 -8 6 -17 22
-21 33 -4 12 -18 37 -32 55 -13 17 -20 32 -16 32 5 0 2 5 -6 10 -8 5 -15 13
-16 17 -9 64 -34 106 -34 57 0 -15 -7 -52 -16 -83 -21 -75 -30 -112 -46 -201
-12 -69 -15 -75 -38 -77 -14 -1 -37 -5 -53 -9 -17 -4 -33 -1 -43 7 -28 23 -57
93 -59 144 -1 27 -7 67 -14 89 -8 21 -11 58 -8 81 4 38 2 44 -17 49 -40 11
-105 6 -139 -10 -34 -16 -34 -17 -16 -35 21 -21 25 -54 9 -64 -6 -3 -7 -17 -4
-29 4 -18 1 -25 -17 -29 -13 -4 -20 -9 -16 -13 4 -4 -11 -16 -33 -26 -22 -10
-41 -22 -41 -26 -9 -58 -7 -76 11 -99 35 -45 23 -101 -30 -128 -45 -23 -78
-19 -112 15 -26 26 -30 36 -25 65 8 50 -11 61 -67 40 l-45 -17 21 -29 c12 -16
19 -31 16 -34 -3 -3 -26 -6 -51 -7 -33 -2 -43 -6 -37 -14 6 -6 7 -13 5 -16 -3
-3 3 -8 15 -11 12 -3 24 1 30 11 9 16 9 16 10 0 0 -9 -11 -28 -24 -42 -30 -34
-70 -34 -92 -1 -14 22 -15 27 0 56 9 18 15 33 14 34 -18 11 -77 29 -90 27 -19
-3 -25 22 -8 33 6 4 8 10 5 15 -7 11 15 26 50 34 22 5 26 4 15 -4 -13 -8 -12
-10 5 -11 11 0 14 -3 7 -6 -7 -2 -17 -14 -23 -25 -11 -20 -10 -20 12 -4 13 9
32 16 42 16 9 0 20 7 23 15 4 10 21 15 53 15 58 0 68 7 69 47 1 35 25 88 44
97 10 5 10 7 1 12 -7 3 -13 12 -13 20 0 9 5 12 10 9 7 -4 9 2 4 19 -3 15 -2
32 4 39 6 6 13 29 17 50 6 31 10 35 21 26 23 -19 28 -3 6 19 -19 19 -20 21 -2
103 10 46 22 99 28 117 9 28 8 34 -6 38 -63 20 -82 39 -166 168 -28 44 -63 98
-78 120 -14 23 -27 54 -27 69 -1 32 36 71 77 82 86 21 122 83 61 104 -44 15
-101 14 -134 -3 -32 -17 -65 -67 -65 -100 0 -33 -37 -76 -65 -76 -29 0 -64 29
-66 55 -5 55 1 76 27 85 19 8 24 15 19 29 -4 14 0 23 14 31 13 7 18 16 14 27
-4 11 -3 14 5 9 14 -8 27 36 18 60 -4 11 -13 13 -27 9 -21 -7 -21 -5 -16 46
12 109 38 205 76 279 144 280 187 341 326 462 58 50 81 65 83 54 5 -26 17 -19
42 26 27 48 35 138 13 138 -7 0 -13 -8 -14 -17 0 -14 -2 -15 -6 -3 -3 8 -28
38 -54 67 -27 28 -49 57 -49 63 0 6 -19 19 -43 29 -24 10 -48 30 -57 46 -8 15
-32 36 -55 47 -22 12 -54 32 -71 45 -43 32 -86 44 -170 48 -71 3 -71 3 -167
74 -104 78 -108 84 -127 206 -40 256 -94 345 -230 374 -75 16 -185 5 -231 -25
-69 -43 -129 -139 -129 -207 0 -38 -18 -140 -33 -187 -6 -19 -11 -69 -12 -110
-1 -82 -31 -198 -60 -230 -23 -25 -15 -49 8 -25 17 17 18 16 11 -11 -4 -16
-19 -45 -34 -64 -28 -36 -50 -74 -50 -85 0 -4 16 -4 36 -1 55 11 91 -1 113
-37 29 -48 35 -97 17 -132 -9 -17 -16 -36 -16 -42 0 -20 -27 -15 -60 8 -16 12
-48 23 -75 25 -26 3 -54 8 -63 13 -58 31 -121 6 -178 -70 -89 -118 -107 -174
-94 -290 5 -41 6 -76 4 -78 -2 -2 2 -11 10 -20 24 -27 31 -70 12 -77 -9 -3
-16 -12 -16 -19 0 -9 14 -11 50 -7 28 2 50 0 50 -5 0 -14 -27 -48 -39 -49 -6
-1 -15 -2 -21 -3 -5 0 -10 -7 -10 -13 -1 -17 -35 -58 -49 -58 -6 0 -11 12 -11
27 0 21 -3 24 -12 15 -9 -9 -8 -34 2 -109 8 -54 15 -145 16 -203 0 -58 2 -112
3 -121 0 -8 19 -40 41 -69 44 -59 50 -98 26 -153 -7 -18 -24 -59 -37 -92 -16
-37 -33 -64 -47 -70 -22 -10 -30 -25 -13 -25 4 0 14 -20 21 -45 11 -40 10 -55
-8 -123 -11 -42 -23 -93 -26 -113 -4 -21 -13 -43 -22 -50 -13 -11 -14 -9 -9
14 5 17 3 27 -4 27 -6 0 -11 -4 -11 -10 0 -13 -56 -2 -102 20 -36 17 -39 17
-70 0 -128 -71 -131 -72 -219 -76 -76 -3 -88 -1 -104 16 -19 21 -60 27 -70 11
-3 -5 -28 -17 -55 -26 -27 -9 -53 -21 -56 -27 -10 -16 25 -38 57 -38 30 0 79
-19 79 -30 0 -4 9 -10 20 -13 22 -6 28 -50 10 -77 -7 -11 -10 -6 -10 22 0 20
-4 40 -10 43 -5 3 -10 -2 -10 -12 0 -18 -8 -20 -97 -23 -23 0 -36 -21 -27 -45
4 -9 0 -15 -10 -15 -43 0 10 -92 59 -104 32 -8 88 17 109 49 9 13 24 26 35 30
11 3 18 12 15 19 -5 14 23 26 63 26 12 0 31 10 43 22 27 30 28 0 0 -35 -25
-32 -25 -39 1 -55 17 -11 20 -20 16 -48 -8 -49 8 -87 47 -108 52 -28 58 -106
8 -106 -8 0 -29 -11 -47 -24 -26 -20 -39 -24 -73 -19 -23 3 -42 10 -42 15 0 5
-5 6 -11 3 -18 -12 -56 4 -62 24 -6 26 -68 51 -126 51 -25 0 -89 14 -141 30
-71 22 -115 30 -172 30 l-77 0 -28 -42 c-52 -78 -125 -87 -169 -21 -17 26 -20
42 -16 90 3 32 8 59 12 61 4 1 5 14 2 27 -6 34 18 33 60 -4 58 -49 108 -67
108 -36 0 23 41 55 71 55 16 0 38 4 51 9 60 24 135 41 177 41 40 1 44 2 29 14
-25 19 -22 23 11 18 34 -5 40 9 36 83 -4 63 -3 61 -16 48 -6 -6 -17 -9 -24 -7
-15 6 -45 -33 -45 -58 0 -29 -18 -20 -25 12 -5 21 -12 30 -27 30 -12 0 -26 7
-33 16 -20 28 -52 2 -59 -50 -6 -41 -11 -47 -53 -67 -46 -22 -46 -22 -82 -3
-24 13 -38 29 -43 52 -8 30 -12 33 -38 27 -33 -7 -84 15 -103 45 -6 11 -17 20
-22 20 -14 0 -45 52 -46 77 -1 29 -43 97 -62 101 -12 3 -17 -3 -17 -21 l0 -25
-57 28 c-95 46 -192 90 -200 90 -14 0 -105 94 -114 117 -4 12 -9 77 -10 143
-3 144 3 156 79 153 l47 -1 -58 52 c-67 60 -78 95 -53 166 9 25 16 62 16 83 0
20 5 37 10 37 6 0 10 6 10 14 0 8 9 18 20 21 11 3 20 11 20 16 0 5 13 9 29 9
35 0 81 -49 81 -86 0 -52 16 -64 80 -64 54 0 64 -4 97 -33 21 -18 56 -44 77
-57 21 -13 54 -39 72 -59 30 -33 33 -42 33 -96 0 -105 -13 -156 -45 -182 -34
-27 -95 -30 -134 -8 -40 23 -59 17 -21 -6 19 -12 47 -34 62 -50 15 -16 34 -29
42 -29 8 0 20 -13 25 -30 10 -29 12 -29 39 -15 15 8 40 15 54 15 15 0 32 7 39
14 6 8 27 20 46 26 42 14 44 38 9 84 -14 18 -25 42 -25 54 0 11 -12 29 -27 40
l-28 20 31 39 c33 41 43 107 25 157 -10 24 -11 25 -41 9 -29 -14 -33 -14 -50
4 -10 11 -40 25 -66 32 -27 7 -55 15 -62 17 -22 7 -52 86 -52 142 0 46 4 56
34 85 45 43 43 79 -4 88 -50 11 -72 38 -72 92 0 26 3 50 6 55 10 17 -13 35
-60 47 -65 17 -74 9 -62 -58 11 -62 52 -121 78 -114 10 3 29 -6 44 -20 23 -21
25 -29 20 -66 -8 -52 -12 -57 -28 -35 -8 11 -17 14 -27 7 -23 -15 -34 -11 -79
31 -41 38 -43 39 -71 25 -41 -22 -51 -19 -99 25 l-42 39 4 63 c3 35 1 91 -5
126 -9 55 -8 65 8 82 11 12 31 20 52 20 39 0 42 15 13 53 -11 14 -20 32 -20
40 0 7 -9 22 -19 31 -41 37 -34 198 10 209 30 8 19 87 -19 133 l-31 37 22 18
22 17 -28 11 c-16 6 -47 11 -70 11 -23 0 -51 3 -62 6 -27 8 -64 67 -71 115 -4
21 -12 39 -18 39 -22 0 -37 -17 -30 -33 8 -23 -9 -22 -29 1 -22 24 -23 72 -2
72 8 0 15 -4 15 -10 0 -5 5 -10 10 -10 6 0 10 8 10 17 0 13 3 14 12 5 23 -23
29 -12 28 51 -1 34 4 84 10 110 11 46 10 117 -4 182 -11 53 -14 180 -4 192 15
19 14 183 -1 192 -21 14 -20 158 3 203 14 30 17 49 11 98 l-7 60 -403 0 -403
0 -7 -107 c-17 -242 -18 -254 -39 -286 -10 -15 -22 -27 -26 -27 -8 0 -74 65
-110 108 -43 49 -67 88 -63 100 3 6 0 12 -6 12 -17 0 -28 61 -26 133 3 59 1
68 -13 65 -10 -2 -18 -12 -20 -23 -5 -32 -36 -67 -53 -60 -9 3 -29 24 -45 45
l-29 40 -102 0 c-101 0 -118 -5 -88 -30 10 -9 13 -25 9 -63 -3 -29 -7 -108 -9
-177 -3 -117 -8 -143 -38 -212 -10 -23 -14 -25 -33 -15 -36 19 -275 239 -306
281 -15 21 -28 51 -28 66 0 31 48 111 81 134 22 15 20 16 -64 16 -97 0 -99 -2
-76 -69 13 -37 6 -50 -16 -31 -13 11 -13 15 -3 21 9 6 6 9 -9 9 -13 0 -40 16
-62 35 l-38 35 -982 0 -981 0 0 -2490z m1849 2318 c26 -24 47 -55 51 -74 12
-53 2 -126 -21 -158 -15 -19 -24 -53 -30 -102 -4 -41 -11 -79 -14 -84 -3 -5
-1 -19 5 -30 8 -15 8 -20 -2 -20 -8 -1 -6 -6 6 -15 10 -7 15 -18 12 -24 -4 -6
4 -22 16 -36 13 -15 23 -35 24 -44 1 -10 4 -23 7 -28 4 -6 -4 -15 -17 -21 -19
-8 -31 -6 -67 15 -24 13 -48 31 -52 39 -4 8 -13 14 -20 14 -16 1 -52 31 -66
57 -13 25 -15 57 -3 49 5 -3 6 9 4 26 -5 35 13 32 29 -6 8 -17 9 -15 6 14 -3
21 1 40 10 49 10 10 11 16 3 21 -6 3 -13 31 -17 61 -3 30 -13 68 -23 84 -28
48 -12 214 21 222 11 3 19 12 19 19 0 10 12 14 38 14 30 0 46 -9 81 -42z
m1568 15 c-3 -3 -11 -2 -17 2 -9 6 -9 10 1 16 14 8 27 -7 16 -18z m63 -38 c0
-9 -9 -15 -21 -15 -16 0 -20 -5 -16 -20 3 -11 1 -23 -4 -26 -12 -7 -41 15 -34
26 3 5 1 11 -5 15 -20 12 -10 27 14 21 14 -3 28 -2 31 4 10 15 35 12 35 -5z
m-3 -57 c-3 -8 -6 -5 -6 6 -1 11 2 17 5 13 3 -3 4 -12 1 -19z m-594 -94 c26
-25 26 -28 20 -127 -3 -56 -10 -110 -14 -119 -5 -9 -9 -32 -9 -50 0 -19 -7
-44 -16 -56 -12 -18 -13 -26 -4 -37 7 -9 9 -22 5 -32 -5 -10 -8 -20 -7 -23 0
-3 -10 -10 -23 -16 -21 -10 -27 -8 -54 22 -17 18 -31 38 -31 43 0 6 -8 16 -17
23 -14 10 -17 22 -12 58 3 25 7 39 7 33 4 -31 21 -9 27 35 15 108 38 197 52
208 10 7 14 18 10 28 -16 42 28 49 66 10z m3973 -79 c33 -50 -10 -121 -65
-108 -61 14 -76 54 -40 104 27 39 81 41 105 4z m-3726 -191 c0 -6 6 -16 13
-22 8 -7 12 -51 12 -154 0 -137 -1 -143 -20 -139 -19 3 -19 2 -2 -16 35 -39 8
-92 -43 -85 -27 4 -120 70 -120 86 0 5 -14 21 -31 36 -29 24 -31 28 -21 62 7
25 7 39 -1 47 -8 8 -8 11 1 11 6 0 16 -8 21 -17 9 -15 11 -13 17 15 3 17 11
32 17 32 6 0 8 19 4 50 -3 27 -2 52 4 55 5 4 9 19 9 35 0 15 6 30 14 33 8 3
12 15 9 30 -8 42 26 39 75 -7 23 -22 42 -45 42 -52z m-751 -16 c7 2 15 -5 18
-17 3 -12 11 -21 18 -21 7 0 15 -7 19 -15 3 -8 11 -15 18 -15 7 0 26 -14 42
-30 16 -17 33 -30 38 -30 4 0 8 -9 8 -20 0 -11 5 -20 11 -20 7 0 9 -12 4 -36
-5 -28 -3 -34 7 -29 7 3 6 1 -3 -7 -16 -13 -18 -17 -26 -49 -3 -9 -24 -25 -48
-37 -41 -20 -45 -20 -61 -5 -20 21 -50 5 -47 -25 1 -11 -4 -26 -12 -32 -8 -7
-15 -19 -15 -27 0 -9 -6 -13 -14 -10 -10 4 -16 -2 -18 -15 -2 -14 -13 -24 -30
-29 -22 -6 -32 -1 -63 31 -30 31 -36 43 -33 71 2 28 7 34 25 33 18 0 22 4 20
26 -2 14 -6 31 -10 37 -4 7 -3 14 3 18 5 3 10 1 10 -4 0 -6 6 -11 14 -11 15 0
29 78 17 95 -4 5 -5 21 -3 35 2 14 5 42 5 63 2 29 7 39 23 43 16 4 19 11 16
35 -2 16 -10 29 -18 29 -19 0 -29 21 -13 30 8 6 25 -4 49 -29 20 -20 42 -35
49 -33z m8270 -222 c1 -46 -11 -41 -16 7 -6 53 -6 60 -3 97 2 32 3 31 10 -15
5 -27 9 -68 9 -89z m-36 3 l-7 -34 -6 30 c-7 35 -1 60 11 48 5 -5 6 -25 2 -44z
m-8654 20 c17 -6 31 -17 31 -24 0 -8 5 -17 12 -21 8 -5 9 -2 5 10 -5 13 -2 17
11 14 25 -5 22 -42 -5 -46 -22 -3 -63 28 -63 48 0 6 -13 10 -30 10 -16 0 -30
5 -30 10 0 13 29 13 69 -1z m4675 -74 c7 -16 13 -59 14 -95 2 -61 4 -66 39
-98 21 -18 49 -41 62 -51 20 -15 21 -19 9 -32 -7 -8 -24 -29 -37 -46 -12 -18
-29 -33 -37 -33 -8 0 -14 -10 -14 -25 0 -14 4 -25 8 -25 5 0 15 -16 23 -37 15
-38 102 -113 133 -113 41 0 68 -95 47 -164 -19 -60 -42 -178 -48 -241 -5 -58
-8 -62 -29 -62 -18 0 -26 6 -30 26 -4 14 -17 50 -31 79 -15 33 -28 86 -33 135
-9 86 -17 117 -30 117 -4 0 -11 8 -14 18 -3 9 -13 28 -21 42 -16 27 -12 71 11
107 12 19 11 37 -11 141 -15 74 -38 148 -60 193 -19 41 -40 100 -46 131 -11
55 -10 59 12 82 l24 25 23 -22 c13 -12 29 -35 36 -52z m-4229 -85 c3 -5 1 -10
-4 -10 -6 0 -11 5 -11 10 0 6 2 10 4 10 3 0 8 -4 11 -10z m-635 -20 c7 -8 75
-40 87 -40 5 0 20 -11 32 -24 13 -13 53 -39 89 -57 67 -32 92 -49 158 -103 34
-28 35 -31 17 -43 -14 -11 -18 -27 -18 -76 0 -74 -28 -124 -69 -124 -35 0 -63
31 -46 52 7 8 23 15 36 15 29 0 32 26 5 35 -20 6 -40 45 -45 86 -5 47 -30 99
-47 99 -35 0 -44 -53 -30 -194 7 -72 15 -141 18 -154 3 -15 29 -38 68 -63 35
-22 80 -58 99 -80 44 -48 51 -38 37 52 -33 198 7 301 110 284 22 -4 49 -15 59
-25 10 -10 21 -16 24 -12 3 3 6 -1 6 -10 0 -8 14 -27 30 -41 17 -15 30 -36 30
-47 0 -26 15 -25 41 1 28 28 43 23 167 -64 155 -107 491 -327 501 -327 23 0
57 -61 70 -123 13 -64 12 -68 -7 -85 -28 -23 -41 -167 -17 -197 34 -46 1 -145
-49 -145 -24 0 -145 69 -177 101 -10 10 -51 35 -91 54 -152 73 -187 131 -141
233 26 60 26 63 -6 186 -10 40 -84 126 -108 126 -10 0 -13 -23 -15 -87 -2
-117 1 -143 17 -173 8 -14 19 -37 26 -52 6 -16 15 -28 20 -28 5 0 9 -7 9 -15
0 -8 3 -15 8 -15 4 0 8 -11 8 -25 2 -32 -16 -32 -81 0 -27 14 -57 25 -65 25
-46 2 -115 65 -140 130 -25 66 -43 76 -62 35 -16 -37 -63 -33 -124 8 -60 41
-298 161 -339 171 -48 12 -192 94 -216 124 -21 26 -21 33 -15 175 3 82 10 156
16 166 5 10 11 49 12 87 3 60 0 70 -17 80 -13 7 -19 19 -17 34 3 26 30 62 42
55 3 -2 14 5 23 16 13 14 24 18 45 13 15 -4 29 -10 32 -14z m741 -33 c-13 -13
-26 -3 -16 12 3 6 11 8 17 5 6 -4 6 -10 -1 -17z m8129 -47 c0 -23 -8 -25 -32
-6 -17 13 -24 47 -12 59 10 9 44 -32 44 -53z m-7490 20 c0 -25 -48 -40 -61
-19 -14 22 -11 27 19 32 15 2 30 5 35 6 4 0 7 -8 7 -19z m9643 -40 c4 -33 3
-66 -4 -87 -12 -37 -12 -37 -40 -23 -26 14 -24 68 7 158 9 29 29 3 37 -48z
m-10263 27 c0 -7 6 -24 14 -38 7 -14 16 -37 19 -52 4 -14 28 -42 53 -63 37
-31 52 -37 85 -36 50 2 61 9 55 30 -3 10 0 29 8 43 7 14 10 32 6 40 -4 8 -5
32 -1 54 6 39 7 40 50 43 52 4 76 -14 85 -63 7 -36 34 -95 43 -95 13 0 43 34
43 48 0 9 6 12 16 8 9 -3 19 -6 23 -6 4 0 21 -11 37 -25 16 -14 35 -25 42 -25
16 0 42 -24 42 -39 0 -5 6 -14 14 -18 29 -17 36 -50 27 -118 -5 -37 -14 -72
-20 -79 -7 -9 -6 -19 5 -34 22 -32 66 -199 59 -223 -7 -22 -60 -59 -84 -59
-24 0 -81 44 -81 62 0 9 -33 43 -72 75 -92 72 -95 75 -100 99 -3 16 -11 18
-43 16 -44 -3 -54 3 -175 103 -40 33 -86 70 -103 82 -60 43 -127 113 -127 132
0 10 -6 21 -14 24 -21 8 -28 60 -8 75 9 7 11 12 4 12 -7 0 -12 10 -12 21 0 18
4 20 33 15 17 -3 39 -2 47 4 16 10 30 4 30 -13z m4648 -12 c20 -9 53 -33 73
-56 97 -108 62 -203 -81 -215 -62 -5 -68 -4 -119 29 -67 45 -85 69 -77 108 3
16 9 44 12 62 8 40 20 55 58 72 42 18 89 18 134 0z m3465 -115 c3 -13 0 -20
-9 -20 -7 0 -11 6 -8 14 4 10 -3 16 -23 19 -28 4 -28 4 3 6 24 1 33 -4 37 -19z
m438 -51 c29 -29 19 -43 -30 -47 -28 -2 -44 -9 -48 -20 -4 -9 -13 -22 -22 -28
-30 -23 -42 -106 -48 -339 -9 -304 -8 -313 11 -334 9 -9 16 -23 16 -29 0 -8
18 -12 48 -12 80 0 114 -62 40 -72 -39 -6 -73 7 -110 43 -14 14 -48 34 -75 43
-86 32 -132 57 -138 75 -6 20 1 159 15 276 5 44 10 107 11 140 1 33 6 83 12
111 8 42 7 58 -6 82 -14 30 -14 32 9 57 15 16 31 24 42 21 9 -2 45 -8 79 -11
69 -8 97 2 146 52 17 17 24 16 48 -8z m229 -98 c0 -9 -60 -24 -68 -17 -2 3 -1
9 3 15 7 13 65 15 65 2z m1020 -144 c0 -5 9 -16 21 -26 32 -26 38 -108 11
-139 -16 -18 -24 -21 -34 -13 -31 27 -87 59 -92 53 -3 -3 -6 17 -6 45 0 42 4
53 23 66 36 23 80 31 77 14z m630 -12 c5 -14 7 -31 4 -39 -3 -8 -1 -24 6 -35
18 -34 -3 -23 -37 20 -26 33 -31 45 -23 60 15 27 39 24 50 -6z m-185 -145 c24
-18 45 -62 45 -95 0 -19 -10 -30 -40 -45 -21 -11 -52 -20 -68 -20 -16 0 -32
-3 -36 -7 -9 -9 -111 -31 -147 -32 -35 -1 -114 53 -128 87 -10 23 -9 34 4 58
8 16 15 35 15 42 0 6 6 13 13 13 6 1 23 3 37 6 51 8 256 18 270 13 9 -3 25
-12 35 -20z m-12521 0 c129 -11 148 -16 145 -38 -3 -36 2 -52 22 -70 l20 -20
-27 -21 c-23 -18 -35 -20 -78 -15 -28 4 -73 13 -101 21 -27 9 -75 14 -106 14
-70 -2 -116 13 -100 33 10 12 15 36 20 105 1 10 13 12 49 7 26 -3 96 -10 156
-16z m12783 -20 c-5 -30 -15 -35 -37 -15 -28 25 -25 35 10 35 24 0 29 -4 27
-20z m-12412 -100 c7 -11 -12 -51 -29 -62 -16 -11 -66 -10 -66 2 0 6 7 10 15
10 8 0 24 14 37 30 23 32 33 36 43 20z m765 -54 c30 -8 107 -28 170 -46 219
-61 249 -80 279 -172 29 -91 49 -206 60 -348 6 -69 17 -198 26 -288 8 -89 16
-193 16 -230 1 -37 6 -76 12 -87 5 -10 11 -58 13 -105 1 -47 7 -128 13 -180 5
-52 15 -144 22 -205 19 -184 1 -269 -61 -295 -78 -32 -119 26 -131 184 -4 56
-13 151 -19 211 -6 61 -11 172 -11 247 0 103 -4 147 -16 175 -16 39 -22 88
-48 393 -28 337 -47 453 -80 486 -18 18 -84 40 -209 70 -26 6 -27 5 -17 -14
18 -34 13 -59 -20 -86 -54 -46 -113 -30 -126 34 -6 32 -5 34 10 21 9 -7 17
-20 17 -27 0 -8 10 -14 25 -14 14 0 25 5 25 11 0 7 8 17 17 24 15 11 14 14
-13 29 l-29 17 28 -4 c15 -2 27 -1 27 3 0 10 -26 20 -53 20 -26 0 -62 50 -70
97 -5 25 -1 39 19 63 29 33 44 35 124 16z m-100 -190 c0 -3 -4 -8 -10 -11 -5
-3 -10 -1 -10 4 0 6 5 11 10 11 6 0 10 -2 10 -4z m189 -152 c28 -36 27 -86 -2
-120 -20 -22 -27 -25 -44 -16 -16 9 -20 20 -18 59 2 48 21 103 36 103 4 0 17
-12 28 -26z m1125 -139 c26 -16 61 -39 79 -50 63 -40 79 -104 102 -423 8 -108
19 -253 25 -320 9 -91 9 -131 0 -151 -8 -21 -7 -33 4 -56 8 -18 17 -83 21
-160 4 -71 9 -150 10 -175 5 -83 25 -274 36 -346 13 -80 1 -117 -45 -148 -54
-35 -123 -4 -149 66 -15 41 -43 350 -33 366 2 4 -2 82 -11 172 -12 132 -13
174 -3 212 9 36 9 52 -1 69 -12 24 -23 101 -39 294 -22 260 -39 422 -47 442
-5 15 -34 35 -80 57 -78 38 -93 56 -93 112 0 45 32 84 69 84 14 0 33 5 41 10
10 6 23 4 41 -8 14 -9 47 -30 73 -47z m3751 -140 c26 -25 32 -50 15 -60 -12
-7 -13 -55 -2 -70 4 -6 20 -19 36 -29 24 -15 27 -23 22 -48 -9 -46 -37 -77
-62 -67 -12 4 -24 14 -27 23 -3 8 -15 20 -27 26 -18 10 -22 6 -40 -35 -17 -40
-23 -45 -42 -39 -44 13 -77 34 -82 51 -19 68 -17 88 18 160 19 39 47 80 62 92
38 30 98 28 129 -4z m-3225 -66 c30 -11 65 -30 78 -42 27 -25 56 -119 48 -154
-10 -39 -51 -73 -87 -73 -17 0 -47 -9 -65 -21 -39 -24 -88 -19 -104 11 -16 30
-12 40 18 40 18 0 23 -3 14 -9 -10 -6 -8 -10 9 -14 52 -14 47 32 -5 51 -97 35
-127 128 -62 196 40 43 74 46 156 15z m8296 -53 c17 -16 26 -64 14 -71 -5 -3
-10 -15 -10 -25 0 -32 -28 -50 -79 -50 -48 0 -48 0 -54 36 -14 82 25 139 86
127 18 -3 37 -11 43 -17z m-7385 -205 c63 -64 15 -161 -80 -161 -44 0 -81 37
-88 87 -5 37 -2 45 25 73 42 42 101 42 143 1z m7504 -63 c14 -6 25 -16 25 -21
0 -6 28 -8 71 -5 60 5 72 3 81 -12 9 -14 15 -16 29 -7 22 14 72 -2 77 -24 4
-23 -32 -58 -68 -66 -18 -3 -42 -15 -52 -25 -10 -10 -23 -16 -29 -13 -5 4 -37
6 -71 6 -34 0 -68 5 -76 12 -8 6 -24 16 -36 22 -17 9 -22 21 -24 68 -3 58 0
62 45 76 1 1 14 -4 28 -11z m-109 -53 c7 -29 1 -41 -15 -30 -14 8 -14 55 -1
55 5 0 12 -11 16 -25z m1844 -16 c19 -68 -9 -95 -38 -37 -9 21 -10 32 -1 52
17 36 26 32 39 -15z m-1330 6 c9 -11 8 -20 -6 -45 -10 -16 -24 -30 -30 -30
-19 0 -26 34 -15 64 12 29 32 34 51 11z m-4397 -14 c4 -4 9 -17 12 -29 3 -16
-6 -26 -42 -47 -25 -14 -56 -25 -69 -25 -21 0 -24 5 -24 38 0 56 30 85 78 76
20 -3 40 -10 45 -13z m5945 -188 c2 -12 -9 -44 -24 -73 -24 -46 -28 -50 -42
-36 -16 16 -22 97 -10 127 10 25 72 10 76 -18z m-11893 -22 c3 -5 1 -12 -5
-16 -5 -3 -10 1 -10 9 0 18 6 21 15 7z m10411 -47 c22 -23 34 -45 34 -63 0
-22 -32 -80 -66 -120 -2 -2 -22 2 -44 9 -44 14 -73 6 -130 -39 -19 -15 -43
-21 -95 -22 l-70 -3 -22 41 c-18 35 -20 48 -12 83 13 58 51 105 102 123 62 23
73 25 176 26 l94 1 33 -36z m-532 -30 c31 -17 48 -34 52 -52 4 -15 13 -34 20
-43 13 -14 8 -21 -33 -58 -79 -70 -112 -68 -151 11 -20 40 -22 51 -12 87 9 35
49 81 70 81 4 0 28 -12 54 -26z m-7038 -40 c73 -35 85 -95 30 -150 -28 -28
-41 -34 -78 -34 -35 0 -50 6 -71 28 -44 46 -32 127 24 158 32 18 54 17 95 -2z
m1474 -14 c0 -5 -7 -10 -15 -10 -8 0 -15 5 -15 10 0 6 7 10 15 10 8 0 15 -4
15 -10z m-3409 -10 c22 -12 49 -60 49 -88 0 -30 -42 -85 -70 -92 -57 -14 -110
32 -110 95 0 36 16 62 48 79 32 18 57 20 83 6z m-211 -4 c0 -2 -9 -6 -20 -9
-11 -3 -18 -1 -14 4 5 9 34 13 34 5z m-16 -72 c8 -3 13 -11 10 -19 -3 -7 2
-20 11 -29 19 -18 13 -46 -8 -46 -25 0 -67 41 -67 64 0 35 17 44 54 30z m3305
-17 c13 -15 19 -30 15 -40 -7 -18 -24 -23 -24 -8 0 5 -13 12 -29 16 -20 4 -28
11 -24 21 4 10 -3 14 -23 15 -25 0 -26 1 -9 9 36 16 71 11 94 -13z m4220 -24
l24 -16 -22 -9 c-34 -12 -75 14 -54 35 11 11 27 8 52 -10z m-6449 3 c0 -2 -7
-7 -16 -10 -8 -3 -12 -2 -9 4 6 10 25 14 25 6z m6034 -38 c42 -60 0 -102 -113
-112 -41 -3 -80 -11 -86 -16 -17 -14 -131 -25 -138 -13 -11 17 18 58 48 67 17
5 62 24 102 42 39 19 79 34 87 34 8 0 18 5 21 10 12 19 63 11 79 -12z m3561
-73 c0 -64 0 -65 -17 -44 -22 26 -23 58 -2 87 8 12 16 22 17 22 1 0 2 -29 2
-65z m-7101 22 c-9 -28 -29 -47 -49 -47 -14 0 -12 6 9 31 14 17 26 35 26 40 0
6 5 7 10 4 6 -4 8 -16 4 -28z m-3562 -1 c12 -17 9 -26 -6 -26 -28 0 -46 12
-46 32 0 15 4 18 23 12 12 -4 25 -12 29 -18z m9468 -16 c11 -11 23 -20 26 -20
3 0 17 9 31 20 14 11 38 20 53 20 33 0 96 -25 106 -42 21 -33 -11 -139 -48
-159 -13 -7 -43 -9 -78 -6 -49 6 -60 4 -75 -13 -10 -11 -29 -20 -42 -20 -12 0
-23 -4 -23 -10 0 -5 -11 -12 -25 -16 -56 -14 -100 54 -93 141 3 35 8 42 46 63
23 13 42 30 42 37 0 12 9 16 53 24 4 0 16 -8 27 -19z m-326 -201 c13 -38 1
-76 -28 -83 -34 -8 -53 1 -71 37 -19 39 -19 61 0 53 8 -3 15 -1 15 4 0 5 8 11
18 13 35 10 57 2 66 -24z m-9026 -33 c16 -16 30 -94 31 -179 1 -41 -4 -53 -28
-78 -36 -36 -70 -37 -110 -3 -38 31 -47 74 -32 156 18 101 89 154 139 104z
m3462 -88 c77 -60 15 -175 -88 -165 -24 3 -52 13 -62 22 -47 43 -30 148 27
161 15 3 33 7 38 9 18 5 60 -8 85 -27z m-968 -38 c27 -27 30 -36 25 -73 -4
-30 -13 -48 -32 -62 -15 -11 -44 -37 -64 -58 -74 -75 -171 -54 -171 36 1 46
11 63 53 90 15 10 27 24 27 31 0 8 14 26 31 40 43 37 91 35 131 -4z m-851 -22
c24 -17 47 -37 51 -44 6 -9 19 -9 47 -3 45 10 160 4 173 -9 5 -5 17 -31 27
-58 17 -43 18 -54 6 -88 -26 -74 -87 -110 -161 -92 -19 4 -43 1 -64 -7 -29
-13 -39 -13 -79 1 -25 8 -55 25 -67 36 -43 43 -84 71 -69 46 3 -6 -5 -10 -18
-10 -16 0 -26 7 -30 19 -3 14 -11 18 -26 14 -12 -3 -21 -12 -21 -19 0 -21
-173 -20 -190 1 -18 22 -4 31 30 18 23 -9 32 -8 40 2 7 9 31 13 64 13 29 -1
57 1 62 5 17 10 54 -4 54 -20 0 -8 7 -13 18 -11 9 2 17 9 16 16 -1 6 -2 24 -2
38 -1 17 -9 28 -23 31 -11 3 -18 11 -15 19 3 7 8 30 12 51 12 64 30 83 79 83
31 0 53 -8 86 -32z m-2739 -60 c2 -7 2 -26 -1 -43 -5 -24 -12 -31 -35 -33 -16
-2 -32 2 -37 10 -11 17 -11 61 0 54 4 -3 17 1 27 9 24 18 41 19 46 3z m-322
-42 c0 -25 -5 -48 -11 -51 -6 -4 -8 -13 -5 -21 8 -20 -4 -44 -20 -44 -17 0
-17 5 -4 30 7 13 5 24 -10 43 -26 33 -25 41 6 66 38 30 44 27 44 -23z m10120
-2 c18 -47 13 -64 -20 -64 -20 0 -39 -9 -53 -24 -12 -13 -37 -39 -54 -58 -18
-19 -33 -39 -33 -43 0 -17 -34 -45 -55 -45 -13 0 -27 -10 -35 -25 -31 -58
-125 -84 -170 -47 -15 12 -24 33 -27 65 -10 82 24 118 122 132 33 5 66 19 96
41 26 19 52 34 59 34 7 0 21 11 31 24 18 23 39 30 107 34 16 2 25 -6 32 -24z
m-8960 -6 c52 -26 58 -43 34 -93 -28 -60 -101 -82 -163 -50 -31 15 -41 33 -41
70 0 84 80 118 170 73z m7685 -21 c42 -21 55 -40 55 -82 0 -24 3 -55 6 -71 l6
-29 135 -2 c75 -1 140 -6 145 -11 14 -14 170 7 212 30 52 28 107 40 123 26 15
-12 7 -55 -15 -81 -9 -10 -16 -33 -15 -51 1 -28 -4 -36 -33 -50 -19 -9 -49
-16 -67 -16 -18 0 -39 -4 -47 -10 -9 -5 -19 -5 -27 1 -14 12 -190 -8 -199 -22
-10 -17 -128 -9 -183 11 -56 22 -104 20 -118 -4 -5 -7 -18 -18 -31 -25 -28
-15 -94 2 -135 36 -16 13 -32 23 -37 23 -4 0 -15 15 -23 33 -12 24 -14 42 -7
72 9 40 42 92 55 87 4 -2 21 24 37 57 44 91 92 113 163 78z m-4285 -32 c33
-17 60 -52 60 -78 0 -10 -9 -37 -20 -59 -11 -23 -20 -42 -20 -43 0 -1 18 -10
40 -20 39 -18 42 -17 112 4 72 21 172 28 194 13 24 -15 38 -60 41 -132 12
-217 12 -320 3 -365 -24 -114 -31 -187 -22 -214 6 -17 6 -59 1 -112 -5 -46
-13 -129 -18 -184 -5 -55 -13 -111 -19 -125 -5 -14 -13 -104 -17 -200 -4 -96
-12 -180 -17 -187 -5 -7 -7 -17 -3 -23 3 -5 2 -10 -3 -10 -5 0 -12 -9 -15 -19
-3 -13 -15 -21 -37 -23 l-31 -3 21 -22 c16 -18 17 -23 6 -23 -19 0 -28 -14
-20 -34 4 -9 18 -16 34 -16 39 0 44 -21 35 -141 -5 -79 -3 -103 9 -128 20 -39
20 -50 -1 -58 -30 -10 -53 -35 -54 -57 0 -21 0 -21 -10 -1 -5 11 -16 31 -24
45 -15 25 -15 25 -15 3 0 -13 -4 -23 -10 -23 -5 0 -10 7 -10 15 0 18 -16 20
-23 3 -3 -8 -6 -6 -6 5 -1 13 -10 17 -42 17 -32 0 -40 3 -35 15 4 11 -1 15
-18 15 -14 0 -26 6 -28 12 -3 9 -9 8 -22 -5 -10 -9 -32 -18 -49 -18 l-32 -1
29 -7 c26 -5 27 -7 13 -19 -9 -8 -25 -11 -35 -8 -13 4 -22 1 -26 -9 -3 -9 -10
-13 -16 -10 -5 3 -10 1 -10 -4 0 -16 -26 -13 -40 4 -7 8 -20 14 -29 14 -13 -1
-13 -2 2 -6 30 -8 19 -26 -13 -19 -18 3 -30 1 -30 -5 0 -6 -5 -7 -11 -3 -6 3
-9 17 -6 31 4 24 3 25 -42 20 -25 -3 -75 -12 -110 -21 -56 -15 -65 -15 -80 -2
-9 8 -25 15 -36 15 -43 1 -68 8 -80 24 -7 9 -17 17 -22 17 -5 0 -15 11 -21 25
-13 28 -30 33 -38 11 -3 -9 -31 -20 -62 -26 -32 -7 -66 -21 -78 -31 -11 -11
-23 -17 -26 -13 -4 3 -20 -2 -37 -10 -17 -9 -58 -19 -91 -23 -50 -5 -60 -3
-60 10 0 8 6 17 13 20 9 4 9 7 0 18 -16 16 -83 20 -100 7 -10 -8 -13 -3 -13
19 0 33 -16 53 -42 53 -10 0 -18 5 -18 11 0 5 8 9 18 8 36 -3 44 1 39 21 -3
13 4 31 19 50 14 16 24 35 23 42 -5 23 12 58 27 58 8 0 14 6 14 14 0 25 30 46
66 46 23 0 34 5 34 15 0 8 9 20 20 27 11 7 20 21 20 30 0 10 9 22 19 28 20 10
22 14 40 86 8 28 19 44 36 52 14 6 25 20 25 30 0 13 11 22 32 28 18 6 32 17
34 28 3 18 43 53 57 48 4 -1 12 9 17 23 6 15 17 25 29 25 12 0 26 12 35 28 8
16 22 34 30 41 9 8 16 26 16 42 0 43 23 109 37 109 7 0 13 7 13 15 0 8 9 15
19 15 10 0 21 7 25 15 3 8 11 15 18 15 14 0 48 35 48 49 0 5 9 11 20 14 11 3
20 14 20 25 0 14 9 21 30 26 21 4 30 11 30 25 0 12 13 25 38 36 20 10 53 29
73 42 20 13 66 32 104 43 38 11 80 30 94 44 14 13 43 29 64 36 40 13 57 34 57
75 0 29 4 34 73 106 26 27 47 53 47 59 0 20 -22 20 -49 1 -16 -12 -32 -21 -36
-21 -3 0 -52 -31 -108 -69 -56 -38 -151 -101 -212 -141 -60 -40 -111 -76 -113
-81 -2 -5 -8 -9 -13 -9 -5 0 -77 -45 -159 -100 -82 -55 -152 -100 -154 -100
-3 0 -37 -20 -75 -45 -58 -38 -184 -111 -381 -223 -25 -14 -62 -36 -83 -49
-72 -45 -127 -60 -209 -57 -57 2 -80 -1 -89 -12 -14 -17 -29 -18 -29 -1 0 11
62 67 75 67 6 0 105 79 115 91 14 19 148 111 231 159 44 25 187 120 329 218
246 169 540 367 593 399 28 18 57 37 64 43 7 5 15 10 18 10 10 0 105 65 105
73 0 10 -13 9 -51 -7 -19 -8 -77 -19 -129 -26 -52 -6 -144 -22 -205 -35 -60
-12 -132 -26 -160 -30 -27 -4 -81 -16 -120 -27 -103 -29 -157 -43 -290 -73
-66 -15 -172 -45 -235 -67 -135 -47 -392 -115 -471 -124 -46 -5 -61 -3 -90 15
-18 11 -50 21 -69 22 -19 0 -44 4 -55 9 -18 8 -17 9 7 9 38 1 46 21 9 21 -41
0 -40 15 0 18 18 1 73 22 123 46 118 57 292 110 461 141 122 22 219 49 323 89
48 19 110 37 137 41 118 17 315 75 315 93 0 3 -12 23 -26 44 -32 45 -27 84 11
94 14 3 25 11 25 16 0 14 71 4 111 -16 32 -16 159 -23 173 -9 7 8 -62 73 -77
73 -6 0 -6 5 0 13 5 6 8 32 7 56 l-3 43 33 -5 c18 -3 39 -1 47 4 21 13 67 11
99 -6z m3339 -50 c46 -23 81 -72 81 -112 0 -28 -8 -44 -38 -74 -48 -48 -81
-56 -135 -35 -58 23 -82 59 -80 119 2 92 91 144 172 102z m-1143 -13 c12 -7
11 -76 -3 -172 l-8 -54 -44 -9 c-29 -6 -47 -5 -54 2 -6 6 -44 11 -84 11 -67 0
-90 -6 -132 -37 -10 -7 34 -43 61 -48 17 -4 85 -27 152 -52 184 -69 330 -121
441 -157 55 -19 111 -38 125 -44 33 -15 135 -53 245 -92 50 -18 109 -46 133
-61 24 -16 51 -29 60 -29 10 0 35 -9 55 -19 21 -11 61 -27 90 -36 29 -9 72
-24 97 -32 25 -9 57 -18 73 -20 15 -3 30 -9 33 -14 3 -5 21 -9 41 -9 19 0 52
-8 72 -18 20 -11 54 -27 76 -36 22 -10 49 -23 60 -29 11 -6 40 -22 65 -35 30
-16 53 -22 72 -18 24 5 28 2 28 -18 0 -14 6 -26 13 -29 6 -2 9 -8 4 -12 -4 -5
-13 0 -21 10 -13 18 -14 17 -30 -11 -10 -16 -14 -20 -11 -9 5 19 0 20 -94 18
-76 -1 -99 2 -95 11 3 7 17 17 32 23 27 11 27 11 -10 12 -20 1 -40 -3 -43 -9
-10 -16 -43 -11 -63 10 -12 13 -27 18 -43 15 -17 -3 -33 3 -52 21 -18 17 -42
26 -74 29 -144 15 -491 102 -597 150 -43 19 -115 48 -160 64 -44 16 -162 59
-261 96 -99 37 -265 93 -370 124 l-190 56 0 57 c0 31 -3 60 -7 64 -13 12 -9
31 8 48 13 13 14 24 6 62 -9 42 -8 48 14 67 19 16 23 28 19 48 -5 22 0 31 32
55 32 25 50 30 128 36 72 6 154 17 195 27 3 0 10 -3 16 -7z m3476 -39 c50 -60
75 -68 233 -77 81 -4 169 -18 183 -29 15 -12 16 -73 1 -83 -6 -3 -16 -1 -22 5
-17 17 -27 13 -27 -9 0 -13 -10 -24 -27 -30 -16 -6 -44 -19 -63 -29 -19 -10
-60 -22 -90 -26 -30 -4 -61 -11 -70 -15 -67 -35 -92 -41 -124 -30 -40 13 -86
59 -91 91 -2 13 -7 40 -10 61 -6 30 -4 39 14 54 11 10 21 28 21 41 0 12 5 25
10 28 6 4 8 16 5 26 -6 19 9 49 25 49 5 0 19 -12 32 -27z m-5882 -33 c28 -24
22 -33 -14 -24 -17 4 -26 13 -26 25 0 24 11 24 40 -1z m-4352 -72 c17 -60 21
-97 22 -228 1 -63 5 -121 10 -130 6 -11 3 -27 -10 -48 -15 -24 -27 -32 -52
-34 -53 -3 -81 0 -120 13 -55 18 -58 43 -10 89 27 26 42 51 47 77 3 21 13 45
20 53 10 12 27 121 30 190 0 8 6 30 14 48 17 40 31 31 49 -30z m8508 -37 c-10
-16 -36 -13 -36 3 0 17 21 27 34 16 4 -5 5 -13 2 -19z m-7891 -31 c15 -28 14
-34 -12 -95 -16 -36 -32 -63 -38 -62 -13 5 -45 142 -38 167 3 11 12 20 19 20
8 0 14 5 14 10 0 19 39 -9 55 -40z m1447 36 c24 -18 19 -117 -8 -147 -32 -35
-56 -44 -70 -25 -7 10 -32 19 -63 23 -28 3 -49 9 -45 12 5 6 10 7 35 10 6 0 9
8 5 16 -3 9 0 15 9 15 17 0 20 35 5 45 -16 10 -12 43 8 54 24 15 104 13 124
-3z m-1733 -25 c11 -17 2 -62 -16 -82 -8 -9 -14 -25 -14 -35 0 -11 1 -59 2
-108 1 -65 -2 -90 -12 -97 -24 -15 -34 -4 -34 37 0 21 -4 45 -9 52 -4 7 -3 52
3 100 21 160 19 153 47 149 14 -2 29 -9 33 -16z m5375 -376 c2 -207 8 -332 16
-355 6 -19 13 -69 14 -110 2 -41 11 -109 20 -150 12 -53 19 -138 21 -290 3
-118 5 -222 6 -230 4 -41 -14 -339 -21 -363 -11 -35 11 -91 45 -113 20 -13 39
-15 83 -11 69 7 103 -6 113 -46 10 -36 -15 -53 -97 -68 -32 -6 -66 -17 -74
-24 -21 -19 -39 -20 -85 -7 -58 17 -65 15 -65 -17 0 -16 -7 -36 -15 -45 -8 -8
-15 -23 -15 -34 0 -38 -28 -33 -41 6 -6 20 -15 42 -19 47 -4 6 -11 35 -15 65
-4 29 -16 73 -26 97 l-18 43 -30 -17 c-16 -10 -27 -21 -25 -25 3 -4 -7 -3 -22
2 -15 6 -29 8 -32 5 -3 -3 0 -5 6 -5 13 0 16 -28 6 -54 -3 -9 -17 -16 -30 -16
-24 0 -32 14 -14 25 16 10 -19 55 -37 48 -12 -5 -15 -2 -11 8 3 8 9 22 13 31
5 12 2 20 -9 24 -22 9 -20 21 9 48 15 14 25 34 25 52 0 20 3 25 9 16 7 -11 10
-10 15 3 12 32 7 65 -10 65 -12 0 -15 6 -10 23 4 12 9 33 11 47 24 127 27 161
22 223 -8 89 11 249 43 362 12 43 12 48 31 173 6 45 15 85 20 88 5 3 9 18 9
35 0 16 4 29 10 29 5 0 11 15 14 33 2 17 11 79 20 137 8 58 17 185 20 283 4
126 9 186 19 205 37 70 47 86 59 93 33 21 37 -11 42 -336z m1402 277 c-11 -10
-15 4 -8 28 l7 25 3 -23 c2 -13 1 -26 -2 -30z m-7911 -202 c3 -11 4 -24 1 -29
-8 -13 -45 -20 -52 -10 -3 5 -14 9 -25 9 -12 0 -19 7 -19 18 0 27 9 32 51 32
29 0 39 -5 44 -20z m7179 -345 c6 -11 19 -26 29 -33 9 -7 17 -18 17 -24 0 -19
80 -88 101 -88 15 0 19 -5 15 -15 -3 -8 -1 -15 4 -15 6 0 26 -16 47 -35 20
-19 40 -32 45 -28 15 9 68 -49 68 -74 0 -13 5 -23 10 -23 6 0 10 5 10 10 0 13
41 -9 58 -32 7 -9 19 -24 27 -32 8 -8 15 -22 15 -30 0 -10 6 -13 15 -10 11 4
15 0 15 -16 0 -19 2 -20 15 -10 12 10 15 10 15 -3 0 -8 12 -23 27 -33 18 -11
23 -19 15 -22 -9 -3 -6 -9 10 -20 13 -9 26 -16 31 -14 4 1 7 -3 7 -8 0 -6 11
-15 25 -20 14 -5 25 -14 25 -19 0 -6 16 -13 35 -17 19 -3 39 -12 43 -18 4 -6
48 -45 97 -85 50 -40 94 -79 98 -87 4 -8 12 -14 17 -14 5 0 26 -15 46 -34 20
-18 54 -50 75 -70 22 -20 41 -36 44 -36 6 0 45 -38 45 -45 0 -11 35 -45 47
-45 6 0 15 -9 18 -20 3 -11 15 -25 26 -31 13 -7 18 -16 14 -29 -6 -19 24 -45
55 -45 8 0 14 -8 12 -17 -2 -15 29 -58 43 -58 6 0 24 -16 113 -100 110 -104
151 -140 162 -140 5 0 9 -5 8 -11 -2 -6 6 -16 16 -22 30 -18 87 -84 109 -125
11 -20 52 -69 91 -108 39 -39 83 -84 97 -100 14 -16 63 -60 107 -99 45 -38 82
-75 82 -82 0 -6 8 -18 18 -25 10 -7 28 -26 41 -43 27 -35 93 -105 148 -156 21
-19 58 -62 82 -95 25 -32 81 -95 126 -139 111 -110 126 -128 116 -143 -11 -18
-93 3 -117 29 -9 10 -25 19 -36 19 -10 0 -18 4 -18 9 0 11 -64 81 -73 81 -4 0
-20 15 -37 33 -17 17 -60 62 -95 100 -36 37 -65 71 -65 76 0 5 -12 14 -28 20
-26 11 -70 48 -103 87 -8 11 -41 42 -73 69 -32 28 -77 70 -100 93 -22 24 -52
50 -66 58 -14 7 -47 34 -75 60 -27 26 -113 102 -190 168 -203 175 -374 329
-484 435 -30 29 -71 65 -90 79 -20 15 -42 34 -48 44 -7 9 -35 30 -63 47 -27
17 -60 41 -72 53 -12 12 -88 78 -168 147 -80 68 -156 135 -170 147 -14 13 -50
45 -80 71 -137 119 -528 499 -561 544 -26 37 -11 134 26 167 33 28 92 27 109
-3z m2093 -190 c8 -22 -6 -33 -17 -15 -13 20 -12 30 0 30 6 0 13 -7 17 -15z
m326 -114 c40 -11 101 -27 137 -36 60 -15 206 -67 290 -103 48 -21 128 -74
135 -90 3 -8 -7 -18 -24 -25 -15 -7 -30 -16 -32 -22 -2 -5 -13 -9 -24 -9 -65
5 -83 7 -115 19 -19 7 -62 20 -95 30 -114 33 -178 57 -229 87 -28 17 -68 33
-88 36 -41 5 -49 17 -18 25 25 6 27 27 3 27 -10 0 -27 7 -37 15 -11 8 -29 15
-40 15 -19 1 -18 3 9 25 36 30 38 30 128 6z m-2483 -807 c0 -33 -27 -38 -33
-7 -5 30 13 58 25 39 4 -6 8 -21 8 -32z m30 -55 c0 -5 -7 -9 -15 -9 -15 0 -20
12 -9 23 8 8 24 -1 24 -14z m-4310 -34 c0 -8 6 -15 14 -15 7 0 19 -6 25 -13 8
-11 3 -20 -22 -41 -49 -41 -208 -151 -247 -171 -84 -43 -136 -34 -111 21 6 14
11 36 11 48 0 29 92 113 172 156 61 34 158 43 158 15z m1496 -118 c1 -36 -25
-59 -33 -29 -4 18 -9 19 -31 11 -41 -16 -91 3 -92 34 0 5 29 7 65 5 36 -1 65
1 65 5 0 23 25 -3 26 -26z m2749 -16 c-3 -5 -1 -12 5 -16 6 -4 7 -11 4 -17 -4
-6 -1 -14 6 -18 11 -7 10 -13 -4 -34 -10 -16 -12 -26 -5 -26 6 0 9 -7 5 -15
-3 -8 2 -19 11 -24 14 -8 14 -9 -4 -15 -33 -10 -59 -44 -45 -58 18 -18 15 -28
-8 -28 -12 0 -24 9 -29 22 -7 20 -8 20 -15 3 -6 -17 -9 -16 -34 10 -27 30 -33
74 -20 163 6 42 15 50 58 55 66 7 81 7 75 -2z m-1114 -30 c75 -75 -7 -133
-144 -102 -21 5 -41 11 -43 14 -8 8 35 87 46 87 6 0 10 7 10 15 0 11 12 15 51
15 43 0 55 -5 80 -29z m-4001 -271 c0 -5 20 -10 44 -10 104 0 100 -22 -21
-111 -54 -40 -124 -92 -155 -116 -109 -83 -195 -104 -195 -48 0 14 3 28 8 31
5 3 9 12 9 20 0 31 204 204 240 204 6 0 20 9 32 20 24 22 38 26 38 10z m4972
-91 c95 -20 137 -52 294 -222 28 -30 39 -36 59 -31 43 11 74 -4 101 -49 15
-23 37 -53 49 -67 13 -14 26 -36 30 -50 12 -41 34 -60 58 -50 12 5 34 11 49
14 28 6 73 42 131 103 21 21 35 29 42 23 7 -6 29 0 61 18 102 55 162 93 180
113 36 40 180 83 237 72 36 -7 85 -56 93 -91 3 -15 16 -56 30 -92 13 -36 24
-77 24 -91 0 -13 9 -32 20 -42 11 -9 20 -23 20 -30 0 -7 12 -30 26 -51 25 -36
26 -42 21 -148 -3 -89 -1 -111 10 -115 8 -3 18 -16 23 -28 5 -14 21 -26 39
-30 28 -6 44 -25 22 -25 -5 0 -11 -12 -14 -26 -4 -24 -3 -25 39 -23 24 2 46 1
49 -2 3 -3 -6 -23 -20 -43 -30 -45 -31 -57 -5 -81 13 -12 17 -22 11 -28 -5 -5
-7 -15 -4 -22 2 -8 -15 -25 -43 -41 l-47 -28 59 -18 c88 -28 184 -69 184 -79
0 -5 -8 -13 -17 -16 -10 -4 -30 -16 -45 -27 -21 -14 -25 -23 -17 -32 8 -10 0
-18 -35 -34 -53 -25 -62 -44 -42 -91 8 -19 12 -46 9 -61 -4 -20 1 -30 19 -42
23 -15 24 -21 21 -88 -1 -40 -3 -82 -2 -93 0 -11 0 -102 0 -202 1 -162 -2
-189 -21 -239 -13 -36 -19 -68 -15 -85 4 -15 1 -37 -5 -49 -6 -12 -13 -41 -16
-65 -3 -34 0 -47 14 -57 10 -7 22 -25 25 -39 6 -22 0 -30 -33 -55 -44 -32 -47
-46 -25 -119 14 -46 14 -51 -2 -62 -9 -7 -23 -13 -31 -13 -10 0 -12 -6 -7 -17
4 -10 8 -28 9 -41 1 -13 9 -29 19 -36 10 -8 17 -26 17 -44 0 -40 33 -95 67
-112 16 -8 29 -15 31 -16 11 -6 -58 -59 -83 -64 -23 -5 -30 -12 -31 -30 -3
-58 -4 -60 -31 -61 -33 -1 -78 -17 -52 -18 22 -1 32 -28 19 -51 -9 -16 -6 -21
14 -26 29 -7 57 -34 36 -34 -7 0 -2 -8 10 -18 33 -26 17 -42 -41 -42 l-50 0
20 -26 c12 -15 21 -35 21 -44 0 -16 -11 -18 -117 -17 l-118 2 -3 30 c-2 17 -8
35 -13 41 -4 5 -6 22 -4 36 3 17 -2 31 -15 43 -11 10 -20 23 -20 30 0 7 -10
23 -23 37 -16 17 -22 35 -20 59 4 60 10 90 22 102 6 6 11 14 11 18 0 11 -59
29 -95 29 -35 0 -98 37 -103 61 -4 20 27 58 34 42 3 -7 18 -13 34 -13 15 0 33
-7 40 -15 7 -8 19 -15 27 -15 8 0 24 -11 35 -25 26 -33 51 -33 42 0 -5 20 -2
25 12 25 17 0 16 1 -2 15 -15 12 -16 16 -5 24 9 6 10 11 2 15 -6 4 -11 15 -11
25 0 17 11 21 58 21 16 0 22 6 22 24 0 28 -32 60 -46 46 -6 -6 -19 -5 -35 4
-14 7 -47 16 -73 20 -25 4 -46 12 -46 18 0 12 -41 47 -56 48 -5 0 -23 14 -39
30 -37 39 -49 38 -41 -2 3 -21 0 -40 -9 -52 -8 -11 -15 -30 -15 -43 0 -25 -30
-46 -53 -37 -9 3 -13 13 -10 27 l6 22 -22 -22 c-26 -27 -46 -29 -55 -7 -5 12
-10 14 -20 5 -17 -14 -26 -4 -26 30 0 40 -20 48 -43 17 -17 -22 -22 -24 -47
-15 -24 9 -28 17 -33 63 -3 30 -9 59 -13 66 -12 19 -15 108 -4 108 5 0 14 -9
20 -20 6 -11 17 -20 26 -20 22 0 28 28 10 49 -9 10 -16 23 -16 29 0 7 -5 12
-11 12 -15 0 -3 80 15 98 11 11 20 10 54 -7 49 -25 62 -26 62 -6 0 9 9 15 22
15 22 0 22 0 -4 25 -15 14 -34 25 -43 25 -8 0 -15 4 -15 9 0 11 62 23 82 16
22 -9 38 36 28 79 -6 30 -5 38 9 46 18 9 73 6 91 -5 13 -8 12 -3 0 31 -7 18
-7 44 -1 80 7 35 7 63 1 79 -13 33 7 33 22 0 6 -14 14 -25 17 -25 16 0 34 49
36 99 3 58 -15 91 -48 91 -8 0 -26 9 -40 20 -23 18 -60 29 -44 13 16 -15 -18
-33 -64 -33 -30 0 -49 -4 -49 -11 0 -8 -5 -8 -15 1 -12 10 -16 9 -21 -4 -3 -9
-3 -23 0 -31 4 -11 -3 -19 -19 -25 -14 -5 -25 -14 -25 -19 0 -6 -15 -14 -32
-19 -28 -7 -35 -6 -45 12 -7 13 -25 23 -45 26 -25 4 -33 10 -33 25 0 11 -7 20
-15 20 -19 0 -42 22 -60 58 -11 22 -11 34 -2 61 18 50 15 60 -32 104 -70 64
-175 82 -245 40 -70 -41 -91 -68 -90 -112 1 -23 4 -52 8 -66 5 -19 -1 -38 -26
-77 -18 -29 -33 -56 -33 -60 0 -5 -10 -13 -22 -18 -39 -17 -34 -47 14 -85 23
-19 52 -40 63 -45 12 -7 21 -23 23 -42 2 -17 12 -39 23 -49 10 -9 19 -24 19
-32 0 -8 8 -21 18 -28 16 -13 16 -13 0 -14 -24 0 -23 -17 3 -30 18 -10 20 -17
14 -65 -7 -52 -6 -54 33 -93 22 -22 45 -48 51 -58 11 -18 11 -18 26 0 16 22
31 14 37 -19 4 -23 47 -48 63 -36 17 13 44 9 50 -8 3 -9 15 -21 27 -26 16 -7
24 -20 26 -42 2 -20 9 -33 17 -33 21 0 28 -19 26 -72 -1 -27 3 -48 9 -48 5 0
10 -4 10 -10 0 -16 -40 -12 -46 5 -10 24 -27 17 -20 -7 4 -13 8 -29 10 -37 1
-8 11 -20 21 -27 21 -16 15 -66 -12 -96 -9 -10 -16 -31 -15 -48 1 -34 -13 -40
-23 -10 -4 12 -15 20 -30 20 -26 0 -42 -29 -23 -41 8 -5 2 -10 -17 -15 -24 -6
-33 -2 -56 24 -25 28 -26 34 -17 71 8 33 7 48 -5 73 -11 22 -13 38 -6 50 12
22 0 100 -15 95 -6 -2 -10 -18 -8 -35 3 -24 -1 -32 -12 -32 -12 0 -16 11 -16
44 0 36 -4 46 -21 51 -11 4 -23 4 -26 2 -9 -9 18 -78 28 -72 5 4 9 -10 9 -30
0 -20 -4 -34 -8 -31 -5 3 -7 -9 -5 -27 l4 -32 -20 24 c-12 13 -21 29 -21 35 0
14 -74 86 -88 86 -5 0 -17 -11 -25 -24 -12 -17 -22 -22 -41 -19 -33 7 -33 2 5
-67 41 -74 49 -96 43 -128 -4 -18 -8 -57 -9 -85 -4 -75 -21 -151 -34 -155 -6
-2 -11 -8 -11 -14 0 -5 9 -6 21 -3 18 6 20 3 17 -32 -2 -26 -8 -38 -18 -38
-26 -1 -41 -16 -35 -36 9 -28 -15 -24 -55 11 -19 16 -39 29 -43 30 -4 0 -7
-21 -6 -47 2 -53 -18 -131 -38 -151 -7 -7 -13 -18 -13 -24 0 -7 -11 -1 -25 12
-29 27 -27 28 -46 -25 -12 -32 -21 -41 -48 -46 -29 -6 -35 -3 -52 25 -10 17
-19 35 -19 39 0 5 -12 7 -27 5 -18 -2 -32 -14 -46 -38 -17 -30 -17 -38 -6 -75
8 -22 24 -61 36 -87 13 -27 23 -51 23 -56 0 -4 9 -16 21 -25 16 -14 24 -16 35
-6 30 25 74 -44 74 -115 0 -37 6 -50 35 -80 40 -41 39 -39 23 -81 -9 -28 -8
-39 10 -77 23 -46 28 -78 13 -78 -9 0 -42 65 -55 108 -4 12 -12 22 -17 22 -5
0 -9 6 -9 13 -1 6 -11 25 -24 41 -14 16 -22 35 -19 42 2 6 -2 12 -9 11 -72 -3
-97 25 -33 37 19 4 35 12 35 18 0 10 -37 47 -49 49 -3 0 -15 2 -26 5 -55 10
-69 9 -73 -9 -6 -30 6 -63 33 -88 13 -13 25 -29 25 -35 0 -6 7 -18 16 -25 16
-13 34 -49 40 -78 2 -8 10 -46 20 -84 l17 -69 33 5 c19 3 34 2 34 -4 0 -5 9
-9 20 -9 22 0 40 -34 40 -75 0 -36 -15 -38 -50 -6 -18 16 -40 36 -50 44 -10 8
-19 19 -21 25 -2 6 -19 12 -37 14 -18 2 -37 10 -42 18 -7 12 -12 12 -21 3 -16
-16 5 -43 32 -43 26 0 31 -14 9 -32 -20 -18 -36 -108 -27 -154 3 -20 0 -28
-13 -31 -13 -3 -19 -19 -23 -55 -4 -28 -13 -58 -21 -67 -7 -9 -17 -35 -21 -58
-4 -24 -11 -45 -16 -49 -17 -10 -9 -52 16 -82 14 -17 25 -41 25 -56 0 -14 9
-34 20 -44 11 -10 27 -48 36 -88 9 -38 22 -82 30 -97 8 -16 14 -42 14 -59 0
-22 4 -29 14 -25 10 4 18 -16 31 -81 9 -48 23 -100 31 -116 8 -16 17 -50 21
-75 3 -25 11 -52 17 -60 6 -8 16 -57 23 -110 6 -53 17 -130 25 -171 14 -83 17
-216 5 -241 -6 -11 -1 -19 17 -27 15 -7 27 -23 31 -44 4 -18 11 -39 16 -48 4
-8 10 -23 13 -33 5 -16 13 -18 63 -11 65 8 64 8 116 -2 29 -5 42 -3 57 11 25
23 25 39 -1 95 -11 25 -22 67 -24 94 -2 26 -8 53 -14 59 -14 14 -15 67 -1 67
13 0 24 -24 50 -117 l22 -81 87 -22 c102 -25 206 -80 215 -112 12 -45 6 -58
-30 -73 -49 -20 -63 -19 -88 8 -43 47 -136 82 -151 57 -4 -6 -23 -19 -44 -30
-32 -16 -51 -18 -129 -13 -89 6 -90 6 -94 -18 -2 -13 2 -40 9 -59 7 -19 12
-47 13 -61 0 -15 14 -70 31 -123 30 -92 35 -100 91 -149 73 -63 148 -161 148
-193 0 -30 -19 -71 -36 -78 -15 -6 -29 9 -57 66 -22 43 -43 55 -74 44 -14 -6
-14 -9 4 -29 74 -81 52 -114 -77 -111 -100 2 -107 6 -120 72 -17 82 -17 82
-41 82 -16 0 -19 -4 -14 -18 29 -70 29 -70 10 -92 -16 -17 -27 -19 -79 -15
-34 2 -67 4 -74 5 -7 0 -18 12 -25 28 -6 15 -22 43 -35 62 -19 29 -23 44 -19
85 5 51 -7 100 -30 123 -7 7 -13 20 -13 28 0 8 -4 14 -9 14 -11 0 -30 99 -34
188 -4 64 -7 77 -31 98 -14 14 -26 35 -26 46 0 12 -14 37 -32 55 -31 32 -55
82 -65 135 -3 17 -13 28 -29 32 -14 4 -22 11 -19 16 3 5 -4 14 -15 20 -11 6
-20 19 -20 29 0 10 -7 24 -15 31 -8 7 -15 23 -15 36 0 12 -4 26 -10 29 -5 3
-10 15 -10 25 0 11 -8 24 -19 29 -28 15 -35 43 -15 58 10 7 14 16 10 20 -7 8
-11 9 -37 12 -7 0 -9 13 -7 31 5 34 -20 63 -65 74 -25 6 -28 11 -27 44 2 57
-7 83 -40 111 -29 25 -30 28 -20 64 13 44 4 61 -35 71 -28 7 -31 22 -10 50 21
28 19 41 -10 70 -21 21 -24 32 -19 64 4 28 2 41 -9 51 -9 7 -13 19 -10 27 3 8
-3 26 -12 40 -9 15 -18 38 -20 52 -1 14 -11 32 -21 39 -12 9 -18 23 -16 38 2
13 -5 36 -14 51 -16 24 -17 27 -2 38 14 10 15 20 8 52 -5 21 -9 64 -8 94 0 30
-7 75 -16 99 -9 24 -16 56 -16 71 0 14 -3 30 -7 34 -5 4 -8 22 -8 39 0 27 -4
32 -26 35 -18 2 -36 -6 -55 -23 -16 -15 -41 -29 -56 -32 -15 -3 -28 -10 -28
-15 0 -6 7 -8 15 -4 8 3 15 2 15 -3 0 -5 -11 -12 -25 -15 -14 -4 -25 -11 -25
-17 0 -16 -51 -59 -71 -59 -9 0 -30 14 -46 30 -15 17 -36 30 -45 30 -11 0 -15
5 -12 14 3 7 -8 38 -24 67 -16 30 -27 60 -24 67 6 18 -25 50 -70 73 -22 11
-38 27 -38 37 0 9 -16 29 -35 45 -19 15 -42 43 -51 62 -10 23 -26 38 -43 42
-35 9 -65 41 -86 93 -26 63 -58 119 -67 114 -12 -8 -48 30 -48 51 0 8 -18 23
-40 33 -28 12 -42 25 -46 42 -9 43 -38 95 -54 95 -11 0 -14 9 -12 31 2 19 -3
36 -13 44 -8 7 -15 19 -15 27 0 8 -4 12 -9 9 -13 -9 -28 15 -36 57 -4 21 -18
50 -30 63 l-23 25 -21 -27 c-12 -15 -21 -23 -21 -19 0 4 -7 2 -15 -5 -11 -9
-15 -9 -15 -1 0 6 6 14 14 17 8 3 12 12 10 19 -3 8 1 12 12 12 9 -1 19 4 21
11 9 24 -29 11 -62 -23 -35 -34 -44 -54 -25 -56 6 -1 14 -2 19 -3 24 -3 21
-18 -8 -51 -17 -20 -29 -40 -26 -45 3 -5 -1 -22 -8 -37 -10 -19 -12 -36 -6
-50 5 -13 6 -23 2 -23 -3 0 -1 -6 5 -13 6 -6 9 -27 8 -45 -1 -18 2 -36 7 -39
5 -3 0 -15 -10 -27 -10 -11 -27 -38 -37 -59 -11 -21 -24 -36 -30 -34 -6 2 -21
22 -34 45 -24 43 -55 55 -66 26 -12 -31 -34 -140 -41 -201 -5 -49 -12 -65 -30
-77 -17 -11 -25 -12 -34 -3 -19 19 -37 -11 -50 -82 -17 -90 -27 -111 -51 -111
-11 0 -20 -4 -20 -9 0 -5 -9 -13 -20 -16 -11 -3 -20 -14 -21 -23 0 -13 -2 -13
-6 -3 -3 8 -11 -2 -19 -25 -17 -49 -18 -76 -2 -92 9 -9 11 -43 8 -120 -9 -206
-4 -516 9 -571 10 -42 10 -64 0 -105 -6 -28 -14 -55 -18 -61 -3 -5 -6 -27 -7
-48 -1 -45 21 -62 67 -52 22 5 36 2 50 -11 19 -17 45 -91 35 -101 -2 -3 -18 5
-35 18 l-30 22 -36 -24 c-19 -13 -35 -27 -35 -31 0 -19 -28 -6 -34 15 -3 13
-17 29 -31 35 -21 10 -28 9 -45 -8 -12 -12 -20 -33 -20 -53 0 -74 -77 -78
-103 -4 -8 23 -30 22 -52 -3 -23 -25 -41 -25 -55 -1 -15 28 -12 63 6 89 15 22
36 89 53 177 5 22 16 60 25 84 9 25 20 99 25 167 5 67 11 127 15 133 9 13 29
247 27 316 0 28 -6 62 -12 77 -9 21 -7 31 6 52 13 20 16 37 11 69 -7 44 -35
107 -48 107 -4 0 -14 16 -22 35 -10 23 -26 39 -50 49 -25 10 -34 19 -30 30 4
10 -5 22 -28 35 -18 11 -41 36 -52 55 -10 19 -34 42 -53 51 -19 9 -37 24 -40
33 -12 35 -113 109 -132 98 -5 -3 -18 3 -30 13 -12 11 -32 26 -44 34 -28 19
-19 28 38 34 25 3 45 8 46 12 6 34 5 71 -2 71 -14 0 -11 17 6 33 12 13 8 16
-33 28 -54 15 -92 36 -92 53 0 19 36 44 70 50 46 7 47 12 1 36 -40 20 -56 50
-26 50 25 0 31 31 9 47 -15 11 -16 17 -7 32 10 16 8 22 -12 37 -13 10 -27 31
-31 47 -3 16 -12 31 -20 34 -20 8 -17 30 7 46 20 15 20 15 -5 42 -14 15 -26
37 -26 48 0 11 -7 28 -15 36 -7 9 -18 43 -23 76 -9 57 -9 60 17 85 24 21 26
29 19 55 -9 32 -18 114 -22 208 -2 37 -9 64 -20 76 -10 11 -19 28 -20 38 -1
10 -12 22 -24 28 -30 13 -28 21 13 40 19 9 40 24 47 32 10 13 8 18 -15 35 -31
23 -35 38 -9 38 39 1 92 54 92 93 0 6 10 21 21 34 18 19 20 25 9 38 -7 8 -10
18 -7 22 4 3 0 15 -8 27 -22 31 -18 59 15 121 17 30 30 66 30 80 0 17 9 29 30
40 28 14 67 70 62 88 -1 4 3 14 10 22 41 48 64 75 74 87 18 23 27 134 13 157
-16 25 -1 46 46 61 38 13 85 81 85 124 0 15 8 30 20 36 14 8 19 17 15 30 -4
13 0 20 17 25 32 10 68 45 68 66 0 31 12 49 32 49 10 0 33 13 51 30 18 16 37
30 43 30 17 0 47 38 39 50 -4 6 13 34 38 63 25 29 47 64 49 77 1 14 13 29 25
35 12 5 27 20 33 33 6 14 22 33 35 44 21 17 23 22 12 45 -10 22 -9 28 7 37 41
24 86 69 86 86 0 25 21 31 51 14 33 -18 69 -18 69 1 0 8 6 15 14 15 8 0 16 15
20 38 4 20 12 56 18 79 12 42 13 42 50 37 31 -6 43 -2 77 25 22 18 38 38 35
45 -3 7 6 20 20 29 30 20 54 13 117 -32 32 -24 45 -28 59 -21 10 6 30 10 44
10 28 0 36 10 45 54 6 25 13 32 41 37 19 4 36 12 38 17 2 6 14 22 28 37 24 26
26 26 50 10 13 -8 29 -13 33 -10 5 3 26 39 46 80 35 71 65 97 65 58 1 -29 24
-51 55 -55 27 -3 30 -7 33 -40 4 -46 16 -47 63 -9 41 34 56 34 89 3 21 -20 22
-24 10 -47 -7 -14 -10 -28 -7 -32 4 -3 7 -1 7 5 0 7 6 12 14 12 8 0 24 12 35
26 23 29 26 23 22 -43 -2 -18 1 -33 6 -33 13 1 49 34 62 58 14 27 29 28 47 5
19 -26 17 -57 -6 -78 -25 -22 -26 -45 -2 -45 9 1 41 14 71 30 41 22 59 27 73
19 22 -12 22 -18 3 -43 -31 -41 -21 -47 63 -40 70 6 79 5 96 -15 15 -17 26
-20 52 -15 24 4 38 1 49 -10 11 -10 36 -17 73 -18 108 -3 117 -4 150 -21 27
-15 31 -22 26 -42 -4 -17 -2 -25 7 -25 8 0 -4 -15 -25 -34 l-40 -33 36 -12
c26 -9 42 -9 59 -1 31 14 71 72 64 92 -3 8 1 21 10 28 8 7 15 20 15 30 0 9 12
45 26 80 21 53 25 79 26 166 0 103 0 104 24 104 22 0 23 3 14 20 -9 16 -8 20
5 20 9 0 18 -7 21 -15 4 -8 15 -15 26 -15 10 0 17 4 13 9 -3 5 -1 12 4 15 5 4
12 2 16 -4 10 -16 40 5 63 45 12 19 36 50 54 70 37 39 61 43 150 24z m2988
-961 c0 -12 -14 -10 -28 4 -19 19 -14 29 8 16 11 -7 20 -16 20 -20z m139 -128
c22 -22 42 -48 46 -60 3 -11 13 -20 21 -20 8 0 18 -9 22 -21 4 -11 19 -25 32
-32 35 -18 35 -34 1 -40 -38 -8 -69 2 -49 14 10 7 9 9 -5 9 -10 0 -33 16 -52
35 -38 37 -44 51 -20 41 8 -3 15 -1 15 5 0 6 -9 13 -20 16 -11 3 -20 9 -20 14
0 4 -5 20 -11 36 -8 22 -12 24 -20 13 -8 -13 -10 -13 -19 0 -5 8 -10 11 -10 7
0 -5 -5 -5 -11 -1 -8 4 -7 9 2 14 10 7 10 12 1 23 -20 23 -1 28 29 6 16 -11
46 -37 68 -59z m391 -400 c0 -5 7 -10 15 -10 8 0 15 -5 15 -10 0 -11 -44 -9
-56 2 -8 8 4 28 17 28 5 0 9 -4 9 -10z m175 -168 c0 -10 8 -17 19 -17 11 0 21
-6 24 -13 2 -6 10 -12 18 -12 8 0 14 -4 14 -10 0 -5 5 -10 10 -10 10 0 50 -36
50 -45 0 -3 -7 -5 -15 -5 -8 0 -15 -4 -15 -10 0 -13 17 -13 25 0 9 15 51 -6
96 -47 22 -21 48 -42 57 -47 30 -15 163 -158 159 -170 -11 -35 -121 -4 -137
39 -5 14 -14 25 -20 25 -5 0 -10 5 -10 12 0 19 -32 48 -52 48 -11 0 -23 11
-28 25 -5 14 -17 28 -26 32 -9 3 -37 26 -61 50 -25 23 -48 41 -52 39 -12 -8
-41 32 -41 54 0 12 -7 23 -15 25 -50 16 -50 16 -36 24 11 7 11 13 0 32 -6 13
-20 30 -31 37 -10 7 -18 18 -18 23 0 6 19 -6 43 -26 23 -20 42 -44 42 -53z
m620 -558 c14 -9 25 -23 25 -30 0 -8 3 -14 8 -14 11 0 62 -50 62 -61 0 -19
-44 2 -73 34 -29 34 -61 87 -52 87 3 0 17 -7 30 -16z m312 -304 c8 -11 10 -20
4 -20 -6 0 -15 9 -21 20 -6 11 -14 19 -18 19 -22 -4 -32 3 -32 22 l0 20 27
-21 c15 -11 33 -30 40 -40z m63 -60 c0 -5 -7 -10 -15 -10 -8 0 -15 5 -15 10 0
6 7 10 15 10 8 0 15 -4 15 -10z m723 -54 c25 -24 52 -46 59 -49 7 -2 10 -7 7
-11 -15 -17 -129 67 -129 95 0 18 19 8 63 -35z m-660 0 c17 -13 23 -36 9 -36
-8 0 -42 37 -42 45 0 9 15 5 33 -9z m94 -92 c46 -45 47 -46 18 -39 -31 7 -65
36 -65 55 0 5 -4 10 -10 10 -5 0 -10 5 -10 10 0 20 19 9 67 -36z m104 -91 c21
-16 39 -34 39 -40 0 -7 5 -13 11 -13 20 0 216 -163 258 -215 9 -10 52 -55 96
-100 111 -111 140 -166 58 -111 -20 14 -43 26 -50 26 -6 0 -20 11 -31 25 -11
14 -25 25 -31 25 -6 0 -11 9 -11 20 0 13 -7 20 -20 20 -20 0 -43 21 -177 163
-46 48 -83 94 -83 101 0 8 -21 31 -47 52 -49 39 -63 54 -63 67 0 12 10 8 51
-20z m-4385 -407 c6 -27 -1 -46 -18 -46 -6 0 -8 9 -5 21 3 12 0 22 -9 26 -21
8 -17 23 6 23 12 0 22 -9 26 -24z m-201 -196 c3 -5 1 -10 -4 -10 -6 0 -11 5
-11 10 0 6 2 10 4 10 3 0 8 -4 11 -10z m1011 -42 c61 -52 67 -65 37 -74 -30
-9 -48 -22 -46 -32 1 -6 -7 -7 -20 -4 -18 5 -19 7 -4 10 9 2 17 7 17 12 0 4
-9 6 -20 3 -11 -3 -20 -9 -20 -14 0 -17 -21 -9 -44 18 l-24 27 31 28 c25 24
56 47 64 48 2 0 15 -10 29 -22z m-1006 -70 c0 -12 -7 -18 -22 -17 -13 0 -17 3
-10 6 17 7 15 23 -3 23 -18 0 -20 27 -2 33 15 5 36 -21 37 -45z m-224 -48 c8
0 14 -7 14 -15 0 -17 26 -21 33 -5 3 6 4 5 3 -2 -4 -19 -72 -20 -91 -2 -18 18
-10 38 12 30 8 -3 21 -6 29 -6z m264 -54 c-1 -16 -29 36 -30 54 0 8 7 2 15
-14 8 -15 15 -33 15 -40z m210 -3 c0 -7 -4 -13 -8 -13 -10 0 -32 45 -32 63 1
16 39 -34 40 -50z m-155 -113 c3 -5 1 -10 -4 -10 -6 0 -11 5 -11 10 0 6 2 10
4 10 3 0 8 -4 11 -10z m-475 -62 c21 -22 34 -29 37 -20 8 21 21 13 28 -18 4
-16 11 -30 16 -30 5 0 9 -9 9 -20 0 -23 -10 -26 -28 -8 -9 9 -12 8 -12 -5 0
-45 -65 13 -75 67 -4 20 -11 36 -16 36 -5 0 -9 7 -9 15 0 23 15 18 50 -17z
m369 -24 c17 -20 33 -53 36 -73 3 -20 12 -60 20 -88 11 -45 11 -53 0 -53 -14
0 -45 26 -45 38 0 4 -18 26 -40 50 -42 45 -51 78 -25 88 12 5 14 15 9 40 -8
44 5 43 45 -2z m379 -23 c3 -16 -1 -22 -10 -19 -7 3 -15 15 -16 27 -3 16 1 22
10 19 7 -3 15 -15 16 -27z m-468 -126 c9 -11 10 -19 2 -27 -14 -14 -32 -1 -32
23 0 23 13 25 30 4z m-237 -199 c25 -19 21 -27 -8 -14 -14 6 -25 15 -25 20 0
12 12 9 33 -6z m-2013 -174 c0 -25 -47 -122 -60 -122 -6 0 -16 11 -22 25 -13
28 -1 58 39 101 24 26 43 24 43 -4z m436 -639 c19 -43 41 -81 47 -85 7 -4 12
-32 12 -65 l0 -57 45 -13 c25 -7 77 -22 117 -33 87 -25 135 -61 131 -98 -3
-25 -5 -26 -68 -23 -36 1 -70 7 -76 12 -6 5 -39 13 -75 19 -115 18 -142 25
-146 36 -2 6 10 28 27 49 16 21 30 41 30 46 0 14 -42 79 -51 79 -5 0 -9 7 -9
16 0 9 -8 31 -19 48 -23 39 -34 146 -14 146 7 0 29 -35 49 -77z m-2651 -53
c17 -7 14 -9 -13 -9 -20 -1 -31 3 -27 9 7 12 13 12 40 0z m-506 -174 c-12 -10
-59 -15 -59 -6 0 5 14 10 32 10 17 0 29 -2 27 -4z m537 -111 c18 -15 18 -15
-5 -13 -14 2 -26 9 -29 16 -5 17 10 15 34 -3z m41 -41 c-3 -3 -12 -4 -19 -1
-8 3 -5 6 6 6 11 1 17 -2 13 -5z m-507 -224 c0 -5 -5 -10 -11 -10 -5 0 -7 5
-4 10 3 6 8 10 11 10 2 0 4 -4 4 -10z m7845 -90 c3 -5 -1 -10 -9 -10 -9 0 -16
5 -16 10 0 6 4 10 9 10 6 0 13 -4 16 -10z m-8190 -120 c3 -5 1 -10 -4 -10 -6
0 -11 5 -11 10 0 6 2 10 4 10 3 0 8 -4 11 -10z m165 -130 c0 -5 -7 -10 -16
-10 -8 0 -12 5 -9 10 3 6 10 10 16 10 5 0 9 -4 9 -10z m8980 5 c0 -13 -37 -45
-52 -45 -25 0 -23 14 5 33 21 16 47 22 47 12z m-1515 -1025 c-3 -5 -12 -10
-20 -10 -8 0 -17 5 -20 10 -4 6 5 10 20 10 15 0 24 -4 20 -10z"/>
<path d="M1730 13171 c0 -6 4 -13 10 -16 6 -3 7 1 4 9 -7 18 -14 21 -14 7z"/>
<path d="M1705 13150 c-3 -5 -1 -10 4 -10 6 0 11 5 11 10 0 6 -2 10 -4 10 -3
0 -8 -4 -11 -10z"/>
<path d="M2902 11758 c-30 -30 -4 -96 32 -82 19 7 20 17 4 61 -13 36 -18 39
-36 21z"/>
<path d="M2875 11611 c-3 -11 -2 -28 3 -37 8 -14 10 -12 16 11 8 33 -9 57 -19
26z"/>
<path d="M5726 8451 c-68 -8 -68 -25 1 -41 32 -7 63 -17 70 -22 7 -5 14 -5 18
2 3 6 10 8 15 5 4 -3 11 2 14 11 3 8 10 13 15 9 13 -7 26 15 15 25 -13 11 -92
17 -148 11z"/>
<path d="M6430 7725 c0 -8 2 -15 4 -15 2 0 6 7 10 15 3 8 1 15 -4 15 -6 0 -10
-7 -10 -15z"/>
<path d="M6395 7570 c3 -5 8 -10 11 -10 2 0 4 5 4 10 0 6 -5 10 -11 10 -5 0
-7 -4 -4 -10z"/>
<path d="M6675 7540 c-3 -5 1 -10 9 -10 9 0 16 5 16 10 0 6 -4 10 -9 10 -6 0
-13 -4 -16 -10z"/>
<path d="M6661 7483 c1 -22 2 -23 6 -8 3 11 10 23 17 27 7 5 5 8 -6 8 -13 0
-18 -7 -17 -27z"/>
<path d="M7080 6834 c0 -8 -4 -12 -10 -9 -5 3 -10 -1 -10 -9 0 -9 -7 -16 -15
-16 -8 0 -15 -3 -15 -6 0 -13 25 -51 51 -76 24 -25 29 -26 43 -13 8 8 21 15
29 15 7 0 16 3 19 6 9 8 -24 104 -34 98 -4 -3 -8 2 -8 10 0 10 -9 16 -25 16
-16 0 -25 -6 -25 -16z"/>
<path d="M6175 6661 c-3 -5 -1 -12 5 -16 12 -7 30 2 30 16 0 12 -27 12 -35 0z"/>
<path d="M8195 6649 c-4 -6 -13 -8 -21 -5 -8 3 -20 -6 -30 -25 -23 -45 -13
-44 31 1 22 22 36 40 33 40 -4 0 -10 -5 -13 -11z"/>
<path d="M8285 6641 c-26 -11 -95 -82 -95 -98 0 -7 12 -15 28 -18 15 -3 48
-12 73 -20 26 -8 56 -15 67 -15 41 0 45 44 11 118 -20 44 -39 51 -84 33z"/>
<path d="M6940 6630 c0 -15 62 -50 89 -50 20 0 22 2 10 16 -27 32 -99 57 -99
34z"/>
<path d="M6944 6552 c-16 -10 -24 -64 -13 -84 16 -29 55 -21 94 19 38 40 37
44 -14 62 -39 13 -52 13 -67 3z"/>
<path d="M8180 6479 c0 -6 7 -9 15 -5 10 4 15 -1 15 -14 0 -18 7 -20 59 -20
32 0 74 -3 92 -7 31 -6 33 -5 20 10 -7 9 -23 17 -36 17 -12 0 -35 4 -51 9 -52
17 -114 22 -114 10z"/>
<path d="M8252 6398 c-7 -7 -12 -22 -12 -35 0 -18 6 -23 25 -23 14 0 25 -4 25
-9 0 -5 13 -19 29 -30 25 -18 33 -19 55 -10 14 7 26 19 26 28 0 16 -53 56
-104 78 -34 16 -29 16 -44 1z"/>
<path d="M7826 5949 c-14 -17 -24 -34 -21 -39 2 -4 -4 -15 -15 -25 -11 -10
-20 -28 -20 -41 0 -62 142 -194 209 -194 13 0 18 5 15 13 -5 13 57 77 74 77 5
0 15 -11 22 -25 13 -24 69 -50 92 -43 6 2 -10 20 -36 39 -28 20 -54 48 -63 69
-20 49 -114 116 -176 125 -46 7 -48 9 -42 35 9 41 -9 45 -39 9z"/>
<path d="M7124 5942 c-64 -47 -68 -55 -48 -97 18 -38 71 -85 96 -85 20 0 85
44 121 80 35 37 34 60 -2 99 -25 27 -36 31 -79 31 -38 0 -58 -6 -88 -28z"/>
<path d="M8288 5555 c10 -22 23 -35 35 -35 11 0 15 4 11 12 -4 6 1 17 12 25
16 12 17 15 4 23 -8 5 -29 10 -46 10 l-32 0 16 -35z"/>
<path d="M8480 5465 c0 -14 6 -25 13 -26 6 0 24 -2 40 -3 33 -2 35 9 5 35 -33
27 -58 24 -58 -6z"/>
<path d="M8442 5459 c2 -7 10 -15 17 -17 8 -3 12 1 9 9 -2 7 -10 15 -17 17 -8
3 -12 -1 -9 -9z"/>
<path d="M8490 5320 c0 -13 26 -19 41 -9 15 10 14 10 -18 14 -13 1 -23 -1 -23
-5z"/>
<path d="M6960 5260 c-17 -10 -14 -15 18 -24 18 -6 22 -3 22 13 0 22 -16 27
-40 11z"/>
<path d="M7210 5010 c-6 -11 -8 -25 -5 -30 8 -13 128 -7 132 6 4 11 -70 44
-99 44 -10 0 -22 -9 -28 -20z"/>
<path d="M7490 4670 c0 -5 5 -10 10 -10 6 0 10 5 10 10 0 6 -4 10 -10 10 -5 0
-10 -4 -10 -10z"/>
<path d="M7277 4589 c-4 -15 -1 -19 10 -17 22 4 27 24 9 31 -8 3 -16 -2 -19
-14z"/>
<path d="M7650 4549 c0 -18 2 -19 15 -9 8 7 15 16 15 21 0 5 -7 9 -15 9 -9 0
-15 -9 -15 -21z"/>
<path d="M7700 4309 c0 -11 5 -17 10 -14 6 3 10 13 10 21 0 8 -4 14 -10 14 -5
0 -10 -9 -10 -21z"/>
<path d="M7163 4293 c12 -11 -23 -41 -42 -36 -14 3 -20 -3 -25 -27 -10 -54 -8
-60 22 -57 54 7 60 14 58 73 0 29 -5 54 -10 54 -5 0 -6 -3 -3 -7z"/>
<path d="M8456 4222 c-3 -6 -1 -14 5 -17 15 -10 25 3 12 16 -7 7 -13 7 -17 1z"/>
<path d="M4826 3774 c-9 -24 -7 -27 9 -10 17 17 19 26 6 26 -5 0 -12 -7 -15
-16z"/>
<path d="M7042 3110 c0 -14 2 -19 5 -12 2 6 2 18 0 25 -3 6 -5 1 -5 -13z"/>
<path d="M4657 13763 c-3 -30 -1 -51 6 -55 6 -4 11 -27 9 -52 -1 -32 3 -48 14
-54 9 -5 16 -20 16 -33 -1 -71 -10 -132 -22 -139 -31 -19 -33 -253 -4 -312 8
-15 14 -42 14 -60 1 -19 10 -44 23 -60 23 -28 77 -49 77 -30 0 6 11 22 24 37
25 27 39 84 38 152 -1 25 5 46 14 53 7 7 14 29 14 49 0 20 5 42 11 48 13 13
-8 53 -28 53 -6 0 -17 17 -24 38 -6 20 -16 43 -22 50 -6 8 -6 12 2 12 14 0 14
33 0 47 -8 8 -8 17 1 33 14 27 17 147 3 161 -5 5 -8 32 -5 59 l5 50 -80 0 -80
0 -6 -47z"/>
<path d="M8296 13778 c-7 -54 -4 -148 5 -142 5 3 9 -10 9 -28 0 -18 4 -39 9
-47 11 -18 25 70 16 109 -3 16 -2 31 4 35 6 3 11 28 11 56 0 45 -2 49 -25 49
-20 0 -25 -6 -29 -32z"/>
<path d="M8363 13795 c-3 -9 -3 -31 0 -50 4 -21 2 -35 -5 -35 -6 0 -7 -7 -2
-17 4 -10 9 -161 10 -335 1 -175 5 -344 9 -375 7 -54 8 -56 17 -30 l10 29 19
-32 c13 -21 20 -53 21 -100 1 -39 6 -70 10 -70 4 0 3 -10 -3 -22 -6 -16 -6
-49 1 -103 5 -44 9 -98 8 -120 -1 -22 -1 -56 0 -75 2 -19 4 -81 6 -138 2 -57
6 -105 8 -108 3 -2 10 40 17 93 6 54 18 104 26 113 21 24 26 180 6 203 -13 16
-13 22 -1 50 7 18 14 48 14 69 1 20 4 34 7 32 12 -7 19 26 19 86 0 32 5 62 10
65 6 3 10 16 10 28 0 12 7 34 14 50 11 19 12 27 3 27 -7 0 -3 7 8 16 16 12 17
16 6 23 -9 6 -11 18 -7 34 3 14 2 29 -4 32 -13 8 -13 72 0 80 6 3 10 14 10 24
0 10 7 24 15 31 8 7 12 16 9 21 -3 5 -1 17 4 26 6 10 6 26 2 39 -5 13 -5 37 1
56 5 18 12 98 14 178 3 80 7 162 11 183 l6 37 -151 0 c-128 0 -153 -2 -158
-15z"/>
<path d="M8741 13683 c-7 -71 -12 -164 -11 -208 1 -44 1 -258 1 -475 -3 -541
13 -744 35 -457 3 51 13 104 20 119 8 15 11 35 7 45 -5 15 -4 16 8 5 7 -7 15
-34 16 -60 3 -70 5 -72 13 -12 18 124 8 228 -16 188 -6 -9 -10 -5 -15 12 -16
59 -9 93 33 158 39 60 42 68 50 170 9 107 1 186 -25 240 -14 30 -11 71 6 91 8
9 24 38 37 65 13 27 43 70 67 95 38 40 103 132 103 146 0 3 -71 5 -158 5
l-159 0 -12 -127z"/>
<path d="M9208 13766 c-16 -24 -28 -51 -28 -61 0 -31 -23 -99 -42 -124 -10
-13 -18 -40 -18 -62 0 -41 12 -50 29 -21 9 14 10 13 11 -11 0 -23 4 -28 21
-25 12 2 27 12 33 23 6 10 21 28 34 38 12 10 22 26 22 36 0 9 9 34 20 56 11
22 20 44 20 49 0 5 6 17 14 25 8 9 18 40 22 69 l7 52 -59 0 c-59 0 -59 0 -86
-44z"/>
<path d="M12920 13800 c0 -17 51 -85 72 -96 15 -8 31 -8 57 0 37 11 91 47 91
61 0 4 10 15 23 26 22 18 20 18 -110 19 -78 0 -133 -4 -133 -10z"/>
<path d="M13572 13776 c8 -24 19 -36 36 -41 29 -7 28 -9 36 38 l7 37 -45 0
-44 0 10 -34z"/>
<path d="M9665 13780 c-3 -5 -17 -10 -29 -10 -24 0 -26 -3 -58 -92 -6 -18 -20
-43 -30 -54 -12 -14 -20 -39 -21 -67 -2 -51 9 -70 27 -46 9 14 11 10 11 -23 0
-25 6 -44 16 -51 9 -7 14 -18 11 -25 -2 -8 12 3 33 23 l36 37 9 122 c5 66 12
138 16 159 5 35 -6 51 -21 27z"/>
<path d="M13387 13703 c-4 -3 -7 -12 -7 -20 0 -19 47 -16 59 5 10 16 10 16 11
0 0 -12 8 -18 25 -18 18 0 25 5 25 20 0 18 -7 20 -53 20 -30 0 -57 -3 -60 -7z"/>
<path d="M10125 13670 c-14 -16 -26 -18 -60 -13 -40 5 -44 3 -58 -23 -8 -16
-34 -47 -57 -69 -23 -23 -58 -74 -80 -120 l-39 -80 -2 -177 c-1 -98 0 -181 3
-184 10 -9 89 35 141 79 70 58 78 80 97 267 14 146 18 165 33 164 27 -3 45 34
52 109 8 71 1 81 -30 47z"/>
<path d="M9081 13496 c-8 -9 -11 -19 -7 -23 9 -9 29 13 24 27 -2 8 -8 7 -17
-4z"/>
<path d="M9530 13466 c0 -8 5 -18 10 -21 6 -3 10 3 10 14 0 12 -4 21 -10 21
-5 0 -10 -6 -10 -14z"/>
<path d="M13780 13460 c-6 -11 -14 -19 -18 -18 -4 1 -20 -4 -36 -11 -47 -19
-92 -76 -87 -109 4 -24 -19 -41 -63 -47 -36 -6 -46 -12 -58 -38 -24 -50 -31
-94 -18 -117 12 -23 16 -113 6 -180 -3 -25 -9 -65 -12 -90 -4 -25 -15 -57 -26
-72 -16 -23 -23 -26 -39 -18 -10 6 -28 29 -39 51 -18 35 -20 51 -14 127 7 88
16 122 35 122 21 0 42 32 46 73 6 54 -20 83 -60 68 -14 -6 -41 -7 -60 -4 -36
5 -67 -15 -67 -44 0 -11 -6 -14 -24 -9 -14 3 -28 1 -34 -7 -11 -14 -62 -139
-62 -153 0 -16 -24 -64 -32 -64 -4 0 -3 -10 2 -22 5 -13 14 -58 19 -101 17
-124 64 -211 116 -218 29 -3 74 10 120 36 67 38 155 61 228 60 47 0 66 3 63
12 -3 6 4 19 15 29 10 9 19 23 19 31 0 7 4 13 10 13 5 0 12 11 16 25 3 14 10
25 14 25 4 0 7 30 7 68 0 89 8 112 39 112 l24 0 0 245 c0 238 -5 273 -30 225z"/>
<path d="M10101 13454 c0 -11 3 -14 6 -6 3 7 2 16 -1 19 -3 4 -6 -2 -5 -13z"/>
<path d="M9297 13356 c-14 -13 -33 -38 -42 -57 -47 -91 -131 -214 -199 -289
-22 -24 -57 -100 -51 -110 3 -5 1 -11 -4 -15 -5 -3 -7 -15 -4 -28 2 -12 7 -46
10 -74 7 -66 23 -82 52 -52 12 13 19 30 16 40 -6 17 61 139 76 139 4 0 44 31
87 70 89 78 97 95 108 236 4 63 10 84 25 95 10 7 19 24 19 37 0 19 -4 23 -20
19 -11 -3 -23 -1 -26 4 -8 14 -19 11 -47 -15z"/>
<path d="M7440 13060 c0 -5 5 -10 10 -10 6 0 10 5 10 10 0 6 -4 10 -10 10 -5
0 -10 -4 -10 -10z"/>
<path d="M7487 13063 c-7 -15 -2 -36 11 -40 7 -3 12 5 12 21 0 24 -14 36 -23
19z"/>
<path d="M7141 13044 c0 -11 3 -14 6 -6 3 7 2 16 -1 19 -3 4 -6 -2 -5 -13z"/>
<path d="M7530 13030 c0 -11 4 -20 9 -20 5 0 7 9 4 20 -3 11 -7 20 -9 20 -2 0
-4 -9 -4 -20z"/>
<path d="M10169 13034 c-10 -12 -15 -57 -17 -158 -7 -273 -4 -311 19 -276 5 8
9 58 8 110 -1 87 11 223 26 289 8 37 -16 59 -36 35z"/>
<path d="M7162 13015 c-7 -8 -8 -15 -3 -15 5 0 13 -9 16 -20 3 -11 10 -20 15
-20 5 0 24 -13 42 -30 18 -16 43 -30 56 -30 13 0 20 -4 17 -10 -10 -16 54 -38
117 -42 31 -1 54 -6 52 -10 -3 -5 7 -8 21 -8 31 0 62 -15 93 -45 12 -13 38
-26 57 -29 24 -5 40 -17 55 -42 13 -21 40 -43 66 -56 29 -13 44 -27 44 -39 0
-22 15 -25 23 -5 3 7 -4 21 -15 30 -14 12 -18 24 -14 42 7 26 -11 33 -31 13
-8 -8 -16 -4 -28 14 -9 15 -14 31 -10 37 3 5 0 10 -9 10 -8 0 -16 -5 -18 -11
-2 -6 -14 -2 -28 11 l-25 21 24 -7 c34 -9 18 12 -24 32 -19 9 -41 14 -49 11
-10 -4 -13 -1 -9 9 3 7 10 14 15 14 23 0 -46 55 -70 57 -15 1 -28 6 -30 11 -3
10 -61 -1 -125 -24 -33 -11 -38 -11 -34 1 9 21 -38 65 -69 65 -22 0 -24 3 -15
14 13 16 -2 32 -19 21 -6 -3 -17 1 -26 9 -8 9 -12 16 -7 16 4 0 1 5 -7 10 -20
13 -33 12 -48 -5z"/>
<path d="M13090 12979 c0 -5 5 -7 10 -4 6 3 10 8 10 11 0 2 -4 4 -10 4 -5 0
-10 -5 -10 -11z"/>
<path d="M13801 12944 c0 -11 3 -14 6 -6 3 7 2 16 -1 19 -3 4 -6 -2 -5 -13z"/>
<path d="M9311 12769 c-13 -5 -49 -34 -80 -65 -30 -30 -61 -52 -68 -50 -7 3
-13 1 -13 -4 0 -6 10 -10 23 -10 12 0 43 -7 68 -16 81 -30 119 -1 119 90 0 51
-15 68 -49 55z"/>
<path d="M13754 12721 c-44 -20 -69 -50 -101 -121 -34 -75 -35 -80 -38 -241
-3 -172 -9 -215 -32 -228 -14 -8 -14 -13 1 -56 9 -27 16 -59 16 -72 0 -26 46
-55 58 -36 12 18 59 24 65 9 3 -8 1 -16 -6 -19 -7 -2 -11 -26 -10 -68 3 -71
-12 -115 -39 -122 -10 -3 -18 -11 -18 -18 0 -9 18 -10 70 -6 39 3 75 9 80 12
6 4 10 63 10 144 0 127 -2 139 -21 157 -37 33 -42 52 -21 82 38 54 42 88 42
348 0 140 -3 254 -7 254 -5 0 -26 -9 -49 -19z"/>
<path d="M4725 12681 c-8 -16 -18 -54 -21 -85 -5 -45 -3 -61 14 -90 26 -43 39
-140 22 -161 -28 -34 11 -92 48 -69 22 14 27 57 8 74 -25 20 -20 59 9 70 14 5
25 16 25 24 0 7 6 19 13 25 21 17 43 91 30 99 -6 4 -14 28 -18 55 -4 26 -12
47 -19 47 -6 0 -17 9 -24 20 -20 32 -68 27 -87 -9z"/>
<path d="M8726 12239 c-9 -45 -7 -87 3 -93 11 -7 21 28 21 82 0 49 -15 56 -24
11z"/>
<path d="M10056 12199 c-35 -42 -47 -67 -25 -53 13 7 8 -72 -9 -166 -8 -43 -9
-44 -16 -17 -9 31 -13 154 -6 177 8 25 -37 25 -50 0 -7 -13 -14 -103 -17 -226
-6 -188 -5 -204 11 -204 10 0 23 14 31 34 14 33 41 63 29 33 -8 -21 36 -29 63
-12 30 20 31 29 36 250 3 105 6 196 8 204 8 30 -21 19 -55 -20z"/>
<path d="M13361 12178 c-7 -29 -16 -66 -18 -81 -6 -32 13 -102 33 -118 6 -5 9
-19 6 -31 -3 -15 -1 -19 9 -16 8 3 15 11 15 19 1 8 3 19 4 24 1 6 3 15 4 20 1
6 8 24 16 40 23 51 19 109 -10 137 -14 13 -29 32 -35 42 -8 14 -12 8 -24 -36z"/>
<path d="M4750 12192 c0 -6 6 -13 13 -16 10 -5 10 -7 0 -12 -7 -3 -13 -11 -13
-19 0 -20 -29 -39 -63 -39 -28 -1 -32 -4 -31 -26 3 -46 47 -204 60 -218 8 -7
14 -20 14 -28 0 -15 37 -19 55 -6 6 4 19 32 29 62 11 30 28 69 38 85 31 51 24
95 -24 156 -24 29 -41 56 -38 59 3 3 -5 6 -17 8 -13 2 -23 -1 -23 -6z"/>
<path d="M11845 12145 c-13 -33 -15 -51 -8 -68 10 -22 10 -22 25 8 25 49 29
81 14 94 -11 10 -17 3 -31 -34z"/>
<path d="M8468 12081 c-6 -39 0 -71 13 -71 5 0 9 4 9 8 0 4 16 6 35 4 21 -3
35 0 35 7 0 6 8 11 19 11 10 0 24 7 31 16 11 12 11 18 -1 29 -12 12 -22 13
-54 4 -22 -6 -45 -18 -51 -27 -11 -15 -13 -12 -21 18 l-10 35 -5 -34z"/>
<path d="M8717 12098 c-5 -17 3 -48 13 -48 12 0 20 28 14 45 -7 18 -21 20 -27
3z"/>
<path d="M9694 11972 c-17 -15 -39 -40 -47 -57 -15 -29 -32 -101 -28 -119 1
-4 -4 -14 -10 -22 -7 -8 -9 -17 -6 -21 4 -3 2 -14 -4 -24 -5 -11 -6 -19 -1
-19 17 0 44 -52 51 -99 6 -42 9 -46 31 -43 14 2 28 7 32 10 21 21 42 392 23
411 -7 6 -21 1 -41 -17z"/>
<path d="M11826 11912 c-3 -6 -1 -14 5 -17 15 -10 25 3 12 16 -7 7 -13 7 -17
1z"/>
<path d="M9500 11792 c-49 -15 -61 -59 -37 -138 l12 -41 25 51 c20 39 24 61
20 92 -4 30 -9 40 -20 36z"/>
<path d="M7963 11437 c-11 -19 -94 -48 -163 -56 -51 -6 -55 -8 -57 -33 -1 -24
3 -28 30 -32 18 -3 48 -5 67 -4 19 0 74 -3 122 -7 103 -9 109 -4 86 78 -11 41
-18 51 -32 49 -9 -2 -24 2 -31 8 -10 8 -15 8 -22 -3z"/>
<path d="M5973 11301 c-10 -15 -8 -22 8 -37 18 -16 19 -16 19 7 0 37 -13 52
-27 30z"/>
<path d="M7375 11240 c3 -5 8 -10 11 -10 2 0 4 5 4 10 0 6 -5 10 -11 10 -5 0
-7 -4 -4 -10z"/>
<path d="M10082 11179 c-11 -26 -25 -50 -31 -53 -6 -4 -11 -25 -11 -47 0 -34
4 -41 28 -50 53 -20 74 18 60 110 -14 86 -23 94 -46 40z"/>
<path d="M8408 11128 c-24 -31 -25 -36 -11 -62 13 -24 13 -35 -1 -89 -17 -67
-37 -90 -72 -81 -12 3 -25 1 -29 -6 -10 -15 15 -42 33 -35 8 3 23 3 32 0 20
-6 45 -58 36 -73 -3 -5 -1 -34 4 -63 5 -30 12 -72 16 -94 6 -38 7 -39 16 -15
6 14 24 52 40 86 25 52 34 76 37 105 1 3 14 23 31 44 29 36 29 38 14 74 -8 20
-25 50 -37 66 -17 24 -22 44 -22 94 0 49 -3 65 -15 67 -8 1 -22 5 -31 9 -11 4
-24 -5 -41 -27z"/>
<path d="M9491 11019 c-13 -43 -8 -58 32 -87 9 -7 17 -24 17 -37 0 -109 109
-92 125 19 10 62 -11 140 -34 130 -9 -3 -32 -10 -51 -15 -29 -7 -37 -5 -49 11
-19 29 -26 25 -40 -21z"/>
<path d="M4410 11022 c0 -16 25 -40 49 -45 23 -6 23 -5 -5 24 -27 29 -44 37
-44 21z"/>
<path d="M8955 10950 c-21 -16 -41 -30 -44 -30 -5 0 -7 -250 -3 -286 1 -7 14
-14 29 -17 33 -6 111 45 118 77 3 12 6 76 8 144 3 110 2 124 -14 133 -30 16
-55 10 -94 -21z"/>
<path d="M9710 10940 c0 -5 5 -10 11 -10 5 0 7 5 4 10 -3 6 -8 10 -11 10 -2 0
-4 -4 -4 -10z"/>
<path d="M8220 10933 c-1 -5 -5 -28 -9 -52 -12 -60 -4 -78 20 -47 15 19 17 30
9 50 -5 14 -7 33 -4 41 4 8 1 15 -5 15 -6 0 -11 -3 -11 -7z"/>
<path d="M8043 10607 c4 -13 35 -18 42 -7 3 4 -7 10 -21 13 -14 2 -23 0 -21
-6z"/>
<path d="M4967 10489 c16 -16 25 -19 38 -12 15 9 13 12 -15 22 -45 15 -48 14
-23 -10z"/>
<path d="M4894 10394 c3 -31 19 -43 52 -36 28 5 27 4 12 37 -8 18 -19 25 -39
25 -24 0 -27 -4 -25 -26z m56 -4 c0 -5 -5 -10 -11 -10 -5 0 -7 5 -4 10 3 6 8
10 11 10 2 0 4 -4 4 -10z"/>
<path d="M4761 10056 c12 -10 60 -16 54 -6 -3 5 -18 10 -32 10 -15 0 -24 -2
-22 -4z"/>
<path d="M2736 9338 c3 -4 16 -8 30 -8 13 0 24 4 24 8 0 5 -13 9 -30 9 -16 0
-27 -4 -24 -9z"/>
</g>
</svg>
