<?xml version="1.0" standalone="no"?>
<!DOCTYPE svg PUBLIC "-//W3C//DTD SVG 20010904//EN"
 "http://www.w3.org/TR/2001/REC-SVG-20010904/DTD/svg10.dtd">
<svg version="1.0" xmlns="http://www.w3.org/2000/svg"
 width="800.000000pt" height="800.000000pt" viewBox="0 0 800.000000 800.000000"
 preserveAspectRatio="xMidYMid meet">
<metadata>
Created by potrace 1.16, written by Peter Selinger 2001-2019
</metadata>
<g transform="translate(0.000000,800.000000) scale(0.100000,-0.100000)"
fill="#000000" stroke="none">
<path d="M0 7666 l0 -334 199 0 199 0 41 -43 c31 -33 39 -49 34 -64 -4 -11 -6
-271 -5 -577 2 -447 0 -558 -10 -558 -10 0 -10 -2 1 -9 28 -18 -20 -232 -55
-245 -22 -8 -17 -29 6 -23 13 3 20 0 20 -10 0 -8 -6 -13 -12 -10 -52 21 -51
21 -46 -1 6 -22 -6 -30 -17 -12 -6 10 -299 12 -335 3 -19 -5 -20 -15 -20 -210
l0 -205 213 2 c281 3 266 4 260 -20 -5 -18 -14 -20 -99 -21 -52 -1 -98 -3
-104 -4 -5 -1 -68 -3 -140 -4 l-130 -1 0 -70 0 -70 233 -3 232 -2 -232 -3
-233 -2 0 -245 0 -245 240 0 c132 0 240 -3 240 -7 0 -15 -15 -30 -35 -36 -11
-4 -108 -7 -215 -8 -107 0 -203 -3 -212 -6 -15 -4 -18 -16 -18 -73 l0 -70 208
-3 207 -2 -207 -3 -208 -2 0 -260 0 -260 938 0 c645 0 949 -4 977 -11 22 -6
50 -20 62 -32 l23 -20 -1 -1526 c0 -1195 -3 -1534 -13 -1561 -17 -47 -67 -80
-120 -79 -39 1 -39 2 -11 9 64 15 -10 24 -175 22 -213 -4 -218 -4 -328 -2 -60
1 -98 -2 -107 -10 -9 -8 -15 -8 -15 -2 0 6 -60 10 -162 11 -90 1 -187 3 -216
4 -30 1 -56 -1 -59 -6 -2 -4 -10 -4 -16 0 -17 10 -358 12 -384 2 -12 -4 -25
-4 -27 0 -3 5 -69 8 -147 6 -115 -1 -144 -4 -153 -17 -9 -13 -13 -13 -24 -2
-7 8 -19 14 -27 14 -12 0 -14 -59 -15 -375 l0 -375 4000 0 4000 0 0 856 c0
470 -4 853 -8 850 -5 -3 -9 1 -9 9 0 8 3 12 7 10 9 -6 6 48 -4 64 -6 10 -5 12
3 7 9 -6 11 53 11 244 -1 231 -3 250 -18 238 -13 -11 -14 -11 -7 1 6 11 4 13
-8 8 -9 -3 -18 -1 -20 6 -3 9 -9 9 -25 0 -18 -11 -19 -10 -15 10 5 22 5 22
-10 2 -18 -21 -23 -10 -7 15 7 11 12 12 21 3 7 -7 24 -9 41 -6 20 4 33 1 39
-8 5 -8 9 466 9 1135 l0 1149 -125 -7 c-107 -6 -125 -5 -125 8 0 20 72 32 173
29 l77 -2 0 584 c0 430 -3 586 -12 591 -7 4 -8 3 -4 -4 5 -8 0 -12 -13 -12
-17 0 -21 7 -22 38 0 20 -3 58 -5 85 -4 47 -4 47 26 47 28 0 30 2 30 38 l0 37
-45 -3 c-33 -3 -48 -10 -56 -25 -10 -18 -13 -16 -28 29 -9 27 -12 52 -7 55 4
4 2 9 -5 12 -10 4 -8 6 4 6 10 1 17 7 14 14 -2 6 -18 11 -36 11 -17 -1 -31 2
-31 7 0 5 43 9 95 9 l95 0 0 930 0 930 -2367 -2 c-2009 -3 -2367 -5 -2371 -17
-3 -9 0 -11 7 -6 9 5 9 2 0 -13 -20 -32 -61 -16 -51 20 3 14 2 19 -6 14 -7 -4
-12 -13 -12 -21 0 -23 -18 -27 -50 -10 -33 17 -38 14 -14 -9 10 -10 11 -16 4
-16 -7 0 -10 -6 -7 -13 3 -8 1 -20 -4 -28 -6 -10 -9 -6 -10 16 -1 25 -2 26 -6
7 -4 -23 -5 -23 -24 -6 -15 13 -17 19 -7 26 9 5 7 8 -6 8 -16 0 -17 3 -8 12
18 18 15 27 -7 21 -12 -3 -17 -12 -16 -27 2 -16 -3 -22 -17 -23 -20 -2 -20 -1
-2 13 11 9 13 12 5 8 -10 -5 -11 -1 -6 15 6 20 4 21 -25 16 -23 -4 -29 -2 -24
6 4 8 3 9 -5 5 -6 -4 -9 -11 -7 -14 2 -4 -2 -18 -10 -32 -7 -14 -13 -19 -14
-11 0 9 -8 12 -25 9 -13 -3 -22 -1 -19 3 3 5 -4 9 -15 9 -11 0 -23 5 -27 12
-11 17 -33 -18 -27 -42 3 -11 1 -20 -4 -20 -6 0 -9 10 -8 23 2 16 -2 23 -15
23 -10 0 -18 -3 -18 -6 3 -16 -16 -38 -27 -33 -10 3 -13 -1 -10 -16 2 -13 -3
-25 -15 -31 -16 -8 -18 -8 -14 5 3 8 10 12 15 9 5 -3 6 2 3 11 -5 13 -9 12
-25 -6 -13 -16 -19 -18 -21 -8 0 8 -2 21 -3 29 -1 8 3 20 7 27 7 8 3 10 -11 6
-12 -3 -18 -10 -14 -16 4 -6 0 -8 -10 -4 -10 3 -17 2 -17 -4 0 -6 -4 -7 -10
-4 -6 3 -7 -1 -4 -10 4 -11 13 -14 28 -9 29 9 9 -9 -29 -25 -22 -9 -27 -9 -18
-1 14 15 6 40 -13 40 -8 0 -17 7 -21 16 -4 12 -8 13 -13 3 -11 -17 -1 -40 14
-32 8 4 8 2 -1 -7 -12 -13 -37 -5 -28 10 8 13 -11 21 -60 24 -31 2 -49 -2 -54
-11 -6 -12 -12 -12 -34 -2 -29 13 -51 4 -27 -11 12 -8 10 -10 -7 -10 -13 0
-23 5 -23 11 0 6 -9 8 -20 4 -29 -9 -25 4 5 15 15 6 25 17 24 27 -1 17 -2 17
-6 1 -2 -10 -13 -18 -24 -18 -13 0 -20 6 -18 18 4 39 -1 53 -18 50 -12 -2 -18
-15 -21 -43 -2 -22 -11 -46 -20 -54 -16 -13 -16 -13 1 -8 9 4 17 1 17 -5 0
-10 -35 -7 -71 7 -13 5 -16 1 -15 -17 1 -14 -5 -24 -16 -26 -16 -3 -23 12 -20
40 1 3 -5 9 -14 12 -8 3 -12 2 -9 -4 3 -5 1 -18 -5 -27 -11 -17 -11 -17 -6 0
7 21 -1 22 -21 2 -8 -8 -18 -13 -23 -10 -11 7 -22 -24 -13 -37 3 -7 1 -8 -6
-4 -16 10 -10 49 9 58 11 6 10 7 -5 6 -11 -2 -26 1 -32 5 -12 7 -15 2 -12 -20
1 -5 6 -6 13 -5 6 2 7 0 3 -4 -11 -11 -37 -14 -37 -4 0 5 -15 7 -34 4 -24 -3
-37 1 -47 14 -11 14 -11 15 1 5 8 -7 20 -13 27 -13 16 0 6 26 -10 27 -7 0 -25
3 -40 6 -24 5 -28 3 -23 -11 5 -15 4 -14 -8 1 -13 17 -15 17 -24 2 -8 -16 -10
-16 -15 -1 -4 9 -11 16 -17 16 -6 0 -8 -5 -4 -11 5 -8 1 -8 -14 0 -28 15 -29
14 -36 -11 -5 -19 -8 -21 -16 -8 -7 11 -10 11 -10 2 0 -7 -5 -10 -10 -7 -14 9
-13 -8 2 -23 9 -9 4 -10 -19 -3 -18 5 -34 7 -37 3 -3 -3 -6 0 -6 6 0 7 6 12
13 12 7 0 18 9 25 21 12 19 11 19 -8 9 -11 -6 -20 -7 -20 -3 0 4 -5 1 -10 -7
-7 -11 -10 -11 -10 -2 0 7 -5 10 -11 6 -8 -4 -8 0 0 15 10 17 9 20 -4 15 -10
-4 -15 0 -15 14 0 11 6 23 13 25 9 4 9 6 -1 6 -7 1 -17 -9 -22 -21 -7 -18 -9
-19 -9 -5 -1 9 -6 17 -12 17 -5 0 -8 4 -5 9 4 5 -5 4 -18 -2 -13 -7 -22 -15
-20 -19 3 -5 0 -8 -6 -8 -6 0 -8 -6 -5 -12 4 -7 -3 -2 -15 12 -12 14 -18 19
-14 11 5 -11 3 -13 -10 -8 -10 4 -24 7 -32 7 -8 0 -14 5 -14 11 0 6 9 9 19 6
10 -2 25 -1 32 4 8 5 10 9 4 10 -5 0 -19 2 -30 5 -11 2 -35 6 -52 10 -24 5
-33 3 -33 -7 0 -11 -2 -11 -10 1 -5 8 -12 12 -15 8 -3 -3 1 -12 9 -21 14 -13
14 -16 0 -21 -8 -3 -12 -2 -9 4 3 6 2 10 -4 10 -5 0 -12 -6 -15 -12 -3 -7 -4
-1 -1 14 l5 27 -84 0 c-67 0 -84 -3 -80 -14 3 -7 1 -16 -5 -20 -10 -5 -15 7
-12 28 2 11 -17 8 -25 -4 -4 -8 -9 -7 -15 2 -7 12 -12 12 -30 1 -14 -9 -19 -9
-14 -2 6 9 2 9 -13 1 -25 -13 -35 -14 -28 -3 3 5 -1 9 -9 9 -8 0 -11 -5 -8
-11 4 -6 0 -5 -8 1 -12 10 -132 13 -507 13 l-492 0 0 -334z m1220 320 c0 -3
-4 -8 -10 -11 -5 -3 -10 -1 -10 4 0 6 5 11 10 11 6 0 10 -2 10 -4z m204 -4 c2
-4 1 -14 -5 -22 -5 -8 -9 -13 -10 -10 0 3 -2 13 -4 23 -3 17 10 24 19 9z
m1999 1 c-7 -2 -19 -2 -25 0 -7 3 -2 5 12 5 14 0 19 -2 13 -5z m-431 -39 c-20
-15 -33 -9 -26 11 4 8 10 12 15 9 5 -3 9 1 9 8 0 10 3 9 9 -1 7 -10 4 -19 -7
-27z m-1504 -19 c3 -3 -4 -4 -16 -2 -12 2 -24 6 -28 10 -4 3 4 4 16 2 12 -2
25 -7 28 -10z m1687 -15 c3 -5 1 -10 -4 -10 -6 0 -11 5 -11 10 0 6 2 10 4 10
3 0 8 -4 11 -10z m-385 -26 c0 -2 -7 -4 -15 -4 -8 0 -15 4 -15 10 0 5 7 7 15
4 8 -4 15 -8 15 -10z m-1016 -23 c-7 -8 -35 9 -29 19 4 6 11 5 20 -3 7 -6 11
-14 9 -16z m483 -33 c-3 -7 -5 -2 -5 12 0 14 2 19 5 13 2 -7 2 -19 0 -25z
m-517 12 c0 -5 -2 -10 -4 -10 -3 0 -8 5 -11 10 -3 6 -1 10 4 10 6 0 11 -4 11
-10z m388 -2 c-6 -18 -28 -21 -28 -4 0 9 7 16 16 16 9 0 14 -5 12 -12z m3197
-140 c16 16 17 16 10 -7 -6 -19 -4 -23 8 -18 9 3 18 -1 21 -10 4 -8 13 -13 21
-9 8 3 15 1 15 -5 0 -14 26 -39 39 -39 6 0 11 -5 11 -11 0 -5 5 -7 11 -3 6 3
14 3 18 -2 3 -5 16 -15 29 -22 21 -12 24 -11 29 6 5 21 40 23 52 3 8 -13 41
-5 41 11 0 6 7 7 15 4 9 -3 18 1 22 10 3 8 11 13 19 10 7 -3 18 2 24 9 14 17
52 2 48 -18 -2 -7 1 -12 5 -12 5 0 15 -11 22 -25 7 -14 19 -25 27 -25 8 0 12
-10 11 -28 -2 -24 6 -32 30 -28 4 0 8 -3 8 -9 1 -5 2 -16 3 -22 1 -7 -2 -22
-8 -33 -17 -33 -15 -43 7 -37 12 3 18 1 14 -5 -4 -5 5 -16 18 -23 14 -7 25
-17 25 -22 0 -5 10 -22 21 -38 23 -30 19 -66 -5 -57 -11 4 -13 -1 -10 -21 l5
-27 -26 25 c-14 13 -23 30 -21 37 3 7 -1 10 -10 6 -7 -3 -14 -9 -14 -14 0 -5
-7 -9 -15 -9 -10 0 -15 -10 -15 -30 0 -35 -13 -38 -38 -9 -9 11 -37 30 -62 41
-25 11 -51 29 -58 39 -7 11 -17 19 -23 19 -18 0 -9 -15 21 -35 16 -11 24 -22
19 -26 -6 -3 -4 -11 6 -19 8 -7 15 -16 15 -21 0 -15 -66 45 -95 86 -14 20 -14
20 -15 -1 0 -11 -6 -28 -12 -37 -11 -15 -13 -12 -13 20 0 21 5 42 12 46 8 5
10 19 6 37 -3 20 0 39 12 56 16 25 16 26 -4 19 -17 -5 -21 -2 -21 16 l0 22
-24 -22 -23 -22 -6 21 c-3 12 -10 19 -15 16 -5 -3 -23 -1 -41 4 -19 5 -31 5
-31 -1 0 -5 -7 -9 -16 -9 -8 0 -13 -4 -9 -9 3 -6 -9 -7 -30 -4 -23 4 -35 2
-35 -6 0 -6 9 -11 20 -11 13 0 18 -5 14 -15 -4 -8 -12 -15 -18 -15 -7 0 -21
-7 -32 -15 -13 -11 -14 -13 -3 -9 10 3 19 -1 22 -10 4 -10 1 -16 -8 -16 -7 0
-17 -4 -20 -10 -4 -6 2 -7 17 -1 13 4 28 18 34 29 6 12 14 19 17 15 4 -3 0
-15 -10 -25 -20 -23 -16 -28 20 -21 21 4 25 8 15 14 -9 6 -6 9 12 9 14 -1 34
-7 44 -15 11 -8 15 -15 9 -15 -7 0 -15 5 -18 10 -3 6 -11 10 -16 10 -6 0 -8
-4 -5 -9 4 -5 3 -11 -1 -14 -5 -2 -3 -2 4 -1 6 2 14 -4 17 -12 3 -8 0 -14 -7
-15 -7 0 -1 -5 13 -10 25 -10 25 -11 5 -25 -35 -24 -65 -56 -65 -67 0 -5 8 -3
18 6 24 22 36 22 28 0 -4 -10 7 -3 24 16 36 39 48 36 25 -8 -23 -46 -9 -56 31
-21 19 16 36 30 38 30 10 0 -2 -35 -12 -36 -7 -1 -17 -2 -23 -3 -6 0 -8 -8 -5
-18 4 -10 4 -14 0 -10 -4 4 -14 2 -21 -5 -11 -9 -16 -9 -22 1 -6 10 -16 3 -37
-23 -16 -20 -32 -36 -36 -36 -15 0 -8 24 13 47 l22 22 -34 -9 c-45 -13 -45
-13 -24 10 10 11 13 20 7 20 -6 0 -23 -16 -38 -35 -14 -19 -31 -35 -36 -35 -7
0 -7 4 0 13 8 9 3 13 -19 14 -15 1 -31 -3 -35 -9 -5 -7 0 -9 14 -6 34 9 26 0
-18 -21 -22 -10 -40 -18 -40 -17 0 3 36 68 58 104 11 18 10 21 -3 16 -8 -3
-13 -10 -10 -14 5 -8 -54 -37 -67 -32 -5 1 -8 -2 -8 -7 0 -5 -7 -12 -16 -15
-12 -4 -15 -2 -10 9 3 9 0 15 -8 15 -8 0 -17 -7 -20 -16 -3 -8 -11 -12 -16 -9
-6 4 -22 0 -35 -9 -28 -18 -39 -20 -30 -6 3 6 4 18 1 28 -8 23 -59 24 -64 1
-2 -10 3 -16 10 -15 7 0 13 -3 13 -9 0 -5 -10 -10 -22 -9 -14 1 -23 -5 -23
-13 0 -8 5 -11 10 -8 6 3 10 1 10 -5 0 -6 11 -8 28 -5 27 5 27 5 3 -5 -14 -6
-31 -8 -38 -6 -7 3 -13 1 -13 -3 0 -5 6 -12 13 -14 6 -3 3 -6 -9 -6 -11 -1
-31 -13 -45 -27 l-24 -26 25 7 c14 4 33 14 42 22 9 8 22 12 29 8 8 -6 7 -10
-5 -17 -9 -5 -16 -17 -16 -26 -1 -33 -37 -93 -66 -111 -29 -17 -64 -17 -64 -1
0 5 8 14 18 19 9 6 13 11 8 11 -4 0 -22 -11 -38 -25 l-31 -26 -15 23 c-9 13
-19 25 -24 28 -8 7 -12 55 -5 85 2 11 2 25 -2 30 -3 6 -6 22 -7 37 0 31 21 44
43 27 12 -10 13 -8 9 14 -2 15 -8 32 -12 39 -5 7 5 3 20 -10 34 -26 49 -28 66
-7 10 12 10 15 -1 15 -11 0 -11 2 1 10 19 12 63 13 55 1 -11 -19 17 -23 33 -5
16 17 16 17 0 5 -14 -11 -16 -9 -11 10 4 15 3 20 -5 15 -7 -4 -12 -3 -12 3 0
6 18 16 40 22 41 13 53 28 23 30 -13 0 -12 3 7 12 30 14 64 47 49 47 -5 0 -8
4 -4 9 3 5 0 13 -6 17 -8 4 -7 9 2 16 21 14 -61 -2 -98 -19 -17 -8 -39 -13
-50 -11 -12 2 -18 -3 -18 -17 0 -14 -7 -19 -20 -18 -26 2 -46 -27 -34 -50 17
-31 -1 -40 -29 -15 l-25 23 16 -25 c9 -13 27 -30 39 -37 31 -17 1 -16 -37 2
-16 7 -23 14 -15 14 10 1 7 6 -8 17 -12 8 -20 20 -17 25 4 5 1 9 -5 9 -25 0
12 40 38 41 27 2 27 2 2 6 -35 7 -50 23 -20 23 23 0 23 0 4 16 -18 15 -18 15
4 9 l22 -6 -17 42 c-11 30 -13 44 -5 47 6 2 9 9 7 15 -6 18 32 60 46 51 7 -4
9 -3 5 4 -3 6 3 13 13 17 21 6 34 33 29 56 -2 8 7 15 20 17 17 3 22 8 18 20
-3 9 5 4 19 -13 26 -31 33 -28 15 6 -11 20 -1 26 17 8 13 -13 28 54 17 74 -5
9 -4 9 6 0 9 -8 19 -9 32 -2 14 7 18 6 18 -5 0 -8 8 -21 19 -28 10 -7 19 -17
19 -22 1 -6 9 -11 17 -12 14 -2 14 0 3 14 -10 12 -10 14 0 8 9 -5 12 3 12 29
0 33 1 35 16 21 8 -9 19 -14 24 -11 5 3 10 -1 13 -7 7 -19 36 22 37 52 1 23 2
23 10 5 l9 -20 1 20 c2 14 5 11 10 -10 l7 -30 8 39 8 40 22 -26 c21 -25 24
-25 40 -10z m-230 -68 c3 -5 1 -10 -4 -10 -6 0 -11 5 -11 10 0 6 2 10 4 10 3
0 8 -4 11 -10z m-2046 -136 c13 -2 31 -10 40 -19 15 -15 14 -18 -10 -39 -14
-12 -25 -31 -24 -43 1 -15 -3 -19 -17 -15 -10 2 -16 7 -14 11 3 4 -4 12 -15
19 -15 10 -19 10 -19 -2 0 -7 -6 -19 -14 -25 -18 -15 -46 10 -41 36 2 10 4 32
4 50 1 28 5 32 34 35 17 2 36 1 42 -1 5 -3 20 -6 34 -7z m231 -14 c22 0 25 -4
24 -38 -1 -59 -3 -62 -29 -62 -20 0 -25 5 -25 26 l0 26 -37 -23 c-21 -13 -41
-27 -44 -32 -4 -5 -10 -4 -13 2 -4 6 -11 9 -16 6 -13 -8 -32 33 -25 54 3 11
13 25 21 32 20 16 96 28 109 17 5 -4 20 -8 35 -8z m-627 3 c-7 -2 -19 -2 -25
0 -7 3 -2 5 12 5 14 0 19 -2 13 -5z m812 -17 c41 -17 56 -57 31 -81 -11 -11
-16 -12 -16 -4 0 7 -3 9 -7 5 -4 -3 -12 8 -17 26 -8 25 -18 34 -38 36 -25 3
-27 0 -30 -40 -2 -30 -8 -44 -19 -46 -19 -3 -28 15 -35 75 l-5 43 51 0 c28 0
66 -6 85 -14z m151 -6 c24 0 44 -4 44 -10 0 -5 -16 -10 -36 -10 -45 0 -42 -24
4 -28 18 -2 32 -8 32 -13 0 -6 -17 -8 -40 -5 -22 3 -38 1 -36 -3 3 -4 -6 -6
-19 -3 -22 4 -25 10 -25 44 0 33 3 39 16 34 9 -3 36 -6 60 -6z m3283 -58 c35
-17 68 -35 75 -40 6 -5 42 -15 79 -22 37 -7 75 -19 83 -27 16 -17 18 -39 4
-48 -5 -3 -10 -12 -10 -18 0 -7 4 -6 10 3 13 20 13 4 0 -21 -15 -26 -38 -24
-52 6 -8 17 -22 26 -47 31 -20 3 -47 9 -61 13 -14 5 -58 3 -98 -2 -61 -8 -76
-8 -83 4 -5 8 -9 9 -9 3 0 -16 -124 -32 -210 -27 -58 4 -90 0 -135 -16 -33
-11 -64 -16 -69 -11 -10 10 69 97 124 135 119 82 277 97 399 37z m-4423 -5
c15 -16 29 -35 30 -42 1 -8 12 -28 23 -44 12 -16 21 -34 21 -39 0 -6 -20 -31
-45 -57 -37 -37 -49 -44 -63 -36 -9 6 -12 11 -6 11 6 0 11 15 11 34 0 26 -4
33 -15 28 -9 -3 -13 -1 -9 5 4 6 2 13 -3 15 -10 3 -16 100 -9 139 4 24 33 18
65 -14z m3059 -59 c-5 -22 -25 -41 -35 -31 -3 3 1 8 8 10 22 8 12 32 -15 36
-23 3 -21 4 9 6 33 1 36 -1 33 -21z m-3625 -45 c-1 -26 -23 -35 -101 -39 -46
-3 -94 -6 -107 -7 -14 0 -21 -6 -18 -14 3 -7 1 -13 -5 -13 -6 0 -7 -6 -3 -12
5 -8 0 -7 -11 2 -14 11 -19 12 -22 3 -3 -7 -9 -13 -14 -13 -17 0 -89 -35 -89
-43 0 -15 -30 -38 -41 -32 -6 4 -13 -2 -15 -12 -4 -15 -12 -19 -30 -15 -17 3
-24 0 -24 -12 0 -9 -5 -16 -11 -16 -6 0 -9 7 -6 14 4 10 1 13 -9 9 -7 -3 -14
-13 -14 -23 0 -27 -16 -33 -34 -14 -9 8 -17 18 -17 22 -1 4 -3 21 -5 37 -2 17
-13 38 -25 47 -24 20 -17 25 41 30 31 3 35 7 38 33 2 29 2 29 -13 10 -13 -16
-19 -18 -35 -7 -11 7 -21 8 -25 2 -3 -5 -12 -7 -20 -3 -8 3 -15 0 -15 -7 0 -6
-4 -9 -9 -6 -13 8 -42 -4 -35 -15 3 -5 -1 -10 -8 -10 -7 -1 -18 -2 -25 -3 -16
-2 -63 -44 -63 -56 0 -5 -7 -10 -16 -10 -8 0 -12 -5 -9 -10 4 -6 11 -7 17 -4
7 5 9 0 6 -14 -3 -12 -3 -37 2 -56 7 -31 5 -34 -15 -32 -15 1 -21 6 -17 16 5
13 4 13 -10 0 -16 -14 -16 -16 0 -27 8 -7 11 -13 6 -13 -6 0 -15 -12 -21 -27
l-11 -28 -1 28 c-1 16 -5 26 -11 22 -5 -3 -10 -42 -10 -86 0 -60 -3 -79 -14
-79 -10 0 -13 15 -12 58 1 57 -17 98 -37 85 -6 -4 -8 0 -4 10 7 18 -7 32 -23
22 -8 -5 -7 -12 1 -23 7 -10 3 -8 -9 3 -12 11 -22 32 -22 45 0 33 0 58 0 98 1
22 -4 32 -15 32 -8 0 -15 5 -15 12 0 6 -3 8 -7 4 -4 -3 -6 -111 -5 -239 2
-213 1 -229 -13 -198 -8 18 -13 37 -10 41 3 5 -3 13 -12 19 -12 7 -13 10 -4
11 9 0 10 4 4 13 -5 6 -9 40 -9 74 1 33 -2 59 -6 56 -5 -2 -8 1 -8 6 0 6 4 11
8 11 5 0 8 22 8 50 -1 27 -3 50 -6 50 -3 0 -6 15 -7 33 -1 17 -3 48 -4 67 -4
55 8 90 28 83 11 -4 14 -3 9 6 -4 6 -16 9 -27 6 -21 -7 -35 15 -25 40 5 13 75
15 551 15 300 0 545 -3 545 -7z m3085 -13 c-3 -5 -1 -10 4 -10 6 0 11 -5 11
-10 0 -6 -8 -5 -19 2 -19 12 -19 28 0 28 6 0 7 -4 4 -10z m2977 -400 c1 -198
2 -381 3 -407 l0 -48 -240 -3 c-132 -1 -249 0 -261 3 -21 5 -21 9 -28 400 -4
217 -5 399 -1 405 4 6 98 10 266 10 l259 0 2 -360z m-2297 293 c8 -19 15 -51
15 -69 0 -27 -4 -34 -20 -34 -13 0 -18 5 -14 15 4 9 0 15 -8 15 -11 0 -37 -44
-42 -72 0 -3 -5 -10 -10 -15 -5 -5 -7 2 -3 15 4 19 2 22 -11 17 -14 -5 -14 -4
1 13 19 21 24 43 5 24 -20 -20 -32 -13 -13 8 10 11 20 18 23 15 3 -2 11 3 18
13 8 10 13 12 14 5 0 -22 20 -14 20 8 0 11 5 17 10 14 15 -9 12 12 -6 47 -9
16 -11 27 -5 23 6 -3 18 -22 26 -42z m-3800 27 c3 -5 3 -15 -1 -22 -9 -14 -9
-32 0 -165 5 -88 5 -93 -14 -93 -23 0 -22 -11 -26 158 -3 124 -2 132 16 132
10 0 22 -4 25 -10z m4119 -13 c14 -21 1 -33 -19 -17 -8 7 -15 9 -15 6 0 -4 -5
-4 -10 -1 -8 5 -7 11 1 21 14 17 29 14 43 -9z m1010 9 c7 3 18 -1 24 -9 7 -8
22 -12 35 -10 20 4 24 -1 35 -44 6 -26 17 -126 23 -221 11 -158 10 -179 -6
-233 -14 -47 -21 -57 -31 -48 -8 6 -11 16 -7 22 4 6 -4 8 -23 3 -116 -27 -183
-8 -230 67 -14 23 -23 34 -20 25 4 -14 0 -18 -20 -18 -26 0 -26 8 3 42 13 14
12 17 -2 25 -15 9 -15 12 -2 24 8 8 22 28 30 44 30 54 64 84 109 94 44 10 108
2 131 -17 9 -8 12 11 11 86 -1 54 -2 102 -2 108 -2 14 -47 34 -77 34 -15 0
-25 6 -25 14 0 16 23 28 28 15 2 -4 9 -6 16 -3z m-4446 -38 c-52 -65 -98 -154
-99 -190 0 -27 -2 -29 -8 -13 -17 41 -23 125 -11 140 20 24 30 17 30 -22 1
-34 2 -36 13 -18 6 11 12 36 12 54 0 29 7 40 40 63 56 39 63 35 23 -14z m360
22 c7 -11 11 -20 9 -20 -2 0 -12 9 -22 20 -10 11 -14 20 -9 20 5 0 15 -9 22
-20z m-58 1 c14 -4 -28 -5 -92 -3 -71 3 -129 0 -148 -7 -28 -9 -31 -9 -20 4
10 12 37 15 124 14 61 -1 122 -4 136 -8z m3980 5 c0 -2 -9 -6 -20 -9 -11 -3
-20 -1 -20 4 0 5 9 9 20 9 11 0 20 -2 20 -4z m-67 -23 c-3 -10 -11 -24 -17
-32 -9 -12 -8 -13 4 -7 13 6 13 5 0 -6 -13 -10 -16 -41 -18 -148 -1 -74 -5
-192 -8 -262 -6 -107 -4 -130 10 -149 9 -13 16 -27 16 -31 0 -16 -40 -7 -59
13 -11 12 -25 18 -31 14 -6 -4 -24 -1 -41 5 -23 10 -32 10 -44 0 -8 -6 -18 -9
-24 -6 -5 3 -11 2 -13 -4 -2 -7 -14 -6 -34 2 -30 11 -31 13 -22 47 6 20 14 38
18 41 4 3 15 20 24 38 9 17 21 32 27 32 6 0 7 5 3 11 -3 6 0 15 7 20 11 6 11
13 3 26 -6 10 -15 18 -20 18 -21 2 -54 17 -54 26 0 5 6 27 13 50 12 39 42 60
66 45 19 -12 21 14 2 31 -11 9 -18 20 -15 24 2 5 -5 13 -16 19 -18 10 -20 8
-20 -17 l-1 -28 -15 27 c-13 25 -13 31 2 60 22 43 24 45 33 30 6 -10 12 -5 20
16 7 16 23 34 37 41 13 6 27 18 30 26 4 8 18 15 35 15 15 0 34 7 41 15 7 8 25
14 40 15 22 0 26 -4 21 -17z m-5495 -22 c-1 -22 -4 -26 -13 -18 -9 9 -9 16 -1
29 14 23 15 23 14 -11z m4578 14 c18 -14 18 -14 -8 -13 -16 1 -28 8 -28 15 0
17 12 16 36 -2z m-123 -53 c7 -9 12 -10 17 -2 4 7 13 2 24 -15 9 -14 21 -23
26 -20 15 9 7 -85 -8 -97 -7 -6 -12 -7 -11 -2 1 5 1 16 0 24 -1 13 -2 13 -11
0 -8 -13 -10 -12 -10 3 0 9 1 19 3 22 1 2 -8 12 -21 20 -12 9 -20 20 -17 24 2
5 -1 16 -8 26 -8 10 -11 31 -8 49 5 29 6 29 9 6 2 -14 9 -31 15 -38z m375 49
c18 -11 -7 -21 -54 -21 -32 0 -42 8 -27 23 9 10 65 8 81 -2z m-201 -7 c-3 -3
-12 -4 -19 -1 -8 3 -5 6 6 6 11 1 17 -2 13 -5z m-3272 -14 c3 -5 2 -10 -4 -10
-5 0 -13 5 -16 10 -3 6 -2 10 4 10 5 0 13 -4 16 -10z m314 -57 c-16 -18 -32
-16 -52 7 -21 25 -21 30 -2 30 8 0 15 5 15 12 0 6 11 1 25 -12 19 -18 22 -26
14 -37z m-1408 12 c3 -20 0 -29 -9 -27 -15 3 -16 -15 0 -20 7 -3 9 -12 5 -22
-4 -9 -12 -14 -18 -10 -8 4 -7 9 2 16 11 7 9 8 -6 6 -16 -3 -20 -11 -20 -38 0
-19 4 -38 8 -41 5 -3 10 -15 12 -25 2 -10 4 -19 5 -19 1 0 3 -12 4 -27 2 -32
-1 -33 -27 -14 -18 14 -18 15 0 25 11 7 14 14 8 18 -14 11 -18 29 -23 97 -4
63 12 110 35 102 7 -3 13 0 13 6 0 22 8 3 11 -27z m1056 27 c8 -5 6 -14 -8
-31 -18 -22 -21 -23 -36 -8 -27 26 11 60 44 39z m3230 -14 c-3 -8 -6 -5 -6 6
-1 11 2 17 5 13 3 -3 4 -12 1 -19z m-4367 -18 c0 -5 -4 -10 -10 -10 -5 0 -10
5 -10 10 0 6 5 10 10 10 6 0 10 -4 10 -10z m3860 -26 c0 -2 -11 -4 -25 -4 -14
0 -25 4 -25 9 0 4 11 6 25 3 14 -2 25 -6 25 -8z m-3950 -27 c0 -4 4 -6 9 -2 6
3 9 -3 8 -14 0 -11 -4 -18 -8 -15 -4 2 -10 -4 -13 -13 -6 -15 -9 -15 -16 -3
-5 8 -7 17 -4 21 2 4 0 19 -6 33 -9 24 -8 25 10 14 11 -7 20 -16 20 -21z
m3862 10 c-6 -7 -16 -26 -22 -42 -11 -29 -10 -29 24 8 19 22 37 34 40 28 4 -6
14 -7 24 -4 14 5 13 2 -4 -18 -12 -13 -25 -31 -29 -39 -7 -12 -5 -12 11 1 10
9 24 14 31 12 6 -2 14 1 18 6 16 27 24 8 9 -21 -16 -30 -16 -32 -1 -19 10 8
17 9 17 3 0 -6 -16 -19 -35 -28 -40 -18 -46 -29 -12 -18 12 3 41 22 64 40 45
37 58 42 49 19 -4 -13 -2 -13 14 -5 10 5 22 15 25 20 3 6 10 10 15 10 8 0 8
-13 -3 -40 -3 -8 -7 -24 -9 -35 -2 -11 -10 -19 -19 -17 -24 4 -52 -34 -47 -62
3 -15 1 -23 -5 -19 -5 3 -7 21 -4 39 3 19 2 36 -3 39 -5 3 -6 13 -3 23 4 9 -7
2 -24 -15 -31 -33 -57 -47 -33 -18 15 18 7 19 -21 3 -17 -11 -23 -10 -38 9
-10 12 -21 19 -25 16 -3 -4 -6 -1 -6 5 0 6 5 14 10 17 6 3 10 11 10 18 0 6 -6
2 -14 -8 -14 -19 -15 -19 -33 -2 -11 9 -22 14 -26 11 -3 -4 -13 0 -21 9 -14
13 -14 18 0 46 16 31 34 41 34 19 0 -7 10 -3 22 10 23 22 39 22 20 -1z m500
-36 c6 -9 -1 -3 -16 12 -14 16 -23 33 -19 39 4 7 10 2 15 -12 5 -13 14 -31 20
-39z m-222 20 c-7 -15 -7 -21 0 -21 6 0 13 6 16 13 5 14 34 19 34 6 0 -10 -50
-49 -62 -49 -6 0 -8 7 -4 15 3 8 -2 21 -10 30 -14 14 -13 16 8 24 29 11 32 8
18 -18z m-51 -15 c-12 -10 -49 -16 -49 -7 0 5 10 11 23 13 22 4 34 1 26 -6z
m486 -6 c3 -5 -1 -10 -10 -10 -9 0 -13 5 -10 10 3 6 8 10 10 10 2 0 7 -4 10
-10z m-4488 -22 c-3 -8 -6 -5 -6 6 -1 11 2 17 5 13 3 -3 4 -12 1 -19z m4219
-44 c5 -18 10 -22 17 -15 15 15 27 14 27 -4 0 -15 -32 -16 -46 -2 -4 4 -12 3
-19 -3 -8 -6 -15 5 -26 40 l-15 49 28 -20 c15 -11 31 -32 34 -45z m-642 32
c-3 -9 -12 -16 -20 -16 -11 0 -10 4 4 18 20 22 25 21 16 -2z m76 -11 c-7 -9
-15 -13 -19 -10 -3 3 1 10 9 15 21 14 24 12 10 -5z m1715 -26 c0 -24 -34 -22
-44 3 -5 13 -7 27 -4 31 7 12 48 -18 48 -34z m-1043 -21 c-8 -8 -12 -9 -12 -1
0 6 -3 20 -6 30 -7 17 -6 17 12 1 14 -14 16 -20 6 -30z m-4428 11 c-8 -13 -21
-11 -27 5 -4 10 0 12 14 9 10 -3 16 -9 13 -14z m70 6 c-4 -8 -8 -15 -10 -15
-2 0 -4 7 -4 15 0 8 4 15 10 15 5 0 7 -7 4 -15z m3567 -8 c-10 -9 -11 -8 -5 6
3 10 9 15 12 12 3 -3 0 -11 -7 -18z m164 -13 c-11 -8 -19 -22 -17 -30 2 -8 -3
-14 -9 -14 -7 0 -9 3 -6 7 4 3 1 13 -5 21 -10 12 -8 18 11 34 18 14 27 16 35
8 8 -8 5 -15 -9 -26z m679 14 c-3 -4 -9 -8 -15 -8 -5 0 -9 4 -9 8 0 5 7 9 15
9 8 0 12 -4 9 -9z m-4444 -23 c0 -18 -5 -25 -20 -25 -11 0 -20 5 -20 10 0 6 0
13 0 18 0 4 4 7 9 7 5 0 13 3 17 8 12 11 14 9 14 -18z m3622 13 c-15 -15 -16
-32 -2 -23 6 3 10 4 10 1 0 -2 3 -11 6 -20 4 -11 1 -16 -10 -16 -9 0 -16 -5
-16 -11 0 -5 5 -7 10 -4 14 9 13 -8 -2 -23 -20 -20 -40 -15 -28 7 5 11 11 33
12 48 2 27 14 53 26 53 3 0 1 -5 -6 -12z m1023 3 c-7 -13 -115 -53 -128 -48
-6 2 13 11 43 21 30 10 62 22 70 27 20 11 22 11 15 0z m-955 -26 c0 -2 -6 -8
-13 -14 -10 -8 -14 -7 -14 2 0 8 6 14 14 14 7 0 13 -1 13 -2z m-3635 -23 c-3
-3 -11 0 -18 7 -9 10 -8 11 6 5 10 -3 15 -9 12 -12z m3495 -12 c-14 -11 -29
-20 -35 -20 -5 0 4 9 20 20 38 25 48 25 15 0z m-3564 1 c-3 -5 2 -12 12 -16
16 -6 16 -7 -2 -21 -11 -8 -27 -14 -35 -14 -13 1 -13 3 2 14 17 13 17 14 0 20
-15 6 -15 8 -3 16 19 12 33 13 26 1z m137 -11 c17 -20 11 -25 -17 -14 -16 6
-23 34 -8 34 4 0 15 -9 25 -20z m3565 -28 c-19 -44 -31 -51 -23 -12 9 43 14
52 25 45 5 -3 4 -18 -2 -33z m-3173 19 c3 -5 1 -12 -5 -16 -5 -3 -10 1 -10 9
0 18 6 21 15 7z m-40 -21 c3 -5 -1 -10 -10 -10 -9 0 -13 5 -10 10 3 6 8 10 10
10 2 0 7 -4 10 -10z m-418 -16 c-3 -3 -12 -4 -19 -1 -8 3 -5 6 6 6 11 1 17 -2
13 -5z m462 -45 c-16 -10 -23 -4 -14 10 3 6 11 8 17 5 6 -4 5 -9 -3 -15z m690
-23 c-2 -2 -24 -6 -48 -9 -29 -4 -40 -2 -30 4 13 8 88 14 78 5z m4231 -37 c0
-10 -4 -19 -10 -19 -5 0 -10 12 -10 26 0 14 4 23 10 19 6 -3 10 -15 10 -26z
m-2600 -4 c0 -8 -9 -15 -20 -15 -11 0 -20 4 -20 9 0 5 -8 12 -17 14 -10 3 -1
5 20 6 27 1 37 -3 37 -14z m-260 -19 c0 -2 -7 -7 -16 -10 -8 -3 -12 -2 -9 4 6
10 25 14 25 6z m2843 -82 c-6 -16 -29 -19 -38 -4 -10 16 3 29 24 23 12 -3 17
-11 14 -19z m235 9 c5 -17 -26 -29 -40 -15 -6 6 -7 15 -3 22 9 14 37 9 43 -7z
m-158 -102 c0 -5 -9 -7 -20 -4 -11 3 -20 7 -20 9 0 2 9 4 20 4 11 0 20 -4 20
-9z m-3920 -7 c0 -4 -18 -22 -40 -41 -22 -20 -40 -42 -40 -49 0 -16 -16 -19
-25 -5 -3 5 16 30 42 55 45 43 63 54 63 40z m-1572 -73 c271 -4 495 -10 498
-14 3 -3 3 -11 -1 -17 -9 -15 -1067 -1 -1083 14 -3 3 1 13 9 22 10 12 22 14
49 9 19 -3 257 -10 528 -14z m378 -173 c-1 -80 -3 -93 -18 -96 -15 -3 -18 4
-18 47 0 34 4 51 13 52 10 0 10 2 0 6 -8 2 -13 22 -13 44 0 31 4 39 19 39 17
0 18 -8 17 -92z m-621 52 c-3 -5 -17 -10 -31 -10 -14 0 -22 -4 -19 -10 3 -5 1
-18 -4 -27 -6 -10 -11 -14 -11 -10 0 5 -5 5 -10 2 -7 -4 -6 -14 1 -28 9 -18 9
-20 -2 -9 -7 6 -24 11 -38 11 -24 -2 -24 -2 -3 -6 12 -2 20 -9 16 -14 -3 -5
-10 -6 -16 -3 -7 5 -9 1 -5 -9 4 -12 1 -17 -10 -17 -9 0 -13 3 -10 7 4 3 -1
15 -10 25 -9 10 -17 34 -17 53 -1 19 -4 35 -7 35 -11 0 -19 -29 -13 -45 4 -9
0 -15 -9 -15 -8 0 -18 -6 -20 -12 -3 -7 -6 -2 -6 10 -1 13 -10 37 -22 53 l-20
29 136 0 c88 0 134 -4 130 -10z m403 -5 c5 -5 -42 -8 -98 -7 -14 0 -55 0 -92
1 -43 1 -68 5 -68 12 0 8 37 10 126 5 70 -3 129 -8 132 -11z m3632 1 c0 -11
-19 -15 -25 -6 -3 5 1 10 9 10 9 0 16 -2 16 -4z m-2227 -13 c-24 -2 -62 -2
-85 0 -24 2 -5 4 42 4 47 0 66 -2 43 -4z m2607 -13 c0 -4 -7 -13 -15 -20 -16
-14 -21 -95 -6 -118 21 -34 120 -57 136 -32 3 5 12 7 20 4 26 -10 47 51 41
119 -4 38 -2 54 3 42 l8 -20 6 20 c3 11 4 -27 4 -85 l-2 -105 -120 0 -120 0
-3 85 c-4 107 1 130 28 123 11 -3 20 -9 20 -13z m-2622 -14 c217 -4 213 -2
210 -125 l-1 -86 -6 87 c-3 48 -10 91 -16 96 -5 5 -62 12 -127 15 -159 7 -158
8 -158 -128 0 -57 3 -106 8 -108 4 -3 7 32 6 76 0 45 3 97 8 115 l9 32 112 -1
c61 0 119 -5 128 -10 14 -7 16 -23 14 -101 -1 -51 -5 -101 -10 -110 -4 -11 -3
-18 3 -18 6 0 13 6 15 13 3 6 6 8 6 2 0 -5 -4 -17 -9 -25 -8 -12 -33 -15 -141
-12 -78 1 -138 7 -146 13 -20 17 -17 -4 7 -51 11 -22 20 -46 20 -54 0 -8 7
-21 15 -30 13 -13 13 -15 -7 -21 -22 -8 -280 2 -310 11 -16 5 -18 22 -18 184
0 149 3 181 16 194 12 13 42 16 147 17 l132 2 -120 8 c-75 6 -131 5 -149 -1
-34 -12 -44 -6 -27 14 10 12 33 14 114 10 56 -2 180 -6 275 -8z m1308 -26 l94
0 -1 -27 c0 -24 -2 -25 -8 -9 -5 14 -10 16 -15 7 -6 -9 -11 -9 -22 0 -11 9
-14 8 -14 -4 0 -14 -15 -16 -102 -14 -95 2 -103 3 -103 22 -1 27 14 37 49 30
16 -3 71 -5 122 -5z m1162 -102 l3 -88 -91 0 -90 0 0 74 c0 109 -2 107 94 104
l81 -3 3 -87z m-4373 22 c-3 -5 -13 -10 -21 -10 -8 0 -14 5 -14 10 0 6 9 10
21 10 11 0 17 -4 14 -10z m3185 -10 c0 -5 -4 -10 -10 -10 -5 0 -10 5 -10 10 0
6 5 10 10 10 6 0 10 -4 10 -10z m2523 -21 c-7 -24 -19 -24 -26 0 -6 23 0 31
18 25 7 -3 11 -14 8 -25z m-4982 -1 c1 -13 1 -43 0 -68 -1 -25 -2 -82 -4 -127
-2 -91 -17 -121 -41 -88 -8 11 -12 24 -9 29 4 5 6 66 6 135 -1 69 1 129 4 134
2 4 13 7 24 7 13 0 19 -7 20 -22z m-734 6 c-3 -3 -12 -4 -19 -1 -8 3 -5 6 6 6
11 1 17 -2 13 -5z m3501 -88 c5 -39 -6 -76 -21 -76 -9 0 -14 18 -16 56 -2 49
0 55 16 52 11 -2 19 -14 21 -32z m3122 9 c-7 -9 -15 -13 -17 -11 -7 7 7 26 19
26 6 0 6 -6 -2 -15z m-6623 -12 c0 -7 -4 -13 -7 -13 -4 0 -12 6 -18 13 -8 10
-6 13 7 13 10 0 18 -6 18 -13z m4630 11 c-3 -3 -12 -4 -19 -1 -8 3 -5 6 6 6
11 1 17 -2 13 -5z m71 -1 c-10 -2 -26 -2 -35 0 -10 3 -2 5 17 5 19 0 27 -2 18
-5z m1022 -52 c0 -29 -5 -40 -18 -43 -15 -4 -17 0 -14 26 4 28 18 56 28 56 2
0 4 -17 4 -39z m-2352 -113 l3 -138 -196 0 -195 0 0 140 0 140 193 -2 192 -3
3 -137z m806 99 c-3 -63 -3 -64 -14 -47 -11 17 -13 63 -3 73 13 14 18 6 17
-26z m-4182 -22 c0 -5 -5 -11 -10 -13 -5 -1 -9 4 -9 13 0 9 4 14 9 13 5 -2 10
-8 10 -13z m868 -9 c0 -3 -4 -8 -10 -11 -5 -3 -10 -1 -10 4 0 6 5 11 10 11 6
0 10 -2 10 -4z m-857 -23 c-7 -2 -19 -2 -25 0 -7 3 -2 5 12 5 14 0 19 -2 13
-5z m-16 -29 c-3 -3 -12 -4 -19 -1 -8 3 -5 6 6 6 11 1 17 -2 13 -5z m873 -18
c0 -3 -4 -8 -10 -11 -5 -3 -10 -1 -10 4 0 6 5 11 10 11 6 0 10 -2 10 -4z
m1048 -18 c-6 -18 -28 -21 -28 -4 0 9 7 16 16 16 9 0 14 -5 12 -12z m47 2 c3
-5 -3 -10 -15 -10 -12 0 -18 5 -15 10 3 6 10 10 15 10 5 0 12 -4 15 -10z
m3765 0 c0 -5 -17 -10 -37 -10 -28 0 -34 3 -23 10 20 13 60 13 60 0z m-6316
-16 c3 -8 2 -12 -4 -9 -6 3 -10 10 -10 16 0 14 7 11 14 -7z m2596 6 c0 -5 -4
-10 -9 -10 -6 0 -13 5 -16 10 -3 6 1 10 9 10 9 0 16 -4 16 -10z m40 0 c0 -5
-7 -10 -15 -10 -8 0 -15 5 -15 10 0 6 7 10 15 10 8 0 15 -4 15 -10z m4703 -50
c4 -17 3 -19 -9 -9 -8 6 -14 18 -14 26 0 20 16 8 23 -17z m-1124 4 c11 -10
-34 -15 -50 -6 -10 7 -25 9 -34 6 -8 -3 -15 -1 -15 6 0 8 14 9 48 4 26 -3 49
-8 51 -10z m-3981 -1 c-15 -2 -42 -2 -60 0 -18 2 -6 4 27 4 33 0 48 -2 33 -4z
m187 -7 c11 -2 -16 -4 -60 -4 -44 -1 -75 2 -68 6 11 7 80 6 128 -2z m3011 -53
c-11 -11 -45 -13 -51 -3 -4 6 7 10 26 10 18 0 29 -3 25 -7z m-2584 -33 c-3
-21 -10 -30 -23 -30 -24 0 -24 10 -1 38 23 30 29 28 24 -8z m2058 20 c0 -5
-11 -10 -25 -10 -14 0 -25 5 -25 10 0 6 11 10 25 10 14 0 25 -4 25 -10z
m-1177 -27 c-7 -2 -21 -2 -30 0 -10 3 -4 5 12 5 17 0 24 -2 18 -5z m58 -8 c0
-6 -10 -12 -23 -13 -19 -4 -20 -2 -9 12 15 17 33 18 32 1z m-142 -11 c10 -9
-65 -3 -78 5 -10 6 1 8 30 4 24 -3 46 -7 48 -9z m-1327 -33 c-2 -26 1 -32 15
-30 50 5 133 -2 133 -11 0 -10 -145 -4 -162 7 -14 8 -9 75 5 70 7 -2 11 -18 9
-36z m1391 32 c-7 -2 -19 -2 -25 0 -7 3 -2 5 12 5 14 0 19 -2 13 -5z m2584 1
c-3 -3 -12 -4 -19 -1 -8 3 -5 6 6 6 11 1 17 -2 13 -5z m-1174 -151 c-13 -2
-35 -2 -50 0 -16 2 -5 4 22 4 28 0 40 -2 28 -4z m-114 -23 c7 -4 9 -10 4 -13
-5 -3 -22 3 -39 14 -27 19 -28 20 -4 14 14 -4 31 -11 39 -15z m164 -7 c-24 -2
-62 -2 -85 0 -24 2 -5 4 42 4 47 0 66 -2 43 -4z m-4295 -90 c-49 -2 -127 -2
-175 0 -49 1 -9 3 87 3 96 0 136 -2 88 -3z m159 1 c-3 -3 -12 -4 -19 -1 -8 3
-5 6 6 6 11 1 17 -2 13 -5z m361 -1 c-38 -2 -98 -2 -135 0 -38 2 -7 3 67 3 74
0 105 -1 68 -3z m1869 -29 c-3 -3 -12 -4 -19 -1 -8 3 -5 6 6 6 11 1 17 -2 13
-5z m-1954 -56 c7 -55 2 -119 -9 -116 -43 8 -44 9 -44 84 0 71 1 74 24 74 20
0 25 -6 29 -42z m58 21 c-14 -5 -30 -13 -36 -17 -6 -4 -2 1 8 11 11 9 27 17
36 16 10 0 7 -4 -8 -10z m1272 4 c-18 -2 -33 -8 -33 -14 0 -5 -7 -9 -15 -9 -8
0 -15 4 -15 10 0 5 -56 11 -132 13 -106 2 -96 3 47 3 99 1 165 -1 148 -3z
m-1213 -22 c13 -24 13 -41 0 -21 -7 12 -12 12 -22 2 -9 -9 -9 -12 1 -12 7 0 9
-4 6 -10 -3 -5 -10 -10 -14 -10 -11 0 -10 33 2 48 7 9 5 11 -9 6 -16 -5 -16
-4 -4 5 21 15 28 14 40 -8z m1003 9 c26 0 47 -4 47 -9 0 -5 -44 -9 -97 -10
-54 0 -144 -4 -200 -7 -74 -5 -103 -4 -103 5 0 6 -5 11 -11 11 -5 0 -8 -4 -4
-9 3 -6 -3 -15 -13 -20 -17 -9 -18 -7 -14 14 5 31 32 34 212 29 74 -2 156 -4
183 -4z m2410 3 c-13 -2 -33 -2 -45 0 -13 2 -3 4 22 4 25 0 35 -2 23 -4z m197
-2 c0 -6 -5 -13 -10 -16 -15 -9 -43 3 -35 15 8 13 45 13 45 1z m70 0 c0 -6 -5
-13 -10 -16 -15 -9 -43 3 -35 15 8 13 45 13 45 1z m71 -1 c5 0 9 -5 9 -11 0
-15 -43 -7 -48 10 -3 10 0 12 12 8 10 -4 22 -7 27 -7z m209 -11 c0 -5 -6 -9
-13 -9 -8 0 -14 6 -14 14 0 8 6 12 14 9 7 -3 13 -9 13 -14z m-643 5 c-3 -3
-12 -4 -19 -1 -8 3 -5 6 6 6 11 1 17 -2 13 -5z m513 -4 c0 -5 -7 -10 -15 -10
-8 0 -15 5 -15 10 0 6 7 10 15 10 8 0 15 -4 15 -10z m249 -27 c4 -3 -5 -3 -19
0 -14 4 -33 7 -42 7 -10 0 -18 7 -18 15 0 14 4 14 37 0 20 -9 39 -18 42 -22z
m-4149 -8 c-7 -8 -8 -15 -3 -15 11 0 11 -36 0 -46 -4 -4 -13 -1 -22 6 -14 11
-13 14 2 26 15 11 15 13 3 14 -12 0 -10 4 4 15 25 19 32 19 16 0z m2024 -11
c32 -12 14 -24 -36 -24 -49 1 -51 2 -34 15 21 16 44 19 70 9z m-1949 -26 c-3
-9 -17 -20 -31 -27 -39 -17 -42 -13 -6 9 17 11 32 25 32 32 0 6 2 9 5 6 3 -3
3 -12 0 -20z m1805 2 c0 -5 -4 -10 -10 -10 -5 0 -10 5 -10 10 0 6 5 10 10 10
6 0 10 -4 10 -10z m945 0 c-3 -5 -10 -10 -16 -10 -5 0 -9 5 -9 10 0 6 7 10 16
10 8 0 12 -4 9 -10z m2640 -32 c55 -18 70 -27 71 -43 1 -11 -5 -26 -12 -33
-10 -9 -14 -7 -19 8 -11 34 -23 12 -18 -30 l6 -40 -39 4 c-61 7 -75 11 -86 27
-7 11 -9 9 -5 -8 3 -13 1 -23 -4 -23 -5 0 -9 5 -9 10 0 6 -8 14 -17 17 -10 4
-23 13 -29 21 -15 20 -24 3 -13 -25 5 -14 17 -23 29 -23 11 0 20 -4 20 -10 0
-13 -3 -13 -35 2 -14 6 -25 17 -25 24 0 6 -11 11 -25 10 -16 0 -23 -6 -20 -13
2 -7 -5 -21 -16 -32 -17 -16 -19 -23 -9 -41 10 -20 10 -21 -8 -16 -18 6 -20 1
-24 -49 -3 -57 3 -68 22 -37 11 16 11 16 6 -1 -3 -10 -6 -27 -6 -38 0 -21 -30
-27 -30 -6 -1 6 -10 30 -21 52 -19 37 -20 38 -15 10 2 -16 7 -40 11 -52 5 -15
3 -23 -4 -23 -6 0 -11 9 -11 19 0 11 -4 22 -9 26 -16 9 -23 -13 -11 -36 9 -16
8 -28 -5 -55 -9 -19 -18 -34 -21 -34 -3 0 -2 5 1 10 3 6 1 10 -4 10 -6 0 -11
-3 -11 -7 0 -11 -54 -11 -61 0 -3 5 -12 3 -20 -5 -17 -15 -33 -20 -91 -27 -4
-1 4 -13 17 -27 14 -15 25 -31 25 -37 0 -5 7 -4 15 3 10 9 15 9 15 1 0 -6 4
-11 10 -11 5 0 7 7 4 15 -5 11 -2 13 9 9 24 -9 41 5 26 22 -9 11 -8 14 5 14 9
0 16 5 16 10 0 6 8 10 18 10 14 0 14 -2 3 -9 -20 -13 -23 -47 -6 -61 8 -7 15
-22 14 -34 0 -11 -3 -15 -6 -8 -2 6 -12 12 -21 12 -13 0 -11 -4 6 -16 14 -9
21 -22 18 -31 -3 -8 -2 -11 3 -8 5 3 13 0 17 -6 4 -8 3 -9 -4 -5 -6 3 -16 -3
-22 -14 -14 -27 8 -36 50 -22 25 9 30 8 30 -5 0 -9 -6 -13 -15 -9 -8 3 -15 2
-15 -3 0 -8 -38 -24 -52 -22 -5 1 -8 -6 -8 -14 0 -18 30 -20 31 -2 0 6 4 4 8
-6 6 -17 8 -17 34 3 15 12 27 17 27 11 0 -6 6 -11 13 -11 6 0 13 -14 14 -30 1
-17 -2 -30 -8 -30 -6 0 -6 -7 1 -19 7 -13 7 -22 0 -26 -5 -3 -10 -1 -10 5 0 6
-10 2 -22 -10 -28 -26 -34 -25 -52 8 -8 15 -16 21 -17 15 -1 -7 -2 -18 -3 -25
-1 -11 -8 -13 -71 -22 -16 -3 -32 -5 -35 -7 -3 -1 -8 -1 -12 0 -5 0 -8 -4 -8
-10 0 -8 -5 -7 -16 2 -14 11 -18 10 -30 -6 -8 -10 -14 -23 -14 -29 0 -5 -11 0
-23 13 -15 13 -30 19 -40 15 -38 -14 -56 52 -23 81 7 6 16 19 20 30 6 16 9 17
16 5 7 -11 10 -7 10 16 0 17 7 37 15 44 8 7 15 28 15 47 0 32 -2 35 -23 29
-13 -3 -32 0 -42 8 -17 12 -18 18 -7 54 9 29 17 39 30 38 9 -2 25 2 34 7 15
10 14 15 -14 49 -16 21 -36 38 -44 38 -18 0 -9 49 12 66 8 6 14 18 14 26 0 16
56 48 83 48 15 0 33 29 19 31 -25 5 -72 10 -99 12 -27 2 -34 7 -39 30 -3 16
-10 24 -16 21 -7 -4 -8 -2 -4 4 11 19 24 14 28 -10 3 -17 7 -11 15 22 8 33 11
38 13 20 l2 -25 8 25 c4 14 8 45 8 70 0 25 -2 37 -5 28 -5 -20 -5 -20 -27 -12
-25 10 -19 32 15 50 66 34 156 44 364 40 177 -4 208 -7 270 -28z m-2872 15
c-78 -2 -208 -2 -290 0 -81 1 -17 3 142 3 160 0 226 -2 148 -3z m-1540 -10
c-29 -2 -77 -2 -105 0 -29 2 -6 3 52 3 58 0 81 -1 53 -3z m-1019 -59 c13 -5
16 -23 16 -95 l0 -89 -45 0 -45 0 0 88 c0 49 3 92 7 95 8 9 46 9 67 1z m5820
0 c9 -3 16 -17 16 -31 0 -21 -4 -24 -27 -21 -31 3 -44 35 -21 49 16 11 13 10
32 3z m-5919 -14 c-3 -5 -12 -10 -18 -10 -7 0 -6 4 3 10 19 12 23 12 15 0z
m2095 -30 c11 -7 3 -10 -30 -10 -33 0 -41 3 -30 10 8 5 22 10 30 10 8 0 22 -5
30 -10z m818 -43 l3 -47 -298 -2 c-164 -1 -263 -4 -219 -7 l78 -6 -55 -62
c-105 -118 -145 -222 -132 -343 4 -36 8 -93 10 -127 1 -33 5 -66 9 -71 3 -5
31 -13 61 -17 60 -7 85 -24 85 -59 0 -43 14 -46 196 -46 179 0 204 3 204 26 0
36 24 63 64 73 79 20 81 25 84 261 l3 207 -26 31 c-16 19 -40 34 -60 38 -39 7
-52 20 -65 63 l-9 31 44 0 c40 0 44 2 47 28 3 27 4 27 93 32 59 4 84 8 73 14
-30 14 -20 26 22 26 l40 0 0 -55 0 -55 40 6 40 7 0 -302 c0 -165 -4 -301 -9
-301 -5 0 -9 82 -10 183 -1 211 -8 388 -16 395 -3 3 -5 -126 -5 -286 0 -285
-1 -292 -20 -292 -19 0 -20 8 -23 293 -2 266 -3 256 -5 -110 l-2 -403 -242 0
c-134 -1 -327 -3 -430 -6 l-188 -4 0 95 c0 90 -1 95 -25 111 l-26 17 1 233 c1
138 5 234 11 234 5 0 9 -7 9 -15 0 -18 12 -19 28 -3 20 20 15 58 -8 58 -21 0
-28 24 -10 35 6 3 10 1 10 -4 0 -6 4 -11 9 -11 5 0 13 40 17 90 l7 90 286 2
c157 2 291 3 296 2 6 0 11 -22 13 -47z m2382 -31 c0 -3 -4 -8 -10 -11 -5 -3
-10 -1 -10 4 0 6 5 11 10 11 6 0 10 -2 10 -4z m-1542 -13 c-26 -2 -71 -2 -100
0 -29 2 -8 3 47 3 55 0 79 -1 53 -3z m-4015 -20 c-24 -2 -62 -2 -85 0 -24 2
-5 4 42 4 47 0 66 -2 43 -4z m172 -3 c-3 -5 -2 -10 3 -10 6 0 9 -12 8 -26 l-1
-26 -90 6 c-49 3 -92 6 -95 7 -3 2 24 5 60 9 57 6 50 7 -55 9 -190 3 -410 13
-415 19 -3 2 124 2 282 -1 245 -5 287 -4 292 8 3 8 8 15 11 15 4 0 3 -4 0 -10z
m-292 -47 c-57 -2 -149 -2 -205 0 -57 1 -11 3 102 3 113 0 159 -2 103 -3z
m2480 -10 c-7 -2 -19 -2 -25 0 -7 3 -2 5 12 5 14 0 19 -2 13 -5z m351 -18 c-4
-8 -9 -15 -13 -15 -4 0 -8 7 -8 15 0 8 6 15 13 15 8 0 11 -6 8 -15z m-514 -5
c0 -13 -20 -13 -40 0 -12 8 -9 10 13 10 15 0 27 -4 27 -10z m85 0 c-3 -5 -18
-10 -33 -10 -21 0 -24 2 -12 10 20 13 53 13 45 0z m104 -6 c2 -2 -15 -4 -38
-4 -25 0 -40 4 -36 10 5 8 63 3 74 -6z m652 -11 c24 -11 60 -35 78 -54 55 -54
110 -199 76 -199 -7 0 -17 -5 -21 -12 -5 -7 -2 -9 9 -5 53 20 8 -132 -60 -200
-61 -61 -104 -78 -203 -78 -75 0 -91 3 -138 29 -83 46 -136 126 -148 219 -3
23 -7 54 -9 70 -2 15 0 27 3 27 4 0 8 13 8 29 2 38 58 135 93 160 58 42 231
50 312 14z m2950 -22 c14 -10 44 -23 68 -28 25 -4 46 -14 49 -21 2 -7 0 -12
-5 -11 -4 1 -24 1 -44 0 l-36 -1 0 -67 c1 -42 -5 -78 -14 -93 -13 -23 -14 -19
-19 67 -3 50 -7 94 -10 96 -11 10 -120 -17 -120 -30 0 -7 -8 -13 -19 -13 -13
0 -21 11 -29 40 -6 25 -6 40 0 40 5 0 6 5 2 12 -5 8 -2 9 12 3 10 -4 37 -9 59
-10 22 -1 51 -5 63 -9 21 -7 23 -6 13 12 -20 38 -8 43 30 13z m-3880 -3 c-1
-5 -1 -17 -1 -28 0 -13 -7 -20 -20 -20 -26 0 -36 25 -20 46 13 15 42 16 41 2z
m3459 8 c0 -3 -4 -8 -10 -11 -5 -3 -10 -1 -10 4 0 6 5 11 10 11 6 0 10 -2 10
-4z m-1492 -33 c-42 -2 -114 -2 -160 0 -46 1 -11 3 77 3 88 0 125 -2 83 -3z
m-1798 -113 c0 -3 9 -7 20 -8 11 -1 27 -2 35 -3 23 -3 41 -107 22 -126 -4 -3
-7 -17 -7 -30 0 -14 -4 -21 -10 -18 -6 4 -7 12 -3 18 3 7 -3 4 -14 -5 -11 -10
-24 -18 -30 -18 -6 0 -16 -7 -23 -15 -7 -8 -16 -15 -20 -15 -15 0 -48 63 -45
86 1 13 -1 24 -5 24 -12 0 0 73 16 97 9 15 23 22 39 21 14 -1 25 -5 25 -8z
m3285 -97 c0 -93 -7 -116 -30 -106 -9 3 -15 -1 -15 -11 0 -9 -4 -16 -10 -16
-5 0 -10 7 -10 16 0 8 -5 12 -10 9 -6 -4 -2 8 8 27 10 18 29 63 41 101 13 37
24 67 25 67 1 0 2 -39 1 -87z m838 60 c-7 -2 -19 -2 -25 0 -7 3 -2 5 12 5 14
0 19 -2 13 -5z m-6770 -40 c-7 -2 -19 -2 -25 0 -7 3 -2 5 12 5 14 0 19 -2 13
-5z m205 -10 c-26 -2 -71 -2 -100 0 -29 2 -8 3 47 3 55 0 79 -1 53 -3z m410 0
c-32 -2 -84 -2 -115 0 -32 2 -6 3 57 3 63 0 89 -1 58 -3z m1109 -70 c-3 -10
-5 -4 -5 12 0 17 2 24 5 18 2 -7 2 -21 0 -30z m-157 -33 c0 -5 -5 -10 -11 -10
-5 0 -7 5 -4 10 3 6 8 10 11 10 2 0 4 -4 4 -10z m180 -1 c0 -11 -37 -12 -43
-1 -3 4 6 8 19 8 13 1 24 -2 24 -7z m2400 -49 c0 -5 -7 -7 -15 -4 -8 4 -12 10
-9 15 6 11 24 2 24 -11z m2630 10 c0 -5 -16 -10 -35 -10 -19 0 -35 5 -35 10 0
6 16 10 35 10 19 0 35 -4 35 -10z m-868 -56 c-6 -35 -12 -29 -12 14 0 23 3 32
9 24 4 -7 6 -24 3 -38z m-1390 22 c12 -18 -2 -25 -32 -16 -16 5 -39 6 -51 3
-12 -4 -25 0 -30 8 -6 10 -9 10 -9 2 0 -7 -9 -13 -20 -13 -19 0 -26 11 -15 21
9 10 150 5 157 -5z m-4314 -44 c15 -2 22 -8 22 -22 0 -18 -7 -20 -70 -20 -66
0 -70 1 -70 23 0 23 16 25 118 19z m502 -16 c0 -23 -3 -24 -70 -25 -68 -1 -70
0 -70 24 0 24 2 25 70 25 67 0 70 -1 70 -24z m1114 -22 c4 -11 2 -15 -8 -11
-8 3 -17 1 -20 -6 -2 -7 -5 -5 -5 5 -1 9 5 19 12 21 6 3 13 6 13 6 1 1 5 -6 8
-15z m-144 -9 c0 -8 -4 -15 -10 -15 -5 0 -10 7 -10 15 0 8 5 15 10 15 6 0 10
-7 10 -15z m40 4 c0 -5 6 -7 12 -3 16 10 51 13 41 4 -18 -17 -61 -20 -67 -5
-3 8 -1 15 4 15 6 0 10 -5 10 -11z m-1202 -46 c-16 -2 -40 -2 -55 0 -16 2 -3
4 27 4 30 0 43 -2 28 -4z m6172 -73 c0 -12 -100 -13 -119 -1 -9 6 11 9 53 10
37 0 66 -4 66 -9z m-40 -125 c0 -11 -11 -15 -40 -15 -29 0 -40 4 -40 15 0 11
11 15 40 15 29 0 40 -4 40 -15z m-2270 -25 c10 -7 -12 -8 -65 -3 -44 3 -82 7
-84 9 -10 9 135 3 149 -6z m2330 6 c0 -2 -8 -10 -17 -17 -16 -13 -17 -12 -4 4
13 16 21 21 21 13z m-2183 -13 c-20 -2 -52 -2 -70 0 -17 2 0 4 38 4 39 0 53
-2 32 -4z m-157 -18 c25 -4 55 -8 66 -10 12 -2 31 -8 42 -14 11 -6 31 -11 44
-12 17 -1 14 -3 -12 -10 -38 -9 -261 -2 -325 11 -22 4 -31 8 -20 9 11 0 30 7
41 15 33 23 62 25 164 11z m2335 -23 c-3 -3 -11 0 -18 7 -9 10 -8 11 6 5 10
-3 15 -9 12 -12z m-4880 -38 c47 -6 55 -9 35 -14 -40 -11 -333 -11 -350 0 -12
7 -8 10 15 10 17 0 36 4 44 9 15 10 165 7 256 -5z m5018 -11 c-7 -2 -21 -2
-30 0 -10 3 -4 5 12 5 17 0 24 -2 18 -5z m-92 -36 c-10 -9 -11 -8 -5 6 3 10 9
15 12 12 3 -3 0 -11 -7 -18z m51 -3 c-7 -12 -11 -13 -17 -4 -4 7 -2 16 6 21
18 11 23 4 11 -17z m-1129 -1 c-7 -2 -21 -2 -30 0 -10 3 -4 5 12 5 17 0 24 -2
18 -5z m212 -13 c3 -11 11 -20 16 -20 5 0 9 -104 9 -254 l0 -255 -52 -3 -53
-3 -3 -97 -3 -98 56 0 55 0 -2 -342 -3 -343 -75 -3 c-41 -2 -85 -1 -97 2 l-21
6 1 547 c1 515 2 549 19 561 13 10 18 27 18 63 l0 49 34 0 c65 0 99 79 54 127
-29 31 -72 30 -105 -3 -23 -23 -25 -31 -19 -72 19 -131 19 -142 4 -142 -21 0
-28 49 -28 188 l0 112 94 0 c86 0 95 -2 101 -20z m-215 -10 c0 -5 -2 -10 -4
-10 -3 0 -8 5 -11 10 -3 6 -1 10 4 10 6 0 11 -4 11 -10z m-76 -72 c7 -76 27
-107 68 -108 11 0 15 -5 12 -15 -4 -8 -10 -12 -15 -9 -5 3 -9 -1 -9 -9 0 -14
-75 -31 -91 -21 -4 2 -12 25 -19 51 -6 27 -17 55 -25 63 -7 8 -15 39 -17 68
l-5 52 47 0 47 0 7 -72z m1223 -24 c-3 -3 -12 -4 -19 -1 -8 3 -5 6 6 6 11 1
17 -2 13 -5z m-1283 -135 c-8 -14 -24 -10 -24 6 0 9 6 12 15 9 8 -4 12 -10 9
-15z m-1367 5 c-3 -3 -12 -4 -19 -1 -8 3 -5 6 6 6 11 1 17 -2 13 -5z m1373
-104 l0 -50 -70 0 -70 0 0 40 c0 48 16 59 88 60 l52 0 0 -50z m-182 -26 c3
-44 0 -52 -16 -56 -31 -8 -39 3 -44 60 l-5 53 31 -3 c30 -3 31 -5 34 -54z
m-3780 -21 c-10 -2 -26 -2 -35 0 -10 3 -2 5 17 5 19 0 27 -2 18 -5z m409 1
c-3 -3 -12 -4 -19 -1 -8 3 -5 6 6 6 11 1 17 -2 13 -5z m2490 0 c-3 -3 -12 -4
-19 -1 -8 3 -5 6 6 6 11 1 17 -2 13 -5z m-2697 -24 c0 -5 -9 -10 -20 -10 -11
0 -20 5 -20 10 0 6 9 10 20 10 11 0 20 -4 20 -10z m55 0 c-3 -5 -13 -10 -21
-10 -8 0 -14 5 -14 10 0 6 9 10 21 10 11 0 17 -4 14 -10z m65 6 c0 -2 -9 -6
-20 -9 -11 -3 -20 -1 -20 4 0 5 9 9 20 9 11 0 20 -2 20 -4z m57 -2 c-3 -3 -12
-4 -19 -1 -8 3 -5 6 6 6 11 1 17 -2 13 -5z m553 -18 c0 -3 -4 -16 -9 -30 -7
-18 -6 -28 5 -36 23 -20 16 -30 -18 -30 -33 0 -33 0 -31 47 1 27 2 49 2 51 1
4 51 2 51 -2z m2900 -71 c0 -28 -4 -35 -19 -35 -11 0 -23 -4 -26 -10 -3 -6 5
-10 18 -10 25 0 25 0 23 -102 l-1 -103 -75 0 -75 0 -3 34 c-3 30 -1 33 11 22
12 -10 20 -10 36 1 18 11 21 23 21 80 0 55 3 67 18 71 15 3 15 5 -3 12 -11 5
-25 16 -31 24 -10 13 -14 13 -28 2 -14 -11 -16 -11 -16 2 0 8 -3 22 -6 31 -5
14 5 16 75 16 l81 0 0 -35z m-3620 -24 c0 -5 12 -12 28 -14 15 -2 -20 -4 -78
-4 -58 1 -79 2 -47 4 31 2 57 8 57 13 0 6 9 10 20 10 11 0 20 -4 20 -9z m2010
5 c0 -3 -4 -8 -10 -11 -5 -3 -10 -1 -10 4 0 6 5 11 10 11 6 0 10 -2 10 -4z
m-1035 -16 c3 -5 1 -10 -4 -10 -6 0 -11 5 -11 10 0 6 2 10 4 10 3 0 8 -4 11
-10z m185 -11 c0 -5 5 -7 10 -4 6 3 10 1 10 -4 0 -6 -7 -11 -15 -11 -8 0 -15
-4 -15 -10 0 -5 -9 -10 -20 -10 -14 0 -20 7 -20 21 0 11 5 17 10 14 6 -3 10
-1 10 4 0 6 7 11 15 11 8 0 15 -5 15 -11z m747 -5 c8 -22 -13 -42 -29 -25 -11
10 -10 11 5 6 12 -5 17 -2 17 10 0 11 -5 15 -16 11 -8 -3 -12 -2 -9 4 9 15 25
12 32 -6z m1991 1 c9 -4 12 -25 10 -77 l-3 -73 -137 -3 -138 -3 0 76 c0 73 1
75 24 75 14 0 27 4 30 8 5 8 188 5 214 -3z m-2311 -9 c0 -7 -12 -14 -26 -14
-51 -3 -66 -7 -80 -20 -10 -9 -17 -10 -24 -3 -15 15 -5 22 50 37 63 17 80 17
80 0z m-577 -10 c8 -2 -14 -4 -50 -5 -36 0 -71 3 -78 7 -11 8 92 5 128 -2z
m659 -2 c2 -2 2 -6 -1 -9 -8 -8 -68 7 -68 17 0 9 58 2 69 -8z m61 -42 c0 -13
-11 -10 -37 11 -7 5 -10 13 -7 18 7 12 44 -13 44 -29z m-283 2 c-9 -9 -28 6
-21 18 4 6 10 6 17 -1 6 -6 8 -13 4 -17z m2603 22 c0 -3 -4 -8 -10 -11 -5 -3
-10 -1 -10 4 0 6 5 11 10 11 6 0 10 -2 10 -4z m77 -2 c-3 -3 -12 -4 -19 -1 -8
3 -5 6 6 6 11 1 17 -2 13 -5z m-2608 -8 c-14 -13 -70 -36 -64 -26 4 6 17 15
29 20 22 9 42 13 35 6z m-744 -55 c-6 -5 -25 10 -25 20 0 5 6 4 14 -3 8 -7 12
-15 11 -17z m3338 -8 c-13 -2 -33 -2 -45 0 -13 2 -3 4 22 4 25 0 35 -2 23 -4z
m-2289 -140 c-3 -72 -5 -83 -11 -83 -5 0 -6 25 -5 55 2 30 7 55 11 55 4 0 6
-12 5 -27z m-465 -113 c12 -36 13 -40 6 -40 -3 0 -5 3 -4 6 0 4 -4 10 -9 13
-14 9 -25 51 -14 51 6 0 15 -14 21 -30z m449 3 c-2 -9 -8 -18 -15 -20 -7 -3
-9 3 -6 16 6 25 26 28 21 4z m-2028 -84 c0 -10 -4 -19 -10 -19 -5 0 -10 12
-10 26 0 14 4 23 10 19 6 -3 10 -15 10 -26z m1976 3 c-8 -9 -18 -13 -22 -10
-8 9 19 37 29 31 5 -3 2 -12 -7 -21z m-36 -26 c0 -3 -4 -8 -10 -11 -5 -3 -10
-1 -10 4 0 6 5 11 10 11 6 0 10 -2 10 -4z m-35 -25 c-3 -6 -14 -11 -23 -11
-15 1 -15 2 2 15 21 16 32 13 21 -4z m-792 -98 c-7 -2 -19 -2 -25 0 -7 3 -2 5
12 5 14 0 19 -2 13 -5z m176 3 c-2 -2 -33 -6 -69 -9 -41 -3 -54 -2 -35 3 31 8
112 13 104 6z m920 -47 c1 -4 -13 -4 -30 0 -36 7 -40 24 -7 32 21 5 34 -7 37
-32z m-711 16 c1 -1 0 -10 -4 -19 -9 -24 -64 -22 -64 3 0 11 6 22 13 24 10 5
46 -1 55 -8z m-1360 -19 c3 -3 -11 -6 -31 -6 -20 0 -37 5 -37 11 0 10 56 6 68
-5z m103 0 c-7 -8 -21 -12 -33 -8 -21 5 -21 6 -2 13 33 13 48 11 35 -5z m59 4
c0 -5 -9 -10 -20 -10 -11 0 -20 5 -20 10 0 6 9 10 20 10 11 0 20 -4 20 -10z
m45 1 c3 -6 -4 -9 -15 -8 -11 1 -20 5 -20 9 0 11 28 10 35 -1z m2474 -37 c2
-2 -12 -4 -32 -4 -20 0 -39 5 -42 11 -5 7 5 8 32 3 21 -4 40 -8 42 -10z m101
-4 c0 -5 -7 -10 -15 -10 -8 0 -15 5 -15 10 0 6 7 10 15 10 8 0 15 -4 15 -10z
m50 0 c0 -5 -7 -10 -15 -10 -8 0 -15 5 -15 10 0 6 7 10 15 10 8 0 15 -4 15
-10z m40 2 c0 -5 -7 -9 -15 -9 -8 0 -15 4 -15 9 0 4 7 8 15 8 8 0 15 -4 15 -8z
m-191 -84 c14 -6 67 -15 116 -19 71 -5 56 -6 -70 -4 -88 2 -171 7 -185 11
l-25 8 25 7 c39 10 111 8 139 -3z m2339 -98 c6 0 12 -4 12 -10 0 -11 -128 -14
-154 -4 -34 13 -13 20 57 17 39 -1 78 -3 85 -3z m-5053 -200 c7 -12 -21 -18
-112 -23 -73 -4 -83 -1 -61 21 15 15 164 16 173 2z m2186 -19 l24 -20 -45 15
c-55 19 -61 24 -28 24 14 0 36 -9 49 -19z m-1202 -40 c35 -33 44 -66 9 -35
-12 10 -18 14 -14 7 5 -9 -3 -10 -27 -6 -25 4 -36 1 -40 -10 -6 -17 29 -31 39
-16 3 5 13 9 22 9 11 0 4 -8 -17 -21 -30 -18 -32 -21 -16 -33 23 -16 15 -50
-12 -54 -14 -2 -23 3 -28 17 -7 23 -20 27 -30 11 -3 -5 -16 -10 -28 -9 -19 0
-19 2 6 11 15 5 24 14 21 20 -4 7 -2 8 4 4 8 -5 10 -2 6 8 -7 19 -34 22 -34 4
0 -6 -2 -9 -5 -6 -3 3 -1 18 5 34 7 17 7 25 1 19 -5 -5 -14 -26 -19 -45 l-10
-35 -1 47 c-1 39 4 51 30 77 42 42 94 43 138 2z m1195 20 c3 -5 -4 -9 -17 -8
-12 0 -35 -3 -52 -7 -28 -7 -29 -7 -11 8 21 17 71 22 80 7z m2845 -118 c2
-190 12 -377 21 -386 4 -5 5 -17 3 -28 -6 -23 -45 -26 -63 -4 -10 12 -10 15 1
15 12 0 12 2 0 9 -9 6 -10 10 -2 16 15 9 14 472 -1 481 -6 4 -5 10 3 15 34 21
37 10 38 -118z m-235 104 c16 -1 31 -8 34 -14 2 -7 8 -13 14 -13 6 0 6 6 -2
15 -9 11 -9 15 -1 15 6 0 14 -6 17 -13 3 -8 16 -12 33 -9 33 5 47 -10 32 -35
-7 -12 -10 -14 -11 -4 0 11 -3 11 -17 0 -15 -12 -16 -12 -8 1 6 12 5 13 -6 3
-15 -15 -33 -17 -25 -4 7 11 -13 9 -34 -4 -16 -10 -68 -15 -87 -7 -7 2 -10 9
-6 16 3 6 1 6 -8 -1 -15 -15 -63 -18 -55 -4 4 5 -3 7 -14 4 -11 -3 -28 1 -38
8 -9 7 -14 9 -10 5 5 -5 -1 -16 -12 -23 -19 -13 -19 -40 0 -28 5 3 12 1 15 -5
4 -6 3 -10 -2 -9 -21 4 -31 -3 -28 -18 2 -10 4 -18 5 -18 1 0 3 -14 4 -32 1
-18 -1 -30 -6 -27 -7 4 -12 -10 -6 -18 1 -2 -4 -12 -10 -24 -8 -15 -8 -24 0
-32 8 -8 7 -13 -6 -18 -13 -5 -14 -9 -4 -21 7 -8 13 -22 14 -30 2 -11 -1 -12
-12 -2 -14 11 -20 -1 -7 -15 11 -10 12 -37 2 -30 -5 3 -7 -5 -5 -18 3 -13 5
-23 6 -23 6 0 5 -47 0 -50 -8 -5 -6 -36 3 -52 11 -18 -10 -25 -26 -9 -8 8 -18
12 -23 8 -5 -4 -1 2 8 13 12 14 14 25 7 37 -6 11 -6 19 1 23 6 4 8 11 5 16 -4
5 -1 9 6 9 7 0 8 4 2 13 -11 14 -11 112 0 123 10 11 9 26 -2 19 -5 -3 -12 -1
-15 4 -4 5 -1 13 5 16 5 4 8 13 5 21 -3 8 0 13 7 11 7 -1 11 4 9 11 -1 8 2 11
8 7 13 -8 13 8 -1 22 -8 8 -5 15 10 25 12 8 18 18 14 21 -3 4 -13 1 -21 -6
-13 -10 -14 -9 -7 3 15 24 14 103 -1 127 -22 35 -13 36 250 20z m296 -7 c-11
-7 -11 -10 -2 -10 7 0 11 -4 7 -10 -3 -5 -12 -7 -20 -4 -18 7 -8 34 14 34 14
0 14 -2 1 -10z m-4965 -42 c55 6 94 4 114 -7 14 -8 21 -9 17 -2 -10 15 37 14
53 -1 9 -8 11 -8 8 -2 -9 16 18 25 31 12 6 -6 16 -7 24 -2 20 13 41 14 69 5
15 -5 33 -5 43 1 12 7 26 7 42 -1 l24 -11 0 -666 c0 -582 -2 -665 -15 -661 -8
4 -17 2 -21 -4 -4 -6 -123 -9 -330 -8 l-324 1 0 673 c0 369 4 675 8 679 4 4
61 4 127 0 66 -4 125 -7 130 -6z m1995 -8 c0 -5 -4 -10 -10 -10 -5 0 -10 5
-10 10 0 6 5 10 10 10 6 0 10 -4 10 -10z m2490 -14 c0 -2 -7 -7 -16 -10 -8 -3
-12 -2 -9 4 6 10 25 14 25 6z m-2430 -16 c0 -5 -4 -10 -10 -10 -5 0 -10 5 -10
10 0 6 5 10 10 10 6 0 10 -4 10 -10z m-1180 -10 c0 -5 -4 -10 -10 -10 -5 0
-10 5 -10 10 0 6 5 10 10 10 6 0 10 -4 10 -10z m2980 1 c0 -5 -24 -12 -52 -16
-29 -4 -79 -16 -110 -27 -32 -11 -62 -16 -68 -13 -25 16 2 31 81 47 97 19 149
22 149 9z m-1740 -32 c0 -5 -4 -9 -10 -9 -5 0 -10 7 -10 16 0 8 5 12 10 9 6
-3 10 -10 10 -16z m1479 -8 c12 -8 12 -12 2 -25 -17 -20 -27 -20 -35 0 -11 29
6 42 33 25z m246 -17 c12 -5 7 -11 -23 -24 -23 -10 -48 -33 -61 -54 -28 -45
-46 -47 -37 -4 8 40 31 66 70 77 17 5 32 10 33 10 1 1 9 -2 18 -5z m-3075 -24
c0 -5 -4 -10 -10 -10 -5 0 -10 5 -10 10 0 6 5 10 10 10 6 0 10 -4 10 -10z
m2025 -55 l25 -24 0 -384 c0 -314 -3 -387 -14 -396 -9 -7 -99 -14 -259 -18
-234 -6 -245 -5 -254 13 -6 11 -13 187 -17 405 -6 365 -5 386 12 402 15 14 50
17 238 20 120 1 225 3 232 5 7 1 24 -9 37 -23z m-997 -42 c-12 -27 -37 -77
-57 -113 -20 -37 -34 -76 -33 -90 2 -20 1 -22 -7 -10 -9 13 -11 12 -11 -3 0
-17 45 -45 56 -35 3 4 -2 20 -10 37 -10 19 -12 32 -6 36 9 6 30 -33 30 -56 0
-19 25 -8 61 27 l37 36 81 -17 c94 -21 116 -39 136 -116 33 -123 10 -274 -47
-309 -34 -21 -183 -54 -198 -45 -15 10 -60 -41 -67 -76 -6 -32 -18 -45 -27
-30 -9 14 15 75 36 89 10 7 18 22 18 33 0 16 -7 19 -49 19 -58 0 -77 -17 -30
-27 65 -13 -8 -22 -249 -33 -333 -14 -332 -14 -332 9 0 11 -9 23 -21 26 -31
10 -35 -2 -8 -25 l24 -21 -23 11 c-22 11 -23 10 -12 -10 21 -40 4 -44 -23 -5
-14 21 -24 42 -21 47 3 4 -2 8 -11 8 -11 0 -15 -5 -11 -15 3 -9 -1 -18 -10
-22 -16 -6 -194 25 -215 37 -9 6 -11 47 -10 149 1 78 -1 146 -5 152 -10 17
-15 89 -6 90 4 1 20 3 35 5 16 1 52 7 80 13 29 5 72 12 97 16 44 5 46 5 70
-35 14 -22 27 -40 30 -40 18 1 46 37 57 73 12 40 12 43 -13 61 -14 10 -41 50
-60 90 l-35 71 82 -85 81 -85 232 0 c127 -1 223 1 214 3 -13 2 3 28 68 108 47
57 89 104 94 104 5 0 -1 -21 -12 -47z m2042 27 c0 -12 -28 -25 -36 -17 -9 9 6
27 22 27 8 0 14 -5 14 -10z m-1970 -50 c-23 -27 -47 -53 -53 -57 -7 -4 10 19
37 50 27 31 51 57 53 57 3 0 -14 -22 -37 -50z m2007 4 c-3 -3 -12 -4 -19 -1
-8 3 -5 6 6 6 11 1 17 -2 13 -5z m103 -14 c11 -11 20 -24 20 -30 0 -15 -33
-50 -47 -50 -23 0 -24 21 -2 39 14 12 18 20 11 25 -6 3 -16 -3 -22 -14 -6 -11
-15 -20 -20 -20 -11 0 -14 53 -3 63 13 13 43 7 63 -13z m-2170 -63 c0 -2 -10
-12 -22 -23 l-23 -19 19 23 c18 21 26 27 26 19z m2090 -17 c0 -5 -8 -10 -17
-10 -15 0 -16 2 -3 10 19 12 20 12 20 0z m1015 -176 c-22 -17 -46 -15 -53 4
-2 8 8 12 35 12 36 -1 37 -1 18 -16z m-489 -29 c1 -8 -1 -13 -6 -10 -12 8 -20
-21 -8 -33 6 -6 6 -12 -1 -17 -7 -4 -10 -1 -9 7 2 7 -3 12 -10 10 -10 -2 -9 3
2 20 7 13 12 31 11 42 -3 14 -1 16 8 7 6 -6 12 -18 13 -26z m580 -92 c23 -55
41 -113 48 -153 6 -31 5 -33 -6 -15 -18 27 -38 30 -38 4 0 -12 -8 -23 -19 -26
-11 -3 -21 -13 -24 -24 -3 -10 -10 -19 -17 -19 -6 0 -8 5 -4 11 3 6 -8 3 -26
-6 -21 -11 -35 -13 -39 -7 -3 6 -18 13 -32 17 -15 4 -33 20 -43 40 -17 31 -17
41 -7 97 22 119 22 118 112 118 l79 0 16 -37z m-590 -19 c1 -9 0 -13 -4 -10
-3 4 -7 14 -8 22 -1 9 0 13 4 10 3 -4 7 -14 8 -22z m-307 -56 c9 -24 3 -68
-10 -68 -15 0 -30 39 -23 65 8 31 22 32 33 3z m305 4 c3 -5 -1 -9 -9 -9 -8 0
-12 4 -9 9 3 4 7 8 9 8 2 0 6 -4 9 -8z m11 -32 c3 -6 -1 -7 -9 -4 -18 7 -21
14 -7 14 6 0 13 -4 16 -10z m-11 -18 c3 -5 -1 -9 -9 -9 -8 0 -12 4 -9 9 3 4 7
8 9 8 2 0 6 -4 9 -8z m1 -71 c3 -5 2 -12 -3 -15 -5 -3 -9 1 -9 9 0 17 3 19 12
6z m1 -59 c-3 -3 -1 -10 4 -17 7 -8 6 -12 -3 -12 -7 0 -13 11 -13 23 0 12 4
20 9 17 4 -3 6 -8 3 -11z m-3615 -261 c-12 -16 -21 -33 -21 -39 0 -5 -7 -15
-15 -22 -8 -7 -19 -27 -24 -44 -9 -29 -9 -28 -10 19 -1 52 15 82 54 103 33 19
37 14 16 -17z m1327 -7 c-4 -3 -12 5 -18 18 -12 22 -12 22 6 6 10 -10 15 -20
12 -24z m1682 -35 c-7 -11 -14 -18 -17 -15 -3 3 0 12 7 21 18 21 23 19 10 -6z
m-1735 -9 c3 -5 -3 -10 -14 -10 -12 0 -21 5 -21 10 0 6 6 10 14 10 8 0 18 -4
21 -10z m-1225 -31 c0 -5 -15 -15 -34 -23 -18 -8 -37 -19 -40 -25 -13 -20 -27
-12 -16 9 6 10 10 23 9 27 -4 23 4 28 41 25 22 -2 40 -8 40 -13z m1266 -41
c-33 -17 -37 -22 -23 -30 20 -11 23 -44 5 -51 -21 -7 -38 4 -38 24 0 16 -3 18
-19 9 -40 -21 -33 -9 12 21 26 17 49 35 53 40 3 5 15 9 27 9 17 -1 14 -5 -17
-22z m-1166 2 c0 -5 -4 -10 -10 -10 -5 0 -10 5 -10 10 0 6 5 10 10 10 6 0 10
-4 10 -10z m2958 -8 c2 -7 -2 -10 -12 -6 -9 3 -16 11 -16 16 0 13 23 5 28 -10z
m697 -2 c2 -4 -7 -6 -21 -4 -35 3 -41 12 -9 12 14 0 27 -4 30 -8z m-600 -14
c0 0 8 -11 18 -22 18 -21 17 -23 -7 -49 l-26 -28 -25 27 c-28 30 -30 39 -14
67 7 15 16 18 32 13 12 -3 22 -7 22 -8z m619 -18 c-3 -4 -11 -5 -19 -1 -8 3
-15 1 -15 -5 0 -6 11 -9 25 -8 25 3 25 -4 -3 -36 -8 -10 -20 -18 -26 -18 -6 0
0 10 14 21 24 19 24 20 2 9 -13 -6 -25 -17 -28 -25 -6 -15 -42 -16 -62 -2 -8
7 -16 7 -23 0 -8 -8 -6 -11 6 -10 10 1 19 -6 20 -16 2 -9 -1 -15 -6 -11 -5 3
-7 9 -4 13 2 5 -7 9 -22 9 l-26 0 23 -18 c23 -17 23 -18 3 -28 -24 -13 -37 -4
-22 14 8 9 5 15 -9 23 -11 6 -22 8 -25 5 -3 -3 -4 1 -3 10 1 8 6 19 11 23 4 4
5 2 1 -4 -8 -15 10 -18 18 -4 7 11 -20 35 -32 27 -5 -3 -9 1 -9 9 0 10 5 11
17 5 10 -5 21 -6 25 -2 3 4 5 1 3 -7 -1 -7 3 -16 11 -19 8 -2 11 0 7 6 -3 6
-1 14 5 18 8 4 9 3 5 -4 -7 -12 8 -17 29 -12 6 2 19 3 30 2 12 0 15 2 6 5 -10
4 -8 9 9 18 l23 13 -26 0 c-15 0 -24 -4 -22 -9 3 -4 -4 -13 -15 -19 -21 -11
-21 -11 -5 13 13 20 23 24 65 24 27 -1 47 -5 44 -9z m-3837 -4 c-3 -3 -12 -4
-19 -1 -8 3 -5 6 6 6 11 1 17 -2 13 -5z"/>
<path d="M5130 7632 c0 -24 14 -42 32 -42 19 0 19 2 6 22 -16 24 -38 35 -38
20z"/>
<path d="M5385 7560 c-4 -6 -11 -7 -17 -4 -8 5 -9 1 -5 -10 4 -10 7 -20 7 -22
0 -2 10 -4 22 -4 17 0 19 3 10 12 -17 17 -15 29 3 22 8 -4 15 -1 15 5 0 14
-27 15 -35 1z"/>
<path d="M5325 7530 c-3 -5 -12 -7 -20 -4 -19 8 -46 -21 -39 -40 7 -19 9 -19
51 -4 24 9 33 18 33 35 0 23 -14 31 -25 13z"/>
<path d="M5220 7500 c0 -5 4 -10 9 -10 6 0 13 5 16 10 3 6 -1 10 -9 10 -9 0
-16 -4 -16 -10z"/>
<path d="M5368 7503 c7 -3 16 -2 19 1 4 3 -2 6 -13 5 -11 0 -14 -3 -6 -6z"/>
<path d="M5745 7501 c-6 -11 9 -23 19 -14 9 9 7 23 -3 23 -6 0 -12 -4 -16 -9z"/>
<path d="M5100 7476 c0 -2 7 -6 15 -10 8 -3 15 -1 15 4 0 6 -7 10 -15 10 -8 0
-15 -2 -15 -4z"/>
<path d="M5036 7457 c4 -12 1 -17 -11 -17 -12 0 -15 -5 -11 -17 4 -11 -2 -8
-13 7 -11 14 -23 22 -27 18 -13 -14 18 -65 49 -80 40 -19 53 -18 49 5 -2 12 5
19 27 23 17 4 28 10 26 14 -3 5 1 11 7 14 7 3 4 5 -7 5 -37 -2 -46 1 -39 13 5
7 3 8 -5 4 -7 -5 -21 0 -32 10 -18 16 -19 16 -13 1z"/>
<path d="M5092 7350 c2 -20 9 -25 33 -27 17 -1 24 0 18 3 -21 9 -15 27 7 21
14 -4 20 0 20 11 0 13 -9 17 -40 17 -38 0 -41 -2 -38 -25z"/>
<path d="M4945 7340 c4 -6 27 -10 52 -10 26 0 43 3 39 7 -11 11 -97 13 -91 3z"/>
<path d="M5766 7331 c-4 -5 3 -7 14 -4 23 6 26 13 6 13 -8 0 -17 -4 -20 -9z"/>
<path d="M5120 7300 c0 -5 -7 -10 -15 -10 -8 0 -15 -9 -15 -21 0 -11 5 -17 10
-14 6 3 10 2 10 -3 0 -6 -7 -12 -15 -16 -24 -9 -18 -21 12 -23 19 -1 22 1 12
8 -12 7 -12 9 1 9 24 0 44 -16 31 -24 -17 -11 -13 -29 4 -22 8 3 22 9 30 12 9
4 15 0 15 -9 0 -9 4 -18 9 -21 15 -9 41 5 41 22 0 13 -4 12 -22 -4 -21 -17
-21 -16 1 9 16 18 34 27 53 27 17 0 27 4 23 10 -3 6 -1 10 5 10 6 0 18 7 26
15 13 12 12 15 -6 25 -11 6 -25 8 -31 5 -5 -4 -15 -2 -22 3 -7 5 -23 13 -37
16 -19 6 -21 5 -10 -3 12 -8 6 -11 -23 -11 -23 0 -36 4 -32 10 3 6 1 10 -4 10
-6 0 -11 -7 -11 -15 0 -8 -9 -15 -20 -15 -13 0 -18 5 -14 15 4 8 3 15 0 15 -3
0 -6 -4 -6 -10z m170 -30 c12 -8 9 -10 -13 -10 -16 0 -26 4 -22 10 8 12 16 12
35 0z"/>
<path d="M5750 7282 c0 -26 46 -50 64 -32 7 7 0 10 -23 10 -18 0 -30 4 -27 8
2 4 1 14 -5 22 -7 12 -9 10 -9 -8z"/>
<path d="M5715 7270 c3 -5 11 -10 16 -10 6 0 7 5 4 10 -3 6 -11 10 -16 10 -6
0 -7 -4 -4 -10z"/>
<path d="M5351 7252 c-6 -2 -11 -9 -11 -15 0 -8 3 -8 11 0 6 6 17 9 24 7 7 -3
16 -1 19 5 6 9 -18 11 -43 3z"/>
<path d="M5370 7199 c0 -5 5 -7 10 -4 6 3 10 8 10 11 0 2 -4 4 -10 4 -5 0 -10
-5 -10 -11z"/>
<path d="M5065 7190 c-3 -5 -1 -10 4 -10 6 0 11 5 11 10 0 6 -2 10 -4 10 -3 0
-8 -4 -11 -10z"/>
<path d="M5165 7170 c-3 -5 -1 -10 4 -10 6 0 11 5 11 10 0 6 -2 10 -4 10 -3 0
-8 -4 -11 -10z"/>
<path d="M4840 7079 c0 -5 5 -7 10 -4 6 3 10 8 10 11 0 2 -4 4 -10 4 -5 0 -10
-5 -10 -11z"/>
<path d="M4845 6990 c-3 -5 -1 -10 4 -10 6 0 11 5 11 10 0 6 -2 10 -4 10 -3 0
-8 -4 -11 -10z"/>
<path d="M4948 6982 c-38 -23 -36 -35 2 -14 16 9 30 20 30 25 0 9 -1 9 -32
-11z"/>
<path d="M4860 6970 c-8 -11 -23 -20 -34 -20 -11 0 -17 -3 -13 -6 11 -11 55 5
61 22 9 25 2 26 -14 4z"/>
<path d="M4864 6929 c-19 -22 -19 -22 3 -10 24 12 39 31 25 31 -5 0 -17 -10
-28 -21z"/>
<path d="M4924 6924 c-18 -14 -18 -15 4 -4 12 6 22 13 22 15 0 8 -5 6 -26 -11z"/>
<path d="M2997 7474 c-14 -15 -6 -34 14 -34 14 0 19 5 17 17 -3 18 -20 27 -31
17z"/>
<path d="M3193 7458 c-18 -23 -23 -48 -10 -48 19 1 59 38 52 50 -9 14 -31 13
-42 -2z"/>
<path d="M1560 7235 c7 -8 18 -15 24 -15 6 0 4 5 -4 10 -9 6 -10 10 -3 10 6 0
15 -4 18 -10 3 -5 11 -10 16 -10 6 0 8 4 5 9 -4 5 0 12 6 14 7 3 -7 6 -31 6
-38 1 -42 -1 -31 -14z"/>
<path d="M1650 7241 c0 -6 4 -13 10 -16 6 -3 7 1 4 9 -7 18 -14 21 -14 7z"/>
<path d="M1116 7230 c7 -7 19 -7 35 -1 23 9 22 10 -10 10 -24 1 -32 -2 -25 -9z"/>
<path d="M1451 7220 c-2 -14 -5 -19 -8 -12 -5 13 -23 7 -23 -9 0 -5 16 -9 35
-9 19 0 35 5 35 11 0 6 -6 9 -14 6 -10 -4 -16 2 -19 16 -4 20 -4 20 -6 -3z"/>
<path d="M965 7190 c3 -5 11 -10 16 -10 6 0 7 5 4 10 -3 6 -11 10 -16 10 -6 0
-7 -4 -4 -10z"/>
<path d="M1422 7157 c-25 -32 -23 -37 11 -37 30 0 34 3 30 19 -6 24 -28 34
-41 18z"/>
<path d="M1375 7142 c-16 -11 -16 -30 -1 -35 8 -3 16 2 19 14 6 21 -4 32 -18
21z"/>
<path d="M1070 7090 c0 -5 -7 -10 -15 -10 -8 0 -15 -4 -15 -10 0 -5 5 -10 10
-10 6 0 11 -10 11 -22 1 -19 2 -20 6 -5 4 14 11 18 29 14 42 -8 40 16 -3 41
-14 7 -23 8 -23 2z"/>
<path d="M1013 7075 c-8 -9 -9 -16 -3 -20 6 -3 13 1 16 10 9 21 2 26 -13 10z"/>
<path d="M961 7051 c-8 -5 -9 -11 -3 -15 5 -3 15 1 22 9 14 16 3 20 -19 6z"/>
<path d="M7491 7133 c1 -48 3 -53 9 -28 l8 30 8 -25 8 -25 7 25 c4 14 7 37 8
53 1 22 -3 27 -24 27 -24 0 -25 -3 -24 -57z m39 27 c0 -11 -7 -20 -15 -20 -8
0 -15 9 -15 20 0 11 7 20 15 20 8 0 15 -9 15 -20z"/>
<path d="M7563 7135 c0 -33 2 -45 4 -27 2 18 2 45 0 60 -2 15 -4 0 -4 -33z"/>
<path d="M7590 7173 c0 -9 9 -27 21 -39 24 -26 17 -53 -9 -32 -13 11 -14 11
-10 -2 7 -21 42 -19 46 3 2 11 -6 29 -18 42 -15 16 -18 25 -10 30 7 4 16 1 21
-6 7 -11 9 -10 9 4 0 12 -8 17 -25 17 -17 0 -25 -6 -25 -17z"/>
<path d="M7660 7135 c0 -50 2 -55 23 -55 20 1 20 2 5 11 -21 12 -24 35 -5 42
9 4 8 8 -3 16 -13 10 -12 13 4 26 19 15 19 15 -2 15 -20 0 -22 -5 -22 -55z"/>
<path d="M7491 7013 c1 -27 4 -39 6 -28 3 11 10 23 17 27 8 6 7 8 -1 8 -7 0
-13 6 -13 14 0 8 6 17 13 19 7 3 5 6 -5 6 -15 1 -18 -7 -17 -46z"/>
<path d="M7812 7015 c0 -27 2 -44 5 -36 4 9 7 10 13 2 3 -7 7 2 7 19 0 18 -3
26 -8 19 -5 -8 -9 -1 -12 17 -2 18 -4 9 -5 -21z"/>
<path d="M7542 7000 c0 -19 2 -27 5 -17 2 9 2 25 0 35 -3 9 -5 1 -5 -18z"/>
<path d="M7591 6998 c2 -31 2 -31 6 -5 2 15 8 27 13 27 5 0 11 -12 13 -27 l4
-28 2 28 c0 16 5 25 11 22 6 -3 10 -1 10 4 0 6 -13 11 -30 11 -27 0 -30 -3
-29 -32z"/>
<path d="M7671 6998 c2 -31 2 -31 6 -5 2 15 9 27 14 27 5 0 10 -12 10 -27 2
-28 2 -28 6 -3 3 14 10 28 17 32 6 4 -4 8 -21 8 -31 0 -33 -2 -32 -32z"/>
<path d="M7770 7023 c15 -7 12 -23 -5 -23 -8 0 -15 -7 -15 -15 0 -8 9 -15 21
-15 16 0 20 5 17 27 -2 14 -9 28 -16 29 -7 1 -8 0 -2 -3z"/>
<path d="M7862 6998 c2 -17 10 -33 18 -35 13 -4 13 -3 0 7 -11 9 -12 13 -2 17
18 7 15 43 -4 43 -11 0 -14 -8 -12 -32z"/>
<path d="M7911 6998 c1 -22 3 -26 6 -13 3 11 10 26 15 33 8 9 6 12 -6 12 -12
0 -16 -9 -15 -32z"/>
<path d="M7490 6790 l0 -130 215 0 216 0 -3 128 -3 127 -212 3 -213 3 0 -131z
m200 82 c0 -17 -9 -18 -87 -18 -70 1 -88 4 -91 16 -2 12 14 16 88 18 82 2 90
1 90 -16z m-140 -102 c0 -11 5 -20 11 -20 6 0 8 9 4 21 -7 20 -4 20 67 17 l73
-3 0 -30 c0 -25 -4 -30 -25 -30 -19 0 -26 7 -31 30 -6 27 -14 17 -10 -12 1 -9
-17 -13 -65 -13 -66 0 -67 0 -49 20 17 19 17 20 -1 20 -16 0 -17 2 -4 10 23
15 30 12 30 -10z m188 -60 c12 0 22 -4 22 -10 0 -6 -48 -10 -125 -10 -93 0
-125 3 -125 13 0 9 26 11 102 10 57 -1 113 -2 126 -3z"/>
<path d="M7670 6760 c0 -5 5 -10 11 -10 5 0 7 5 4 10 -3 6 -8 10 -11 10 -2 0
-4 -4 -4 -10z"/>
<path d="M7490 6545 l0 -65 113 0 c61 -1 158 -3 215 -5 l102 -5 0 70 0 70
-215 0 -215 0 0 -65z m410 35 c0 -5 -10 -10 -22 -11 l-23 0 23 -10 c13 -5 21
-13 17 -18 -8 -13 -225 -9 -225 4 0 6 37 10 90 10 50 -1 90 3 90 7 0 4 -27 8
-60 8 -33 0 -60 4 -60 10 0 6 35 10 85 10 50 0 85 -4 85 -10z m-64 -61 c39 1
64 -2 64 -9 0 -6 -55 -10 -155 -10 -92 0 -155 4 -155 10 0 9 156 19 174 11 5
-2 37 -3 72 -2z"/>
<path d="M6920 6792 c0 -11 7 -25 15 -32 18 -15 61 -6 68 14 5 13 2 13 -20 3
-22 -10 -28 -8 -44 12 -18 22 -19 22 -19 3z"/>
<path d="M6595 6780 c-3 -5 -1 -10 4 -10 6 0 11 5 11 10 0 6 -2 10 -4 10 -3 0
-8 -4 -11 -10z"/>
<path d="M6622 6746 c7 -8 15 -12 17 -11 5 6 -10 25 -20 25 -5 0 -4 -6 3 -14z"/>
<path d="M5175 6989 c-4 -6 -5 -12 -2 -15 2 -3 7 2 10 11 7 17 1 20 -8 4z"/>
<path d="M7020 6590 c0 -5 5 -10 10 -10 6 0 10 5 10 10 0 6 -4 10 -10 10 -5 0
-10 -4 -10 -10z"/>
<path d="M1005 6258 c-15 -22 -15 -23 16 -26 39 -4 44 1 27 27 -16 27 -23 26
-43 -1z"/>
<path d="M3010 6145 c0 -23 -31 -31 -45 -12 -11 15 -13 14 -25 -7 -29 -55 35
-120 91 -93 34 18 47 61 28 95 -17 31 -49 42 -49 17z m0 -50 c0 -8 -4 -15 -10
-15 -5 0 -10 7 -10 15 0 8 5 15 10 15 6 0 10 -7 10 -15z"/>
<path d="M4178 6193 c7 -3 16 -2 19 1 4 3 -2 6 -13 5 -11 0 -14 -3 -6 -6z"/>
<path d="M4228 6193 c6 -2 18 -2 25 0 6 3 1 5 -13 5 -14 0 -19 -2 -12 -5z"/>
<path d="M6675 5180 c-3 -5 3 -10 15 -10 12 0 18 5 15 10 -3 6 -10 10 -15 10
-5 0 -12 -4 -15 -10z"/>
<path d="M6724 5181 c4 -6 14 -11 22 -11 8 0 13 -5 12 -11 -2 -6 5 -13 14 -14
33 -6 88 -27 86 -33 -3 -15 15 -42 27 -42 8 0 16 -8 19 -17 3 -10 4 -1 1 20
-4 40 2 70 14 63 3 -2 6 6 6 19 0 15 -4 20 -10 15 -10 -8 -33 -5 -164 17 -24
4 -32 2 -27 -6z"/>
<path d="M6800 5117 c0 -6 11 -17 25 -24 31 -14 31 -12 0 15 -15 13 -25 17
-25 9z"/>
<path d="M7000 5121 c0 -6 4 -13 10 -16 6 -3 7 1 4 9 -7 18 -14 21 -14 7z"/>
<path d="M6860 4896 c0 -17 5 -26 16 -26 10 0 14 7 12 22 -5 32 -28 35 -28 4z"/>
<path d="M6780 4624 c0 -17 28 -49 36 -41 4 4 -2 17 -14 30 -12 12 -22 17 -22
11z"/>
<path d="M6815 4530 c3 -5 8 -10 11 -10 2 0 4 5 4 10 0 6 -5 10 -11 10 -5 0
-7 -4 -4 -10z"/>
<path d="M4090 5096 c-18 -22 -5 -48 22 -44 17 2 23 10 23 28 0 29 -26 38 -45
16z"/>
<path d="M4188 5099 c-24 -14 -23 -36 3 -44 25 -8 42 6 37 31 -4 22 -18 26
-40 13z"/>
<path d="M4282 5101 c-19 -11 -11 -45 11 -49 21 -4 41 39 23 50 -14 10 -18 10
-34 -1z"/>
<path d="M4377 5102 c-12 -2 -17 -11 -15 -25 3 -25 37 -35 49 -15 19 30 4 49
-34 40z"/>
<path d="M4460 5096 c-18 -22 -5 -48 22 -44 17 2 23 10 23 28 0 29 -26 38 -45
16z m30 -16 c0 -5 -4 -10 -10 -10 -5 0 -10 5 -10 10 0 6 5 10 10 10 6 0 10 -4
10 -10z"/>
<path d="M4555 5096 c-19 -14 -19 -16 -3 -32 22 -22 50 -11 46 18 -4 27 -19
32 -43 14z"/>
<path d="M4660 5000 c-15 -28 -7 -37 39 -45 22 -3 47 -15 57 -26 32 -36 72
-20 79 31 6 51 -7 60 -91 60 -63 0 -75 -3 -84 -20z"/>
<path d="M4772 4858 c-16 -16 -15 -35 3 -42 25 -9 46 5 43 28 -3 24 -28 32
-46 14z"/>
<path d="M4774 4766 c-24 -18 -11 -48 18 -44 14 2 24 11 26 24 4 26 -20 37
-44 20z"/>
<path d="M4775 4676 c-23 -16 -13 -46 14 -46 11 0 25 9 31 20 14 26 -18 46
-45 26z"/>
<path d="M4767 4583 c-12 -11 -7 -41 7 -46 20 -8 56 21 50 38 -6 15 -45 21
-57 8z"/>
<path d="M4767 4493 c-13 -12 -7 -41 9 -47 21 -8 55 21 47 40 -5 14 -44 19
-56 7z"/>
<path d="M4755 4390 c-11 -12 -31 -20 -50 -20 -54 0 -76 -48 -33 -71 31 -16
139 -4 156 18 41 56 -26 124 -73 73z"/>
<path d="M4082 4268 c-21 -21 -14 -48 12 -48 33 0 53 25 36 45 -15 18 -32 19
-48 3z"/>
<path d="M4175 4266 c-24 -17 -14 -46 14 -39 12 3 21 10 21 15 0 5 5 6 10 3 6
-3 10 0 10 8 0 8 -7 18 -16 21 -20 8 -17 8 -39 -8z"/>
<path d="M4273 4273 c-7 -2 -13 -15 -13 -28 0 -18 4 -22 20 -18 11 3 20 10 20
15 0 5 5 6 10 3 6 -3 10 0 10 8 0 12 -24 30 -33 26 -1 0 -8 -3 -14 -6z"/>
<path d="M4363 4273 c-7 -2 -13 -16 -13 -29 0 -22 4 -25 27 -22 31 3 44 35 21
49 -14 10 -17 10 -35 2z"/>
<path d="M4453 4273 c-7 -2 -13 -15 -13 -28 0 -18 4 -22 20 -18 11 3 20 10 20
17 0 6 5 4 11 -4 8 -12 9 -10 7 10 -3 24 -21 34 -45 23z"/>
<path d="M4542 4268 c-7 -7 -12 -17 -12 -24 0 -20 29 -24 39 -6 8 14 10 14 11
2 0 -13 1 -13 10 0 18 28 -23 53 -48 28z"/>
<path d="M4638 4269 c-25 -14 -22 -36 4 -45 27 -8 54 22 37 43 -13 15 -18 16
-41 2z"/>
<path d="M4725 4266 c-23 -16 -14 -46 14 -46 27 0 49 39 30 51 -19 12 -22 11
-44 -5z"/>
<path d="M4316 4865 c-92 -33 -148 -104 -154 -198 -9 -142 90 -251 227 -250
68 0 116 19 159 63 44 44 63 83 69 144 8 79 -11 134 -66 186 -68 67 -150 86
-235 55z m157 -18 c83 -35 127 -101 130 -195 5 -201 -231 -297 -370 -151 -35
38 -63 105 -63 153 0 72 68 166 140 195 37 14 126 13 163 -2z"/>
<path d="M4266 4661 c-3 -4 6 -6 19 -3 14 2 25 6 25 8 0 8 -39 4 -44 -5z"/>
<path d="M4340 4666 c0 -2 9 -6 20 -9 11 -3 18 -1 14 4 -5 9 -34 13 -34 5z"/>
<path d="M4390 4666 c0 -2 7 -7 16 -10 8 -3 12 -2 9 4 -6 10 -25 14 -25 6z"/>
<path d="M4443 4663 c9 -2 23 -2 30 0 6 3 -1 5 -18 5 -16 0 -22 -2 -12 -5z"/>
<path d="M3550 4870 c0 -5 5 -10 10 -10 6 0 10 5 10 10 0 6 -4 10 -10 10 -5 0
-10 -4 -10 -10z"/>
<path d="M7011 4584 c0 -11 3 -14 6 -6 3 7 2 16 -1 19 -3 4 -6 -2 -5 -13z"/>
<path d="M6891 3637 c-11 -15 -6 -47 9 -47 4 0 10 7 14 15 3 8 13 15 22 15 22
0 12 24 -13 28 -11 2 -25 -3 -32 -11z"/>
<path d="M6891 3547 c-11 -15 -6 -47 9 -47 4 0 10 7 14 15 3 8 13 15 22 15 22
0 12 24 -13 28 -11 2 -25 -3 -32 -11z"/>
<path d="M6896 3134 c-31 -31 -16 -48 25 -27 32 16 37 28 13 37 -21 8 -20 8
-38 -10z"/>
<path d="M6890 3045 c-7 -8 -9 -22 -6 -31 6 -16 8 -16 24 0 10 9 24 16 30 16
17 0 15 17 -4 24 -23 9 -30 8 -44 -9z"/>
<path d="M6891 2956 c-8 -9 -10 -24 -6 -33 6 -17 7 -17 19 0 7 9 21 17 30 17
10 0 16 6 14 13 -7 18 -43 20 -57 3z"/>
<path d="M6891 2866 c-8 -9 -10 -23 -7 -32 6 -16 8 -16 24 0 10 9 24 16 31 16
7 0 11 6 9 13 -7 18 -43 20 -57 3z"/>
<path d="M6891 2776 c-8 -10 -9 -21 -3 -32 8 -15 10 -15 15 0 4 9 16 16 28 16
26 0 20 24 -8 28 -11 2 -25 -4 -32 -12z"/>
<path d="M6888 2709 c-21 -12 -24 -62 -5 -77 10 -8 16 -6 25 9 7 11 24 24 39
30 25 9 25 10 8 29 -20 22 -41 25 -67 9z"/>
<path d="M3679 2233 c-13 -17 -13 -17 6 -3 11 8 22 16 24 17 2 2 0 3 -6 3 -6
0 -17 -8 -24 -17z"/>
<path d="M3700 2190 c-9 -6 -10 -10 -3 -10 6 0 15 5 18 10 8 12 4 12 -15 0z"/>
<path d="M7355 2310 c26 -11 45 -12 45 -2 0 4 -15 8 -32 9 -27 2 -29 0 -13 -7z"/>
<path d="M7410 2300 c-6 -11 -8 -20 -6 -20 3 0 10 9 16 20 6 11 8 20 6 20 -3
0 -10 -9 -16 -20z"/>
<path d="M7540 2269 c0 -5 5 -7 10 -4 6 3 10 8 10 11 0 2 -4 4 -10 4 -5 0 -10
-5 -10 -11z"/>
<path d="M7326 2151 c-4 -5 -2 -12 3 -15 5 -4 12 -2 15 3 4 5 2 12 -3 15 -5 4
-12 2 -15 -3z"/>
<path d="M7299 2063 c-7 -10 -9 -15 -5 -11 5 4 16 2 25 -5 14 -10 14 -10 4 4
-7 9 -10 19 -6 22 3 4 4 7 1 7 -3 0 -12 -8 -19 -17z"/>
<path d="M7303 2007 c0 -8 6 -14 14 -14 9 0 10 4 2 14 -6 7 -12 13 -14 13 -1
0 -2 -6 -2 -13z"/>
<path d="M7303 1955 c0 -8 4 -12 9 -9 5 3 6 10 3 15 -9 13 -12 11 -12 -6z"/>
<path d="M7296 1861 c-4 -5 -2 -12 3 -15 5 -4 12 -2 15 3 4 5 2 12 -3 15 -5 4
-12 2 -15 -3z"/>
<path d="M7296 1811 c-3 -5 2 -15 12 -22 15 -12 16 -12 5 2 -7 9 -10 19 -6 22
3 4 4 7 0 7 -3 0 -8 -4 -11 -9z"/>
<path d="M5643 1630 c0 -30 2 -43 4 -27 2 15 2 39 0 55 -2 15 -4 2 -4 -28z"/>
<path d="M4128 1863 c7 -3 16 -2 19 1 4 3 -2 6 -13 5 -11 0 -14 -3 -6 -6z"/>
<path d="M4055 1819 c-4 -17 -13 -33 -20 -35 -7 -3 -16 -12 -19 -20 -5 -13 -3
-13 16 0 25 18 51 73 38 81 -4 3 -11 -9 -15 -26z"/>
<path d="M4848 1653 c7 -3 16 -2 19 1 4 3 -2 6 -13 5 -11 0 -14 -3 -6 -6z"/>
<path d="M4840 1624 c0 -9 7 -14 17 -12 25 5 28 28 4 28 -12 0 -21 -6 -21 -16z"/>
<path d="M4840 1591 c0 -5 7 -11 15 -15 8 -3 15 -1 15 3 0 5 -7 11 -15 15 -8
3 -15 1 -15 -3z"/>
<path d="M4966 963 c-11 -11 -6 -23 9 -23 8 0 15 4 15 9 0 13 -16 22 -24 14z"/>
<path d="M6865 950 c-3 -5 -4 -14 0 -20 8 -13 35 -1 35 16 0 16 -26 19 -35 4z"/>
<path d="M7355 850 c-3 -6 1 -7 9 -4 18 7 21 14 7 14 -6 0 -13 -4 -16 -10z"/>
<path d="M1495 7990 c3 -5 12 -7 20 -3 21 7 19 13 -6 13 -11 0 -18 -4 -14 -10z"/>
<path d="M2800 7990 c0 -5 5 -10 10 -10 6 0 10 5 10 10 0 6 -4 10 -10 10 -5 0
-10 -4 -10 -10z"/>
<path d="M2850 7997 c0 -2 6 -10 14 -16 11 -9 16 -9 22 1 4 7 4 10 -1 6 -4 -4
-14 -3 -22 3 -7 6 -13 9 -13 6z"/>
<path d="M3165 7990 c-4 -6 -11 -7 -17 -4 -7 4 -8 2 -4 -5 6 -9 11 -9 22 0 14
11 18 19 10 19 -3 0 -8 -5 -11 -10z"/>
<path d="M2485 7970 c-4 -6 -11 -8 -16 -5 -5 4 -9 0 -9 -7 0 -8 9 -14 20 -14
12 0 19 5 16 12 -3 7 0 15 7 18 9 3 9 5 0 5 -6 1 -15 -4 -18 -9z"/>
<path d="M2435 7960 c-4 -7 -16 -10 -26 -7 -10 3 -24 -2 -31 -12 -11 -14 -11
-14 4 -3 14 11 17 10 23 -8 5 -17 10 -19 21 -9 7 6 12 15 9 19 -3 5 1 10 7 13
7 2 10 7 7 11 -4 4 -10 2 -14 -4z"/>
<path d="M2935 7960 c3 -5 8 -10 11 -10 2 0 4 5 4 10 0 6 -5 10 -11 10 -5 0
-7 -4 -4 -10z"/>
<path d="M1810 7936 c0 -2 7 -7 16 -10 8 -3 12 -2 9 4 -6 10 -25 14 -25 6z"/>
<path d="M1700 7920 c0 -5 5 -10 11 -10 5 0 7 5 4 10 -3 6 -8 10 -11 10 -2 0
-4 -4 -4 -10z"/>
<path d="M2150 7875 c0 -8 4 -15 10 -15 5 0 7 7 4 15 -4 8 -8 15 -10 15 -2 0
-4 -7 -4 -15z"/>
<path d="M0 7250 c0 -19 7 -20 170 -20 l169 0 37 -32 c46 -41 42 -24 -8 31
l-38 41 -165 0 c-158 0 -165 -1 -165 -20z"/>
<path d="M100 6411 c0 -52 14 -76 23 -40 7 26 -3 89 -14 89 -5 0 -9 -22 -9
-49z"/>
<path d="M100 6153 c-1 -104 -2 -215 -3 -248 l-2 -60 -33 -3 c-18 -2 -39 1
-46 7 -8 7 -12 4 -14 -12 l-1 -22 171 1 171 2 41 41 c37 37 41 45 38 81 -2 22
-8 40 -13 40 -5 0 -9 -4 -9 -10 0 -6 -30 -11 -67 -12 l-68 -2 70 -6 c39 -4 64
-7 56 -8 -7 -1 -11 -9 -7 -17 4 -11 -2 -15 -22 -16 l-27 -1 30 -8 c24 -6 15
-8 -40 -10 l-70 -3 60 -7 60 -7 -50 -2 c-27 -2 -42 -5 -32 -8 9 -2 15 -9 11
-14 -3 -5 -9 -7 -14 -4 -5 3 -19 1 -31 -6 -15 -8 -19 -8 -14 0 4 8 -8 10 -44
6 -47 -4 -51 -3 -52 18 -1 12 -2 40 -4 62 -2 47 -18 384 -18 403 0 6 -6 12
-13 12 -9 0 -13 -45 -14 -187z"/>
<path d="M7890 6115 c0 -18 22 -19 38 -3 9 9 15 10 20 2 4 -6 17 -13 30 -16
17 -5 22 -2 22 12 0 15 -9 18 -55 19 -42 0 -55 -3 -55 -14z"/>
<path d="M188 5883 c12 -2 32 -2 45 0 12 2 2 4 -23 4 -25 0 -35 -2 -22 -4z"/>
<path d="M223 5863 c9 -2 25 -2 35 0 9 3 1 5 -18 5 -19 0 -27 -2 -17 -5z"/>
</g>
</svg>
