<?xml version="1.0" standalone="no"?>
<!DOCTYPE svg PUBLIC "-//W3C//DTD SVG 20010904//EN"
 "http://www.w3.org/TR/2001/REC-SVG-20010904/DTD/svg10.dtd">
<svg version="1.0" xmlns="http://www.w3.org/2000/svg"
 width="800.000000pt" height="800.000000pt" viewBox="0 0 800.000000 800.000000"
 preserveAspectRatio="xMidYMid meet">
<metadata>
Created by potrace 1.16, written by Peter Selinger 2001-2019
</metadata>
<g transform="translate(0.000000,800.000000) scale(0.100000,-0.100000)"
fill="#000000" stroke="none">
<path d="M157 7979 c-5 -18 -11 -20 -44 -15 -21 3 -54 7 -73 8 l-35 3 -3 -158
-3 -159 65 3 c64 4 94 -5 62 -17 -9 -3 -13 -10 -10 -15 3 -5 -7 -10 -23 -11
-15 -1 -37 -3 -48 -4 -11 -1 -26 -2 -32 -3 -9 -1 -13 -18 -13 -49 0 -36 5 -50
20 -60 26 -16 26 -38 0 -54 -20 -13 -20 -26 -20 -1936 0 -1353 3 -1921 11
-1917 15 10 61 -4 54 -16 -4 -5 -12 -9 -18 -8 -7 1 -20 1 -29 0 -17 -1 -18
-93 -18 -1786 l0 -1785 910 0 c501 0 910 3 910 8 0 4 -33 91 -74 192 -95 239
-91 222 -62 253 13 14 26 30 27 36 2 5 34 29 70 54 53 35 82 47 155 61 49 10
104 26 122 37 58 33 49 44 142 -161 29 -63 59 -122 66 -131 13 -15 11 -19 -25
-36 -22 -11 -38 -16 -35 -11 3 5 -3 4 -15 -4 -12 -7 -27 -25 -34 -40 -6 -16
-15 -28 -18 -28 -4 0 -21 -22 -39 -50 -18 -27 -45 -61 -61 -74 -16 -14 -29
-28 -29 -33 0 -4 -12 -14 -28 -21 -15 -7 -38 -21 -52 -32 -25 -19 -10 -20
3023 -20 l3047 0 0 1113 0 1112 -670 335 c-521 260 -669 338 -664 350 16 37
36 117 34 135 0 11 -2 166 -3 344 l-2 324 653 -5 652 -5 0 28 0 29 -654 0
c-402 0 -657 4 -661 9 -6 11 -45 188 -45 208 0 11 103 13 558 14 482 1 553 2
526 14 -25 11 -147 16 -570 21 -297 4 -540 7 -541 8 -2 1 -7 33 -12 70 -6 43
-21 87 -41 122 l-31 56 220 -7 c122 -4 221 -5 221 -1 0 3 -21 12 -47 20 -27 8
-119 39 -207 70 -87 31 -171 56 -187 56 -29 0 -33 7 -41 65 -3 18 4 20 58 23
52 2 84 -5 240 -59 98 -33 258 -88 354 -120 96 -32 184 -63 195 -69 11 -5 106
-39 210 -75 105 -36 247 -86 316 -110 70 -25 129 -45 133 -45 3 0 6 12 6 28 0
27 -1 28 -402 161 -222 73 -425 141 -453 151 -27 10 -107 37 -176 60 -200 66
-199 72 8 71 100 -1 143 2 133 9 -9 6 -139 10 -326 10 l-310 0 -17 35 c-9 20
-17 50 -17 68 0 49 -11 77 -29 77 -11 0 -12 3 -4 8 8 5 9 13 3 22 -14 22 -12
37 6 44 8 3 12 2 9 -4 -3 -5 10 -8 31 -5 21 2 41 10 46 19 5 9 14 16 19 16 6
0 8 -4 5 -9 -7 -11 45 -8 64 4 8 5 23 8 32 7 9 -2 19 6 23 18 8 26 -2 40 -11
16 -6 -15 -7 -15 -20 1 -11 15 -15 16 -23 4 -5 -8 -16 -11 -25 -8 -8 3 -18 2
-21 -3 -4 -6 3 -10 14 -10 15 0 19 -4 14 -17 -5 -14 -10 -12 -32 14 -14 17
-32 28 -39 26 -6 -3 -10 -9 -6 -14 3 -5 1 -9 -5 -9 -5 0 -11 5 -13 11 -6 17
-38 -2 -38 -22 0 -10 -5 -19 -11 -19 -6 0 -9 9 -6 19 4 16 -1 21 -22 23 -23 3
-26 8 -28 42 0 21 -5 42 -11 48 -9 9 -1 48 18 88 4 8 5 30 2 49 -4 31 -3 33
24 31 67 -5 81 -1 80 23 -1 18 5 22 34 25 l35 3 -25 -20 c-14 -11 -21 -23 -17
-27 4 -4 77 -8 162 -9 l155 -2 0 27 c0 41 17 50 94 49 112 -2 130 -8 134 -46
l3 -31 82 -1 c92 -1 170 -7 199 -17 10 -3 25 0 33 6 12 10 15 9 15 -3 0 -9 8
-21 18 -26 16 -10 15 -10 -3 -11 -17 0 -17 -2 -5 -10 20 -13 97 -13 105 0 3 6
15 10 26 10 25 0 24 14 -3 34 -21 14 -22 16 -6 29 16 13 16 15 -5 36 l-22 22
23 5 c25 7 29 22 7 30 -19 8 -19 33 0 40 8 4 15 10 15 16 0 5 -4 6 -10 3 -5
-3 -10 0 -11 7 0 7 -2 32 -5 55 -2 23 1 45 6 48 6 4 5 13 -3 25 -9 16 -9 24 0
40 8 12 9 21 3 25 -10 6 -6 132 4 143 7 7 286 4 399 -4 l78 -6 -3 139 -3 138
-34 0 c-20 0 -36 6 -39 14 -3 8 0 11 7 7 6 -4 11 -2 11 5 0 9 3 9 14 0 25 -21
46 -2 46 43 l0 41 -70 3 c-64 2 -70 1 -70 -18 0 -11 -5 -20 -11 -20 -6 0 -9 6
-6 14 7 18 -13 26 -70 26 -31 0 -43 4 -40 13 2 6 12 11 22 9 10 -2 22 2 27 10
8 10 11 10 15 1 2 -7 13 -13 24 -13 15 0 19 7 19 34 0 32 -24 66 -37 53 -3 -4
-12 -2 -20 4 -10 9 -14 5 -19 -20 -6 -30 -14 -38 -27 -24 -4 3 -2 12 4 19 12
15 -10 23 -56 21 -23 -2 -29 -6 -27 -19 2 -10 -2 -18 -7 -18 -5 0 -11 10 -13
23 -3 20 -9 22 -55 22 -29 0 -57 5 -63 11 -9 9 36 11 176 9 103 -2 209 -7 237
-10 35 -5 48 -4 43 4 -4 6 0 11 8 11 17 0 22 35 8 44 -5 3 -33 6 -63 7 -30 1
-64 8 -76 15 -15 9 -24 10 -28 3 -4 -6 -11 -6 -18 -1 -7 5 -20 12 -30 15 -13
5 -17 2 -15 -11 2 -12 -4 -17 -24 -17 -19 -1 -24 2 -18 10 14 17 -57 9 -84 -9
-26 -16 -56 -5 -56 22 0 11 -3 13 -8 6 -4 -6 -15 -11 -24 -11 -14 0 -15 3 -7
14 8 9 8 13 1 13 -6 0 -13 -4 -17 -10 -9 -15 -34 0 -30 20 3 14 -1 16 -17 12
-13 -3 -26 1 -33 11 -9 13 -34 17 -121 19 l-109 3 -5 -40 -5 -40 -87 1 -88 1
0 -32 0 -33 78 -2 c42 -1 91 -4 107 -5 17 -2 38 -4 48 -4 9 -1 17 -6 17 -11 0
-6 -3 -9 -7 -9 -29 5 -41 -4 -45 -31 -2 -16 0 -32 6 -34 6 -2 4 -5 -5 -5 -11
-1 -19 10 -22 28 -5 26 -10 30 -39 29 -38 -1 -48 -12 -48 -51 0 -28 1 -29 53
-27 69 3 77 2 77 -11 0 -5 -4 -8 -9 -4 -5 3 -12 1 -16 -5 -4 -7 -13 -7 -26 1
-11 5 -28 9 -37 7 -13 -3 -8 -10 18 -27 32 -21 60 -60 60 -83 0 -4 -38 -7 -85
-6 -70 1 -83 4 -73 14 9 9 24 11 51 5 28 -7 41 -5 51 5 8 7 18 10 22 6 5 -4
-9 12 -31 36 -41 44 -56 49 -61 18 -4 -29 -14 -31 -14 -3 0 20 -6 27 -31 32
-17 4 -34 3 -39 -1 -12 -15 -19 -83 -9 -90 6 -3 6 -10 1 -17 -9 -11 -14 -68
-28 -327 -4 -63 -8 -118 -11 -123 -2 -4 -21 -4 -42 -1 -29 5 -39 2 -44 -9 -5
-14 -22 -15 -124 -9 -34 3 -28 20 10 31 17 5 24 10 14 10 -10 1 -15 6 -12 12
4 6 13 8 21 5 11 -4 14 9 14 69 0 40 -4 77 -10 80 -6 3 -10 20 -10 36 0 27 -3
30 -22 23 -13 -3 -23 -7 -23 -8 -1 0 -14 -20 -30 -44 -42 -64 -57 -69 -110
-35 -55 35 -71 61 -58 100 11 30 13 31 101 18 44 -6 52 -5 52 9 0 12 -10 16
-37 17 -21 1 -42 1 -47 0 -6 -1 -20 0 -33 4 -23 5 -24 8 -17 68 3 34 12 67 20
73 8 6 14 16 14 21 0 6 8 13 18 15 10 3 19 13 19 22 0 14 -2 14 -17 1 -34 -31
-46 -19 -74 83 -15 53 -38 151 -52 217 -27 123 -43 171 -44 127 0 -36 -31 -23
-45 18 -9 26 -9 40 -1 53 9 15 5 22 -23 45 -32 25 -83 48 -316 141 -101 40
-164 71 -190 93 -28 23 -112 58 -121 50 -4 -4 -4 -2 -1 4 7 12 -49 58 -62 50
-5 -3 -21 13 -36 37 -16 23 -36 53 -45 67 -10 14 -20 35 -24 47 -7 23 -51 63
-68 63 -5 0 0 -12 11 -26 12 -15 21 -40 21 -56 0 -39 -50 -136 -146 -285 -43
-67 -95 -149 -115 -181 l-37 -59 57 -59 c60 -62 43 -56 -26 10 -38 36 -43 38
-43 19 0 -21 42 -77 51 -68 3 2 5 -5 5 -16 0 -17 -7 -12 -37 23 -21 23 -39 41
-42 38 -22 -26 -72 -110 -104 -173 -22 -43 -42 -74 -46 -71 -4 4 -7 27 -7 51
0 34 6 49 26 68 l26 24 -29 53 c-27 51 -30 53 -68 52 -35 -2 -37 0 -20 12 10
8 24 14 29 14 6 1 31 20 55 45 40 40 43 46 30 62 -13 17 -13 17 4 4 16 -12 20
-12 34 2 16 15 15 19 -8 43 -23 26 -23 26 -1 13 12 -8 22 -18 22 -22 0 -5 49
41 109 101 106 107 165 179 209 252 l20 35 -30 1 -31 1 24 -14 c15 -9 17 -12
5 -8 -11 3 -26 -1 -36 -10 -15 -14 -18 -14 -30 0 -7 8 -10 15 -6 15 7 0 -33
80 -52 103 -14 15 -13 17 6 17 11 0 27 3 36 6 10 4 16 1 16 -8 0 -15 32 -58
43 -58 3 0 1 14 -5 30 -5 17 -8 37 -4 45 3 8 -1 37 -8 65 -13 49 -5 83 8 37 7
-21 7 -21 16 -2 12 28 12 47 -1 40 -7 -5 -8 4 -4 28 5 24 2 43 -10 63 -14 23
-14 25 -1 10 24 -29 32 -10 16 36 -15 43 -56 76 -95 77 -20 1 -55 50 -55 78 0
10 -6 14 -18 11 -13 -4 -18 1 -20 19 -2 21 1 23 26 17 l27 -6 -23 17 c-15 11
-22 24 -19 36 3 10 0 17 -7 16 -6 -1 -10 8 -9 21 2 15 -1 21 -9 16 -6 -4 -8
-3 -5 4 4 5 -3 29 -15 51 -15 28 -24 37 -30 29 -6 -10 -8 -8 -8 4 0 9 -6 19
-12 22 -7 3 -1 4 15 2 15 -2 27 0 27 3 0 10 126 29 305 46 88 9 277 29 420 45
433 49 1345 113 1362 96 6 -5 -13 -264 -22 -317 -2 -13 -18 -217 -35 -454
l-31 -430 30 -57 c43 -84 138 -207 196 -255 55 -45 118 -83 139 -83 7 0 28 -8
47 -17 44 -22 181 -21 268 1 35 10 70 15 77 12 12 -5 14 125 14 829 l0 835
-3919 0 -3919 0 -5 -21z m3872 -78 c-19 -22 -38 -40 -44 -40 -5 -1 9 17 30 39
50 51 57 52 14 1z m237 -113 c32 -55 69 -114 82 -130 18 -22 22 -32 14 -40 -9
-9 -16 -7 -30 5 -10 9 -24 17 -30 17 -6 0 -21 18 -32 41 -20 39 -26 63 -29
117 -1 15 -5 21 -13 16 -7 -4 -8 -3 -4 4 4 6 0 25 -9 42 -8 16 -14 30 -11 30
2 0 30 -46 62 -102z m-108 64 c2 -7 -5 -12 -17 -12 -11 0 -25 -9 -31 -20 -6
-11 -20 -20 -30 -20 -35 0 -22 28 25 53 33 18 47 17 53 -1z m-115 -55 c39 -75
102 -169 113 -169 5 0 14 -4 21 -10 15 -12 56 0 50 15 -17 41 -14 46 5 10 l22
-43 -27 -28 c-27 -28 -39 -81 -15 -66 7 4 8 3 4 -5 -13 -20 -46 9 -75 65 -14
27 -30 52 -36 56 -6 5 -6 8 -1 8 6 0 0 9 -12 20 -22 21 -26 32 -23 59 2 7 -3
10 -9 6 -6 -3 -10 -3 -9 2 3 20 -2 34 -11 28 -10 -6 -11 -5 -15 30 -1 12 -7
30 -14 42 -13 25 -14 33 -3 33 4 0 19 -24 35 -53z m-2998 -27 c13 21 21 9 20
-30 0 -36 -2 -40 -20 -36 -11 3 -23 6 -27 6 -5 0 -8 16 -8 36 0 30 2 34 14 25
10 -8 16 -9 21 -1z m163 -17 c2 -14 -3 -23 -17 -28 -23 -7 -41 0 -41 16 0 6 5
7 10 4 6 -3 10 -1 10 4 0 6 -4 11 -10 11 -5 0 -10 5 -10 11 0 6 12 9 28 7 19
-2 28 -9 30 -25z m-210 -11 c3 -17 -2 -22 -17 -22 -16 0 -21 6 -21 26 0 33 33
30 38 -4z m-98 -80 c-9 -3 -8 -7 1 -13 11 -7 11 -9 1 -9 -7 0 -11 -4 -7 -9 3
-5 1 -12 -4 -15 -5 -3 -12 14 -15 39 -5 33 -11 43 -22 38 -8 -3 -14 1 -14 11
0 10 6 13 15 10 8 -4 15 -1 15 4 0 6 8 18 18 28 16 17 17 15 20 -31 2 -32 -1
-51 -8 -53z m3866 17 c3 -6 1 -16 -5 -22 -9 -9 -14 -8 -21 3 -5 8 -10 18 -10
23 0 11 28 8 36 -4z m-3402 -12 c14 -10 16 -24 14 -67 -4 -52 -4 -53 -12 -22
-5 18 -19 41 -32 51 -45 35 -16 72 30 38z m1614 -35 c6 6 25 7 54 2 23 -5 50
-7 58 -6 38 7 210 10 206 4 -2 -4 12 -8 31 -10 25 -1 32 1 27 10 -6 10 -5 10
8 1 8 -7 17 -10 21 -7 13 13 61 -80 71 -136 2 -14 12 -43 21 -65 10 -22 17
-43 17 -47 -1 -5 2 -8 8 -8 5 0 10 -4 10 -10 0 -5 12 -22 28 -37 15 -16 28
-37 30 -47 4 -22 26 -46 41 -46 14 0 14 27 2 35 -6 3 -10 28 -9 55 0 27 -4 55
-8 62 -5 7 -9 29 -11 48 -1 19 -5 50 -9 68 -5 26 -3 32 10 32 10 0 14 -4 11
-10 -9 -14 7 -12 109 10 132 29 162 27 187 -12 33 -54 164 -326 205 -429 l38
-95 24 25 23 26 -22 -45 c-19 -39 -21 -54 -15 -128 5 -63 12 -94 31 -126 17
-29 21 -46 15 -56 -5 -8 -10 -35 -10 -60 l0 -45 16 31 c9 18 27 43 41 55 l26
24 -16 -30 c-50 -92 -59 -181 -32 -305 18 -81 18 -80 3 -75 -17 6 -61 -32 -53
-45 3 -5 -1 -10 -9 -10 -9 0 -16 -7 -16 -15 0 -8 -4 -15 -9 -15 -4 0 -25 -16
-45 -35 -21 -19 -43 -35 -51 -35 -7 0 -15 -9 -18 -20 -4 -16 -11 -19 -34 -14
-25 5 -34 0 -56 -26 -15 -17 -27 -35 -27 -40 0 -5 -21 -16 -47 -25 -27 -8 -56
-22 -65 -29 -13 -9 -40 -12 -93 -8 -58 4 -80 1 -99 -12 -14 -9 -46 -16 -70
-16 l-46 0 123 -115 c76 -72 126 -128 133 -148 8 -22 8 -57 1 -117 -11 -98
-13 -246 -4 -307 7 -53 -10 -57 -19 -5 -4 20 -12 44 -19 52 -7 8 -24 37 -37
64 l-25 49 -11 -33 c-7 -18 -12 -39 -12 -47 0 -22 49 -121 97 -196 24 -37 43
-72 43 -77 0 -6 5 -10 10 -10 6 0 10 -5 10 -10 0 -14 51 -59 68 -60 6 0 12 -5
12 -11 0 -8 6 -7 17 2 9 8 14 9 10 3 -4 -7 5 -16 22 -23 32 -14 127 -96 97
-85 -13 5 -17 4 -12 -4 4 -7 14 -12 23 -12 9 0 14 -3 10 -6 -7 -7 24 -44 33
-39 4 2 7 -2 7 -10 0 -8 -4 -12 -8 -10 -4 3 -10 -2 -13 -11 -4 -10 -2 -13 7
-9 6 4 5 1 -3 -7 -9 -7 -14 -22 -12 -32 3 -14 0 -17 -13 -13 -9 4 -14 3 -10
-3 3 -6 1 -10 -4 -10 -6 0 -11 4 -11 10 0 5 -7 7 -15 4 -29 -11 -14 -29 51
-64 66 -35 164 -123 164 -148 0 -7 4 -11 8 -8 4 2 9 -3 9 -12 1 -9 11 -53 22
-96 12 -44 19 -82 16 -84 -3 -3 0 -11 6 -18 6 -8 9 -20 6 -28 -3 -8 -2 -16 3
-18 4 -2 11 -20 14 -42 4 -21 9 -42 11 -47 3 -4 7 -88 9 -186 3 -116 10 -201
20 -243 9 -36 16 -85 16 -110 l0 -45 -48 51 c-26 27 -54 50 -62 50 -27 -1 -22
-35 12 -82 53 -75 64 -96 78 -151 11 -43 11 -62 0 -110 -7 -32 -17 -62 -22
-68 -4 -5 -8 -17 -8 -28 0 -10 -4 -16 -9 -13 -4 3 -8 -2 -8 -12 1 -21 -13 -90
-24 -120 -7 -19 -12 -21 -28 -13 -30 17 -75 99 -96 175 -20 75 -76 196 -100
216 -13 11 -13 9 0 -16 8 -15 12 -30 9 -33 -10 -11 -47 41 -127 179 -45 80
-104 181 -130 225 -26 46 -58 118 -72 169 -29 102 -44 134 -45 99 0 -13 -4
-23 -9 -23 -16 0 -106 140 -257 400 -40 69 -90 152 -111 185 -67 105 -103 170
-103 186 0 9 -23 41 -50 70 -28 30 -78 90 -113 133 -98 125 -201 238 -388 421
-95 94 -197 194 -226 223 -84 82 -113 135 -113 203 0 61 14 105 36 113 11 4
11 2 2 -13 -9 -14 -8 -26 1 -47 14 -35 66 -98 57 -71 -3 10 -13 71 -21 135 -8
64 -17 131 -21 147 -3 17 -7 50 -8 75 -1 25 -10 70 -19 100 -9 31 -18 75 -20
98 l-2 42 -53 0 c-95 0 -180 73 -232 200 -42 100 -54 150 -46 193 8 45 42 87
69 87 25 -1 101 -66 92 -80 -3 -6 1 -7 10 -4 11 4 14 2 9 -9 -3 -8 -1 -18 5
-22 7 -4 8 -13 2 -23 -15 -30 -23 -74 -11 -67 5 3 10 2 10 -4 0 -5 -6 -11 -12
-13 -7 -3 -3 -7 9 -10 17 -5 24 2 38 32 11 24 22 37 31 33 11 -4 13 16 14 99
0 56 2 120 4 140 5 47 35 138 46 138 4 0 11 7 14 16 4 10 2 13 -7 8 -9 -6 -9
-5 0 8 7 8 10 18 6 21 -3 4 2 10 11 13 12 5 14 9 6 14 -6 4 -12 19 -14 33 -1
15 -6 30 -9 34 -4 3 -2 12 3 18 7 8 5 21 -5 41 -13 26 -13 29 0 32 8 2 13 7
10 12 -3 5 -13 6 -22 3 -13 -5 -15 -2 -11 14 3 11 1 28 -5 38 -8 15 -7 17 6
12 9 -3 19 -1 23 5 4 7 3 8 -4 4 -8 -5 -11 0 -8 16 3 13 5 28 5 33 1 6 6 3 11
-5 8 -12 12 -9 22 17 14 37 34 49 54 32 11 -9 14 -8 14 6 0 10 3 15 7 12 3 -4
12 -2 20 5 11 9 12 7 6 -7 -5 -15 -3 -17 13 -11 30 13 88 13 103 2 11 -8 13
-8 7 2 -5 8 -1 12 11 13 81 5 102 8 132 17 23 8 40 8 52 1 11 -5 19 -8 19 -5
0 3 13 1 30 -4 27 -8 107 8 150 30 8 4 22 4 31 -1 9 -5 20 -4 27 3z m1867 -12
c3 -5 1 -10 -4 -10 -6 0 -11 5 -11 10 0 6 2 10 4 10 3 0 8 -4 11 -10z m-55
-10 c0 -5 -2 -10 -4 -10 -3 0 -8 5 -11 10 -3 6 -1 10 4 10 6 0 11 -4 11 -10z
m-420 -64 c0 -3 -4 -8 -10 -11 -5 -3 -10 -1 -10 4 0 6 5 11 10 11 6 0 10 -2
10 -4z m60 -15 c0 -11 -42 -43 -48 -37 -2 3 -1 14 3 25 6 21 45 30 45 12z
m-3023 -93 c-2 -18 -4 -4 -4 32 0 36 2 50 4 33 2 -18 2 -48 0 -65z m2908 39
c7 -7 4 -8 -8 -3 -10 3 -32 6 -48 6 -20 0 -27 4 -23 14 4 12 12 12 37 4 18 -6
37 -15 42 -21z m-4118 -9 c-3 -8 -6 -5 -6 6 -1 11 2 17 5 13 3 -3 4 -12 1 -19z
m375 -40 c-9 -9 -12 -7 -12 12 0 19 3 21 12 12 9 -9 9 -15 0 -24z m-392 -55
c-11 -17 -11 -17 -6 0 3 10 7 26 7 35 1 15 2 15 6 0 2 -10 -1 -25 -7 -35z
m4462 21 c-4 -20 -2 -25 8 -19 9 5 10 2 5 -14 -4 -12 -2 -21 4 -21 6 0 8 -6 5
-14 -3 -9 3 -17 16 -21 19 -6 21 -12 16 -43 -4 -26 -1 -39 12 -49 13 -10 13
-13 2 -11 -8 2 -20 8 -26 14 -13 12 -97 175 -92 179 9 6 44 24 49 25 3 0 4
-12 1 -26z m-4496 -113 c-29 -57 -78 -116 -110 -133 -11 -6 -2 6 20 25 25 22
55 64 75 106 19 38 35 65 37 61 2 -5 -8 -31 -22 -59z m4589 9 c-3 -5 -12 -10
-18 -10 -7 0 -6 4 3 10 19 12 23 12 15 0z m542 -52 c-3 -8 -6 -5 -6 6 -1 11 2
17 5 13 3 -3 4 -12 1 -19z m23 -38 c0 -5 -5 -10 -11 -10 -5 0 -7 5 -4 10 3 6
8 10 11 10 2 0 4 -4 4 -10z m-535 -98 c-8 -8 -25 10 -19 20 4 6 9 5 15 -3 4
-7 6 -15 4 -17z m100 18 c3 -5 -1 -10 -9 -10 -9 0 -16 5 -16 10 0 6 4 10 9 10
6 0 13 -4 16 -10z m-3748 -26 c-3 -3 -12 -4 -19 -1 -8 3 -5 6 6 6 11 1 17 -2
13 -5z m440 -55 c6 -6 9 -17 7 -24 -3 -6 2 -18 11 -25 18 -15 20 -50 3 -50 -9
0 -8 -4 2 -11 13 -9 13 -10 0 -6 -8 2 -15 15 -15 28 0 13 -5 29 -12 34 -14 11
-26 65 -14 65 4 0 12 -5 18 -11z m3398 -17 c-6 -7 -45 9 -45 18 0 4 11 3 24
-3 14 -7 23 -13 21 -15z m-3210 -89 c24 -27 47 -86 60 -150 11 -56 -2 -36 -24
35 -11 38 -32 85 -45 105 -30 44 -25 48 9 10z m3445 -49 c0 -2 -9 0 -20 6 -11
6 -20 13 -20 16 0 2 9 0 20 -6 11 -6 20 -13 20 -16z m-3606 -28 c-6 -16 12
-66 25 -66 10 0 8 40 -3 58 -17 27 15 9 37 -20 41 -56 42 -61 16 -53 -13 4
-21 4 -16 0 4 -5 1 -15 -7 -24 -17 -20 -32 -131 -17 -131 18 0 12 -18 -8 -25
-10 -3 -35 -22 -55 -41 -33 -32 -49 -29 -18 4 6 7 12 20 12 28 0 8 5 14 10 14
7 0 7 6 0 20 -8 15 -8 20 1 20 8 0 7 5 -2 17 -12 14 -12 16 0 8 11 -6 12 -5 5
6 -9 14 -10 19 -12 52 -1 10 -6 15 -12 12 -7 -4 -7 3 0 20 6 15 10 39 10 54 0
15 3 31 8 35 4 4 8 12 8 17 3 19 4 20 14 14 5 -3 7 -11 4 -19z m146 -156 c0
-38 -9 -42 -55 -21 l-40 17 33 7 c19 4 32 13 32 21 0 10 6 13 15 10 8 -4 15
-19 15 -34z m3276 2 c-4 -3 -14 2 -24 12 -16 18 -16 18 6 6 13 -6 21 -14 18
-18z m-4309 1 c-9 -9 -20 -13 -24 -9 -4 4 -1 11 7 16 25 16 35 11 17 -7z m-52
-3 c8 -13 -25 -13 -45 0 -12 8 -9 10 12 10 15 0 30 -4 33 -10z m582 -42 c-3
-7 -5 -2 -5 12 0 14 2 19 5 13 2 -7 2 -19 0 -25z m-147 -28 c0 -5 -5 -10 -11
-10 -5 0 -7 5 -4 10 3 6 8 10 11 10 2 0 4 -4 4 -10z m157 -22 c-3 -7 -5 -2 -5
12 0 14 2 19 5 13 2 -7 2 -19 0 -25z m3713 5 c7 -16 13 -59 15 -98 l2 -70 -19
55 c-24 72 -37 128 -30 135 11 10 19 5 32 -22z m-3703 -70 c-3 -10 -5 -2 -5
17 0 19 2 27 5 18 2 -10 2 -26 0 -35z m-124 1 c3 -3 3 -13 0 -21 -5 -12 -7
-12 -14 -1 -15 23 -4 40 14 22z m6551 -46 c19 -27 20 -55 3 -88 -14 -26 -45
-29 -59 -7 -14 21 -8 85 8 101 21 21 30 20 48 -6z m-6417 -10 c-3 -8 -6 -5 -6
6 -1 11 2 17 5 13 3 -3 4 -12 1 -19z m4093 -105 l55 -57 -62 53 c-35 29 -63
55 -63 57 0 14 23 -3 70 -53z m-3714 2 c-3 -9 -11 -13 -16 -10 -8 5 -7 11 1
21 14 18 24 11 15 -11z m-369 -32 c-3 -10 -5 -4 -5 12 0 17 2 24 5 18 2 -7 2
-21 0 -30z m313 -34 c0 -10 5 -21 10 -24 14 -9 13 -66 -2 -62 -20 4 -68 49
-62 58 3 5 0 9 -7 9 -7 0 -3 8 9 18 27 24 52 24 52 1z m5813 -95 c-3 -9 0 -20
8 -25 11 -7 11 -9 -3 -9 -9 0 -18 6 -21 13 -6 18 4 48 14 42 4 -3 5 -13 2 -21z
m292 -54 c-3 -5 -14 -10 -23 -9 -14 0 -13 2 3 9 27 11 27 11 20 0z m-345 -70
c0 -5 -7 -10 -16 -10 -8 0 -12 5 -9 10 3 6 10 10 16 10 5 0 9 -4 9 -10z
m-2085 -34 c-17 -26 -45 -42 -45 -26 0 13 37 50 50 50 6 0 3 -11 -5 -24z
m-3747 -69 c1 -31 -2 -38 -9 -27 -8 12 -10 10 -6 -8 4 -15 0 -25 -9 -29 -8 -3
-14 -9 -14 -15 0 -5 5 -6 12 -2 8 5 9 2 4 -12 -4 -10 -9 -27 -12 -38 -4 -22
-14 -34 -14 -18 0 6 -13 10 -29 9 -16 -1 -27 -5 -24 -9 2 -5 0 -8 -5 -8 -6 0
-12 7 -16 15 -3 9 -12 12 -23 9 -17 -5 -17 -5 0 6 9 6 22 8 29 4 6 -4 8 -3 4
4 -3 6 4 21 16 33 13 12 18 19 12 16 -7 -4 -18 0 -25 9 -7 8 -8 14 -3 13 34
-6 60 4 71 26 6 14 7 27 2 30 -13 9 0 31 20 32 15 1 19 -6 19 -40z m3786 31
c-37 -62 -75 -116 -87 -127 -13 -10 -15 -9 -10 11 6 25 83 127 96 128 5 0 5
-6 1 -12z m2046 -13 c0 -8 -2 -15 -4 -15 -2 0 -6 7 -10 15 -3 8 -1 15 4 15 6
0 10 -7 10 -15z m315 -34 c-3 -6 -11 -8 -17 -5 -6 4 -5 9 3 15 16 10 23 4 14
-10z m-6235 -6 c-7 -9 -15 -13 -17 -11 -7 7 7 26 19 26 6 0 6 -6 -2 -15z
m6123 8 c-7 -2 -19 -2 -25 0 -7 3 -2 5 12 5 14 0 19 -2 13 -5z m-6463 -43 c0
-5 -4 -10 -9 -10 -6 0 -13 5 -16 10 -3 6 1 10 9 10 9 0 16 -4 16 -10z m6880
-5 c0 -8 -4 -15 -10 -15 -5 0 -7 7 -4 15 4 8 8 15 10 15 2 0 4 -7 4 -15z
m-520 -5 c0 -5 -5 -10 -11 -10 -5 0 -7 5 -4 10 3 6 8 10 11 10 2 0 4 -4 4 -10z
m-6334 -15 c4 -8 12 -15 20 -15 14 0 18 -12 15 -37 -1 -7 3 -13 8 -13 6 0 7
-8 4 -17 -5 -12 -2 -15 10 -10 12 4 15 1 12 -14 -3 -16 0 -19 12 -15 11 4 14
2 10 -9 -4 -8 -1 -17 4 -21 7 -4 7 -10 1 -16 -14 -14 -35 1 -27 19 4 13 3 14
-9 4 -10 -9 -16 -9 -21 -1 -4 6 -16 8 -27 4 -16 -5 -19 -3 -13 7 5 8 0 7 -11
-3 -18 -16 -19 -15 -16 37 2 29 -1 62 -7 73 -7 13 -7 22 1 30 16 16 27 15 34
-3z m288 -10 c-4 -8 -7 -15 -9 -15 -2 0 -5 7 -9 15 -3 9 0 15 9 15 9 0 12 -6
9 -15z m5926 -25 c0 -5 -5 -10 -11 -10 -5 0 -7 5 -4 10 3 6 8 10 11 10 2 0 4
-4 4 -10z m567 -12 c-3 -8 -6 -5 -6 6 -1 11 2 17 5 13 3 -3 4 -12 1 -19z
m-6376 -14 c5 -15 8 -29 5 -31 -2 -2 -8 10 -14 26 -13 38 -5 41 9 5z m6239 16
c0 -5 -2 -10 -4 -10 -3 0 -8 5 -11 10 -3 6 -1 10 4 10 6 0 11 -4 11 -10z m110
0 c0 -5 -4 -10 -9 -10 -6 0 -13 5 -16 10 -3 6 1 10 9 10 9 0 16 -4 16 -10z
m-6520 -34 c0 -3 -4 -8 -10 -11 -5 -3 -10 -1 -10 4 0 6 5 11 10 11 6 0 10 -2
10 -4z m86 -11 c-1 -8 -5 -17 -8 -21 -5 -4 -4 16 1 34 3 9 9 -1 7 -13z m5904
11 c0 -3 -4 -8 -10 -11 -5 -3 -10 -1 -10 4 0 6 5 11 10 11 6 0 10 -2 10 -4z
m308 -27 c-3 -8 -7 -3 -11 10 -4 17 -3 21 5 13 5 -5 8 -16 6 -23z m-6253 11
c-3 -5 -12 -10 -18 -10 -7 0 -6 4 3 10 19 12 23 12 15 0z m6520 0 c8 -13 -5
-13 -25 0 -13 8 -13 10 2 10 9 0 20 -4 23 -10z m-6555 -14 c0 -2 -8 -10 -17
-17 -16 -13 -17 -12 -4 4 13 16 21 21 21 13z m5755 -36 c3 -5 -1 -10 -9 -10
-9 0 -16 5 -16 10 0 6 4 10 9 10 6 0 13 -4 16 -10z m119 2 c2 -4 -7 -9 -20
-10 -15 -1 -22 2 -19 8 7 12 32 13 39 2z m93 -8 c-3 -3 -12 -4 -19 -1 -8 3 -5
6 6 6 11 1 17 -2 13 -5z m548 -4 c-3 -5 -12 -10 -18 -10 -7 0 -6 4 3 10 19 12
23 12 15 0z m85 -10 c0 -5 -2 -10 -4 -10 -3 0 -8 5 -11 10 -3 6 -1 10 4 10 6
0 11 -4 11 -10z m-6359 -112 c11 -22 11 -28 0 -28 -5 0 -12 10 -16 23 -4 12
-9 27 -11 32 -2 6 -6 24 -9 40 -5 24 -3 22 10 -10 9 -22 21 -48 26 -57z m-208
57 c-3 -9 -8 -14 -10 -11 -3 3 -2 9 2 15 9 16 15 13 8 -4z m27 -55 c0 -5 -2
-10 -4 -10 -3 0 -8 5 -11 10 -3 6 -1 10 4 10 6 0 11 -4 11 -10z m77 -175 c9
-22 20 -48 24 -57 5 -10 3 -18 -5 -21 -7 -3 -13 5 -14 18 -1 12 -17 51 -35 86
-19 35 -32 69 -30 76 2 6 -1 14 -6 18 -6 3 -11 14 -10 23 0 16 38 -54 76 -143z
m134 88 c23 -55 23 -59 1 -65 -11 -3 -18 1 -19 11 -5 55 -9 68 -17 63 -5 -3
-7 2 -3 11 3 10 2 17 -3 17 -6 0 -10 4 -10 10 0 24 34 -7 51 -47z m4949 32 c7
-8 16 -12 21 -10 4 3 16 -6 25 -20 13 -20 14 -28 5 -39 -18 -22 22 -40 73 -33
23 3 48 2 55 -2 16 -10 6 -31 -15 -31 -8 0 -14 -4 -14 -10 0 -5 -6 -7 -13 -4
-8 3 -14 -2 -14 -11 0 -8 4 -15 8 -15 4 0 6 -13 5 -30 -1 -16 2 -30 8 -30 5 0
6 -3 3 -6 -4 -4 -14 -1 -24 7 -9 8 -14 9 -10 3 4 -7 -3 -15 -16 -19 -20 -7
-18 -8 13 -14 35 -6 35 -7 33 -52 -4 -63 -19 -100 -44 -106 -15 -4 -17 -8 -8
-14 19 -11 10 -17 -31 -19 -61 -3 -67 -1 -45 16 19 14 17 15 -30 14 -27 -1
-71 -1 -96 -1 l-46 1 -7 62 c-8 83 8 128 46 128 15 0 28 5 28 10 0 6 -16 10
-35 10 -19 0 -35 4 -35 10 0 23 39 109 73 163 38 59 63 71 87 42z m-5367 -10
c-3 -9 -8 -14 -10 -11 -3 3 -2 9 2 15 9 16 15 13 8 -4z m16 -58 c0 -21 -1 -21
-9 -2 -12 28 -12 37 0 30 6 -3 10 -16 9 -28z m-239 -48 c0 -6 -4 -7 -10 -4 -5
3 -10 11 -10 16 0 6 5 7 10 4 6 -3 10 -11 10 -16z m140 -43 c0 -6 -7 -3 -14 6
-7 10 -17 14 -21 10 -5 -4 -5 -1 -1 6 6 10 11 10 22 1 8 -6 14 -17 14 -23z
m537 12 c-3 -8 -6 -5 -6 6 -1 11 2 17 5 13 3 -3 4 -12 1 -19z m-23 4 c3 -5 -1
-9 -9 -9 -8 0 -15 4 -15 9 0 4 4 8 9 8 6 0 12 -4 15 -8z m19 -37 c-2 -7 -10
-12 -18 -12 -8 0 -12 4 -9 8 2 4 -2 10 -8 12 -7 3 -1 5 13 4 15 -1 25 -6 22
-12z m-518 -4 c3 -5 1 -12 -5 -16 -5 -3 -10 1 -10 9 0 18 6 21 15 7z m21 -47
c-3 -8 1 -14 9 -14 8 0 15 -4 15 -9 0 -5 3 -17 7 -27 6 -16 5 -17 -9 -4 -9 8
-14 18 -12 22 2 3 -1 8 -8 10 -6 2 -13 14 -15 27 -2 14 1 20 8 16 6 -4 8 -13
5 -21z m264 11 c-9 -10 -9 -15 -1 -15 6 0 11 -7 11 -15 0 -8 4 -15 10 -15 5 0
13 -12 16 -27 4 -16 14 -38 22 -50 8 -13 10 -23 5 -23 -9 0 -67 96 -68 112 0
3 -3 9 -7 13 -9 9 2 35 14 35 6 0 5 -6 -2 -15z m116 -13 c9 -23 8 -29 -2 -29
-8 0 -14 6 -14 13 0 7 -3 19 -6 28 -3 9 -2 16 3 16 5 0 13 -13 19 -28z m124
-4 c0 -6 -6 -5 -15 2 -8 7 -15 14 -15 16 0 2 7 1 15 -2 8 -4 15 -11 15 -16z
m5165 3 c-8 -13 -39 -19 -60 -11 -17 7 -15 9 15 17 36 10 54 8 45 -6z m-5275
-61 c0 -11 -4 -20 -9 -20 -5 0 -7 9 -4 20 3 11 7 20 9 20 2 0 4 -9 4 -20z
m3859 -71 c17 -33 31 -62 31 -64 0 -2 -9 -1 -20 2 -13 3 -20 0 -20 -8 -1 -9
-4 -8 -11 4 -6 10 -8 21 -5 24 3 4 6 0 6 -8 0 -11 2 -11 10 1 7 11 4 16 -13
21 -12 3 -21 12 -19 19 3 11 0 11 -12 0 -13 -10 -16 -10 -16 4 0 9 8 16 20 16
14 0 20 7 20 21 0 13 -4 18 -12 13 -7 -4 -8 -3 -4 4 4 7 9 12 10 12 2 0 18
-27 35 -61z m-3906 -52 c-4 -6 -10 -2 -14 9 -12 31 -9 40 6 20 8 -10 11 -24 8
-29z m3870 -10 c3 -8 2 -20 -3 -26 -5 -9 -7 -4 -7 13 0 29 2 32 10 13z m-529
-13 c3 -8 2 -12 -4 -9 -6 3 -10 10 -10 16 0 14 7 11 14 -7z m1901 -23 c3 -5 1
-12 -4 -15 -5 -3 -11 1 -15 9 -6 16 9 21 19 6z m-1285 -12 c0 -5 -4 -8 -8 -5
-5 3 -9 -1 -9 -8 0 -8 6 -12 12 -10 13 5 41 -23 32 -32 -3 -4 0 -13 8 -21 17
-17 19 -39 5 -48 -5 -3 -10 2 -10 12 -1 17 -1 17 -11 1 -5 -10 -15 -18 -22
-18 -8 0 -6 4 3 11 12 9 11 10 -7 6 -14 -3 -23 0 -24 6 0 7 -4 3 -9 -8 -6 -13
-7 -4 -5 30 2 28 4 51 5 53 3 3 7 18 9 32 1 13 31 13 31 -1z m-49 -33 c-6 -7
-8 -21 -5 -33 3 -11 1 -24 -5 -27 -7 -5 -8 -1 -4 10 4 12 3 15 -5 10 -7 -4
-12 -1 -12 8 0 8 -3 21 -6 29 -3 10 1 17 13 19 25 6 36 -1 24 -16z m-533 -25
c15 -48 15 -51 0 -51 -6 0 -9 3 -5 6 3 3 -1 23 -8 45 -8 21 -11 39 -6 39 4 0
13 -17 19 -39z m50 -18 c23 -74 32 -119 32 -152 0 -35 -8 -38 -14 -5 -22 126
-30 162 -38 177 -5 9 -5 17 0 17 5 0 14 -17 20 -37z m-29 -65 c0 -13 2 -59 4
-103 3 -52 0 -83 -7 -87 -8 -6 -8 -8 1 -8 7 0 10 -12 8 -32 -5 -39 -21 -57
-21 -24 0 14 4 22 8 20 4 -3 8 0 8 5 0 6 -4 11 -10 11 -15 0 -12 57 3 63 8 4
9 8 1 14 -5 4 -11 26 -12 48 -1 22 -5 57 -8 78 -5 29 -3 37 10 37 10 0 16 -9
15 -22z m618 -9 c-3 -10 -1 -17 4 -13 5 3 9 -1 10 -8 0 -7 2 -21 4 -31 2 -10
-1 -15 -8 -11 -7 3 -4 -1 6 -9 13 -11 17 -24 13 -53 -2 -22 -5 -46 -6 -54 -1
-8 -10 3 -20 25 -18 38 -18 61 0 50 5 -3 12 0 16 7 4 7 4 10 -1 6 -4 -4 -14
-3 -22 3 -7 6 -13 9 -13 5 0 -16 -4 -22 -22 -35 -24 -16 -39 -4 -43 34 -2 14
-9 32 -15 40 -7 8 -10 20 -7 27 4 8 6 7 6 -4 1 -10 6 -18 11 -18 6 0 10 -7 10
-16 0 -8 5 -12 10 -9 6 4 7 11 4 17 -4 7 -2 8 5 4 6 -4 9 -11 6 -16 -3 -4 4
-6 16 -3 11 3 17 9 12 12 -10 7 -11 27 -1 37 4 4 4 12 -2 18 -6 8 -3 12 12 13
15 2 19 -3 15 -18z m-550 -144 c0 -8 -4 -15 -9 -15 -10 0 -11 14 -1 23 9 10
10 9 10 -8z m517 -3 c2 -4 -4 -9 -15 -9 -11 -1 -17 2 -14 8 7 11 22 12 29 1z
m996 -12 c0 -5 -5 -10 -11 -10 -5 0 -7 5 -4 10 3 6 8 10 11 10 2 0 4 -4 4 -10z
m-1512 -35 c0 -14 -4 -27 -8 -30 -3 -2 -5 6 -4 18 1 12 3 25 3 30 2 18 9 5 9
-18z m533 15 c15 8 19 7 19 -5 0 -8 5 -15 10 -15 6 0 10 -21 10 -46 0 -33 -3
-43 -12 -39 -7 4 -4 -1 6 -9 17 -14 17 -16 4 -16 -9 0 -20 -4 -23 -10 -3 -5 0
-8 7 -7 7 2 10 2 6 0 -13 -7 -9 -33 5 -39 7 -2 14 -19 15 -37 2 -30 2 -31 -11
-12 -19 29 -35 90 -33 129 1 23 -3 32 -11 29 -16 -6 -17 23 -1 33 7 4 8 3 4
-4 -4 -7 -2 -12 3 -12 6 0 11 4 11 9 0 11 -30 36 -30 25 0 -5 -4 -2 -9 6 -6 8
-7 19 -4 24 4 6 8 6 11 -2 2 -8 9 -9 23 -2z m-605 -199 c-2 -98 -13 -117 -14
-24 0 61 5 103 12 103 2 0 2 -36 2 -79z m184 59 c6 -11 8 -20 6 -20 -3 0 -10
9 -16 20 -6 11 -8 20 -6 20 3 0 10 -9 16 -20z m-126 -6 c3 -8 2 -12 -4 -9 -6
3 -10 10 -10 16 0 14 7 11 14 -7z m596 -24 c0 -5 -5 -10 -11 -10 -5 0 -7 5 -4
10 3 6 8 10 11 10 2 0 4 -4 4 -10z m-441 -32 c6 -18 7 -28 2 -23 -10 12 -25
55 -18 55 3 0 10 -15 16 -32z m67 -150 c8 -16 10 -28 4 -28 -5 0 -10 5 -10 11
0 6 -7 17 -15 25 -8 9 -15 23 -15 32 0 15 2 15 11 2 5 -8 16 -27 25 -42z m19
-48 c-3 -5 -2 -10 3 -10 5 0 14 -11 20 -25 16 -34 15 -40 -3 -25 -8 7 -13 16
-10 20 3 4 -2 13 -10 20 -13 11 -12 30 1 30 3 0 2 -4 -1 -10z m1370 -41 c30
-11 55 -25 55 -30 0 -6 -25 -9 -57 -7 -55 3 -58 4 -61 31 -2 15 -1 27 2 27 3
0 30 -9 61 -21z m-6002 -686 c-7 -2 -21 -2 -30 0 -10 3 -4 5 12 5 17 0 24 -2
18 -5z m65 -23 c12 0 13 -3 5 -11 -7 -7 -17 -8 -29 -1 -11 5 -28 6 -39 1 -17
-6 -17 -8 -2 -8 9 -1 17 -4 17 -8 0 -5 -28 -6 -62 -3 -55 4 -169 -7 -264 -26
-19 -3 -41 -1 -55 7 -24 13 -24 13 11 21 19 4 85 10 145 13 61 4 137 10 170
14 33 5 66 7 73 5 8 -2 21 -4 30 -4z m36 -54 c-10 -8 -21 -12 -24 -10 -5 6 21
24 34 24 6 0 1 -6 -10 -14z m-487 -12 c-3 -3 -12 -4 -19 -1 -8 3 -5 6 6 6 11
1 17 -2 13 -5z m-106 -81 c13 -15 12 -15 -7 -5 -12 6 -24 8 -28 5 -3 -3 -6 -1
-6 5 0 18 25 14 41 -5z m4076 -1169 c3 -9 -1 -31 -10 -48 -8 -17 -36 -76 -62
-131 -26 -55 -62 -130 -81 -167 -19 -38 -32 -68 -29 -68 4 0 -1 -12 -9 -27 -9
-16 -43 -85 -76 -155 -33 -71 -64 -128 -69 -128 -14 0 -19 23 -10 40 24 42
135 285 161 350 17 41 37 83 46 93 8 9 12 17 9 17 -4 0 10 35 29 78 20 42 45
96 56 120 20 44 35 53 45 26z m412 -220 c16 -35 15 -97 -1 -88 -10 6 -9 3 0
-8 7 -9 27 -20 44 -23 18 -4 32 -15 35 -26 3 -10 10 -16 16 -12 6 4 7 1 3 -6
-5 -7 -14 -10 -22 -7 -8 3 -14 1 -14 -4 0 -8 27 -20 58 -24 49 -8 47 -97 -5
-159 -12 -16 -23 -33 -23 -37 0 -5 -19 -14 -41 -20 -50 -14 -58 -5 -59 55 -1
56 -18 283 -26 345 -6 42 -4 49 8 45 9 -4 20 -17 27 -31z m2223 -184 c21 -6
58 -26 83 -45 25 -19 54 -35 66 -35 32 0 57 -18 83 -59 15 -24 43 -47 73 -62
27 -14 58 -39 71 -59 13 -19 44 -51 70 -70 39 -30 52 -49 79 -115 33 -82 40
-144 23 -189 -10 -28 -38 -34 -58 -14 -21 21 -42 17 -49 -10 -8 -35 -30 -55
-49 -48 -8 3 -30 -2 -47 -11 -18 -9 -34 -17 -37 -16 -3 1 -5 -20 -5 -45 0 -40
-3 -47 -20 -47 -11 0 -26 -5 -33 -12 -7 -7 -27 -13 -43 -13 -16 0 -29 -5 -29
-12 0 -6 -2 -9 -5 -6 -7 7 16 76 51 154 28 63 32 86 38 229 2 50 5 95 6 100 1
6 2 26 1 45 -4 67 -19 0 -31 -140 -14 -162 -23 -204 -65 -295 -37 -82 -75
-128 -103 -123 -10 2 -18 -1 -18 -7 1 -5 11 -10 24 -9 17 1 20 -2 11 -12 -13
-16 -79 -12 -107 7 -11 8 -23 26 -25 40 -5 28 15 157 37 233 8 28 17 74 20
101 3 28 9 67 12 87 3 20 7 52 9 70 2 18 6 63 10 100 7 64 6 67 -13 61 -23 -6
-27 -33 -37 -243 -5 -94 -14 -151 -36 -229 -16 -57 -29 -112 -29 -121 0 -10
-7 -23 -16 -31 -13 -10 -17 -10 -24 2 -5 7 -21 15 -35 16 -26 2 -72 48 -89 87
-5 12 -9 102 -10 201 -2 119 -6 188 -14 202 -15 27 -9 189 8 233 1 3 2 8 1 13
0 4 2 6 7 5 4 -1 18 4 32 12 28 15 81 17 220 6 l95 -7 -30 25 c-42 36 -107 56
-180 56 -83 0 -149 -21 -221 -71 -44 -31 -53 -35 -34 -15 61 66 173 109 265
101 33 -2 77 -9 97 -15z m737 -230 c0 -3 -9 6 -19 19 -12 14 -20 37 -19 60 0
35 1 35 19 -19 11 -30 19 -57 19 -60z m-1059 -32 c0 -5 -8 -8 -17 -7 -10 0
-13 3 -6 5 7 3 9 13 6 22 -4 15 -3 15 6 2 6 -8 11 -18 11 -22z m-2660 -102
c-15 -15 -33 4 -19 20 10 12 14 12 20 2 5 -7 4 -17 -1 -22z m2606 -18 c4 -7 3
-8 -4 -4 -7 4 -12 2 -12 -5 0 -7 -3 -10 -6 -6 -6 5 3 27 11 27 2 0 7 -5 11
-12z m-2656 -23 c0 -8 -4 -15 -10 -15 -5 0 -10 7 -10 15 0 8 5 15 10 15 6 0
10 -7 10 -15z m2597 8 c-2 -5 7 -19 21 -33 14 -14 20 -17 12 -7 -11 15 -11 17
3 12 11 -5 14 -16 10 -44 -3 -22 -1 -41 5 -45 7 -4 6 -15 -4 -34 -7 -15 -10
-28 -6 -29 4 -1 19 -4 34 -7 21 -5 26 -10 21 -24 -3 -9 -3 -14 2 -10 9 8 48
-42 71 -92 17 -37 13 -112 -7 -136 -14 -17 -53 -18 -80 -4 -22 13 -26 62 -6
100 13 24 15 85 4 96 -3 3 -15 1 -26 -6 -17 -9 -22 -8 -26 5 -3 8 -7 22 -10
30 -3 10 2 15 16 15 11 0 18 4 15 9 -3 5 -16 7 -28 3 -14 -3 -19 -1 -14 6 3 6
-2 15 -11 21 -11 6 -13 11 -5 11 14 0 9 8 -29 48 -18 19 -34 73 -22 71 22 -4
33 3 33 20 0 11 6 22 13 24 18 8 19 8 14 0z m-2638 -155 c-8 -13 -14 -25 -14
-28 -1 -3 -7 -18 -13 -33 -7 -16 -12 -33 -12 -38 0 -5 -3 -9 -8 -9 -4 0 -17
-27 -30 -59 -13 -32 -32 -69 -42 -82 -11 -13 -24 -29 -29 -35 -5 -7 -7 -14 -5
-17 3 -3 -4 -10 -15 -17 -12 -6 -19 -15 -16 -21 4 -5 1 -9 -4 -9 -6 0 -10 -5
-8 -12 1 -7 -2 -12 -8 -13 -5 0 -16 -4 -23 -9 -8 -4 2 14 22 40 20 27 41 60
47 74 7 14 23 48 37 75 15 28 33 65 41 83 8 17 19 32 23 32 4 0 8 9 8 20 0 24
28 82 44 92 17 11 19 -8 5 -34z m1176 -118 c81 -27 293 -142 412 -222 23 -15
71 -34 108 -42 75 -16 105 -37 105 -76 0 -50 -58 -88 -89 -57 -10 10 -11 -1
-5 -54 6 -58 3 -73 -17 -113 -21 -43 -22 -50 -10 -95 13 -50 8 -91 -15 -128
-13 -21 -15 -22 -34 -6 -10 9 -17 20 -14 25 3 4 1 8 -3 8 -5 0 -20 11 -34 24
l-25 23 4 -56 c4 -61 -24 -130 -50 -122 -7 2 -38 7 -68 11 -30 3 -71 16 -90
27 -42 25 -230 93 -256 93 -19 -1 24 -18 161 -66 114 -40 153 -97 101 -148
-21 -22 -28 -23 -71 -15 -26 5 -54 14 -62 20 -7 7 -16 9 -19 6 -3 -3 -31 3
-61 14 -45 15 -59 17 -71 6 -13 -10 -14 -8 -8 16 7 29 -7 65 -41 103 -20 23
-63 41 -63 26 0 -13 -47 -24 -71 -17 -29 10 -23 35 9 35 21 0 24 2 12 10 -8 5
-24 10 -35 10 -16 0 -21 7 -23 29 l-2 29 39 -19 c55 -26 71 -25 71 7 0 35 -26
77 -56 91 -20 9 -36 8 -77 -3 -29 -8 -62 -18 -73 -21 -16 -4 -69 27 -205 119
-228 154 -318 219 -345 251 -23 26 -21 35 16 122 7 17 12 34 11 39 -1 5 22 6
54 2 33 -4 55 -2 55 4 0 5 7 7 15 4 18 -7 239 38 351 72 45 13 116 29 159 35
42 5 87 14 98 19 44 18 123 10 212 -20z m-851 -52 c23 -32 20 -42 -5 -17 -14
14 -28 19 -45 15 -13 -4 -24 -3 -24 2 0 30 54 29 74 0z m-570 -253 c-9 -14
-21 -25 -28 -25 -6 0 -4 5 4 10 8 5 11 10 7 10 -10 0 15 29 26 30 4 0 0 -11
-9 -25z m-36 -60 c-1 -13 -4 -22 -7 -19 -2 2 -12 -8 -22 -22 -9 -14 -19 -22
-23 -16 -4 7 41 80 51 82 2 0 2 -11 1 -25z m363 -157 c5 -10 14 -16 19 -13 5
3 24 -7 42 -23 55 -47 81 -62 110 -62 22 0 28 -5 28 -21 0 -12 8 -23 20 -26
11 -3 20 -10 20 -16 0 -6 3 -8 6 -5 3 4 14 -1 23 -10 23 -22 118 -105 156
-138 17 -14 42 -32 58 -42 15 -9 27 -23 27 -31 0 -11 3 -11 18 2 46 42 54 10
17 -63 -32 -63 -50 -66 -42 -7 6 42 5 44 -28 56 -19 7 -35 16 -35 21 0 9 -17
19 -97 60 -24 12 -43 26 -43 31 0 5 -5 9 -10 9 -20 0 -107 65 -181 134 -41 38
-67 66 -59 62 8 -4 6 -1 -4 8 -10 8 -23 13 -27 10 -5 -3 -9 6 -9 20 0 17 -6
26 -16 26 -8 0 -13 4 -10 9 3 5 -2 11 -13 14 -10 2 -20 14 -23 25 -6 20 -5 20
18 5 14 -9 29 -24 35 -35z m-1711 8 c0 -2 -7 -6 -15 -10 -8 -3 -15 -1 -15 4 0
6 7 10 15 10 8 0 15 -2 15 -4z m10 -26 c0 -11 -33 -30 -52 -30 -7 1 -3 9 11
20 25 22 41 26 41 10z m-185 -60 c-3 -5 -16 -10 -28 -9 -20 1 -20 2 3 9 14 4
26 8 28 9 2 1 0 -3 -3 -9z m62 4 c-3 -3 -12 -4 -19 -1 -8 3 -5 6 6 6 11 1 17
-2 13 -5z m672 -106 c7 -24 15 -51 17 -60 3 -11 0 -18 -8 -18 -9 0 -15 14 -16
36 -2 20 -7 45 -12 55 -12 22 -12 29 -2 29 5 0 14 -19 21 -42z m-91 -161 c-69
-57 -183 -103 -135 -55 8 7 12 18 10 23 -2 6 11 19 29 29 22 14 33 16 36 8 3
-9 10 -8 25 3 12 8 31 15 42 15 18 -1 17 -3 -7 -23z m-268 -82 c0 -2 -18 -14
-39 -25 -39 -20 -89 -74 -129 -141 -12 -19 -31 -44 -43 -55 -37 -32 71 117
125 174 28 28 58 52 68 52 10 0 18 -2 18 -5z m0 -45 c0 -5 -7 -10 -16 -10 -8
0 -12 5 -9 10 3 6 10 10 16 10 5 0 9 -4 9 -10z"/>
<path d="M3184 7108 c-38 -11 -75 -23 -83 -27 -16 -8 -24 -41 -10 -41 5 0 4
-9 -3 -20 -7 -11 -18 -20 -25 -20 -7 0 -13 -2 -13 -5 0 -18 31 -75 50 -93 20
-19 21 -22 7 -28 -21 -8 -22 -24 -2 -24 7 0 18 -7 22 -15 6 -9 32 -17 72 -22
48 -4 62 -3 57 5 -4 7 -11 12 -16 12 -5 0 -21 5 -37 12 -15 6 -31 11 -35 10
-4 -1 -5 5 -2 13 4 11 -1 15 -17 16 -13 0 -18 3 -11 6 18 7 4 23 -20 23 -19 0
-19 1 3 19 24 19 24 19 37 -4 15 -29 70 -42 101 -26 11 7 24 23 27 36 7 30 18
31 44 5 11 -11 30 -20 42 -20 20 0 21 1 3 20 -28 31 -123 63 -168 56 -41 -7
-43 8 -3 24 l21 9 -22 0 c-13 1 -23 5 -23 10 0 12 74 41 105 41 14 0 25 4 25
10 0 5 8 7 18 3 15 -5 16 -4 2 11 -23 24 -68 25 -146 4z"/>
<path d="M2510 7068 c-22 -9 -40 -23 -40 -30 0 -8 -16 -22 -35 -32 -19 -11
-35 -23 -35 -28 0 -12 2 -11 66 22 48 26 65 30 103 25 85 -11 104 -17 91 -25
-8 -5 -2 -10 19 -15 44 -9 53 -29 10 -22 -40 6 -129 -10 -129 -24 0 -5 -5 -9
-12 -9 -15 0 -78 -49 -78 -61 0 -17 59 -4 75 16 15 20 15 19 36 -7 36 -48 119
-25 119 31 0 30 15 33 39 7 13 -14 19 -29 15 -39 -7 -20 0 -21 27 -7 10 6 19
17 19 24 0 9 8 12 25 8 14 -2 25 -8 25 -12 0 -17 -13 -40 -22 -40 -5 0 -7 4
-4 9 8 13 -76 -8 -94 -23 -14 -13 -89 -50 -120 -60 -8 -2 1 -5 20 -5 19 0 60
8 90 19 69 24 81 25 73 3 -6 -16 -5 -16 10 -4 9 7 17 10 17 5 0 -5 5 -1 11 9
6 9 14 15 18 13 4 -3 8 0 9 7 1 7 4 33 8 58 6 42 3 52 -25 92 -17 25 -31 53
-31 61 0 14 -11 18 -36 15 -4 0 -10 3 -13 9 -3 5 -52 13 -108 18 -88 8 -108 7
-143 -8z m235 -108 c3 -5 1 -10 -4 -10 -6 0 -11 5 -11 10 0 6 2 10 4 10 3 0 8
-4 11 -10z m-55 -34 c0 -11 -19 -15 -25 -6 -3 5 1 10 9 10 9 0 16 -2 16 -4z"/>
<path d="M2544 6974 c-41 -15 -103 -69 -92 -80 4 -3 17 6 30 21 13 15 46 38
73 51 56 26 51 30 -11 8z"/>
<path d="M1992 6888 c-14 -14 -16 -98 -3 -98 5 0 16 -3 25 -6 13 -5 14 -1 5
28 -7 26 -6 35 6 44 8 6 12 14 8 17 -3 4 1 7 11 7 9 0 14 5 11 10 -9 14 -48
13 -63 -2z"/>
<path d="M1990 6770 c0 -18 19 -40 35 -40 7 0 6 3 -1 8 -6 4 -16 16 -22 27 -8
15 -11 16 -12 5z"/>
<path d="M2131 6661 c-22 -14 -1 -33 30 -29 19 3 29 0 29 -8 0 -7 9 -18 20
-24 14 -7 20 -7 20 0 0 17 -39 50 -59 50 -11 0 -21 4 -23 10 -2 5 -9 6 -17 1z"/>
<path d="M2270 6511 c0 -6 4 -13 10 -16 6 -3 7 1 4 9 -7 18 -14 21 -14 7z"/>
<path d="M2816 6491 l-29 -19 31 -16 c35 -18 43 -19 41 -8 -3 19 3 22 21 12
14 -7 20 -7 20 0 0 12 -36 50 -47 50 -5 0 -21 -9 -37 -19z"/>
<path d="M3067 6493 c-14 -13 -6 -23 18 -23 16 0 25 6 25 15 0 15 -31 21 -43
8z"/>
<path d="M2611 6439 c-28 -37 -4 -45 26 -8 27 32 28 36 9 36 -8 0 -24 -13 -35
-28z"/>
<path d="M2906 6431 c-8 -13 5 -21 30 -17 10 2 22 -1 25 -7 4 -5 12 -6 19 -2
6 4 8 11 3 15 -14 14 -71 22 -77 11z"/>
<path d="M2676 6266 c7 -32 28 -52 77 -73 26 -12 28 -11 22 5 -11 30 -18 77
-10 70 4 -4 14 0 21 10 10 13 15 14 25 5 7 -7 24 -9 39 -6 15 3 31 0 34 -6 5
-7 12 -7 26 1 14 9 25 9 45 0 17 -8 32 -9 39 -3 6 5 20 11 31 14 23 5 -48 9
-228 12 l-128 3 7 -32z"/>
<path d="M3065 6270 c-3 -5 -2 -10 4 -10 5 0 13 5 16 10 3 6 2 10 -4 10 -5 0
-13 -4 -16 -10z"/>
<path d="M3210 6271 c-29 -5 -35 -10 -34 -31 2 -42 3 -44 22 -29 28 23 61 39
78 39 13 0 14 3 4 15 -13 16 -14 16 -70 6z"/>
<path d="M3128 6263 c7 -3 16 -2 19 1 4 3 -2 6 -13 5 -11 0 -14 -3 -6 -6z"/>
<path d="M3133 6185 c0 -8 4 -12 9 -9 5 3 6 10 3 15 -9 13 -12 11 -12 -6z"/>
<path d="M2816 6182 c-3 -6 1 -13 10 -16 23 -9 28 -2 10 13 -8 7 -17 8 -20 3z"/>
<path d="M2394 6138 c8 -13 15 -27 15 -33 1 -5 10 -11 21 -11 11 -1 17 2 14 7
-2 4 -11 6 -20 2 -8 -3 -14 -2 -12 3 4 15 -13 54 -23 54 -5 0 -3 -10 5 -22z"/>
<path d="M2430 6070 c8 -5 11 -10 7 -10 -11 0 14 -25 33 -33 9 -3 10 -6 3 -6
-13 -1 -9 -7 34 -56 10 -12 14 -15 9 -8 -5 8 -4 13 2 13 6 0 16 -10 23 -21 8
-16 13 -18 19 -9 11 18 1 40 -17 40 -8 0 -11 5 -7 13 6 10 4 10 -7 0 -19 -19
-28 -16 -24 7 2 11 0 18 -4 16 -5 -3 -17 10 -27 29 -12 22 -26 35 -39 35 -16
0 -17 -2 -5 -10z"/>
<path d="M2570 5926 c-10 -13 -10 -16 0 -16 8 0 10 -3 7 -7 -8 -7 21 -43 34
-43 13 0 3 50 -13 66 -13 13 -16 13 -28 0z"/>
<path d="M3371 5878 c-10 -56 -30 -196 -45 -313 -3 -22 -7 -51 -10 -65 -9 -47
-18 -115 -20 -147 -1 -17 -7 -37 -13 -45 -6 -7 -12 -17 -13 -23 -1 -5 -7 -21
-12 -34 -7 -19 -3 -36 19 -79 22 -43 29 -50 34 -36 4 11 19 54 34 97 20 56 34
82 50 89 13 6 35 31 49 57 24 44 25 53 21 171 -2 69 -8 140 -14 157 -5 18 -11
56 -12 85 -2 29 -9 64 -16 78 -7 14 -13 30 -13 36 0 6 -6 17 -14 23 -11 9 -16
0 -25 -51z"/>
<path d="M2631 5885 c-1 -12 -7 -27 -13 -34 -11 -10 -9 -11 6 -5 13 5 17 4 12
-4 -9 -15 30 -53 48 -46 8 3 17 0 22 -7 5 -8 3 -10 -5 -4 -9 5 -12 2 -9 -9 1
-10 7 -16 12 -16 5 1 13 -5 18 -14 5 -9 18 -16 30 -16 11 0 36 -9 54 -21 18
-11 47 -21 64 -21 16 -1 30 -4 30 -7 0 -8 73 -6 125 3 49 9 107 35 101 44 -2
4 -50 7 -105 7 -80 0 -102 3 -106 15 -5 12 -8 12 -14 1 -6 -10 -13 -10 -28 -3
-15 8 -24 8 -33 -1 -10 -10 -12 -8 -7 6 5 13 1 17 -19 17 -14 0 -23 4 -20 9 3
5 -9 15 -27 22 -17 7 -47 28 -65 46 -18 18 -39 33 -46 33 -8 0 -17 6 -19 13
-3 6 -6 3 -6 -8z m34 -35 c-4 -22 10 -28 18 -7 4 9 6 9 6 0 2 -21 -22 -26 -36
-8 -17 24 -17 35 1 35 9 0 13 -7 11 -20z"/>
<path d="M2470 5756 c0 -2 7 -9 15 -16 9 -7 15 -8 15 -2 0 5 -7 12 -15 16 -8
3 -15 4 -15 2z"/>
<path d="M2510 5725 c0 -12 90 -64 95 -55 3 5 2 10 -4 10 -5 0 -16 6 -23 13
-14 13 -68 39 -68 32z"/>
<path d="M3025 5220 c-7 -11 9 -11 45 0 24 8 24 8 -7 9 -17 1 -35 -3 -38 -9z"/>
<path d="M2892 5215 c11 -11 58 -15 58 -5 0 5 -14 10 -32 10 -17 0 -29 -2 -26
-5z"/>
<path d="M3266 5041 c-17 -6 -17 -8 -4 -14 10 -3 19 0 22 9 3 8 4 14 3 13 -1
0 -11 -4 -21 -8z"/>
<path d="M3252 4918 c-1 -22 15 -65 44 -123 25 -49 42 -81 38 -70 -50 140 -64
183 -64 203 0 35 -16 26 -18 -10z"/>
<path d="M3345 4685 c4 -11 23 -67 42 -124 30 -89 68 -171 78 -171 2 0 -13 39
-32 88 -19 48 -43 111 -53 139 -10 29 -24 61 -30 70 -10 16 -11 16 -5 -2z"/>
<path d="M3576 4220 c26 -38 49 -70 51 -70 5 0 -2 12 -49 83 -21 31 -41 57
-43 57 -3 0 16 -31 41 -70z"/>
<path d="M1485 6020 c-3 -5 -1 -10 4 -10 6 0 11 5 11 10 0 6 -2 10 -4 10 -3 0
-8 -4 -11 -10z"/>
<path d="M1432 5898 c-18 -18 -15 -25 10 -23 12 1 24 8 26 16 3 11 1 11 -7 -1
-10 -13 -15 -8 -12 13 1 10 -3 9 -17 -5z"/>
<path d="M1611 5524 c0 -11 3 -14 6 -6 3 7 2 16 -1 19 -3 4 -6 -2 -5 -13z"/>
<path d="M5446 4872 c-2 -4 -1 -14 4 -21 10 -17 31 -5 23 14 -6 16 -19 20 -27
7z"/>
<path d="M5495 4760 c3 -5 8 -10 11 -10 2 0 4 5 4 10 0 6 -5 10 -11 10 -5 0
-7 -4 -4 -10z"/>
<path d="M6305 1431 c-3 -5 -2 -12 3 -15 5 -3 9 1 9 9 0 17 -3 19 -12 6z"/>
<path d="M4890 975 c0 -8 323 -166 331 -163 16 6 -60 50 -162 94 -155 68 -169
73 -169 69z"/>
<path d="M4838 710 c26 -22 97 -44 115 -36 7 2 3 5 -8 5 -11 1 -45 12 -75 26
-47 21 -52 22 -32 5z"/>
<path d="M5043 635 c87 -36 110 -39 42 -6 -33 17 -69 30 -80 30 -11 0 6 -11
38 -24z"/>
<path d="M3817 679 c7 -7 15 -10 18 -7 3 3 -2 9 -12 12 -14 6 -15 5 -6 -5z"/>
<path d="M7030 6069 c0 -15 -3 -34 -6 -43 -5 -13 1 -16 30 -16 21 0 37 5 37
13 7 63 6 65 -28 69 -30 4 -33 2 -33 -23z"/>
<path d="M7869 6078 c-6 -22 -8 -88 -2 -89 34 -6 70 -4 80 3 7 5 14 5 18 -2 3
-5 13 -10 21 -10 10 0 14 12 14 45 0 34 -4 45 -15 45 -9 0 -18 -7 -21 -15 -4
-8 -10 -15 -16 -15 -5 0 -7 4 -4 9 3 5 -8 14 -26 20 -30 11 -47 14 -49 9z
m100 -54 c2 -2 2 -7 -2 -10 -8 -9 -47 6 -47 17 0 9 37 3 49 -7z"/>
<path d="M6727 5983 c-26 -7 -14 -28 14 -25 18 1 20 0 10 -7 -8 -5 -31 -8 -52
-6 -29 3 -37 0 -33 -10 7 -17 28 -26 79 -32 21 -2 43 -7 47 -9 4 -3 8 -1 8 4
0 6 7 9 16 8 9 0 19 5 22 13 3 10 0 12 -11 8 -19 -7 -52 27 -41 44 4 7 3 10
-4 5 -6 -3 -13 -2 -17 4 -6 10 -9 11 -38 3z"/>
<path d="M6625 5970 c3 -5 13 -10 21 -10 8 0 12 5 9 10 -3 6 -13 10 -21 10 -8
0 -12 -4 -9 -10z"/>
<path d="M6706 5872 c-2 -4 5 -8 17 -7 12 0 22 -4 22 -10 0 -5 -12 -9 -27 -9
-18 1 -26 -2 -21 -10 3 -7 1 -6 -8 2 -18 17 -85 16 -92 -2 -8 -21 13 -36 50
-36 18 0 41 -4 51 -9 9 -6 30 -13 45 -16 19 -4 27 -11 24 -19 -4 -10 5 -15 29
-18 32 -4 34 -3 34 28 0 18 3 39 6 47 3 8 -2 22 -11 31 -9 9 -13 20 -10 26 4
6 -14 10 -49 10 -30 0 -57 -4 -60 -8z"/>
<path d="M7877 5413 c-3 -5 -8 -56 -11 -113 -3 -58 -8 -148 -12 -201 l-6 -96
54 -6 c74 -9 98 -9 98 3 0 5 -26 10 -57 12 -55 3 -58 4 -56 28 9 135 10 156 0
168 -8 10 -7 16 1 21 7 4 12 21 10 37 -1 16 2 35 6 42 4 7 3 19 -4 27 -8 10
-8 18 2 34 11 17 10 23 -4 37 -8 9 -18 12 -21 7z"/>
<path d="M7932 5383 c2 -12 14 -19 36 -21 27 -3 32 0 32 17 0 17 -6 21 -36 21
-28 0 -35 -3 -32 -17z"/>
<path d="M7927 5326 c-7 -19 7 -28 45 -31 25 -2 29 1 26 19 -4 26 -62 36 -71
12z"/>
<path d="M7937 5256 c-21 -16 -14 -22 31 -24 26 -2 32 1 32 18 0 24 -35 27
-63 6z"/>
<path d="M7922 5183 c2 -13 14 -19 41 -21 32 -3 37 0 37 17 0 18 -6 21 -41 21
-33 0 -40 -3 -37 -17z"/>
<path d="M7915 5130 c-11 -19 6 -30 46 -30 32 0 39 3 39 20 0 17 -7 20 -39 20
-22 0 -43 -4 -46 -10z"/>
<path d="M6990 5086 c0 -9 5 -16 10 -16 6 0 10 4 10 9 0 6 -4 13 -10 16 -5 3
-10 -1 -10 -9z"/>
<path d="M7918 5069 c-24 -15 1 -39 42 -39 33 0 40 3 40 19 0 14 -9 20 -35 23
-19 2 -40 1 -47 -3z"/>
<path d="M7290 5020 c-11 -7 -7 -10 18 -10 17 0 32 5 32 10 0 13 -30 13 -50 0z"/>
<path d="M7028 5013 c12 -2 30 -2 40 0 9 3 -1 5 -23 4 -22 0 -30 -2 -17 -4z"/>
<path d="M7224 4958 c-2 -3 -14 -4 -27 -2 -12 2 -8 -1 8 -7 17 -6 37 -13 45
-16 8 -3 24 -5 35 -4 16 2 17 0 5 -8 -18 -12 -7 -26 14 -18 10 4 13 13 9 24
-5 14 0 13 20 -6 19 -17 24 -28 17 -36 -5 -7 -8 -15 -5 -19 3 -3 -1 -1 -7 4
-10 9 -10 13 1 19 10 6 10 10 1 16 -7 4 -13 -1 -17 -13 -9 -36 -30 -40 -223
-44 -69 -2 -131 -7 -139 -12 -10 -6 -12 -6 -7 2 9 15 -6 16 -21 1 -6 -6 -17
-8 -24 -3 -17 10 -51 10 -67 0 -8 -4 -16 -5 -19 -2 -3 3 -12 1 -19 -5 -10 -8
-15 -8 -19 3 -4 10 -20 14 -53 14 -49 -1 -76 -12 -67 -26 3 -5 1 -11 -5 -15
-5 -3 -10 -14 -9 -23 0 -14 2 -13 8 3 5 12 19 20 37 22 16 1 43 4 61 6 30 3
32 1 27 -22 -4 -24 -4 -24 5 -5 13 29 28 37 35 19 3 -8 1 -15 -4 -15 -6 0 -10
-6 -10 -13 0 -8 21 -13 63 -16 106 -6 111 -5 136 8 17 10 21 10 16 1 -5 -9 -1
-10 14 -5 11 3 21 3 21 -2 0 -4 21 -9 48 -9 363 -11 692 -15 692 -10 0 4 -11
11 -25 16 -14 5 -25 14 -25 20 0 13 -1 14 64 -15 86 -38 81 -29 -9 17 -44 23
-74 43 -67 45 12 5 188 -38 239 -58 21 -8 23 -6 23 25 0 19 -6 37 -12 39 -10
4 -10 6 0 6 8 1 12 20 12 61 0 65 -5 69 -55 50 -17 -7 -24 -7 -20 0 7 11 -40
13 -438 14 -143 1 -261 -2 -263 -6z m637 -43 c43 -18 16 -18 -31 0 -19 7 -28
14 -19 14 9 1 32 -6 50 -14z m95 -50 c10 -8 14 -15 7 -15 -6 0 -15 5 -18 10
-4 6 -10 8 -15 5 -5 -3 -11 -1 -15 5 -9 15 18 12 41 -5z m-268 -53 c-10 -2
-25 3 -33 12 -24 23 -18 26 18 8 24 -12 28 -17 15 -20z m-786 -24 c-7 -7 -12
-8 -12 -2 0 14 12 26 19 19 2 -3 -1 -11 -7 -17z m42 13 c3 -5 -2 -15 -12 -22
-15 -12 -16 -12 -5 2 7 9 10 19 6 22 -3 4 -4 7 0 7 3 0 8 -4 11 -9z m46 -17
c0 -2 -7 -4 -15 -4 -8 0 -15 4 -15 10 0 5 7 7 15 4 8 -4 15 -8 15 -10z m80 1
c0 -9 -6 -12 -16 -8 -13 5 -13 7 -2 14 17 11 18 11 18 -6z m670 5 c0 -5 -2
-10 -4 -10 -3 0 -8 5 -11 10 -3 6 -1 10 4 10 6 0 11 -4 11 -10z"/>
<path d="M7159 4507 c5 -5 24 -7 42 -5 33 3 33 4 -8 8 -23 3 -39 2 -34 -3z"/>
<path d="M7415 4500 c259 -12 585 -11 585 0 0 7 -130 9 -372 8 -304 -1 -343
-3 -213 -8z"/>
<path d="M7830 4375 c51 -20 170 -20 170 0 0 12 -18 15 -102 14 -98 0 -101 -1
-68 -14z"/>
<path d="M7600 4329 c0 -8 13 -10 38 -5 21 3 53 2 72 -3 52 -14 290 -24 290
-13 0 9 -96 18 -298 28 -73 3 -102 1 -102 -7z"/>
</g>
</svg>
