<?xml version="1.0" standalone="yes"?>
<svg xmlns="http://www.w3.org/2000/svg" width="386" height="72">
<path style="fill:#010101; stroke:none;" d="M0 0L0 20L1 20C2.16311 12.2402 5.88914 4.72215 13 1L0 0z"/>
<path style="fill:#313d6d; stroke:none;" d="M14 42L30 40C24.9654 49.3606 12.7195 54.6277 7.22762 41.9853C3.77696 34.0418 5.08693 22.8293 8.25772 15C12.7712 3.85527 22.634 3.64257 25.4707 16C26.5564 20.7299 24.8222 25.3381 26 30C38.7323 25.1291 28.5322 -1.72878 15 0.21759C-4.63206 3.04131 -6.62282 48.6442 12.0008 54.1991C20.9729 56.8752 41.9787 47.9768 32.3966 36.304C27.2199 29.9978 13.572 33.7046 14 42z"/>
<path style="fill:#010101; stroke:none;" d="M21 0L21 1C28.8671 6.66296 37.1865 23.4696 26 30C24.7973 22.4437 28.0026 13.4585 21.6065 7.31867C17.2062 3.09473 12.0994 6.66333 9.64892 11.0154C5.15323 18.9998 4.31293 30.1777 6.09877 39C8.98985 53.2825 25.2878 52.5695 30 40L14 42C13.9574 30.5107 35.4086 31.0901 33.7523 43C31.1681 61.582 3.80925 55.5669 1 40L0 40L0 62L65 62L65 72L304 72L304 71C301.93 70.3846 291.5 64.8834 297.882 62.608C300.139 61.8033 302.81 64.2991 305.004 64.679C311.823 65.86 313.561 59.3193 314 54C299.017 57.9623 293.291 47.9294 297.015 34C298.392 28.8508 300.78 20.8657 307.015 19.8665C313.501 18.8271 317.503 27.7734 323 30C320.072 42.1569 325.736 62.9995 315 71L315 72L386 72L386 50L385 50C379.034 56.4126 369.096 57.3353 362.167 51.3519C359.972 49.4563 359.291 45.9395 363.024 45.4622C367.132 44.9369 372.252 48.957 377 49C372.386 42.8495 361.939 41.8929 361.63 32C361.244 19.5992 376.742 15.2619 382.846 26.0934C384.586 29.1815 384.577 35.178 379.968 35.6852C373.726 36.372 377.941 27.6948 373.79 26.9213C370.02 26.2187 369.81 32.5992 371.032 34.6713C373.674 39.1515 381.555 41.661 386 44L386 0L209 0L209 1C228.016 9.87392 221.89 40.765 207.996 51.6057C201.29 56.838 191.959 55.2695 184 55C183.416 41.3987 182.158 27.6673 183.09 14C183.596 6.57351 183.969 -1.94949 193 4L197 1L197 0L132 0L131 32C133.774 30.7063 135.776 29.1224 138.002 26.9807L142 23.0201C143.513 21.6021 152.505 16.6378 149.168 22.7307C146.445 27.7023 135.418 30.9751 137.167 38C139.046 45.5486 148.497 51.1113 153 57C143.418 59.6328 138.587 44.8414 131 41L132 54C124.737 54.6289 126 47.3516 126 42C126 28.0797 125.177 13.8825 126 0L111 0C110.509 18.4706 104.29 37.702 110 56C97.0068 52.3119 102.973 32.904 103 23L102 23C101.105 29.0855 96.0552 54.2471 86.0934 49.7623C76.627 45.5006 74.1708 22.0659 73 13L72 13C71.8926 25.9688 68.7529 40.6168 74 53C60.6922 56.299 66.5103 21.982 66.9722 14C67.2386 9.39686 64.9163 2.869 70 1C57.348 -4.309 34.7879 0 21 0z"/>
<path style="fill:#313d6d; stroke:none;" d="M74 53C69.8554 39.7174 71.9625 26.5783 72 13L73 13C73.7228 22.0821 76.3879 44.9714 85.1852 49.8164C96.2088 55.8875 101.417 29.6915 102 23L103 23C102.923 32.2666 96.75 53.9324 110 56C106.344 38.1931 107.337 18.6168 112 1C108.902 0.0947495 105.381 -0.644409 103.086 2.3179C99.19 7.34577 98.9222 15.989 97.5748 22C95.854 29.6771 92.6266 36.6574 90 44L87 44C85.3292 37.879 82.5254 32.1341 80.885 26C79.7364 21.705 78.6419 17.3672 77.8048 13C77.1622 9.64757 77.6534 4.22051 75.142 1.60725C72.9292 -0.695221 68.0573 0.186234 67.0278 3.27855C65.98 6.42569 67.1452 10.6768 66.8302 14C65.8375 24.4743 63.3745 39.7299 66.4336 49.9414C67.6131 53.8785 70.6508 53.8893 74 53z"/>
<path style="fill:#010101; stroke:none;" d="M75 0L87 44L90 44L104 0L75 0z"/>
<path style="fill:#313d6d; stroke:none;" d="M132 54L131 41C137.403 45.8971 143.762 60.4168 153 57C149.727 50.5359 138.059 44.7053 137.681 37C137.358 30.429 147.434 27.9006 149.863 22.7299C152.93 16.2035 143.909 20.3606 142 22.0586C140.606 23.299 139.33 24.6856 138.002 25.9954C135.762 28.2038 133.564 30.1937 131 32L132 0C129.824 0.0723724 126.859 -0.179108 125.912 2.3179C124.726 5.44507 125.999 10.6472 126 14L126 44C126 49.1243 125.092 55.5722 132 54M193 4C184.415 -3.43668 183.526 6.13869 183.089 13C182.202 26.9171 182.907 41.155 184 55C190.82 55.649 199.708 56.7731 206 53.5471C219.698 46.5236 225.426 21.0977 217.91 8.00077C213.138 -0.31604 199.728 -3.62397 193 4z"/>
<path style="fill:#010101; stroke:none;" d="M202.996 6.74692C189.446 8.45177 190.984 27.4072 191 37C191.008 41.7602 191.089 49.5493 198.004 48.5471C210.515 46.7338 212.71 27.7874 211.907 18C211.503 13.0842 209.191 5.96751 202.996 6.74692z"/>
<path style="fill:#313d6d; stroke:none;" d="M116.618 9.04321C113.8 11.235 117.611 15.6533 120.397 13.8642C123.674 11.7587 119.758 6.60067 116.618 9.04321M285.529 9.03241C280.633 12.5565 288.049 19.9212 292.253 16.1019C296.412 12.3232 289.669 6.05269 285.529 9.03241M47.0401 19.6682C31.939 24.1485 32.6757 61.9015 52.9846 55.3472C67.8505 50.5495 63.4774 14.7915 47.0401 19.6682M270 49C266.918 48.8316 252.558 41.5932 253.466 48.8457C254.702 58.7214 276.283 57.332 279.238 48.9884C282.49 39.8072 265.881 39.9446 264.211 32.4213C263.799 30.5678 265.703 25.3121 268.212 27.7515C270.222 29.7057 268.513 33.2092 270.617 35.2423C274.99 39.4697 278.333 32.794 277.756 28.9992C275.185 12.0702 249.057 19.9132 256.009 36.9992C258.713 43.6435 265.375 44.5124 270 49M314 54C313.423 58.1777 312.139 63.9641 306.995 64.5378C304.062 64.865 297.158 59.2372 295.752 64.2284C293.209 73.2552 314.538 73.3063 318.566 68.7716C324.955 61.5804 321.197 39.6765 323 30C318.061 27.0148 314.294 19.4275 308.003 19.4275C301.809 19.4275 299.078 26.0311 297.591 31C293.528 44.5751 296.397 60.4155 314 54M377 49C373.801 48.9227 359.635 41.8948 359.636 48.1049C359.637 57.7663 381.777 57.7169 385.137 49.8951C389.359 40.0697 372.759 40.1455 370.712 32.9074C370.209 31.1284 371.726 25.9916 374.401 27.9213C376.606 29.5119 374.655 33.2191 376.643 35.1265C380.965 39.2734 384.856 33.0062 384.221 29.0031C381.49 11.7784 354.839 20.653 362.573 37C365.714 43.6369 372.057 44.6377 377 49M173 43C165.678 45.1424 157.838 56.0685 155 42C162.965 45.6678 175.44 38.986 172.067 29.0008C169.829 22.3743 160.03 16.5792 154.652 23.1481C150.224 28.5566 149.08 39.4097 150.684 46C153.991 59.5812 172.575 56.0892 173 43M251 45C244.012 45.1643 237.292 50.6447 233 43C237.893 42.9968 242.938 43.2161 246.772 39.6057C254.14 32.6651 247.12 22.5404 239 20.5625C225.663 17.3136 220.752 43.8628 227.653 51.6057C234.352 59.1222 250.234 55.1312 251 45M285.603 21.1181C280.304 24.6922 283.265 43.6566 284.147 48.9846C284.617 51.8224 287.279 55.6965 290.668 53.8634C293.14 52.5269 292.336 49.236 292.165 47C291.629 39.9951 294.402 30.7101 292.667 24.1443C291.965 21.4846 288.117 19.4231 285.603 21.1181M345 27C346.007 31.4046 346.875 35.4695 347.13 40C347.281 42.6981 347.148 45.302 347.079 47.9961C347.004 50.9361 349.87 58.5768 353.972 54.1644C355.972 52.0133 355 46.6814 355 44C355 35.3814 355.255 23.7548 344.999 20.6566C342.043 19.7636 330.838 19.3986 328.604 21.6073C324.689 25.4784 326.267 44.7348 327.483 49.956C328.161 52.8684 331.144 56.4046 334.397 53.9568C337.42 51.6828 335.139 46.0786 335.263 43C335.528 36.4165 339.065 29.8344 345 27M115 21C115 28.4063 111.091 52.5132 120 54C120 46.0689 124.428 21.7346 115 21z"/>
<path style="fill:#010101; stroke:none;" d="M50 25.1759C39.8198 26.3209 38.599 53.2304 49.9884 51.5733C59.7674 50.1505 59.8556 24.0674 50 25.1759M160.221 26.0864C154.856 28.8021 155.172 41.2928 162.815 38.2384C169.163 35.7017 166.762 22.7752 160.221 26.0864M308.223 28.3457C302.318 30.3814 302.304 51.6668 308.795 48.8241C314.736 46.2218 315.045 25.994 308.223 28.3457M236.419 29.0864C232.489 31.4327 235.511 37.659 239.671 34.9529C243.099 32.7233 240.063 26.9108 236.419 29.0864z"/>
<path style="fill:#f5976d; stroke:none;" d="M0 62L0 72L65 72L65 62L0 62z"/>
</svg>
