<?xml version="1.0" standalone="no"?>
<!DOCTYPE svg PUBLIC "-//W3C//DTD SVG 20010904//EN"
 "http://www.w3.org/TR/2001/REC-SVG-20010904/DTD/svg10.dtd">
<svg version="1.0" xmlns="http://www.w3.org/2000/svg"
 width="1062.000000pt" height="116.000000pt" viewBox="0 0 1062.000000 116.000000"
 preserveAspectRatio="xMidYMid meet">

<g transform="translate(0.000000,116.000000) scale(0.100000,-0.100000)"
fill="#000000" stroke="none">
<path d="M1530 760 c0 -109 2 -130 15 -130 13 0 15 21 15 130 0 109 -2 130
-15 130 -13 0 -15 -21 -15 -130z"/>
<path d="M3280 760 c0 -72 4 -130 9 -130 5 0 11 5 13 10 2 7 14 6 35 -2 29
-11 36 -10 60 8 54 40 53 124 -3 160 -21 14 -31 16 -55 7 l-29 -11 0 44 c0 32
-4 44 -15 44 -13 0 -15 -21 -15 -130z m110 20 c54 -54 -4 -157 -62 -111 -31
26 -31 87 1 112 29 24 36 24 61 -1z"/>
<path d="M3660 870 c0 -11 7 -20 15 -20 8 0 15 9 15 20 0 11 -7 20 -15 20 -8
0 -15 -9 -15 -20z"/>
<path d="M4840 845 c0 -43 -1 -45 -21 -35 -49 27 -109 -19 -109 -84 0 -64 56
-110 105 -88 16 7 25 8 25 2 0 -6 7 -10 15 -10 13 0 15 21 15 130 0 109 -2
130 -15 130 -11 0 -15 -12 -15 -45z m-22 -61 c17 -12 22 -25 22 -59 0 -34 -5
-47 -22 -59 -29 -20 -34 -20 -58 4 -29 29 -27 94 2 114 12 9 25 16 28 16 3 0
16 -7 28 -16z"/>
<path d="M5140 845 c0 -43 -1 -45 -21 -35 -49 27 -109 -19 -109 -84 0 -64 56
-110 105 -88 16 7 25 8 25 2 0 -6 7 -10 15 -10 13 0 15 21 15 130 0 109 -2
130 -15 130 -11 0 -15 -12 -15 -45z m-22 -61 c17 -12 22 -25 22 -59 0 -34 -5
-47 -22 -59 -29 -20 -34 -20 -58 4 -29 29 -27 94 2 114 12 9 25 16 28 16 3 0
16 -7 28 -16z"/>
<path d="M5600 870 c0 -11 7 -20 15 -20 8 0 15 9 15 20 0 11 -7 20 -15 20 -8
0 -15 -9 -15 -20z"/>
<path d="M6900 760 c0 -109 2 -130 15 -130 12 0 15 14 15 70 0 63 2 71 24 85
19 13 29 14 45 5 18 -9 21 -20 21 -85 0 -60 3 -75 15 -75 12 0 15 15 15 75 0
62 -4 79 -20 95 -22 22 -51 26 -81 10 -17 -10 -19 -7 -19 35 0 33 -4 45 -15
45 -13 0 -15 -21 -15 -130z"/>
<path d="M7100 870 c0 -11 7 -20 15 -20 8 0 15 9 15 20 0 11 -7 20 -15 20 -8
0 -15 -9 -15 -20z"/>
<path d="M7740 760 c0 -109 2 -130 15 -130 12 0 15 14 15 70 0 63 2 71 24 85
19 13 29 14 45 5 18 -9 21 -20 21 -85 0 -60 3 -75 15 -75 12 0 15 15 15 75 0
62 -4 79 -20 95 -22 22 -51 26 -81 10 -17 -10 -19 -7 -19 35 0 33 -4 45 -15
45 -13 0 -15 -21 -15 -130z"/>
<path d="M8340 760 c0 -109 2 -130 15 -130 12 0 15 14 15 65 0 52 4 69 20 85
24 24 30 24 55 6 15 -11 20 -30 23 -85 6 -97 22 -90 22 9 0 74 -2 81 -25 96
-24 16 -38 15 -77 -1 -16 -6 -18 -1 -18 39 0 34 -4 46 -15 46 -13 0 -15 -21
-15 -130z"/>
<path d="M8740 760 c0 -109 2 -130 15 -130 13 0 15 21 15 130 0 109 -2 130
-15 130 -13 0 -15 -21 -15 -130z"/>
<path d="M8163 869 c-7 -7 -13 -21 -13 -30 0 -10 -6 -20 -12 -23 -10 -5 -10
-7 0 -12 8 -4 12 -30 12 -78 0 -74 9 -96 42 -96 22 0 24 16 3 24 -11 4 -15 22
-15 76 0 56 3 70 15 70 8 0 15 5 15 10 0 6 -6 10 -14 10 -9 0 -16 12 -18 31
-2 24 -5 28 -15 18z"/>
<path d="M2430 845 c0 -16 -6 -25 -15 -25 -8 0 -15 -4 -15 -9 0 -5 7 -11 15
-15 11 -4 15 -23 15 -80 0 -75 6 -86 46 -86 21 0 17 18 -6 25 -17 5 -20 15
-20 71 0 48 4 66 15 70 8 4 15 10 15 15 0 5 -7 9 -15 9 -9 0 -15 9 -15 25 0
14 -4 25 -10 25 -5 0 -10 -11 -10 -25z"/>
<path d="M3750 845 c0 -16 -6 -25 -15 -25 -8 0 -15 -4 -15 -9 0 -5 7 -11 15
-15 11 -4 15 -23 15 -80 0 -75 6 -86 46 -86 21 0 17 18 -6 25 -17 5 -20 15
-20 71 0 48 4 66 15 70 8 4 15 10 15 15 0 5 -7 9 -15 9 -9 0 -15 9 -15 25 0
14 -4 25 -10 25 -5 0 -10 -11 -10 -25z"/>
<path d="M7650 845 c0 -16 -6 -25 -15 -25 -8 0 -15 -4 -15 -9 0 -5 7 -11 15
-15 11 -4 15 -23 15 -80 0 -73 1 -76 25 -82 35 -9 44 3 17 22 -19 13 -22 25
-22 76 0 51 3 61 20 65 11 3 20 9 20 14 0 5 -9 9 -20 9 -15 0 -20 7 -20 25 0
14 -4 25 -10 25 -5 0 -10 -11 -10 -25z"/>
<path d="M1754 808 c-59 -28 -57 -140 3 -167 37 -17 62 -13 90 15 20 20 23 28
14 37 -9 9 -15 8 -22 -5 -33 -58 -99 -36 -99 32 0 38 26 80 49 80 4 0 20 -9
34 -20 30 -24 37 -25 37 -6 0 19 -39 46 -65 45 -11 0 -30 -5 -41 -11z"/>
<path d="M1900 725 c0 -78 3 -95 15 -95 12 0 15 15 15 75 0 61 3 76 18 83 9 5
23 7 30 5 6 -3 12 2 12 11 0 19 -31 21 -49 4 -11 -10 -14 -10 -18 0 -13 36
-23 1 -23 -83z"/>
<path d="M2054 808 c-39 -18 -55 -79 -35 -131 19 -49 116 -60 145 -15 17 27 0
32 -30 9 -29 -23 -60 -21 -81 7 -27 34 -16 42 58 42 l71 0 -6 28 c-14 56 -71
85 -122 60z m83 -35 c19 -24 6 -33 -48 -33 -55 0 -66 17 -27 44 25 18 56 13
75 -11z"/>
<path d="M2252 810 c-24 -10 -39 -36 -27 -48 3 -4 13 2 21 12 15 21 68 26 86
8 21 -21 0 -39 -52 -46 -40 -5 -53 -12 -62 -31 -22 -49 27 -89 85 -67 21 8 35
8 41 2 21 -21 26 -8 26 65 0 62 -4 79 -20 95 -21 21 -60 25 -98 10z m88 -99
c0 -40 -47 -69 -81 -50 -27 14 -20 41 11 50 37 10 70 10 70 0z"/>
<path d="M2554 808 c-39 -18 -55 -79 -35 -131 19 -49 116 -60 145 -15 17 27 0
32 -30 9 -29 -23 -60 -21 -81 7 -27 34 -16 42 58 42 l71 0 -6 28 c-14 56 -71
85 -122 60z m83 -35 c19 -24 6 -33 -48 -33 -55 0 -66 17 -27 44 25 18 56 13
75 -11z"/>
<path d="M2802 808 c3 -7 15 -50 29 -95 22 -76 43 -104 54 -70 2 6 11 39 21
72 l17 60 9 -35 c5 -19 14 -52 19 -72 5 -21 16 -38 24 -38 12 0 21 21 65 163
7 20 6 27 -5 27 -8 0 -20 -23 -30 -57 -28 -103 -26 -103 -55 15 -19 75 -43 51
-66 -66 -4 -18 -10 -32 -14 -32 -4 0 -16 32 -26 70 -11 45 -23 70 -32 70 -8 0
-12 -6 -10 -12z"/>
<path d="M3114 808 c-39 -18 -55 -79 -35 -131 19 -49 116 -60 145 -15 17 27 0
32 -30 9 -29 -23 -60 -21 -81 7 -27 34 -16 42 58 42 l71 0 -6 28 c-14 56 -71
85 -122 60z m83 -35 c19 -24 6 -33 -48 -33 -55 0 -66 17 -27 44 25 18 56 13
75 -11z"/>
<path d="M3490 800 c-37 -37 -17 -70 58 -89 48 -13 55 -35 17 -53 -22 -10 -30
-8 -55 10 -36 27 -55 8 -20 -20 26 -21 58 -23 94 -6 57 25 40 79 -29 97 -39
10 -67 33 -54 45 19 17 50 15 69 -4 17 -17 25 -19 34 -10 8 9 5 16 -13 31 -30
25 -76 24 -101 -1z"/>
<path d="M3660 725 c0 -78 3 -95 15 -95 12 0 15 17 15 95 0 78 -3 95 -15 95
-12 0 -15 -17 -15 -95z"/>
<path d="M3874 808 c-39 -18 -55 -79 -35 -131 19 -49 116 -60 145 -15 17 27 0
32 -30 9 -29 -23 -60 -21 -81 7 -27 34 -16 42 58 42 l71 0 -6 28 c-14 56 -71
85 -122 60z m83 -35 c19 -24 6 -33 -48 -33 -55 0 -66 17 -27 44 25 18 56 13
75 -11z"/>
<path d="M4064 810 c-55 -22 -32 -78 40 -98 49 -13 60 -34 27 -52 -28 -14 -38
-13 -61 10 -25 25 -45 18 -30 -10 24 -44 124 -33 136 15 8 33 -4 46 -63 66
-54 18 -63 33 -32 49 18 10 26 8 50 -9 33 -25 39 -26 39 -7 0 34 -60 55 -106
36z"/>
<path d="M4352 810 c-22 -10 -39 -36 -29 -46 3 -3 19 4 36 17 26 19 34 21 56
11 33 -15 30 -46 -5 -50 -58 -7 -90 -24 -97 -49 -4 -20 -1 -31 17 -45 26 -21
49 -23 86 -6 22 10 28 10 32 0 2 -6 9 -12 15 -12 9 0 11 23 7 81 -4 65 -9 83
-24 95 -22 16 -60 17 -94 4z m86 -112 c-4 -31 -50 -53 -78 -38 -43 23 -9 56
58 59 19 1 23 -4 20 -21z"/>
<path d="M4520 725 c0 -78 3 -95 15 -95 12 0 15 14 15 70 0 63 2 71 24 85 19
13 29 14 45 5 18 -9 21 -20 21 -85 0 -60 3 -75 15 -75 12 0 15 15 15 75 0 62
-4 79 -20 95 -23 23 -51 25 -83 9 -16 -9 -22 -9 -25 0 -2 6 -8 11 -13 11 -5 0
-9 -43 -9 -95z"/>
<path d="M5239 791 c-21 -22 -29 -39 -29 -66 0 -42 44 -95 79 -95 31 0 71 18
77 35 10 26 -3 29 -32 6 -29 -23 -60 -21 -81 7 -27 34 -16 42 57 42 64 0 70 2
70 21 0 30 -53 79 -85 79 -16 0 -38 -12 -56 -29z m89 -7 c39 -27 28 -44 -27
-44 -58 0 -70 11 -41 40 24 24 38 25 68 4z"/>
<path d="M5444 810 c-55 -22 -32 -78 40 -98 49 -13 60 -34 27 -52 -28 -14 -38
-13 -61 10 -25 25 -45 18 -30 -10 24 -44 124 -33 136 15 8 33 -4 46 -63 66
-54 18 -63 33 -32 49 18 10 26 8 50 -9 33 -25 39 -26 39 -7 0 34 -60 55 -106
36z"/>
<path d="M5600 725 c0 -78 3 -95 15 -95 12 0 15 17 15 95 0 78 -3 95 -15 95
-12 0 -15 -17 -15 -95z"/>
<path d="M5717 813 c-9 -2 -24 -17 -32 -33 -42 -82 18 -175 91 -141 20 9 24 8
24 -7 -1 -46 -52 -64 -93 -32 -21 17 -27 18 -27 6 0 -21 39 -46 73 -46 16 0
38 10 52 25 23 23 25 31 25 130 0 87 -3 105 -15 105 -8 0 -15 -5 -15 -10 0 -7
-6 -7 -19 0 -20 10 -33 11 -64 3z m61 -29 c33 -23 32 -97 -3 -120 -23 -15 -27
-15 -50 0 -35 23 -36 97 -3 120 12 9 25 16 28 16 3 0 16 -7 28 -16z"/>
<path d="M5880 725 c0 -78 3 -95 15 -95 12 0 15 14 15 70 0 63 2 71 24 85 19
13 29 14 45 5 18 -9 21 -20 21 -85 0 -60 3 -75 15 -75 12 0 15 15 15 75 0 62
-4 79 -20 95 -23 23 -51 25 -83 9 -16 -9 -22 -9 -25 0 -2 6 -8 11 -13 11 -5 0
-9 -43 -9 -95z"/>
<path d="M6217 813 c-9 -2 -24 -17 -32 -33 -42 -82 18 -175 91 -141 20 9 24 8
24 -7 -1 -46 -52 -64 -93 -32 -21 17 -27 18 -27 6 0 -21 39 -46 73 -46 16 0
38 10 52 25 23 23 25 31 25 130 0 87 -3 105 -15 105 -8 0 -15 -5 -15 -10 0 -7
-6 -7 -19 0 -20 10 -33 11 -64 3z m61 -29 c33 -23 32 -97 -3 -120 -23 -15 -27
-15 -50 0 -35 23 -36 97 -3 120 12 9 25 16 28 16 3 0 16 -7 28 -16z"/>
<path d="M6380 725 c0 -78 3 -95 15 -95 12 0 15 14 15 69 0 72 16 106 44 95 8
-3 17 -1 21 5 10 17 -26 25 -48 11 -15 -9 -22 -10 -25 -1 -2 6 -8 11 -13 11
-5 0 -9 -43 -9 -95z"/>
<path d="M6532 810 c-22 -10 -39 -36 -29 -46 3 -3 19 4 36 17 26 19 34 21 56
11 33 -15 30 -46 -5 -50 -58 -7 -90 -24 -97 -49 -4 -20 -1 -31 17 -45 26 -21
49 -23 86 -6 22 10 28 10 32 0 2 -6 9 -12 15 -12 9 0 11 23 7 81 -4 65 -9 83
-24 95 -22 16 -60 17 -94 4z m86 -112 c-4 -31 -50 -53 -78 -38 -43 23 -9 56
58 59 19 1 23 -4 20 -21z"/>
<path d="M6700 690 c0 -109 2 -130 15 -130 11 0 15 12 15 45 0 42 2 45 19 35
31 -16 51 -12 82 19 67 68 6 190 -77 152 -15 -6 -24 -7 -24 -1 0 6 -7 10 -15
10 -13 0 -15 -21 -15 -130z m110 90 c12 -12 20 -33 20 -55 0 -33 -27 -75 -49
-75 -26 0 -53 38 -53 75 0 28 6 44 22 57 28 23 35 23 60 -2z"/>
<path d="M7100 725 c0 -78 3 -95 15 -95 12 0 15 17 15 95 0 78 -3 95 -15 95
-12 0 -15 -17 -15 -95z"/>
<path d="M7213 808 c-22 -11 -43 -54 -43 -89 0 -48 42 -89 91 -89 29 0 75 48
60 63 -11 11 -21 4 -33 -24 -8 -19 -48 -19 -67 0 -40 40 -16 131 34 131 8 0
23 -9 32 -20 20 -24 33 -26 33 -6 0 19 -39 46 -65 45 -11 0 -30 -5 -42 -11z"/>
<path d="M7384 810 c-55 -22 -32 -78 40 -98 49 -13 60 -34 27 -52 -28 -14 -38
-13 -61 10 -25 25 -45 18 -30 -10 24 -44 124 -33 136 15 8 33 -4 46 -63 66
-54 18 -63 33 -32 49 18 10 26 8 50 -9 33 -25 39 -26 39 -7 0 34 -60 55 -106
36z"/>
<path d="M7975 808 c-26 -15 -36 -31 -26 -41 5 -5 18 0 30 12 24 24 40 26 66
7 24 -18 13 -46 -19 -46 -63 0 -107 -41 -86 -80 14 -26 52 -35 92 -21 22 8 34
8 36 1 2 -5 9 -10 16 -10 8 0 10 22 8 78 -3 62 -7 80 -24 95 -23 19 -63 22
-93 5z m85 -108 c0 -11 -11 -27 -25 -36 -21 -14 -31 -15 -51 -5 -30 13 -27 31
7 48 38 20 69 16 69 -7z"/>
<path d="M8577 809 c-27 -16 -48 -72 -41 -109 8 -37 47 -70 84 -70 27 0 80 33
80 51 0 14 -28 11 -37 -5 -16 -28 -51 -29 -78 -2 -39 39 -32 46 45 46 67 0 70
1 70 24 0 53 -77 93 -123 65z m71 -25 c39 -27 28 -44 -28 -44 -42 0 -50 3 -50
18 0 11 10 24 23 30 30 14 29 14 55 -4z"/>
<path d="M8820 690 c0 -109 2 -130 15 -130 11 0 15 12 15 45 0 45 7 54 27 34
16 -16 70 -1 88 24 8 12 15 41 15 65 0 73 -66 117 -112 75 -17 -15 -18 -15
-18 0 0 10 -7 17 -15 17 -13 0 -15 -21 -15 -130z m108 94 c17 -12 22 -25 22
-59 0 -34 -5 -47 -22 -59 -29 -20 -34 -20 -58 4 -12 12 -20 33 -20 55 0 22 8
43 20 55 24 24 29 24 58 4z"/>
<path d="M401 382 c-25 -64 -46 -123 -49 -129 -2 -7 3 -13 12 -13 9 0 20 15
27 40 l12 40 57 0 58 0 16 -40 c9 -24 22 -40 32 -40 9 0 14 6 11 13 -81 206
-101 247 -116 247 -11 0 -28 -33 -60 -118z m86 23 l21 -55 -44 0 c-24 0 -44 3
-44 6 0 15 35 104 41 104 3 0 15 -25 26 -55z"/>
<path d="M710 370 c0 -109 2 -130 15 -130 13 0 15 21 15 130 0 109 -2 130 -15
130 -13 0 -15 -21 -15 -130z"/>
<path d="M2870 480 c0 -11 7 -20 15 -20 8 0 15 9 15 20 0 11 -7 20 -15 20 -8
0 -15 -9 -15 -20z"/>
<path d="M3430 370 c0 -109 2 -130 15 -130 8 0 15 5 15 10 0 7 6 7 19 0 31
-16 51 -12 82 19 68 68 0 195 -80 151 -20 -10 -21 -8 -21 35 0 33 -4 45 -15
45 -13 0 -15 -21 -15 -130z m110 20 c12 -12 20 -33 20 -55 0 -22 -8 -43 -20
-55 -24 -24 -29 -24 -58 -4 -17 12 -22 25 -22 59 0 34 5 47 22 59 29 20 34 20
58 -4z"/>
<path d="M5810 480 c0 -11 7 -20 15 -20 8 0 15 9 15 20 0 11 -7 20 -15 20 -8
0 -15 -9 -15 -20z"/>
<path d="M6890 455 c0 -43 -1 -45 -21 -35 -49 27 -109 -19 -109 -84 0 -64 56
-110 105 -88 16 7 25 8 25 2 0 -6 7 -10 15 -10 13 0 15 21 15 130 0 109 -2
130 -15 130 -11 0 -15 -12 -15 -45z m-22 -61 c17 -12 22 -25 22 -59 0 -34 -5
-47 -22 -59 -29 -20 -34 -20 -58 4 -29 29 -27 94 2 114 12 9 25 16 28 16 3 0
16 -7 28 -16z"/>
<path d="M8170 480 c0 -11 7 -20 15 -20 8 0 15 9 15 20 0 11 -7 20 -15 20 -8
0 -15 -9 -15 -20z"/>
<path d="M8630 370 c0 -105 3 -130 14 -130 8 0 16 6 19 13 4 9 7 9 18 0 21
-20 58 -15 84 12 36 35 35 106 -1 142 -25 25 -43 27 -86 8 -16 -6 -18 -1 -18
39 0 34 -4 46 -15 46 -13 0 -15 -21 -15 -130z m108 24 c17 -12 22 -25 22 -59
0 -34 -5 -47 -22 -59 -29 -20 -34 -20 -58 4 -12 12 -20 33 -20 55 0 22 8 43
20 55 24 24 29 24 58 4z"/>
<path d="M8830 370 c0 -109 2 -130 15 -130 13 0 15 21 15 130 0 109 -2 130
-15 130 -13 0 -15 -21 -15 -130z"/>
<path d="M9610 370 c0 -109 2 -130 15 -130 13 0 15 21 15 130 0 109 -2 130
-15 130 -13 0 -15 -21 -15 -130z"/>
<path d="M9690 480 c0 -11 7 -20 15 -20 8 0 15 9 15 20 0 11 -7 20 -15 20 -8
0 -15 -9 -15 -20z"/>
<path d="M620 455 c0 -16 -6 -25 -15 -25 -8 0 -15 -4 -15 -9 0 -5 7 -11 15
-15 11 -4 15 -23 15 -80 0 -75 6 -86 46 -86 21 0 17 18 -6 25 -17 5 -20 15
-20 71 0 48 4 66 15 70 8 4 15 10 15 15 0 5 -7 9 -15 9 -9 0 -15 9 -15 25 0
14 -4 25 -10 25 -5 0 -10 -11 -10 -25z"/>
<path d="M1200 455 c0 -16 -6 -25 -15 -25 -8 0 -15 -4 -15 -9 0 -5 7 -11 15
-15 11 -4 15 -23 15 -80 0 -75 6 -86 46 -86 21 0 17 18 -6 25 -17 5 -20 15
-20 71 0 48 4 66 15 70 8 4 15 10 15 15 0 5 -7 9 -15 9 -9 0 -15 9 -15 25 0
14 -4 25 -10 25 -5 0 -10 -11 -10 -25z"/>
<path d="M5020 455 c0 -16 -6 -25 -15 -25 -8 0 -15 -4 -15 -9 0 -5 7 -11 15
-15 11 -4 15 -23 15 -80 0 -73 1 -76 25 -82 35 -9 44 3 17 22 -19 13 -22 25
-22 76 0 51 3 61 20 65 11 3 20 9 20 14 0 5 -9 9 -20 9 -15 0 -20 7 -20 25 0
14 -4 25 -10 25 -5 0 -10 -11 -10 -25z"/>
<path d="M5120 455 c0 -16 -6 -25 -15 -25 -8 0 -15 -4 -15 -9 0 -5 7 -11 15
-15 11 -4 15 -23 15 -80 0 -73 1 -76 25 -82 35 -9 44 3 17 22 -19 13 -22 25
-22 76 0 51 3 61 20 65 11 3 20 9 20 14 0 5 -9 9 -20 9 -15 0 -20 7 -20 25 0
14 -4 25 -10 25 -5 0 -10 -11 -10 -25z"/>
<path d="M5720 455 c0 -16 -6 -25 -15 -25 -8 0 -15 -4 -15 -9 0 -5 7 -11 15
-15 11 -4 15 -23 15 -80 0 -73 1 -76 25 -82 35 -9 44 3 17 22 -19 13 -22 25
-22 76 0 51 3 61 20 65 11 3 20 9 20 14 0 5 -9 9 -20 9 -15 0 -20 7 -20 25 0
14 -4 25 -10 25 -5 0 -10 -11 -10 -25z"/>
<path d="M822 420 c-24 -10 -39 -36 -27 -48 3 -4 13 2 21 12 15 21 68 26 86 8
21 -21 0 -39 -52 -46 -40 -5 -53 -12 -62 -31 -22 -49 27 -89 85 -67 21 8 35 8
41 2 21 -21 26 -8 26 65 0 62 -4 79 -20 95 -21 21 -60 25 -98 10z m88 -99 c0
-40 -47 -69 -81 -50 -27 14 -20 41 11 50 37 10 70 10 70 0z"/>
<path d="M990 335 c0 -78 3 -95 15 -95 12 0 15 14 15 70 0 63 2 71 24 85 19
13 29 14 45 5 18 -9 21 -20 21 -85 0 -60 3 -75 15 -75 12 0 15 15 15 75 0 62
-4 79 -20 95 -24 24 -57 26 -88 4 -20 -14 -22 -14 -22 0 0 9 -4 16 -10 16 -6
0 -10 -38 -10 -95z"/>
<path d="M1322 420 c-24 -10 -39 -36 -27 -48 3 -4 13 2 21 12 15 21 68 26 86
8 21 -21 0 -39 -52 -46 -40 -5 -53 -12 -62 -31 -22 -49 27 -89 85 -67 21 8 35
8 41 2 21 -21 26 -8 26 65 0 62 -4 79 -20 95 -21 21 -60 25 -98 10z m88 -99
c0 -40 -47 -69 -81 -50 -27 14 -20 41 11 50 37 10 70 10 70 0z"/>
<path d="M1624 418 c-59 -28 -57 -140 3 -167 37 -17 62 -13 90 15 20 20 23 28
14 37 -9 9 -15 8 -22 -5 -33 -58 -99 -36 -99 32 0 38 26 80 49 80 4 0 20 -9
34 -20 30 -24 37 -25 37 -6 0 19 -39 46 -65 45 -11 0 -30 -5 -41 -11z"/>
<path d="M1803 420 c-29 -12 -43 -40 -43 -88 0 -51 25 -81 72 -89 32 -5 41 -1
68 25 41 42 42 92 1 133 -30 29 -58 35 -98 19z m85 -38 c13 -17 16 -60 6 -87
-11 -27 -53 -38 -80 -20 -34 22 -34 97 -2 119 25 18 56 13 76 -12z"/>
<path d="M1970 335 c0 -78 3 -95 15 -95 12 0 15 14 15 68 0 37 4 72 8 78 11
17 35 22 55 12 14 -7 17 -22 17 -83 0 -60 3 -75 15 -75 12 0 15 14 15 68 0 37
4 72 8 78 11 17 35 22 55 12 14 -7 17 -22 17 -83 0 -60 3 -75 15 -75 22 0 21
137 -1 168 -18 25 -50 28 -81 7 -18 -13 -22 -13 -33 0 -16 19 -50 19 -78 -1
-20 -14 -22 -14 -22 0 0 9 -4 16 -10 16 -6 0 -10 -38 -10 -95z"/>
<path d="M2270 300 c0 -109 2 -130 15 -130 11 0 15 12 15 44 l0 44 30 -11 c25
-10 34 -8 57 9 54 40 53 124 -3 160 -22 15 -31 16 -57 6 -21 -8 -33 -9 -35 -2
-2 5 -8 10 -13 10 -5 0 -9 -58 -9 -130z m110 90 c54 -54 -4 -157 -62 -111 -31
26 -31 87 1 112 29 24 36 24 61 -1z"/>
<path d="M2502 420 c-24 -10 -39 -36 -27 -48 3 -4 13 2 21 12 15 21 68 26 86
8 21 -21 0 -39 -52 -46 -40 -5 -53 -12 -62 -31 -22 -49 27 -89 85 -67 21 8 35
8 41 2 21 -21 26 -8 26 65 0 62 -4 79 -20 95 -21 21 -60 25 -98 10z m88 -99
c0 -40 -47 -69 -81 -50 -27 14 -20 41 11 50 37 10 70 10 70 0z"/>
<path d="M2670 335 c0 -78 3 -95 15 -95 12 0 15 14 15 70 0 63 2 71 24 85 19
13 29 14 45 5 18 -9 21 -20 21 -85 0 -60 3 -75 15 -75 12 0 15 15 15 75 0 62
-4 79 -20 95 -24 24 -57 26 -88 4 -20 -14 -22 -14 -22 0 0 9 -4 16 -10 16 -6
0 -10 -38 -10 -95z"/>
<path d="M2870 335 c0 -78 3 -95 15 -95 12 0 15 17 15 95 0 78 -3 95 -15 95
-12 0 -15 -17 -15 -95z"/>
<path d="M2984 418 c-39 -18 -55 -79 -35 -131 19 -49 116 -60 145 -15 17 27 0
32 -30 9 -29 -23 -60 -21 -81 7 -27 34 -16 42 58 42 l71 0 -6 28 c-14 56 -71
85 -122 60z m83 -35 c19 -24 6 -33 -48 -33 -55 0 -66 17 -27 44 25 18 56 13
75 -11z"/>
<path d="M3174 420 c-55 -22 -32 -78 40 -98 49 -13 60 -34 27 -52 -28 -14 -38
-13 -61 10 -25 25 -45 18 -30 -10 24 -44 124 -33 136 15 8 33 -4 46 -63 66
-54 18 -63 33 -32 49 18 10 26 8 50 -9 33 -25 39 -26 39 -7 0 34 -60 55 -106
36z"/>
<path d="M3649 401 c-21 -22 -29 -39 -29 -66 0 -42 44 -95 79 -95 31 0 71 18
77 35 10 26 -3 29 -32 6 -29 -23 -60 -21 -81 7 -27 34 -16 42 57 42 64 0 70 2
70 21 0 30 -53 79 -85 79 -16 0 -38 -12 -56 -29z m89 -7 c39 -27 28 -44 -27
-44 -58 0 -70 11 -41 40 24 24 38 25 68 4z"/>
<path d="M3863 418 c-22 -11 -43 -54 -43 -89 0 -48 42 -89 91 -89 29 0 75 48
60 63 -11 11 -21 4 -33 -24 -8 -19 -48 -19 -67 0 -40 40 -16 131 34 131 8 0
23 -9 32 -20 20 -24 33 -26 33 -6 0 19 -39 46 -65 45 -11 0 -30 -5 -42 -11z"/>
<path d="M4044 418 c-59 -28 -57 -140 3 -167 62 -29 123 13 123 84 0 72 -64
114 -126 83z m84 -36 c6 -9 12 -30 12 -47 0 -36 -16 -60 -47 -70 -32 -9 -63
26 -63 70 0 65 60 94 98 47z"/>
<path d="M4210 335 c0 -78 3 -95 15 -95 12 0 15 14 15 70 0 63 2 71 25 86 41
27 55 6 55 -82 0 -59 3 -74 15 -74 12 0 15 14 15 70 0 63 2 71 25 86 41 27 55
6 55 -82 0 -59 3 -74 15 -74 24 0 21 151 -3 173 -23 21 -51 22 -79 2 -18 -13
-22 -13 -33 0 -15 18 -43 19 -73 4 -16 -9 -22 -9 -25 0 -2 6 -8 11 -13 11 -5
0 -9 -43 -9 -95z"/>
<path d="M4529 401 c-21 -22 -29 -39 -29 -66 0 -42 44 -95 79 -95 31 0 71 18
77 35 10 26 -3 29 -32 6 -29 -23 -60 -21 -81 7 -27 34 -16 42 57 42 64 0 70 2
70 21 0 30 -53 79 -85 79 -16 0 -38 -12 -56 -29z m89 -7 c39 -27 28 -44 -27
-44 -58 0 -70 11 -41 40 24 24 38 25 68 4z"/>
<path d="M4842 420 c-22 -10 -39 -36 -29 -46 3 -3 19 4 36 17 26 19 34 21 56
11 33 -15 30 -46 -5 -50 -58 -7 -90 -24 -97 -49 -4 -20 -1 -31 17 -45 26 -21
49 -23 86 -6 22 10 28 10 32 0 2 -6 9 -12 15 -12 9 0 11 23 7 81 -4 65 -9 83
-24 95 -22 16 -60 17 -94 4z m86 -112 c-4 -31 -50 -53 -78 -38 -43 23 -9 56
58 59 19 1 23 -4 20 -21z"/>
<path d="M5210 335 c0 -78 3 -95 15 -95 12 0 15 14 15 69 0 72 16 106 44 95 8
-3 17 -1 21 5 10 17 -26 25 -48 11 -15 -9 -22 -10 -25 -1 -2 6 -8 11 -13 11
-5 0 -9 -43 -9 -95z"/>
<path d="M5362 420 c-22 -10 -39 -36 -29 -46 3 -3 19 4 36 17 26 19 34 21 56
11 33 -15 30 -46 -5 -50 -58 -7 -90 -24 -97 -49 -4 -20 -1 -31 17 -45 26 -21
49 -23 86 -6 22 10 28 10 32 0 2 -6 9 -12 15 -12 9 0 11 23 7 81 -4 65 -9 83
-24 95 -22 16 -60 17 -94 4z m86 -112 c-4 -31 -50 -53 -78 -38 -43 23 -9 56
58 59 19 1 23 -4 20 -21z"/>
<path d="M5563 418 c-22 -11 -43 -54 -43 -89 0 -48 42 -89 91 -89 29 0 75 48
60 63 -11 11 -21 4 -33 -24 -8 -19 -48 -19 -67 0 -40 40 -16 131 34 131 8 0
23 -9 32 -20 20 -24 33 -26 33 -6 0 19 -39 46 -65 45 -11 0 -30 -5 -42 -11z"/>
<path d="M5810 335 c0 -78 3 -95 15 -95 12 0 15 17 15 95 0 78 -3 95 -15 95
-12 0 -15 -17 -15 -95z"/>
<path d="M5908 336 c19 -53 41 -96 47 -96 13 0 17 9 59 123 19 51 22 67 12 67
-8 0 -26 -32 -41 -75 -16 -42 -30 -74 -32 -72 -2 2 -14 35 -27 73 -13 41 -29
70 -38 72 -13 2 -8 -17 20 -92z"/>
<path d="M6089 401 c-21 -22 -29 -39 -29 -66 0 -42 44 -95 79 -95 31 0 71 18
77 35 10 26 -3 29 -32 6 -29 -23 -60 -21 -81 7 -27 34 -16 42 57 42 64 0 70 2
70 21 0 30 -53 79 -85 79 -16 0 -38 -12 -56 -29z m89 -7 c39 -27 28 -44 -27
-44 -58 0 -70 11 -41 40 24 24 38 25 68 4z"/>
<path d="M6402 420 c-22 -10 -39 -36 -29 -46 3 -3 19 4 36 17 26 19 34 21 56
11 33 -15 30 -46 -5 -50 -58 -7 -90 -24 -97 -49 -4 -20 -1 -31 17 -45 26 -21
49 -23 86 -6 22 10 28 10 32 0 2 -6 9 -12 15 -12 9 0 11 23 7 81 -4 65 -9 83
-24 95 -22 16 -60 17 -94 4z m86 -112 c-4 -31 -50 -53 -78 -38 -43 23 -9 56
58 59 19 1 23 -4 20 -21z"/>
<path d="M6570 335 c0 -78 3 -95 15 -95 12 0 15 14 15 70 0 63 2 71 24 85 19
13 29 14 45 5 18 -9 21 -20 21 -85 0 -60 3 -75 15 -75 12 0 15 15 15 75 0 62
-4 79 -20 95 -23 23 -51 25 -83 9 -16 -9 -22 -9 -25 0 -2 6 -8 11 -13 11 -5 0
-9 -43 -9 -95z"/>
<path d="M7070 335 c0 -78 3 -95 15 -95 12 0 15 14 15 69 0 72 16 106 44 95 8
-3 17 -1 21 5 10 17 -26 25 -48 11 -15 -9 -22 -10 -25 -1 -2 6 -8 11 -13 11
-5 0 -9 -43 -9 -95z"/>
<path d="M7209 401 c-21 -22 -29 -39 -29 -66 0 -42 44 -95 79 -95 31 0 71 18
77 35 10 26 -3 29 -32 6 -29 -23 -60 -21 -81 7 -27 34 -16 42 57 42 64 0 70 2
70 21 0 30 -53 79 -85 79 -16 0 -38 -12 -56 -29z m89 -7 c39 -27 28 -44 -27
-44 -58 0 -70 11 -41 40 24 24 38 25 68 4z"/>
<path d="M7423 418 c-22 -11 -43 -54 -43 -89 0 -48 42 -89 91 -89 29 0 75 48
60 63 -11 11 -21 4 -33 -24 -8 -19 -48 -19 -67 0 -40 40 -16 131 34 131 8 0
23 -9 32 -20 20 -24 33 -26 33 -6 0 19 -39 46 -65 45 -11 0 -30 -5 -42 -11z"/>
<path d="M7604 418 c-59 -28 -57 -140 3 -167 62 -29 123 13 123 84 0 72 -64
114 -126 83z m84 -36 c6 -9 12 -30 12 -47 0 -36 -16 -60 -47 -70 -32 -9 -63
26 -63 70 0 65 60 94 98 47z"/>
<path d="M7807 423 c-9 -2 -24 -17 -32 -33 -42 -82 18 -175 91 -141 20 9 24 8
24 -7 -1 -46 -52 -64 -93 -32 -21 17 -27 18 -27 6 0 -21 39 -46 73 -46 16 0
38 10 52 25 23 23 25 31 25 130 0 87 -3 105 -15 105 -8 0 -15 -5 -15 -10 0 -7
-6 -7 -19 0 -20 10 -33 11 -64 3z m61 -29 c33 -23 32 -97 -3 -120 -23 -15 -27
-15 -50 0 -35 23 -36 97 -3 120 12 9 25 16 28 16 3 0 16 -7 28 -16z"/>
<path d="M7970 335 c0 -78 3 -95 15 -95 12 0 15 13 15 61 0 87 26 123 71 99
16 -9 19 -22 19 -85 0 -61 3 -75 15 -75 13 0 15 14 13 82 -3 78 -4 83 -31 98
-25 14 -30 13 -57 -2 -25 -14 -30 -15 -30 -3 0 8 -7 15 -15 15 -12 0 -15 -17
-15 -95z"/>
<path d="M8170 335 c0 -78 3 -95 15 -95 12 0 15 17 15 95 0 78 -3 95 -15 95
-12 0 -15 -17 -15 -95z"/>
<path d="M8240 420 c0 -5 25 -10 55 -10 30 0 55 -3 55 -6 0 -3 -25 -36 -55
-72 -30 -37 -55 -72 -55 -79 0 -10 22 -13 80 -13 47 0 80 4 80 10 0 6 -27 10
-60 10 -33 0 -60 3 -60 6 0 4 25 37 55 74 30 37 55 72 55 79 0 7 -26 11 -75
11 -43 0 -75 -4 -75 -10z"/>
<path d="M8465 418 c-26 -15 -36 -31 -26 -41 5 -5 18 0 30 12 24 24 40 26 66
7 24 -18 13 -46 -19 -46 -63 0 -107 -41 -86 -80 14 -26 52 -35 92 -21 22 8 34
8 36 1 2 -5 9 -10 16 -10 8 0 10 22 8 78 -3 62 -7 80 -24 95 -23 19 -63 22
-93 5z m85 -108 c0 -11 -11 -27 -25 -36 -21 -14 -31 -15 -51 -5 -30 13 -27 31
7 48 38 20 69 16 69 -7z"/>
<path d="M8947 419 c-27 -16 -48 -72 -41 -109 8 -37 47 -70 84 -70 27 0 80 33
80 51 0 14 -28 11 -37 -5 -16 -28 -51 -29 -78 -2 -39 39 -32 46 45 46 67 0 70
1 70 24 0 53 -77 93 -123 65z m71 -25 c39 -27 28 -44 -28 -44 -42 0 -50 3 -50
18 0 11 10 24 23 30 30 14 29 14 55 -4z"/>
<path d="M9234 407 c-24 -21 -29 -33 -29 -72 0 -39 5 -51 29 -72 24 -20 36
-24 65 -19 48 7 71 37 71 91 0 54 -23 84 -71 91 -29 5 -41 1 -65 -19z m85 -14
c34 -29 33 -95 -3 -118 -20 -14 -29 -14 -48 -4 -31 16 -38 28 -38 64 0 35 7
47 35 63 27 15 29 15 54 -5z"/>
<path d="M9410 335 c0 -78 3 -95 15 -95 12 0 15 13 15 61 0 87 26 123 71 99
16 -9 19 -22 19 -85 0 -61 3 -75 15 -75 13 0 15 14 13 82 -3 78 -4 83 -31 98
-25 14 -30 13 -57 -2 -25 -14 -30 -15 -30 -3 0 8 -7 15 -15 15 -12 0 -15 -17
-15 -95z"/>
<path d="M9690 335 c0 -78 3 -95 15 -95 12 0 15 17 15 95 0 78 -3 95 -15 95
-12 0 -15 -17 -15 -95z"/>
<path d="M9770 335 c0 -78 3 -95 15 -95 12 0 15 13 15 61 0 87 26 123 71 99
16 -9 19 -22 19 -85 0 -61 3 -75 15 -75 13 0 15 14 13 82 -3 78 -4 83 -31 98
-25 14 -30 13 -57 -2 -25 -14 -30 -15 -30 -3 0 8 -7 15 -15 15 -12 0 -15 -17
-15 -95z"/>
<path d="M10007 419 c-27 -16 -48 -72 -41 -109 8 -37 47 -70 84 -70 27 0 80
33 80 51 0 14 -28 11 -37 -5 -16 -28 -51 -29 -78 -2 -39 39 -32 46 45 46 67 0
70 1 70 24 0 53 -77 93 -123 65z m71 -25 c39 -27 28 -44 -28 -44 -42 0 -50 3
-50 18 0 11 10 24 23 30 30 14 29 14 55 -4z"/>
<path d="M10180 260 c0 -11 7 -20 15 -20 8 0 15 9 15 20 0 11 -7 20 -15 20 -8
0 -15 -9 -15 -20z"/>
</g>
</svg>
