<?xml version="1.0" standalone="no"?>
<!DOCTYPE svg PUBLIC "-//W3C//DTD SVG 20010904//EN"
 "http://www.w3.org/TR/2001/REC-SVG-20010904/DTD/svg10.dtd">
<svg version="1.0" xmlns="http://www.w3.org/2000/svg"
 width="1018.000000pt" height="96.000000pt" viewBox="0 0 1018.000000 96.000000"
 preserveAspectRatio="xMidYMid meet">

<g transform="translate(0.000000,96.000000) scale(0.100000,-0.100000)"
fill="#000000" stroke="none">
<path d="M235 674 c19 -69 36 -129 39 -131 16 -16 34 15 55 98 33 129 36 132
55 66 9 -32 23 -82 32 -112 19 -67 39 -71 54 -12 6 23 22 81 35 130 19 69 21
87 10 87 -15 0 -21 -18 -51 -145 -20 -86 -16 -90 -55 58 -20 75 -27 87 -43 85
-16 -2 -26 -25 -50 -113 l-31 -110 -25 110 c-19 80 -31 111 -42 113 -14 3 -11
-16 17 -124z"/>
<path d="M750 670 c0 -105 3 -130 14 -130 8 0 16 6 19 13 4 10 7 10 18 0 21
-20 58 -15 84 12 36 35 35 106 -1 142 -25 25 -43 27 -86 8 -16 -6 -18 -1 -18
39 0 34 -4 46 -15 46 -13 0 -15 -21 -15 -130z m108 24 c17 -12 22 -25 22 -59
0 -34 -5 -47 -22 -59 -29 -20 -34 -20 -58 4 -12 12 -20 33 -20 55 0 22 8 43
20 55 24 24 29 24 58 4z"/>
<path d="M1140 780 c0 -11 5 -20 10 -20 6 0 10 9 10 20 0 11 -4 20 -10 20 -5
0 -10 -9 -10 -20z"/>
<path d="M1810 670 c0 -109 2 -130 15 -130 13 0 15 21 15 130 0 109 -2 130
-15 130 -13 0 -15 -21 -15 -130z"/>
<path d="M1890 785 c0 -8 5 -15 11 -15 6 0 9 -9 6 -20 -3 -11 -1 -18 4 -14 16
9 11 64 -6 64 -8 0 -15 -7 -15 -15z"/>
<path d="M2580 754 c0 -40 -2 -45 -17 -39 -40 16 -54 17 -78 1 -47 -31 -50
-121 -4 -158 25 -21 59 -23 78 -6 11 10 14 11 18 1 3 -7 9 -13 14 -13 5 0 9
58 9 130 0 80 -4 130 -10 130 -5 0 -10 -21 -10 -46z m-10 -84 c16 -38 4 -89
-23 -99 -45 -17 -83 28 -72 86 10 57 73 66 95 13z"/>
<path d="M3040 780 c0 -11 5 -20 10 -20 6 0 10 9 10 20 0 11 -4 20 -10 20 -5
0 -10 -9 -10 -20z"/>
<path d="M3840 754 c0 -40 -2 -45 -17 -39 -40 16 -54 17 -78 1 -47 -31 -50
-121 -4 -158 25 -21 59 -23 78 -6 11 10 14 11 18 1 3 -7 9 -13 14 -13 5 0 9
58 9 130 0 80 -4 130 -10 130 -5 0 -10 -21 -10 -46z m-10 -84 c16 -38 4 -89
-23 -99 -45 -17 -83 28 -72 86 10 57 73 66 95 13z"/>
<path d="M4540 754 c0 -40 -2 -45 -17 -39 -40 16 -54 17 -78 1 -47 -31 -50
-121 -4 -158 25 -21 59 -23 78 -6 11 10 14 11 18 1 3 -7 9 -13 14 -13 5 0 9
58 9 130 0 80 -4 130 -10 130 -5 0 -10 -21 -10 -46z m-10 -84 c16 -38 4 -89
-23 -99 -45 -17 -83 28 -72 86 10 57 73 66 95 13z"/>
<path d="M4840 755 c0 -42 -11 -58 -25 -35 -11 18 -56 10 -80 -15 -27 -26 -33
-73 -15 -120 13 -33 56 -50 93 -37 15 6 27 6 27 1 0 -5 7 -9 15 -9 13 0 15 21
15 130 0 109 -2 130 -15 130 -11 0 -15 -12 -15 -45z m-20 -65 c30 -30 27 -95
-5 -116 -23 -15 -27 -15 -50 0 -35 23 -36 97 -3 120 29 20 34 20 58 -4z"/>
<path d="M5500 670 c0 -109 2 -130 15 -130 13 0 15 21 15 130 0 109 -2 130
-15 130 -13 0 -15 -21 -15 -130z"/>
<path d="M6300 755 c0 -42 -11 -58 -25 -35 -11 18 -56 10 -80 -15 -27 -26 -33
-73 -15 -120 13 -33 56 -50 93 -37 15 6 27 6 27 1 0 -5 7 -9 15 -9 13 0 15 21
15 130 0 109 -2 130 -15 130 -11 0 -15 -12 -15 -45z m-20 -65 c30 -30 27 -95
-5 -116 -23 -15 -27 -15 -50 0 -35 23 -36 97 -3 120 29 20 34 20 58 -4z"/>
<path d="M6502 788 c-7 -7 -12 -22 -12 -35 0 -14 -6 -23 -15 -23 -8 0 -15 -4
-15 -9 0 -5 7 -11 15 -15 12 -4 15 -24 15 -87 0 -58 3 -80 12 -77 8 3 12 29
11 82 -2 70 0 79 18 83 25 7 25 23 -1 23 -23 0 -24 4 -10 31 6 10 17 19 25 19
8 0 15 5 15 10 0 14 -43 13 -58 -2z"/>
<path d="M7031 682 c-25 -64 -46 -123 -49 -129 -2 -7 3 -13 12 -13 9 0 20 15
27 40 l12 40 57 0 58 0 16 -40 c9 -24 22 -40 32 -40 9 0 14 6 11 13 -81 206
-101 247 -116 247 -11 0 -28 -33 -60 -118z m86 23 l21 -55 -44 0 c-24 0 -44 3
-44 6 0 15 35 104 41 104 3 0 15 -25 26 -55z"/>
<path d="M7340 670 c0 -109 2 -130 15 -130 13 0 15 21 15 130 0 109 -2 130
-15 130 -13 0 -15 -21 -15 -130z"/>
<path d="M9500 780 c0 -11 7 -20 15 -20 8 0 15 9 15 20 0 11 -7 20 -15 20 -8
0 -15 -9 -15 -20z"/>
<path d="M1227 773 c-4 -3 -7 -14 -7 -24 0 -9 -6 -20 -12 -23 -10 -5 -10 -7 0
-12 8 -4 12 -30 12 -78 0 -74 9 -96 42 -96 22 0 24 16 3 24 -11 4 -15 22 -15
76 0 56 3 70 15 70 8 0 15 5 15 10 0 6 -7 10 -15 10 -9 0 -15 9 -15 25 0 24
-10 32 -23 18z"/>
<path d="M7250 755 c0 -16 -6 -25 -15 -25 -8 0 -15 -4 -15 -9 0 -5 7 -11 15
-15 11 -4 15 -23 15 -80 0 -75 6 -86 46 -86 21 0 17 18 -6 25 -17 5 -20 15
-20 71 0 48 4 66 15 70 8 4 15 10 15 15 0 5 -7 9 -15 9 -9 0 -15 9 -15 25 0
14 -4 25 -10 25 -5 0 -10 -11 -10 -25z"/>
<path d="M7830 755 c0 -16 -6 -25 -15 -25 -8 0 -15 -4 -15 -9 0 -5 7 -11 15
-15 11 -4 15 -23 15 -80 0 -75 6 -86 46 -86 21 0 17 18 -6 25 -17 5 -20 15
-20 71 0 48 4 66 15 70 8 4 15 10 15 15 0 5 -7 9 -15 9 -9 0 -15 9 -15 25 0
14 -4 25 -10 25 -5 0 -10 -11 -10 -25z"/>
<path d="M587 719 c-27 -16 -48 -72 -41 -109 8 -37 47 -70 84 -70 27 0 80 33
80 51 0 14 -28 11 -37 -5 -16 -28 -51 -29 -78 -2 -39 39 -32 46 45 46 67 0 70
1 70 24 0 53 -77 93 -123 65z m71 -25 c39 -27 28 -44 -28 -44 -42 0 -50 3 -50
18 0 11 10 24 23 30 30 14 29 14 55 -4z"/>
<path d="M972 714 c-16 -11 -22 -24 -20 -42 2 -22 11 -30 51 -43 57 -19 69
-29 57 -48 -12 -20 -70 -18 -82 2 -5 10 -13 17 -18 17 -18 0 -10 -29 12 -44
48 -34 118 -8 118 43 0 29 -18 42 -82 57 -33 7 -38 39 -8 49 21 7 60 -10 60
-25 0 -6 5 -10 10 -10 22 0 9 41 -16 50 -36 14 -56 12 -82 -6z"/>
<path d="M1140 635 c0 -57 4 -95 10 -95 6 0 10 38 10 95 0 57 -4 95 -10 95 -6
0 -10 -38 -10 -95z"/>
<path d="M1353 720 c-29 -12 -43 -40 -43 -88 0 -50 25 -81 70 -88 27 -4 42 -1
63 16 30 24 35 40 12 40 -8 0 -15 -5 -15 -10 0 -6 -12 -15 -26 -21 -32 -11
-68 8 -77 40 -5 20 -1 21 64 21 67 0 69 1 69 25 0 14 -11 37 -25 50 -25 26
-54 30 -92 15z m79 -34 c18 -27 7 -36 -42 -36 -56 0 -67 17 -28 44 23 16 57
12 70 -8z"/>
<path d="M1532 714 c-16 -11 -22 -24 -20 -42 2 -22 11 -30 51 -43 57 -19 69
-29 57 -48 -12 -20 -70 -18 -82 2 -5 10 -13 17 -18 17 -18 0 -10 -29 12 -44
48 -34 118 -8 118 43 0 29 -18 42 -82 57 -33 7 -38 39 -8 49 21 7 60 -10 60
-25 0 -6 5 -10 10 -10 22 0 9 41 -16 50 -36 14 -56 12 -82 -6z"/>
<path d="M1964 713 c25 -78 66 -168 77 -171 9 -1 24 26 43 80 16 46 31 89 34
96 2 6 -2 12 -10 12 -9 0 -23 -27 -37 -70 -12 -38 -26 -70 -30 -70 -4 0 -17
32 -30 70 -14 46 -27 70 -37 70 -10 0 -13 -6 -10 -17z"/>
<path d="M2193 720 c-29 -12 -43 -40 -43 -88 0 -50 25 -81 70 -88 27 -4 42 -1
63 16 30 24 35 40 12 40 -8 0 -15 -5 -15 -10 0 -6 -12 -15 -26 -21 -32 -11
-68 8 -77 40 -5 20 -1 21 64 21 67 0 69 1 69 25 0 14 -11 37 -25 50 -25 26
-54 30 -92 15z m79 -34 c18 -27 7 -36 -42 -36 -56 0 -67 17 -28 44 23 16 57
12 70 -8z"/>
<path d="M2693 720 c-29 -12 -43 -40 -43 -88 0 -50 25 -81 70 -88 27 -4 42 -1
63 16 30 24 35 40 12 40 -8 0 -15 -5 -15 -10 0 -6 -12 -15 -26 -21 -32 -11
-68 8 -77 40 -5 20 -1 21 64 21 67 0 69 1 69 25 0 14 -11 37 -25 50 -25 26
-54 30 -92 15z m79 -34 c18 -27 7 -36 -42 -36 -56 0 -67 17 -28 44 23 16 57
12 70 -8z"/>
<path d="M2872 714 c-16 -11 -22 -24 -20 -42 2 -22 11 -30 51 -43 57 -19 69
-29 57 -48 -12 -20 -70 -18 -82 2 -5 10 -13 17 -18 17 -18 0 -10 -29 12 -44
48 -34 118 -8 118 43 0 29 -18 42 -82 57 -33 7 -38 39 -8 49 21 7 60 -10 60
-25 0 -6 5 -10 10 -10 22 0 9 41 -16 50 -36 14 -56 12 -82 -6z"/>
<path d="M3040 635 c0 -57 4 -95 10 -95 6 0 10 38 10 95 0 57 -4 95 -10 95 -6
0 -10 -38 -10 -95z"/>
<path d="M3143 715 c-34 -24 -47 -76 -29 -119 19 -45 55 -64 92 -47 33 15 40
8 26 -23 -16 -36 -49 -42 -84 -16 -32 24 -49 19 -32 -8 26 -41 125 -36 139 8
9 27 10 209 1 217 -4 4 -11 1 -15 -6 -7 -10 -13 -10 -29 -2 -28 15 -43 14 -69
-4z m85 -33 c26 -34 8 -108 -28 -112 -52 -7 -77 26 -65 88 9 50 61 63 93 24z"/>
<path d="M3320 635 c0 -57 4 -95 10 -95 6 0 10 24 10 54 0 94 31 133 79 99 18
-12 21 -25 21 -84 0 -39 4 -69 10 -69 12 0 14 149 2 167 -14 21 -60 26 -87 9
-22 -14 -25 -15 -25 -1 0 8 -4 15 -10 15 -6 0 -10 -38 -10 -95z"/>
<path d="M3553 720 c-29 -12 -43 -40 -43 -88 0 -50 25 -81 70 -88 27 -4 42 -1
63 16 30 24 35 40 12 40 -8 0 -15 -5 -15 -10 0 -6 -12 -15 -26 -21 -32 -11
-68 8 -77 40 -5 20 -1 21 64 21 67 0 69 1 69 25 0 14 -11 37 -25 50 -25 26
-54 30 -92 15z m79 -34 c18 -27 7 -36 -42 -36 -56 0 -67 17 -28 44 23 16 57
12 70 -8z"/>
<path d="M4045 719 c-28 -17 -36 -32 -23 -44 7 -7 12 -6 15 3 12 32 86 36 98
5 8 -21 3 -24 -51 -34 -58 -11 -74 -24 -74 -60 0 -46 49 -62 103 -35 23 13 27
13 27 0 0 -8 6 -14 13 -14 9 0 11 21 9 83 -2 45 -7 86 -12 90 -13 15 -84 18
-105 6z m95 -99 c0 -16 -47 -60 -64 -60 -20 0 -48 29 -40 42 15 23 104 39 104
18z"/>
<path d="M4220 635 c0 -57 4 -95 10 -95 6 0 10 24 10 54 0 94 31 133 79 99 18
-12 21 -25 21 -84 0 -39 4 -69 10 -69 12 0 14 149 2 167 -14 21 -60 26 -87 9
-22 -14 -25 -15 -25 -1 0 8 -4 15 -10 15 -6 0 -10 -38 -10 -95z"/>
<path d="M4954 718 c-39 -18 -55 -79 -35 -131 19 -49 116 -60 145 -15 17 27 0
32 -30 9 -29 -23 -60 -21 -81 7 -27 34 -16 42 58 42 l71 0 -6 28 c-14 56 -71
85 -122 60z m83 -35 c19 -24 6 -33 -48 -33 -55 0 -66 17 -27 44 25 18 56 13
75 -11z"/>
<path d="M5127 663 c14 -38 30 -80 35 -95 6 -16 16 -28 22 -28 7 0 29 43 48
96 28 74 33 94 21 92 -9 -2 -26 -33 -42 -77 -28 -80 -24 -81 -62 22 -11 32
-27 57 -34 57 -11 0 -8 -16 12 -67z"/>
<path d="M5334 718 c-39 -18 -55 -79 -35 -131 19 -49 116 -60 145 -15 17 27 0
32 -30 9 -29 -23 -60 -21 -81 7 -27 34 -16 42 58 42 l71 0 -6 28 c-14 56 -71
85 -122 60z m83 -35 c19 -24 6 -33 -48 -33 -55 0 -66 17 -27 44 25 18 56 13
75 -11z"/>
<path d="M5613 720 c-29 -12 -43 -40 -43 -88 0 -51 25 -81 72 -89 32 -5 41 -1
68 25 41 42 42 92 1 133 -30 29 -58 35 -98 19z m85 -38 c13 -17 16 -60 6 -87
-11 -27 -53 -38 -80 -20 -34 22 -34 97 -2 119 25 18 56 13 76 -12z"/>
<path d="M5780 600 c0 -109 2 -130 15 -130 11 0 15 12 15 44 l0 44 30 -11 c25
-10 34 -8 57 9 54 40 53 124 -3 160 -22 15 -31 16 -57 6 -21 -8 -33 -9 -35 -2
-2 5 -8 10 -13 10 -5 0 -9 -58 -9 -130z m110 90 c54 -54 -4 -157 -62 -111 -31
26 -31 87 1 112 29 24 36 24 61 -1z"/>
<path d="M6014 718 c-39 -18 -55 -79 -35 -131 19 -49 116 -60 145 -15 17 27 0
32 -30 9 -29 -23 -60 -21 -81 7 -27 34 -16 42 58 42 l71 0 -6 28 c-14 56 -71
85 -122 60z m83 -35 c19 -24 6 -33 -48 -33 -55 0 -66 17 -27 44 25 18 56 13
75 -11z"/>
<path d="M6613 720 c-29 -12 -43 -40 -43 -88 0 -51 25 -81 72 -89 32 -5 41 -1
68 25 41 42 42 92 1 133 -30 29 -58 35 -98 19z m85 -38 c13 -17 16 -60 6 -87
-11 -27 -53 -38 -80 -20 -34 22 -34 97 -2 119 25 18 56 13 76 -12z"/>
<path d="M6780 635 c0 -78 3 -95 15 -95 12 0 15 15 15 75 0 61 3 76 18 83 9 5
23 7 30 5 6 -3 12 2 12 11 0 19 -31 21 -49 4 -11 -10 -14 -10 -18 0 -13 36
-23 1 -23 -83z"/>
<path d="M7452 720 c-24 -10 -39 -36 -27 -48 3 -4 13 2 21 12 15 21 68 26 86
8 21 -21 0 -39 -52 -46 -40 -5 -53 -12 -62 -31 -22 -49 27 -89 85 -67 21 8 35
8 41 2 21 -21 26 -8 26 65 0 62 -4 79 -20 95 -21 21 -60 25 -98 10z m88 -99
c0 -40 -47 -69 -81 -50 -27 14 -20 41 11 50 37 10 70 10 70 0z"/>
<path d="M7620 635 c0 -78 3 -95 15 -95 12 0 15 14 15 70 0 63 2 71 24 85 19
13 29 14 45 5 18 -9 21 -20 21 -85 0 -60 3 -75 15 -75 12 0 15 15 15 75 0 62
-4 79 -20 95 -24 24 -57 26 -88 4 -20 -14 -22 -14 -22 0 0 9 -4 16 -10 16 -6
0 -10 -38 -10 -95z"/>
<path d="M7952 720 c-24 -10 -39 -36 -27 -48 3 -4 13 2 21 12 15 21 68 26 86
8 21 -21 0 -39 -52 -46 -40 -5 -53 -12 -62 -31 -22 -49 27 -89 85 -67 21 8 35
8 41 2 21 -21 26 -8 26 65 0 62 -4 79 -20 95 -21 21 -60 25 -98 10z m88 -99
c0 -40 -47 -69 -81 -50 -27 14 -20 41 11 50 37 10 70 10 70 0z"/>
<path d="M8254 718 c-59 -28 -57 -140 3 -167 37 -17 62 -13 90 15 20 20 23 28
14 37 -9 9 -15 8 -22 -5 -33 -58 -99 -36 -99 32 0 38 26 80 49 80 4 0 20 -9
34 -20 30 -24 37 -25 37 -6 0 19 -39 46 -65 45 -11 0 -30 -5 -41 -11z"/>
<path d="M8433 720 c-29 -12 -43 -40 -43 -88 0 -51 25 -81 72 -89 32 -5 41 -1
68 25 41 42 42 92 1 133 -30 29 -58 35 -98 19z m85 -38 c13 -17 16 -60 6 -87
-11 -27 -53 -38 -80 -20 -34 22 -34 97 -2 119 25 18 56 13 76 -12z"/>
<path d="M8600 635 c0 -78 3 -95 15 -95 12 0 15 14 15 70 0 63 2 71 25 86 41
27 55 6 55 -82 0 -59 3 -74 15 -74 12 0 15 14 15 70 0 63 2 71 25 86 41 27 55
6 55 -82 0 -59 3 -74 15 -74 24 0 21 151 -3 173 -23 21 -51 22 -79 2 -18 -13
-22 -13 -33 0 -15 18 -43 19 -73 4 -16 -9 -22 -9 -25 0 -2 6 -8 11 -13 11 -5
0 -9 -43 -9 -95z"/>
<path d="M8900 600 c0 -109 2 -130 15 -130 11 0 15 12 15 45 0 42 2 45 19 35
31 -16 51 -12 82 19 67 68 6 190 -77 152 -15 -6 -24 -7 -24 -1 0 6 -7 10 -15
10 -13 0 -15 -21 -15 -130z m110 90 c12 -12 20 -33 20 -55 0 -33 -27 -75 -49
-75 -26 0 -53 38 -53 75 0 28 6 44 22 57 28 23 35 23 60 -2z"/>
<path d="M9132 720 c-22 -10 -39 -36 -29 -46 3 -3 19 4 36 17 26 19 34 21 56
11 33 -15 30 -46 -5 -50 -58 -7 -90 -24 -97 -49 -11 -46 50 -78 99 -52 14 8
23 8 31 0 26 -26 32 -10 27 70 -4 65 -9 83 -24 95 -22 16 -60 17 -94 4z m86
-112 c-4 -31 -50 -53 -78 -38 -43 23 -9 56 58 59 19 1 23 -4 20 -21z"/>
<path d="M9300 635 c0 -78 3 -95 15 -95 12 0 15 14 15 70 0 63 2 71 24 85 19
13 29 14 45 5 18 -9 21 -20 21 -85 0 -60 3 -75 15 -75 12 0 15 15 15 75 0 62
-4 79 -20 95 -23 23 -51 25 -83 9 -16 -9 -22 -9 -25 0 -2 6 -8 11 -13 11 -5 0
-9 -43 -9 -95z"/>
<path d="M9500 635 c0 -78 3 -95 15 -95 12 0 15 17 15 95 0 78 -3 95 -15 95
-12 0 -15 -17 -15 -95z"/>
<path d="M9599 701 c-21 -22 -29 -39 -29 -66 0 -42 44 -95 79 -95 31 0 71 18
77 35 10 26 -3 29 -32 6 -29 -23 -60 -21 -81 7 -27 34 -16 42 57 42 75 0 81 5
59 53 -24 52 -87 60 -130 18z m91 -9 c13 -11 20 -24 16 -30 -7 -12 -88 -17
-99 -6 -10 10 5 35 27 44 30 12 31 12 56 -8z"/>
<path d="M9804 720 c-55 -22 -32 -78 40 -98 49 -13 60 -34 27 -52 -28 -14 -38
-13 -61 10 -25 25 -45 18 -30 -10 24 -44 124 -33 136 15 8 33 -4 46 -63 66
-54 18 -63 33 -32 49 18 10 26 8 50 -9 33 -25 39 -26 39 -7 0 34 -60 55 -106
36z"/>
<path d="M2470 280 c0 -109 2 -130 15 -130 12 0 15 14 15 70 0 63 2 71 24 85
19 13 29 14 45 5 18 -9 21 -20 21 -85 0 -60 3 -75 15 -75 12 0 15 15 15 75 0
62 -4 79 -20 95 -22 22 -51 26 -81 10 -17 -10 -19 -7 -19 35 0 33 -4 45 -15
45 -13 0 -15 -21 -15 -130z"/>
<path d="M3770 280 c0 -109 2 -130 15 -130 13 0 15 21 15 130 0 109 -2 130
-15 130 -13 0 -15 -21 -15 -130z"/>
<path d="M4270 366 c0 -44 0 -44 -27 -34 -55 20 -103 -20 -103 -87 0 -63 56
-109 105 -87 16 7 25 8 25 2 0 -6 7 -10 15 -10 13 0 15 21 15 130 0 109 -2
130 -15 130 -11 0 -15 -12 -15 -44z m-22 -62 c17 -12 22 -25 22 -59 0 -34 -5
-47 -22 -59 -29 -20 -34 -20 -58 4 -29 29 -27 94 2 114 12 9 25 16 28 16 3 0
16 -7 28 -16z"/>
<path d="M4450 390 c0 -11 7 -20 15 -20 8 0 15 9 15 20 0 11 -7 20 -15 20 -8
0 -15 -9 -15 -20z"/>
<path d="M5750 280 c0 -109 2 -130 15 -130 13 0 15 21 15 130 0 109 -2 130
-15 130 -13 0 -15 -21 -15 -130z"/>
<path d="M6410 280 c0 -109 2 -130 15 -130 13 0 15 21 15 130 0 109 -2 130
-15 130 -13 0 -15 -21 -15 -130z"/>
<path d="M6590 280 c0 -109 2 -130 15 -130 8 0 15 5 15 10 0 7 6 7 19 0 31
-16 51 -12 82 19 68 68 0 195 -80 151 -20 -10 -21 -8 -21 35 0 33 -4 45 -15
45 -13 0 -15 -21 -15 -130z m110 20 c12 -12 20 -33 20 -55 0 -22 -8 -43 -20
-55 -24 -24 -29 -24 -58 -4 -17 12 -22 25 -22 59 0 34 5 47 22 59 29 20 34 20
58 -4z"/>
<path d="M7170 390 c0 -11 7 -20 15 -20 8 0 15 9 15 20 0 11 -7 20 -15 20 -8
0 -15 -9 -15 -20z"/>
<path d="M2380 365 c0 -16 -6 -25 -15 -25 -8 0 -15 -4 -15 -9 0 -5 7 -11 15
-15 11 -4 15 -23 15 -80 0 -75 6 -86 46 -86 21 0 17 18 -6 25 -17 5 -20 15
-20 71 0 48 4 66 15 70 8 4 15 10 15 15 0 5 -7 9 -15 9 -9 0 -15 9 -15 25 0
14 -4 25 -10 25 -5 0 -10 -11 -10 -25z"/>
<path d="M2880 365 c0 -16 -6 -25 -15 -25 -8 0 -15 -4 -15 -9 0 -5 7 -11 15
-15 11 -4 15 -23 15 -80 0 -73 1 -76 25 -82 34 -8 44 3 18 21 -31 22 -30 145
2 145 8 0 15 5 15 10 0 6 -9 10 -20 10 -11 0 -19 3 -19 8 1 4 1 15 0 25 -2 27
-21 20 -21 -8z"/>
<path d="M3860 365 c0 -16 -6 -25 -15 -25 -8 0 -15 -4 -15 -9 0 -5 7 -11 15
-15 11 -4 15 -23 15 -80 0 -73 1 -76 25 -82 34 -8 44 3 18 21 -31 22 -30 145
2 145 8 0 15 5 15 10 0 6 -9 10 -20 10 -11 0 -19 3 -19 8 1 4 1 15 0 25 -2 27
-21 20 -21 -8z"/>
<path d="M2702 330 c-22 -10 -39 -36 -29 -46 3 -3 19 4 36 17 26 19 34 21 56
11 33 -15 30 -46 -5 -50 -58 -7 -90 -24 -97 -49 -4 -20 -1 -31 17 -45 26 -21
49 -23 86 -6 22 10 28 10 32 0 2 -6 9 -12 15 -12 9 0 11 24 9 80 -3 68 -7 82
-25 95 -24 17 -60 18 -95 5z m86 -112 c-4 -31 -50 -53 -78 -38 -43 23 -9 56
58 59 19 1 23 -4 20 -21z"/>
<path d="M3070 245 c0 -78 3 -95 15 -95 12 0 15 14 15 69 0 72 16 106 44 95 8
-3 17 -1 21 5 10 17 -26 25 -48 11 -15 -9 -22 -10 -25 -1 -2 6 -8 11 -13 11
-5 0 -9 -43 -9 -95z"/>
<path d="M3209 311 c-21 -22 -29 -39 -29 -66 0 -42 44 -95 79 -95 31 0 71 18
77 35 10 26 -3 29 -32 6 -29 -23 -60 -21 -81 7 -27 34 -16 42 57 42 64 0 70 2
70 21 0 30 -53 79 -85 79 -16 0 -38 -12 -56 -29z m89 -7 c39 -27 28 -44 -27
-44 -58 0 -70 11 -41 40 24 24 38 25 68 4z"/>
<path d="M3414 330 c-55 -22 -32 -78 40 -98 49 -13 60 -34 27 -52 -28 -14 -38
-13 -62 11 -14 14 -24 18 -31 11 -14 -14 26 -52 56 -52 43 0 75 18 82 45 8 33
-4 46 -63 66 -54 18 -63 33 -32 49 18 10 26 8 50 -9 33 -25 39 -26 39 -7 0 34
-60 55 -106 36z"/>
<path d="M3570 265 c0 -62 4 -79 20 -95 24 -24 48 -25 78 -4 20 14 22 14 22 0
0 -9 7 -16 15 -16 12 0 15 17 15 95 0 78 -3 95 -15 95 -12 0 -15 -14 -15 -70
0 -63 -2 -71 -24 -85 -19 -13 -29 -14 -45 -5 -18 9 -21 20 -21 85 0 60 -3 75
-15 75 -12 0 -15 -15 -15 -75z"/>
<path d="M3969 311 c-21 -22 -29 -39 -29 -66 0 -42 44 -95 79 -95 31 0 71 18
77 35 10 26 -3 29 -32 6 -29 -23 -60 -21 -81 7 -27 34 -16 42 57 42 64 0 70 2
70 21 0 30 -53 79 -85 79 -16 0 -38 -12 -56 -29z m89 -7 c39 -27 28 -44 -27
-44 -58 0 -70 11 -41 40 24 24 38 25 68 4z"/>
<path d="M4450 245 c0 -78 3 -95 15 -95 12 0 15 17 15 95 0 78 -3 95 -15 95
-12 0 -15 -17 -15 -95z"/>
<path d="M4530 245 c0 -78 3 -95 15 -95 12 0 15 14 15 70 0 63 2 71 24 85 19
13 29 14 45 5 18 -9 21 -20 21 -85 0 -60 3 -75 15 -75 12 0 15 15 15 75 0 62
-4 79 -20 95 -23 23 -51 25 -83 9 -16 -9 -22 -9 -25 0 -2 6 -8 11 -13 11 -5 0
-9 -43 -9 -95z"/>
<path d="M4830 245 c0 -78 3 -95 15 -95 12 0 15 14 15 70 0 63 2 71 25 86 41
27 55 6 55 -82 0 -59 3 -74 15 -74 12 0 15 14 15 70 0 63 2 71 25 86 41 27 55
6 55 -82 0 -59 3 -74 15 -74 24 0 21 151 -3 173 -23 21 -51 22 -79 2 -18 -13
-22 -13 -33 0 -15 18 -43 19 -73 4 -16 -9 -22 -9 -25 0 -2 6 -8 11 -13 11 -5
0 -9 -43 -9 -95z"/>
<path d="M5158 325 c-44 -24 -51 -111 -12 -149 54 -55 144 -11 144 69 0 75
-66 115 -132 80z m90 -33 c6 -9 12 -30 12 -47 0 -36 -16 -60 -47 -70 -32 -9
-63 26 -63 70 0 65 60 94 98 47z"/>
<path d="M5330 245 c0 -78 3 -95 15 -95 12 0 15 14 15 69 0 72 16 106 44 95 8
-3 17 -1 21 5 10 17 -26 25 -48 11 -15 -9 -22 -10 -25 -1 -2 6 -8 11 -13 11
-5 0 -9 -43 -9 -95z"/>
<path d="M5469 311 c-21 -22 -29 -39 -29 -66 0 -42 44 -95 79 -95 31 0 71 18
77 35 10 26 -3 29 -32 6 -29 -23 -60 -21 -81 7 -27 34 -16 42 57 42 64 0 70 2
70 21 0 30 -53 79 -85 79 -16 0 -38 -12 -56 -29z m89 -7 c39 -27 28 -44 -27
-44 -58 0 -70 11 -41 40 24 24 38 25 68 4z"/>
<path d="M5858 325 c-44 -24 -51 -111 -12 -149 54 -55 144 -11 144 69 0 75
-66 115 -132 80z m90 -33 c6 -9 12 -30 12 -47 0 -36 -16 -60 -47 -70 -32 -9
-63 26 -63 70 0 65 60 94 98 47z"/>
<path d="M6063 328 c-22 -11 -43 -54 -43 -89 0 -48 42 -89 91 -89 29 0 75 48
60 63 -11 11 -21 4 -33 -24 -8 -19 -48 -19 -67 0 -40 40 -16 131 34 131 8 0
23 -9 32 -20 20 -24 33 -26 33 -6 0 19 -39 46 -65 45 -11 0 -30 -5 -42 -11z"/>
<path d="M6242 330 c-22 -10 -39 -36 -29 -46 3 -3 19 4 36 17 26 19 34 21 56
11 33 -15 30 -46 -5 -50 -58 -7 -90 -24 -97 -49 -4 -20 -1 -31 17 -45 26 -21
49 -23 86 -6 22 10 28 10 32 0 2 -6 9 -12 15 -12 9 0 11 24 9 80 -3 68 -7 82
-25 95 -24 17 -60 18 -95 5z m86 -112 c-4 -31 -50 -53 -78 -38 -43 23 -9 56
58 59 19 1 23 -4 20 -21z"/>
<path d="M6790 265 c0 -62 4 -79 20 -95 24 -24 48 -25 78 -4 20 14 22 14 22 0
0 -9 7 -16 15 -16 12 0 15 17 15 95 0 78 -3 95 -15 95 -12 0 -15 -14 -15 -70
0 -63 -2 -71 -24 -85 -19 -13 -29 -14 -45 -5 -18 9 -21 20 -21 85 0 60 -3 75
-15 75 -12 0 -15 -15 -15 -75z"/>
<path d="M7014 330 c-55 -22 -32 -78 40 -98 49 -13 60 -34 27 -52 -28 -14 -38
-13 -62 11 -14 14 -24 18 -31 11 -14 -14 26 -52 56 -52 43 0 75 18 82 45 8 33
-4 46 -63 66 -54 18 -63 33 -32 49 18 10 26 8 50 -9 33 -25 39 -26 39 -7 0 34
-60 55 -106 36z"/>
<path d="M7170 245 c0 -78 3 -95 15 -95 12 0 15 17 15 95 0 78 -3 95 -15 95
-12 0 -15 -17 -15 -95z"/>
<path d="M7250 245 c0 -78 3 -95 15 -95 12 0 15 14 15 70 0 63 2 71 24 85 19
13 29 14 45 5 18 -9 21 -20 21 -85 0 -60 3 -75 15 -75 12 0 15 15 15 75 0 62
-4 79 -20 95 -23 23 -51 25 -83 9 -16 -9 -22 -9 -25 0 -2 6 -8 11 -13 11 -5 0
-9 -43 -9 -95z"/>
<path d="M7487 329 c-27 -16 -48 -72 -41 -109 8 -37 47 -70 84 -70 27 0 80 33
80 51 0 14 -28 11 -37 -5 -16 -28 -51 -29 -78 -2 -39 39 -32 46 45 46 67 0 70
1 70 24 0 53 -77 93 -123 65z m71 -25 c39 -27 28 -44 -28 -44 -42 0 -50 3 -50
18 0 11 10 24 23 30 30 14 29 14 55 -4z"/>
<path d="M7672 324 c-16 -11 -22 -24 -20 -42 2 -23 11 -30 53 -44 56 -18 74
-51 34 -61 -25 -7 -69 8 -69 23 0 5 -4 10 -10 10 -18 0 -10 -29 12 -44 46 -32
118 -8 118 39 0 28 -28 50 -77 60 -41 8 -51 24 -28 42 26 18 42 16 65 -7 24
-24 30 -25 30 -6 0 19 -38 46 -65 46 -11 0 -31 -7 -43 -16z"/>
<path d="M7852 324 c-16 -11 -22 -24 -20 -42 2 -23 11 -30 53 -44 56 -18 74
-51 34 -61 -25 -7 -69 8 -69 23 0 5 -4 10 -10 10 -18 0 -10 -29 12 -44 46 -32
118 -8 118 39 0 28 -28 50 -77 60 -41 8 -51 24 -28 42 26 18 42 16 65 -7 24
-24 30 -25 30 -6 0 19 -38 46 -65 46 -11 0 -31 -7 -43 -16z"/>
</g>
</svg>
